<?xml version="1.0" encoding="utf-8"?>
<!-- Generator: Adobe Illustrator 25.2.1, SVG Export Plug-In . SVG Version: 6.00 Build 0)  -->
<svg version="1.1" id="Layer_1" xmlns="http://www.w3.org/2000/svg" xmlns:xlink="http://www.w3.org/1999/xlink" x="0px" y="0px"
	 viewBox="0 0 66.2 66.2" style="enable-background:new 0 0 66.2 66.2;" xml:space="preserve">
<style type="text/css">
	.st0{fill:#3333FF;}
</style>
<g id="C5HTnm.tif">
	<g>
		<path class="st0" d="M33.2,61.6c-7.7,0-15.5,0-23.2,0c-2.2,0-2.5-0.3-2.4-2.6c0.6-11.6,1.3-23.2,1.9-34.9c0-0.7,0.2-1.3,0.6-1.9
			c0.8-1.2,1.6-2.5,2.4-3.7c0.2-0.3,0.5-0.8,0.8-0.9c1.5-0.2,1.2-1.1,1.1-2.1c-0.2-1.3-0.3-2.5-0.5-3.8c-0.1-1,0.3-1.5,1.3-1.6
			c3.2-0.3,6.5-0.7,9.8-1.1c0.6-0.1,1.1-0.2,1.5-0.7c4.4-4.9,12.9-3.3,14.9,2.7c0.2,0.7,0.8,0.8,1.3,0.9c2.4,0.5,4.8,1.1,7.2,1.6
			c1.3,0.2,1.7,0.8,1.3,2.1c-0.3,1-0.5,1.9,1.1,1.7c0.6-0.1,1.1,0.4,1.4,0.9c0.9,1.4,1.8,2.8,2.7,4.1c0.3,0.5,0.4,1,0.4,1.5
			c0.6,10.6,1.1,21.2,1.7,31.7c0.1,1.2,0.2,2.4,0.2,3.5c0.1,1.8-0.3,2.2-2.2,2.2c-1.5,0-3,0-4.5,0C45.8,61.6,39.5,61.6,33.2,61.6z
			 M33.1,58.9c7.1,0,14.3,0,21.4,0c1.1,0,1.4-0.3,1.3-1.4c-0.2-3-0.3-5.9-0.5-8.9c-0.4-7.5-0.9-15.1-1.3-22.6c0-0.9-0.3-1.2-1.3-1.2
			c-13.1,0-26.2,0-39.3,0c-0.9,0-1.2,0.2-1.2,1.1c-0.1,2.7-0.3,5.4-0.5,8c-0.4,7.8-0.8,15.6-1.3,23.4c-0.1,1.3,0.3,1.5,1.5,1.5
			C19,58.8,26,58.9,33.1,58.9z M19.6,22.2c2.3,0,2.3,0,1.9-2.2c-0.2-1.1,0.1-1.7,1.2-1.9c2.6-0.5,5.1-1.2,7.7-1.7
			c0.7-0.2,1.1-0.4,0.9-1.3c-0.2-1.1-0.3-2.2-0.4-3.4c-0.1-0.9-0.5-1.2-1.4-1.1c-4.1,0.5-8.2,0.9-12.3,1.4c-1,0.1-1.2,0.5-1,1.4
			c0.4,2.5,0.7,5,1,7.6c0.1,0.9,0.4,1.3,1.4,1.2C18.9,22.2,19.3,22.2,19.6,22.2z M44.5,22.2c0.7,0,1.4,0,2,0c0.6,0,0.9-0.2,1-0.8
			c0.4-1.7,0.8-3.3,1.2-5c0.1-0.5,0.1-0.8-0.5-1c-3.4-0.7-6.8-1.5-10.2-2.2c-0.4-0.1-0.7-0.1-0.8,0.3s-0.3,0.8-0.2,1.2
			c0.1,0.3,0.6,0.1,0.8,0c1.1-0.3,1.7,0.2,1.9,1.3c0.2,1.1,0.6,2.2,0.8,3.3C41.5,22.2,41.5,22.2,44.5,22.2z M31.7,22.2
			c2.2,0,4.4,0,6.5,0c0.8,0,1.1-0.2,0.8-1c-0.3-1.1-0.6-2.2-0.8-3.3c-0.2-0.9-0.5-1-1.4-0.8c-3.9,0.9-7.8,1.7-11.7,2.6
			c-0.4,0.1-1.4-0.1-1.2,0.9c0.2,0.8,0.2,1.7,1.5,1.6C27.5,22.1,29.6,22.2,31.7,22.2z M30,8.6c0.4,0,0.6,0,0.9-0.1
			c1.3-0.3,2,0.2,2.1,1.6c0.1,1.2,0.2,2.4,0.4,3.5c0.1,0.7-0.1,1.8,0.6,1.9c1,0.1,0.8-1.1,1-1.8c0.8-3,0.3-3.3,3.7-2.5
			c0.1,0,0.1-0.1,0.2-0.1C37.6,7.6,32.1,6.7,30,8.6z M51.1,22.2c0.4-0.3,1.4,0.4,1.4-0.5c0-0.6-0.5-1.6-1.5-1.6
			c-1.1-0.1-1.1,0.8-1.2,1.4C49.7,22.6,50.6,22,51.1,22.2z M14.8,20.4c-0.4,0.5-1.1,0.9-0.9,1.6c0.1,0.3,0.7,0.3,1,0.1
			C15.6,21.6,14.9,21,14.8,20.4z"/>
		<path class="st0" d="M39.6,34.2c0.1-1.2,0-2.3-1.2-3.2c-1.3-1-1-2.9,0.2-4c1.3-1.1,3.3-1,4.5,0.2c1,1.2,1,3.1-0.3,4
			c-0.9,0.6-1,1.3-1,2.2c0,1.4,0.1,2.7-0.3,4.1c-1.1,3.8-5.3,6.4-9.3,5.8c-4.5-0.6-7.6-3.9-7.7-8.2c0-0.6,0-1.2,0-1.8
			c0.1-0.9-0.1-1.6-1-2.1c-1.3-0.9-1.3-2.7-0.4-3.9c1.1-1.3,3.2-1.5,4.5-0.3c1.2,1.1,1.5,2.9,0.2,3.9c-1.9,1.4-1.2,3.1-1.2,4.8
			c0,1.7,0.8,3.1,2.1,4.1c2.2,1.7,4.6,2,7.2,0.8C38.8,39.4,39.9,37.1,39.6,34.2z M24.7,29.3c0.5-0.1,0.9-0.3,1.3-0.1
			c0.2,0.1,0.5,0.1,0.4-0.2c0-0.2-0.2-0.4-0.4-0.5C25.4,28.2,24.9,28.4,24.7,29.3z M41.8,29.3c-0.9-1.3-1.3-1.3-1.8-0.2
			C40.5,29.1,41,29.1,41.8,29.3z"/>
	</g>
</g>
</svg>
