<?xml version="1.0" encoding="utf-8"?>
<!-- Generator: Adobe Illustrator 25.2.1, SVG Export Plug-In . SVG Version: 6.00 Build 0)  -->
<svg version="1.1" id="Layer_1" xmlns="http://www.w3.org/2000/svg" xmlns:xlink="http://www.w3.org/1999/xlink" x="0px" y="0px"
	 viewBox="0 0 381 230" style="enable-background:new 0 0 381 230;" xml:space="preserve">
<style type="text/css">
	.st0{fill:url(#Rectangle_7-2_1_);}
	.st1{fill:none;}
	.st2{opacity:0.19;fill:#FFFFFF;enable-background:new    ;}
	.st3{fill:url(#Rectangle_8_1_);}
	.st4{opacity:0.48;}
	.st5{fill:url(#Path_30_1_);}
	.st6{opacity:0.35;fill:#FFFFFF;enable-background:new    ;}
	.st7{fill:url(#Path_32_1_);}
	.st8{opacity:0.61;fill:#FFFFFF;enable-background:new    ;}
	.st9{fill:#856400;}
	.st10{opacity:0.31;}
	.st11{clip-path:url(#SVGID_2_);}
	.st12{opacity:0.1;fill:url(#Path_36_1_);enable-background:new    ;}
	.st13{opacity:0.11;fill:url(#Path_37_1_);enable-background:new    ;}
	.st14{fill:#FFFFFF;}
</style>
<g id="Group_402" transform="translate(-6 -188)">
	<g transform="matrix(1, 0, 0, 1, 6, 188)">
		<linearGradient id="Rectangle_7-2_1_" gradientUnits="userSpaceOnUse" x1="18.0349" y1="154.4741" x2="371.8847" y2="73.4844">
			<stop  offset="0" style="stop-color:#3399FF"/>
			<stop  offset="1" style="stop-color:#330099"/>
		</linearGradient>
		<path id="Rectangle_7-2" class="st0" d="M23,9h335c7.7,0,14,6.3,14,14v184c0,7.7-6.3,14-14,14H23c-7.7,0-14-6.3-14-14V23
			C9,15.3,15.3,9,23,9z"/>
	</g>
	<g>
		<path class="st1" d="M377,341c-54.7,0-99-44.3-99-99c0-16.2,3.9-31.5,10.8-45h-98.8c0,0.3,0,0.7,0,1c0,39.9-23.6,74.3-57.6,90
			c1.1,5.8,1.6,11.9,1.6,18c0,54.7-44.3,99-99,99c-6.9,0-13.5-0.7-20-2v6h214.6c-3.6-6.5-5.6-14-5.6-22c0-25.4,20.6-46,46-46
			s46,20.6,46,46c0,8-2,15.5-5.6,22H378v-68C377.8,341,377.3,341,377,341z"/>
		<path class="st1" d="M278,242c0,54.7,44.3,99,99,99C322.4,341,278,296.6,278,242z"/>
		<path class="st1" d="M288.8,197L288.8,197c-6.9,13.5-10.8,28.8-10.8,45C278,225.8,281.9,210.5,288.8,197z"/>
		<path class="st1" d="M378,341L378,341c-0.3,0-0.7,0-1,0C377.3,341,377.8,341,378,341z"/>
		<path class="st1" d="M377,321c0.3,0,0.7,0,1,0V197h-65.9c-8.9,12.8-14.1,28.3-14.1,45C298,285.6,333.4,321,377,321z"/>
		<path class="st2" d="M377,341c0.3,0,0.7,0,1,0v-20c-0.3,0-0.7,0-1,0c-43.6,0-79-35.4-79-79c0-16.7,5.2-32.2,14.1-45h-23.3
			c-6.9,13.5-10.8,28.8-10.8,45C278,296.6,322.4,341,377,341z"/>
		<path class="st1" d="M134.1,306c0-6.2-0.6-12.2-1.6-18l0,0C133.4,293.8,134.1,299.8,134.1,306z"/>
		<path class="st1" d="M124.1,306c0-4.8-0.4-9.6-1.1-14.2c-10,3.4-20.7,5.2-31.9,5.2c-30.5,0-57.8-13.8-76-35.6v131.3
			c6.4,1.5,13.1,2.3,20,2.3C84.1,395,124.1,355.1,124.1,306z"/>
		<path class="st1" d="M15,403L15,403c6.5,1.3,13.1,2,20,2C28.2,405,21.5,404.3,15,403z"/>
		<path class="st1" d="M35,405c54.7,0,99-44.3,99-99C134.1,360.6,89.6,405,35,405z"/>
		<path class="st2" d="M134.1,306c0-6.2-0.6-12.2-1.7-18c-3.1,1.4-6.2,2.7-9.5,3.8c0.7,4.6,1.1,9.4,1.1,14.2c0,49.1-39.9,89-89,89
			c-6.9,0-13.6-0.8-20-2.3V403c6.5,1.3,13.2,2,20,2C89.6,405,134.1,360.6,134.1,306z"/>
		<path class="st1" d="M229.7,409L229.7,409c-3.6-6.5-5.6-14-5.6-22C224.1,395,226.1,402.5,229.7,409z"/>
		<path class="st1" d="M316,387c0-25.4-20.6-46-46-46C295.4,341,316,361.6,316,387z"/>
		<path class="st1" d="M310.4,409L310.4,409c3.6-6.5,5.6-14,5.6-22C316,395,314,402.5,310.4,409z"/>
		<path class="st1" d="M270,351c-19.9,0-36,16.1-36,36c0,8.3,2.8,15.9,7.5,22h56.9c4.7-6.1,7.5-13.7,7.5-22
			C306,367.1,289.9,351,270,351z"/>
		<path class="st1" d="M270,341c-25.4,0-46,20.6-46,46C224.1,361.6,244.7,341,270,341z"/>
		<path class="st2" d="M270,341c-25.4,0-46,20.6-46,46c0,8,2,15.5,5.6,22h11.9c-4.7-6.1-7.5-13.7-7.5-22c0-19.9,16.1-36,36-36
			s36,16.1,36,36c0,8.3-2.8,15.9-7.5,22h11.9c3.6-6.5,5.6-14,5.6-22C316,361.6,295.4,341,270,341z"/>
		<path class="st1" d="M132.4,287.9C132.4,287.9,132.4,288,132.4,287.9c34-15.6,57.6-50,57.6-89.9
			C190.1,237.8,166.4,272.2,132.4,287.9z"/>
		<path class="st1" d="M126.6,268.5c25.7-13,43.4-39.7,43.4-70.5c0-0.3,0-0.7,0-1H15v12c6.5-1.3,13.1-2,20-2
			C76.4,207,111.9,232.4,126.6,268.5z"/>
		<path class="st1" d="M190.1,197L190.1,197c0,0.3,0,0.7,0,1C190.1,197.7,190.1,197.3,190.1,197z"/>
		<path class="st1" d="M91.1,297c11.1,0,21.9-1.8,31.9-5.2l0,0C112.9,295.1,102.1,297,91.1,297z"/>
		<path class="st1" d="M35,207c41.3,0,76.8,25.4,91.6,61.5l0,0C111.9,232.4,76.4,207,35,207z"/>
		<path class="st1" d="M91.1,297c-30.5,0-57.8-13.9-76-35.6v0.1C33.2,283.2,60.5,297,91.1,297z"/>
		<path class="st1" d="M15,209L15,209c6.5-1.3,13.2-2,20-2C28.1,207,21.5,207.7,15,209z"/>
		<path class="st1" d="M132.4,287.9C132.4,288,132.4,288,132.4,287.9C132.4,288,132.4,288,132.4,287.9
			C132.4,288,132.4,287.9,132.4,287.9L132.4,287.9z"/>
		<path class="st1" d="M91.1,277c9.3,0,18.2-1.6,26.4-4.6C104.1,240,72.2,217,35,217c-6.9,0-13.6,0.8-20,2.3v0.2
			C24.4,252.6,55,277,91.1,277z"/>
		<path class="st2" d="M122.9,291.7C122.9,291.7,122.9,291.8,122.9,291.7c3.2-1.1,6.4-2.4,9.5-3.8l0,0
			C129.4,289.4,126.1,290.6,122.9,291.7z"/>
		<path class="st2" d="M117.4,272.4c3.2-1.1,6.2-2.5,9.2-4C111.9,232.4,76.4,207,35,207c-6.8,0-13.5,0.7-20,2v10.2
			c6.4-1.5,13.1-2.3,20-2.3C72.2,217,104.1,240,117.4,272.4z"/>
		<path class="st2" d="M126.6,268.5c2.5,6.2,4.5,12.7,5.7,19.5c34-15.7,57.6-50.1,57.6-89.9c0-0.3,0-0.7,0-1h-20c0,0.3,0,0.7,0,1
			C170.1,228.7,152.4,255.4,126.6,268.5z"/>
		<path class="st2" d="M132.4,287.9c-1.2-6.8-3.2-13.3-5.7-19.5l0,0C129.2,274.7,131.2,281.2,132.4,287.9
			C132.4,287.9,132.4,287.9,132.4,287.9z"/>
		<path class="st2" d="M91.1,297c11.1,0,21.9-1.9,31.9-5.3c-1.1-6.7-2.9-13.2-5.4-19.3c-8.3,2.9-17.2,4.6-26.4,4.6
			c-36.1,0-66.6-24.4-76-57.5v41.9C33.2,283.1,60.5,297,91.1,297z"/>
		<path class="st2" d="M126.6,268.5c-3,1.5-6,2.8-9.2,4c2.5,6.1,4.3,12.6,5.4,19.3c3.2-1.1,6.4-2.4,9.5-3.8
			C131.2,281.2,129.2,274.7,126.6,268.5z"/>
	</g>
	<g id="Group_9" transform="translate(300.214 285.661)">
		
			<linearGradient id="Rectangle_8_1_" gradientUnits="userSpaceOnUse" x1="-1268.5923" y1="31.0355" x2="-1267.2134" y2="30.4815" gradientTransform="matrix(38.944 0 0 28.088 49401.1172 -847.8273)">
			<stop  offset="0" style="stop-color:#F7B261"/>
			<stop  offset="0.244" style="stop-color:#F9CC62"/>
			<stop  offset="0.501" style="stop-color:#FAE163"/>
			<stop  offset="0.754" style="stop-color:#FBED64"/>
			<stop  offset="1" style="stop-color:#FCF265"/>
		</linearGradient>
		<path id="Rectangle_8" class="st3" d="M10.2,3.2h19.6c5.4,0,9.7,4.3,9.7,9.7v8.7c0,5.4-4.3,9.7-9.7,9.7H10.2
			c-5.4,0-9.7-4.3-9.7-9.7v-8.7C0.5,7.5,4.8,3.2,10.2,3.2z"/>
		<g id="Group_5" transform="translate(0.468 0.173)" class="st4">
			
				<linearGradient id="Path_30_1_" gradientUnits="userSpaceOnUse" x1="-1253.0242" y1="43.0088" x2="-1250.3732" y2="42.2328" gradientTransform="matrix(20.259 0 0 20.048 25382.709 -847.9977)">
				<stop  offset="0" style="stop-color:#F7B261"/>
				<stop  offset="0.244" style="stop-color:#F9CC62"/>
				<stop  offset="0.501" style="stop-color:#FAE163"/>
				<stop  offset="0.754" style="stop-color:#FBED64"/>
				<stop  offset="1" style="stop-color:#FCF265"/>
			</linearGradient>
			<path id="Path_30" class="st5" d="M20.3,3H4.6C2.1,3,0,5.1,0,7.6l0,0V23l0.2-8.8L20.3,3z"/>
			<path id="Path_31" class="st6" d="M38.9,7.6C38.9,5,36.8,3,34.3,3l0,0h-14L0.2,14.2L0,23v3.4c0,1.7,0.9,3.3,2.5,4.1L39,10.1
				L38.9,7.6z"/>
			
				<linearGradient id="Path_32_1_" gradientUnits="userSpaceOnUse" x1="-1262.7352" y1="56.2614" x2="-1260.7931" y2="55.2543" gradientTransform="matrix(27.676 0 0 15.455 34942.3555 -835.3665)">
				<stop  offset="0" style="stop-color:#F7B261"/>
				<stop  offset="0.244" style="stop-color:#F9CC62"/>
				<stop  offset="0.501" style="stop-color:#FAE163"/>
				<stop  offset="0.754" style="stop-color:#FBED64"/>
				<stop  offset="1" style="stop-color:#FCF265"/>
			</linearGradient>
			<path id="Path_32" class="st7" d="M25.4,31.1L39,23.5v-0.1v-7.8L11.3,31.1H25.4z"/>
			<path id="Path_33" class="st6" d="M25.4,31.1L39,23.5v-0.1v-7.8L11.3,31.1H25.4z"/>
		</g>
		<path id="Path_34" class="st8" d="M33.7,3.3H5.6C2.5,3.3,0,5.3,0,7.7v19.5c0,2.5,2.5,4.4,5.6,4.4h28.1c3.1,0,5.6-2,5.6-4.4V7.7
			C39.3,5.3,36.8,3.3,33.7,3.3z M0.3,7.7c0-2.3,2.3-4.1,5.2-4.1h13V5c-0.1,0-0.1,0-0.2,0c-0.2,0-0.4,0.1-0.6,0.1
			c-0.1,0-0.2,0.1-0.3,0.1c-0.2,0.1-0.3,0.1-0.5,0.2c-0.1,0-0.1,0-0.2,0.1c-0.2,0.1-0.4,0.2-0.6,0.3c-0.1,0-0.2,0.1-0.2,0.1
			C15.8,6,15.7,6,15.6,6.1c-0.1,0-0.1,0.1-0.2,0.1c-0.1,0.1-0.3,0.2-0.4,0.3h-0.1c-0.1,0.1-0.2,0.2-0.4,0.3l0,0
			c-0.1,0.1-0.2,0.2-0.3,0.4v0.1c-0.2,0.3-0.4,0.6-0.6,0.9c0,0,0,0.1-0.1,0.1v0.1c0,0.1-0.1,0.2-0.1,0.3s-0.1,0.1-0.1,0.2V9h-13V7.7
			z M0.3,9.3H13c0,0.1,0,0.1,0,0.1c0,0.2-0.1,0.3-0.1,0.5c0,0.1,0,0.1,0,0.2c0,0.2-0.1,0.5-0.1,0.7l0,0l0,0l0,0
			c0,1.2,0.4,2.4,1.2,3.4c0.1,0.1,0.2,0.3,0.2,0.4H0.3V9.3z M0.3,15h14.1c0.1,0.2,0.2,0.4,0.3,0.6c0,0.1,0,0.1,0.1,0.2
			c0.1,0.2,0.1,0.3,0.1,0.5c0,0.1,0,0.1,0,0.2c0,0.2,0.1,0.5,0.1,0.7V18c0,0.2,0,0.5-0.1,0.7c0,0.1,0,0.2-0.1,0.3
			c0,0.1-0.1,0.3-0.1,0.4s-0.1,0.2-0.1,0.3c0,0.1-0.1,0.3-0.2,0.4c0,0.1-0.1,0.2-0.1,0.3c0,0.1-0.1,0.1-0.1,0.1H0.3V15z M0.3,20.9
			H14l0,0c-0.8,1-1.2,2.2-1.2,3.4l0,0c0,0.2,0,0.4,0,0.7v0.1c0,0.2,0.1,0.4,0.1,0.6l0,0H0.3V20.9z M18.6,31.4h-13
			c-2.9,0-5.2-1.8-5.2-4.1V26h12.8c0,0.1,0,0.1,0.1,0.2c0,0.1,0.1,0.2,0.2,0.4c0,0.1,0.1,0.2,0.1,0.3c0.1,0.2,0.2,0.3,0.3,0.5
			c0.1,0.1,0.1,0.2,0.2,0.3s0.1,0.2,0.2,0.3s0.1,0.2,0.2,0.2c0.1,0.1,0.3,0.3,0.4,0.4c0.1,0,0.1,0.1,0.2,0.1
			c0.1,0.1,0.3,0.2,0.5,0.3c0.1,0,0.1,0.1,0.2,0.1c0.4,0.3,0.9,0.5,1.4,0.7h0.1c0.5,0.2,1,0.3,1.5,0.4L18.6,31.4z M38.9,27.3
			c0,2.3-2.3,4.1-5.2,4.1h-13v-1.1c0.3,0,0.6-0.1,1-0.2c2.1-0.5,3.8-2,4.6-4H39L38.9,27.3z M38.9,25.7H26v0.1
			c-0.7,2-2.4,3.5-4.5,3.9c-0.3,0.1-0.6,0.1-1,0.2h-0.2v1.4h-1.5v-1.5l0,0l0,0h-0.2h-0.1h-0.1c-0.1,0-0.3,0-0.4-0.1l0,0h-0.1
			c-0.5-0.1-1-0.3-1.5-0.6c0,0-0.1,0-0.1-0.1c-0.2-0.1-0.4-0.2-0.5-0.3c-0.1,0-0.1-0.1-0.1-0.1c-0.2-0.1-0.4-0.3-0.5-0.4
			S15.1,28.1,15,28c-0.1-0.1-0.2-0.2-0.3-0.3c-0.1-0.1-0.1-0.2-0.2-0.2c-0.1-0.1-0.2-0.2-0.3-0.3S14,27,14,26.8
			c-0.1-0.1-0.1-0.2-0.2-0.3s-0.1-0.2-0.1-0.3c-0.1-0.2-0.1-0.3-0.2-0.5v-0.1c-0.1-0.2-0.1-0.5-0.2-0.7v-0.1c0-0.2-0.1-0.5-0.1-0.7
			c0-1.2,0.4-2.3,1.1-3.2c0,0,0-0.1,0.1-0.1c0-0.1,0.1-0.1,0.1-0.2l0,0l0.1-0.1l0,0l0.1-0.2l0,0c0-0.1,0.1-0.2,0.1-0.2
			c0.1-0.1,0.1-0.3,0.2-0.4c0-0.1,0.1-0.2,0.1-0.3c0-0.2,0.1-0.3,0.1-0.5c0-0.1,0.1-0.2,0.1-0.3c0-0.3,0.1-0.5,0.1-0.8l0,0v-0.9
			c0-0.2,0-0.5-0.1-0.7c0-0.1,0-0.2,0-0.3c0-0.2-0.1-0.3-0.1-0.5c0-0.1-0.1-0.2-0.1-0.3C15,15,15,14.8,14.9,14.7l0,0l-0.1-0.2l0,0
			l0,0l0,0v-0.1l0,0c-0.1-0.2-0.2-0.4-0.4-0.6c-0.7-0.9-1.1-2-1.1-3.2l0,0c0-0.3,0-0.5,0.1-0.8c0-0.1,0-0.1,0-0.2
			c0-0.2,0.1-0.4,0.2-0.7C14,7.7,14.9,6.6,16,6c0.1-0.1,0.2-0.1,0.3-0.2c0.1-0.1,0.2-0.1,0.3-0.2c0.2-0.1,0.4-0.2,0.5-0.2
			s0.2-0.1,0.3-0.1c0.2-0.1,0.3-0.1,0.5-0.2c0.1,0,0.2,0,0.3-0.1c0.2,0,0.4-0.1,0.6-0.1h0.1h0.2V3.6h1.5v1.7l0,0h0.2l0,0
			c0.2,0,0.5,0.1,0.7,0.1c0.1,0,0.1,0,0.2,0.1c0.2,0.1,0.4,0.1,0.7,0.2h0.1C22.7,5.8,23,5.9,23.2,6C23,6,23,6.1,23.1,6.1
			c0.2,0.1,0.4,0.2,0.6,0.3c0.9,0.6,1.7,1.4,2.1,2.5c0,0,0,0,0,0.1c0.1,0.1,0.1,0.2,0.1,0.4c0.1,0.2,0.1,0.5,0.2,0.7
			c0,0.1,0,0.1,0,0.2c0,0.3,0.1,0.5,0.1,0.8l0,0c0,1.1-0.4,2.3-1.1,3.2c-0.1,0.2-0.3,0.4-0.4,0.6l0,0V15l0,0h-0.2l0,0
			c-0.1,0.1-0.1,0.3-0.2,0.4c0,0.1,0,0.1-0.1,0.2c-0.1,0.2-0.1,0.4-0.1,0.5c0,0.1,0,0.1,0,0.2c0,0.3-0.1,0.5-0.1,0.8V18l0,0
			c0,1,0.3,1.9,0.8,2.7l0.1,0.1h14L38.9,25.7z M38.9,20.5H25.1c-0.5-0.7-0.7-1.6-0.7-2.5v-0.9c0-0.2,0-0.5,0.1-0.7
			c0-0.1,0-0.1,0-0.2c0-0.2,0.1-0.4,0.1-0.5s0-0.1,0-0.1c0.1-0.2,0.2-0.4,0.2-0.6h14L38.9,20.5z M38.9,14.7H25.1
			c0.1-0.1,0.2-0.3,0.3-0.4c0.8-1,1.2-2.1,1.2-3.4l0,0l0,0l0,0c0-0.2,0-0.5-0.1-0.7c0-0.1,0-0.1,0-0.2c0-0.2-0.1-0.4-0.1-0.6V9.3H39
			L38.9,14.7z M26.2,9L26.2,9V8.9l0,0c0,0,0,0,0-0.1s0-0.1,0-0.1c0-0.1-0.1-0.2-0.1-0.3V8.3c0,0,0-0.1-0.1-0.1
			c-0.1-0.2-0.2-0.3-0.3-0.4l-0.1-0.1c-0.1-0.1-0.2-0.2-0.3-0.3l-0.1-0.1C25.1,7.2,25,7.1,24.9,7l-0.1-0.1c-0.1-0.1-0.2-0.2-0.3-0.2
			l0,0l0,0l-0.1-0.1c-0.1-0.1-0.2-0.1-0.3-0.2c0,0-0.1,0-0.1-0.1s0,0-0.1,0l0,0c0,0-0.1,0-0.1-0.1c-0.2-0.1-0.3-0.2-0.5-0.3
			c-0.1,0-0.1-0.1-0.2-0.1c-0.2-0.1-0.4-0.2-0.7-0.3c0,0-0.1,0-0.1-0.1c-0.2-0.1-0.4-0.1-0.6-0.2c-0.1,0-0.1,0-0.2-0.1
			C21.2,5.1,21,5,20.7,5V3.6h13c2.9,0,5.2,1.8,5.2,4.1V9H26.2z"/>
		<path id="Path_35" class="st9" d="M34,3H5.9C2.8,3,0.3,5,0.3,7.4V27c0,2.5,2.5,4.4,5.6,4.4H34c3.1,0,5.6-2,5.6-4.4V7.4
			C39.6,5,37.1,3,34,3z M0.6,7.4c0-2.3,2.3-4.1,5.2-4.1h13v1.4c-0.1,0-0.1,0-0.2,0c-0.2,0-0.4,0.1-0.6,0.1c-0.1,0-0.2,0-0.3,0.1
			c-0.2,0-0.3,0.1-0.5,0.2c-0.1,0-0.1,0-0.2,0.1c-0.2,0.1-0.4,0.2-0.6,0.3c-0.1,0-0.2,0.1-0.2,0.1c-0.1,0.1-0.3,0.2-0.4,0.2
			c-0.1,0-0.1,0.1-0.2,0.1c-0.1,0.1-0.3,0.2-0.4,0.3h-0.1c-0.1,0.1-0.2,0.2-0.4,0.3l0,0c-0.1,0.1-0.2,0.2-0.3,0.4V7
			c-0.2,0.4-0.4,0.7-0.6,1c0,0,0,0.1-0.1,0.1v0.1c0,0.1-0.1,0.2-0.1,0.3s-0.1,0.1-0.1,0.2v0.1H0.6V7.4z M0.6,9h12.7v0.1
			c0,0.2-0.1,0.3-0.1,0.5c0,0.1,0,0.1,0,0.2c0,0.2-0.1,0.5-0.1,0.7l0,0l0,0c0,1.2,0.4,2.4,1.2,3.4c0.1,0.1,0.2,0.2,0.2,0.4H0.6V9z
			 M0.6,14.7h14.1c0.1,0.2,0.2,0.4,0.3,0.6c0,0.1,0,0.1,0.1,0.2c0.1,0.2,0.1,0.3,0.1,0.5c0,0.1,0,0.1,0,0.2c0,0.2,0.1,0.5,0.1,0.7
			v0.9c0,0.2,0,0.5-0.1,0.7c0,0.1,0,0.2-0.1,0.3c0,0.1-0.1,0.3-0.1,0.4s-0.1,0.2-0.1,0.3c-0.1,0.1-0.1,0.3-0.2,0.4
			c0,0.1-0.1,0.2-0.1,0.3c0,0.1-0.1,0.1-0.1,0.1H0.6V14.7z M0.6,20.6h13.7l0,0c-0.8,1-1.2,2.2-1.2,3.4l0,0c0,0.2,0,0.4,0,0.7v0.1
			c0,0.2,0.1,0.4,0.1,0.6l0,0H0.6V20.6z M18.9,31.1h-13c-2.9,0-5.2-1.8-5.2-4.1v-1.2h12.8c0,0.1,0.1,0.1,0.1,0.2s0.1,0.2,0.2,0.4
			c0,0.1,0.1,0.2,0.1,0.3c0.1,0.2,0.2,0.3,0.3,0.5c0.1,0.1,0.1,0.2,0.2,0.3s0.1,0.2,0.2,0.3s0.1,0.2,0.2,0.2
			c0.1,0.1,0.3,0.3,0.4,0.4c0.1,0,0.1,0.1,0.2,0.1c0.1,0.1,0.3,0.2,0.5,0.3c0.1,0,0.1,0.1,0.2,0.1c0.4,0.3,0.9,0.5,1.4,0.7h0.1
			c0.5,0.2,1,0.3,1.5,0.4L18.9,31.1z M39.2,27c0,2.3-2.3,4.1-5.2,4.1H21V30c0.3,0,0.6-0.1,1-0.2c2.1-0.5,3.8-2,4.6-4h12.7L39.2,27
			L39.2,27z M39.2,25.4H26.3v0.1c-0.7,2-2.4,3.5-4.5,3.9c-0.3,0.1-0.6,0.1-1,0.2h-0.2V31h-1.5v-1.5l0,0l0,0h-0.2h-0.1h-0.1
			c-0.1,0-0.3,0-0.4-0.1l0,0h-0.1c-0.5-0.1-1-0.3-1.5-0.6c0,0-0.1,0-0.1-0.1c-0.2-0.1-0.4-0.2-0.5-0.3c-0.1,0-0.1-0.1-0.1-0.1
			c-0.2-0.1-0.4-0.3-0.5-0.4s-0.1-0.1-0.2-0.2c-0.1-0.1-0.2-0.2-0.3-0.3c-0.1-0.1-0.1-0.2-0.2-0.2c-0.1-0.1-0.2-0.2-0.3-0.3
			s-0.2-0.2-0.2-0.4c-0.1-0.1-0.1-0.2-0.2-0.3S14,26,14,25.9c-0.1-0.2-0.1-0.3-0.2-0.5v-0.1c-0.1-0.2-0.1-0.5-0.2-0.7v-0.1
			c0-0.2-0.1-0.5-0.1-0.7c0-1.2,0.4-2.3,1.1-3.2c0,0,0-0.1,0.1-0.1c0-0.1,0.1-0.1,0.1-0.2l0,0l0.1-0.1l0,0L15,20l0,0
			c0-0.1,0.1-0.2,0.1-0.2c0.1-0.1,0.1-0.3,0.2-0.4c0-0.1,0.1-0.2,0.1-0.3c0-0.1,0.1-0.3,0.1-0.5c0-0.1,0-0.2,0.1-0.3
			c0-0.3,0.1-0.5,0.1-0.8l0,0v-0.9c0-0.2,0-0.5-0.1-0.7c0-0.1,0-0.2,0-0.3c0-0.2-0.1-0.3-0.1-0.5c0-0.1-0.1-0.2-0.1-0.3
			c-0.1-0.1-0.1-0.3-0.2-0.4l0,0L15,14.5l0,0l0,0l0,0v-0.1l0,0c-0.1-0.2-0.2-0.4-0.4-0.6c-0.7-0.9-1.1-2-1.1-3.2l0,0
			c0-0.3,0-0.5,0.1-0.8c0-0.1,0-0.1,0-0.2c0-0.2,0.1-0.4,0.2-0.7c0.4-1.2,1.3-2.3,2.4-2.9c0.1-0.1,0.2-0.1,0.3-0.2
			c0.1-0.1,0.2-0.1,0.3-0.2c0.2-0.1,0.4-0.2,0.5-0.2s0.2-0.1,0.3-0.1c0.2-0.1,0.3-0.1,0.5-0.2c0.1,0,0.2,0,0.3-0.1
			c0.2,0,0.4-0.1,0.6-0.1h0.1h0.2V3.3h1.5V5l0,0H21l0,0c0.2,0,0.5,0.1,0.7,0.1c0.1,0,0.1,0,0.2,0c0.2,0.1,0.4,0.1,0.7,0.2h0.1
			c0.2,0.1,0.5,0.2,0.7,0.3c0.1,0,0.1,0.1,0.2,0.1c0,0.2,0.2,0.3,0.4,0.4c0.9,0.6,1.7,1.5,2.1,2.5v0.1c0.1,0.1,0.1,0.2,0.1,0.4
			c0.1,0.2,0.1,0.5,0.2,0.7c0,0.1,0,0.1,0,0.2c0,0.3,0.1,0.5,0.1,0.8l0,0c0,1.1-0.4,2.3-1.1,3.2c-0.1,0.2-0.3,0.4-0.4,0.6l0,0v0.1
			l0,0L24.9,15l0,0c-0.1,0.1-0.1,0.3-0.2,0.4c0,0.1,0,0.1-0.1,0.2c-0.1,0.2-0.1,0.4-0.1,0.5s0,0.1,0,0.2c0,0.3-0.1,0.5-0.1,0.8V18
			l0,0c0,1,0.3,1.9,0.8,2.7l0.1,0.1h14L39.2,25.4z M39.2,20.3H25.4c-0.5-0.7-0.7-1.6-0.7-2.5v-0.9c0-0.2,0-0.5,0.1-0.7
			c0-0.1,0-0.1,0-0.2c0-0.2,0.1-0.4,0.1-0.5s0-0.1,0-0.1c0.1-0.2,0.2-0.4,0.2-0.6h14L39.2,20.3z M39.2,14.4H25.4
			c0.1-0.1,0.2-0.3,0.3-0.4c0.8-1,1.2-2.1,1.2-3.4l0,0l0,0c0-0.2,0-0.5-0.1-0.7c0-0.1,0-0.1,0-0.2c0-0.2-0.1-0.4-0.1-0.6V9h12.6
			L39.2,14.4z M26.5,8.7L26.5,8.7V8.6l0,0c0,0,0,0,0-0.1s0-0.1,0-0.1c0-0.1-0.1-0.2-0.1-0.3V8c0,0,0-0.1-0.1-0.1
			c-0.1-0.1-0.2-0.3-0.3-0.4l-0.1-0.1c-0.1-0.1-0.2-0.2-0.3-0.3L25.4,7c-0.1-0.1-0.2-0.2-0.3-0.3L25,6.6c-0.1-0.1-0.2-0.2-0.3-0.2
			l0,0l0,0l-0.1-0.1c-0.1-0.1-0.2-0.1-0.3-0.2c0,0-0.1,0-0.1-0.1s0,0-0.1,0l0,0c0,0-0.1,0-0.1-0.1c-0.2-0.1-0.3-0.2-0.5-0.3
			c-0.1,0-0.1-0.1-0.2-0.1c-0.2-0.1-0.4-0.2-0.7-0.3c0,0-0.1,0-0.1-0.1C22.4,5,22.2,5,22,4.9c-0.1,0-0.1,0-0.2-0.1
			c-0.3-0.1-0.5-0.1-0.8-0.1V3.3h13c2.9,0,5.2,1.8,5.2,4.1v1.2L26.5,8.7z"/>
		<g id="Group_7" transform="translate(0.295 0)">
			<g class="st10">
				<g>
					<defs>
						<path id="SVGID_1_" d="M25.1,31.4H14.2C6.4,31.4,0,25.1,0,17.2l0,0C0,9.4,6.4,3,14.2,3h10.9C33,3,39.3,9.4,39.3,17.2l0,0
							C39.3,25.1,32.9,31.4,25.1,31.4L25.1,31.4z"/>
					</defs>
					<clipPath id="SVGID_2_">
						<use xlink:href="#SVGID_1_"  style="overflow:visible;"/>
					</clipPath>
					<g id="Group_6" transform="translate(0)" class="st11">
						
							<radialGradient id="Path_36_1_" cx="-1289.2158" cy="-134.9287" r="1.015" gradientTransform="matrix(-63.7112 35.1369 -3.8848 -6.9837 -83328.25 37055.0273)" gradientUnits="userSpaceOnUse">
							<stop  offset="7.000001e-03" style="stop-color:#FFFF00"/>
							<stop  offset="9.300000e-02" style="stop-color:#E5E500"/>
							<stop  offset="0.277" style="stop-color:#A2A203"/>
							<stop  offset="0.505" style="stop-color:#484807"/>
							<stop  offset="0.915" style="stop-color:#00000A"/>
						</radialGradient>
						<path id="Path_36" class="st12" d="M-47.1,48.8c-2.2-3.9,25-23.1,60.7-42.8S80-26.4,82.2-22.5s-25,23.1-60.7,42.8
							S-44.9,52.7-47.1,48.8z"/>
						
							<radialGradient id="Path_37_1_" cx="-1238.9646" cy="-1885.4543" r="1.0326" gradientTransform="matrix(-49.1238 27.1053 -1.9165 -3.5355 -64447.1172 26942)" gradientUnits="userSpaceOnUse">
							<stop  offset="7.000001e-03" style="stop-color:#FFFF00"/>
							<stop  offset="9.300000e-02" style="stop-color:#E5E500"/>
							<stop  offset="0.277" style="stop-color:#A2A203"/>
							<stop  offset="0.505" style="stop-color:#484807"/>
							<stop  offset="0.915" style="stop-color:#00000A"/>
						</radialGradient>
						<path id="Path_37" class="st13" d="M-21.4,53.3c-1.1-2,20.5-16.1,48.4-31.5S78.3-4.3,79.4-2.3S58.8,13.8,31,29.1
							S-20.3,55.3-21.4,53.3z"/>
					</g>
				</g>
			</g>
		</g>
	</g>
	<g id="Group_12" transform="translate(24.683 209.96)">
		<g id="Group_11" transform="translate(0 0)">
			<path id="Path_1" class="st14" d="M11.8,23.6h8.5l1.3-3.4h-4.9l1.9-5.2H15L11.8,23.6z"/>
			<path id="Path_2" class="st14" d="M40.2,3H19.4l-3.2,8.5h3.6l1.9-5.1h13.5l-5.1,13.7h-5l-1.3,3.4h8.6L40.2,3z"/>
			<path id="Path_3" class="st14" d="M20.8,32.1H0l7.6-20.6h20.8L20.8,32.1z M4.9,28.7h13.5L23.5,15H10L4.9,28.7z"/>
			<path id="Path_4" class="st14" d="M23.5,14.9H10l-2.4-3.4h17L23.5,14.9z"/>
			<path id="Path_5" class="st14" d="M16.8,20.2l5.1-13.7L19.5,3L13,20.2H16.8z"/>
		</g>
	</g>
</g>
</svg>
