<?xml version="1.0" encoding="utf-8"?>
<!-- Generator: Adobe Illustrator 25.2.1, SVG Export Plug-In . SVG Version: 6.00 Build 0)  -->
<svg version="1.1" id="Layer_1" xmlns="http://www.w3.org/2000/svg" xmlns:xlink="http://www.w3.org/1999/xlink" x="0px" y="0px"
	 viewBox="0 0 381 230" style="enable-background:new 0 0 381 230;" xml:space="preserve">
<style type="text/css">
	.st0{fill:url(#Rectangle_6-2_1_);}
	.st1{fill:#FFFFFF;}
	.st2{fill:none;}
	.st3{opacity:0.19;fill:#FFFFFF;enable-background:new    ;}
	.st4{fill:url(#Rectangle_8_1_);}
	.st5{opacity:0.48;}
	.st6{fill:url(#Path_30_1_);}
	.st7{opacity:0.35;fill:#FFFFFF;enable-background:new    ;}
	.st8{fill:url(#Path_32_1_);}
	.st9{opacity:0.61;fill:#FFFFFF;enable-background:new    ;}
	.st10{fill:#856400;}
	.st11{opacity:0.31;}
	.st12{clip-path:url(#SVGID_2_);}
	.st13{opacity:0.1;fill:url(#Path_36_1_);enable-background:new    ;}
	.st14{opacity:0.11;fill:url(#Path_37_1_);enable-background:new    ;}
</style>
<g id="Group_14" transform="translate(8.873 5.467)">
	<g transform="matrix(1, 0, 0, 1, -8.87, -5.47)">
		<linearGradient id="Rectangle_6-2_1_" gradientUnits="userSpaceOnUse" x1="20.4778" y1="159.6755" x2="371.8126" y2="68.391">
			<stop  offset="0" style="stop-color:#660099"/>
			<stop  offset="1" style="stop-color:#6600FF"/>
		</linearGradient>
		<path id="Rectangle_6-2" class="st0" d="M23,9.5h335c7.7,0,14,6.3,14,14v184c0,7.7-6.3,14-14,14H23c-7.7,0-14-6.3-14-14v-184
			C9,15.8,15.3,9.5,23,9.5z"/>
	</g>
	<g id="Group_1" transform="translate(18.631 26.145)">
		<path id="Path_1" class="st1" d="M11.8,24.1h8.5l1.3-3.4h-4.9l1.9-5.2H15L11.8,24.1z"/>
		<path id="Path_2" class="st1" d="M40.2,3.5H19.4L16.2,12h3.6l1.9-5.1h13.5l-5.1,13.7h-5L23.8,24h8.6L40.2,3.5z"/>
		<path id="Path_3" class="st1" d="M20.8,32.6H0L7.6,12h20.8L20.8,32.6z M4.9,29.2h13.5l5.1-13.7H10L4.9,29.2z"/>
		<path id="Path_4" class="st1" d="M23.5,15.5H10l-2.4-3.4h17L23.5,15.5z"/>
		<path id="Path_5" class="st1" d="M16.8,20.7L21.9,7l-2.4-3.4L13,20.7H16.8z"/>
	</g>
	<g>
		<path class="st2" d="M362.1,148c-1.5,0-2.9,0-4.4-0.1c-51.3-2.2-92.4-43.4-94.5-94.7c-0.1-1.4-0.1-2.8-0.1-4.2s0-2.8,0.1-4.3
			c0.6-14.6,4.4-28.4,10.7-40.7h-98.8c0,0.3,0,0.7,0,1c0,0.5,0,0.9,0,1.4c-0.5,39.3-24,73.1-57.6,88.6c1,5.4,1.6,11,1.6,16.8
			c0,0.4,0,0.8,0,1.3s0,1,0,1.5c-0.8,52.6-42.5,95.2-94.7,97.4c-1.4,0.1-2.8,0.1-4.3,0.1c-1.4,0-2.8,0-4.2-0.1
			c-5.4-0.2-10.7-0.9-15.8-1.9v6h214.6c-3.2-5.8-5.1-12.4-5.5-19.3c-0.1-0.9-0.1-1.8-0.1-2.7c0-0.8,0-1.6,0.1-2.4
			c1.2-24.3,21.3-43.6,45.9-43.6c25.4,0,46,20.6,46,46c0,8-2,15.5-5.6,22h67.6v-68C362.8,148,362.5,148,362.1,148z"/>
		<path class="st2" d="M263.2,53.3c2.1,51.3,43.3,92.5,94.5,94.7C306.6,145.7,265.4,104.4,263.2,53.3z"/>
		<path class="st2" d="M274,4L274,4c-6.3,12.3-10.1,26.1-10.7,40.7C263.8,30.2,267.6,16.4,274,4z"/>
		<path class="st2" d="M362.1,128c0.3,0,0.7,0,1,0V4h-65.9c-8.9,12.8-14.1,28.3-14.1,45C283.1,92.6,318.6,128,362.1,128z"/>
		<path class="st3" d="M263.2,44.8c-0.1,1.4-0.1,2.8-0.1,4.3c0,1.4,0,2.8,0.1,4.2c-0.1-1.4-0.1-2.8-0.1-4.2
			C263.1,47.6,263.2,46.2,263.2,44.8z"/>
		<path class="st3" d="M357.8,147.9c1.4,0.1,2.9,0.1,4.4,0.1c0.3,0,0.7,0,1,0l0,0c-0.3,0-0.7,0-1,0C360.7,148,359.2,148,357.8,147.9
			z"/>
		<path class="st3" d="M263.1,49c0,1.4,0,2.8,0.1,4.2c2.2,51.2,43.4,92.5,94.5,94.7c1.4,0.1,2.9,0.1,4.4,0.1c0.3,0,0.7,0,1,0v-20
			c-0.3,0-0.7,0-1,0c-43.6,0-79-35.4-79-79c0-16.7,5.2-32.2,14.1-45H274c-6.3,12.3-10.1,26.1-10.7,40.7
			C263.2,46.2,263.1,47.6,263.1,49z"/>
		<path class="st2" d="M119.1,111.8c-0.1-5.7-0.6-11.3-1.6-16.8l0,0C118.5,100.4,119,106,119.1,111.8z"/>
		<path class="st2" d="M24.4,211.9c52.2-2.2,93.9-44.8,94.7-97.4C118.3,167,76.5,209.7,24.4,211.9z"/>
		<path class="st2" d="M109.1,113c0-4.8-0.4-9.6-1.1-14.2c-10,3.4-20.7,5.2-31.9,5.2c-30.5,0-57.8-13.8-76-35.6v131.3
			c6.4,1.5,13.1,2.3,20,2.3C69.2,202,109.1,162.1,109.1,113z"/>
		<path class="st2" d="M0.1,210L0.1,210c5.1,1.1,10.4,1.7,15.8,1.9C10.5,211.7,5.3,211.1,0.1,210z"/>
		<path class="st3" d="M15.9,211.9c1.4,0.1,2.8,0.1,4.2,0.1s2.8,0,4.3-0.1c-1.4,0.1-2.8,0.1-4.3,0.1C18.7,212,17.3,212,15.9,211.9z"
			/>
		<path class="st3" d="M119.1,114.6c0-0.5,0-1,0-1.5c0-0.4,0-0.9,0-1.3c0,0.4,0,0.8,0,1.3C119.1,113.5,119.1,114.1,119.1,114.6z"/>
		<path class="st3" d="M20.1,212c1.4,0,2.8,0,4.3-0.1c52.1-2.2,93.9-44.9,94.7-97.4c0-0.5,0-1,0-1.5c0-0.4,0-0.9,0-1.3
			c-0.1-5.7-0.6-11.3-1.6-16.8c-3.1,1.4-6.2,2.7-9.5,3.8c0.7,4.6,1.1,9.4,1.1,14.2c0,49.1-39.9,89-89,89c-6.9,0-13.6-0.8-20-2.3V210
			c5.1,1.1,10.4,1.7,15.8,1.9C17.3,212,18.7,212,20.1,212z"/>
		<path class="st2" d="M214.7,216L214.7,216c-3.2-5.8-5.1-12.4-5.5-19.3C209.6,203.7,211.6,210.2,214.7,216z"/>
		<path class="st2" d="M255.1,148c-24.6,0-44.7,19.3-45.9,43.6C210.4,167.4,230.6,148,255.1,148c25.4,0,46,20.6,46,46
			c0,8-2,15.5-5.6,22l0,0c3.6-6.5,5.6-14,5.6-22C301.1,168.6,280.5,148,255.1,148z"/>
		<path class="st2" d="M255.1,158c-19.9,0-36,16.1-36,36c0,8.3,2.8,15.9,7.5,22h56.9c4.7-6.1,7.5-13.7,7.5-22
			C291.1,174.2,275,158,255.1,158z"/>
		<path class="st3" d="M209.2,191.7c0,0.8-0.1,1.6-0.1,2.4c0,0.9,0,1.8,0.1,2.7c-0.1-0.9-0.1-1.8-0.1-2.7
			C209.1,193.2,209.1,192.5,209.2,191.7z"/>
		<path class="st3" d="M255.1,148c-24.6,0-44.7,19.4-45.9,43.6c0,0.8-0.1,1.6-0.1,2.4c0,0.9,0,1.8,0.1,2.7c0.4,7,2.4,13.5,5.5,19.3
			h11.9c-4.7-6.1-7.5-13.7-7.5-22c0-19.9,16.1-36,36-36s36,16.1,36,36c0,8.3-2.8,15.9-7.5,22h11.9c3.6-6.5,5.6-14,5.6-22
			C301.1,168.7,280.5,148,255.1,148z"/>
		<path class="st2" d="M20.1,14c0.5,0,0.9,0,1.4,0c40.8,0.6,75.6,25.8,90.2,61.5c25.7-13,43.4-39.7,43.4-70.5c0-0.3,0-0.7,0-1H0.1
			v12c6-1.2,12.2-1.9,18.6-2C19.2,14,19.7,14,20.1,14z"/>
		<path class="st2" d="M117.5,95L117.5,95c33.6-15.5,57.1-49.2,57.6-88.6C174.6,45.7,151.1,79.5,117.5,95z"/>
		<path class="st2" d="M76.1,104c11.1,0,21.9-1.8,31.9-5.2l0,0C98,102.2,87.3,104,76.1,104c-30.5,0-57.8-13.9-76-35.6v0.1
			C18.3,90.2,45.6,104,76.1,104z"/>
		<path class="st2" d="M0.1,16.1L0.1,16.1c6-1.2,12.3-1.9,18.6-2C12.4,14.1,6.1,14.8,0.1,16.1z"/>
		<path class="st2" d="M76.1,84c9.3,0,18.2-1.6,26.4-4.6C89.3,47,57.3,24,20.1,24c-6.9,0-13.6,0.8-20,2.3v0.2
			C9.5,59.7,40,84,76.1,84z"/>
		<path class="st2" d="M117.5,95L117.5,95L117.5,95L117.5,95L117.5,95z"/>
		<path class="st2" d="M21.5,14.1c40.7,0.6,75.5,25.8,90.2,61.5l0,0C97.1,39.9,62.3,14.6,21.5,14.1z"/>
		<path class="st3" d="M18.7,14.1c0.5,0,0.9,0,1.4,0s0.9,0,1.4,0c-0.5,0-0.9,0-1.4,0C19.7,14,19.2,14,18.7,14.1z"/>
		<path class="st3" d="M102.5,79.5c3.2-1.1,6.2-2.5,9.2-4C97.1,39.9,62.3,14.6,21.5,14.1c-0.5,0-0.9,0-1.4,0s-0.9,0-1.4,0
			c-6.4,0.1-12.6,0.8-18.6,2v10.2c6.4-1.5,13.1-2.3,20-2.3C57.3,24,89.3,47,102.5,79.5z"/>
		<path class="st3" d="M108,98.8L108,98.8c3.2-1.1,6.4-2.4,9.5-3.8l0,0C114.4,96.4,111.2,97.7,108,98.8z"/>
		<path class="st3" d="M175.1,6.4c0-0.5,0-0.9,0-1.4c0-0.3,0-0.7,0-1l0,0c0,0.3,0,0.7,0,1C175.1,5.5,175.1,6,175.1,6.4z"/>
		<path class="st3" d="M111.8,75.5c2.5,6.2,4.5,12.7,5.7,19.5c33.6-15.5,57.1-49.3,57.6-88.6c0-0.5,0-0.9,0-1.4c0-0.3,0-0.7,0-1h-20
			c0,0.3,0,0.7,0,1C155.1,35.8,137.5,62.5,111.8,75.5z"/>
		<path class="st3" d="M76.1,104c11.1,0,21.9-1.9,31.9-5.3c-1.1-6.7-2.9-13.2-5.4-19.3c-8.3,3-17.2,4.6-26.5,4.6
			C40,84,9.5,59.7,0.1,26.5v41.9C18.3,90.2,45.6,104,76.1,104z"/>
		<path class="st3" d="M117.5,95c-1.2-6.8-3.2-13.3-5.7-19.5l0,0C114.3,81.7,116.2,88.2,117.5,95L117.5,95z"/>
		<path class="st3" d="M111.7,75.5c-3,1.5-6,2.8-9.2,4c2.5,6.1,4.3,12.6,5.4,19.3c3.2-1.1,6.4-2.4,9.5-3.8
			C116.2,88.2,114.3,81.7,111.7,75.5z"/>
	</g>
	<g id="Group_9" transform="translate(300.214 285.661)">
		
			<linearGradient id="Rectangle_8_1_" gradientUnits="userSpaceOnUse" x1="-1298.3389" y1="31.1589" x2="-1296.96" y2="30.6049" gradientTransform="matrix(38.944 0 0 28.088 50544.6758 -1041.2937)">
			<stop  offset="0" style="stop-color:#F7B261"/>
			<stop  offset="0.244" style="stop-color:#F9CC62"/>
			<stop  offset="0.501" style="stop-color:#FAE163"/>
			<stop  offset="0.754" style="stop-color:#FBED64"/>
			<stop  offset="1" style="stop-color:#FCF265"/>
		</linearGradient>
		<path id="Rectangle_8" class="st4" d="M-4.7-186.8h19.6c5.4,0,9.7,4.3,9.7,9.7v8.7c0,5.4-4.3,9.7-9.7,9.7H-4.7
			c-5.4,0-9.7-4.3-9.7-9.7v-8.7C-14.4-182.5-10.1-186.8-4.7-186.8z"/>
		<g id="Group_5" transform="translate(0.468 0.173)" class="st5">
			
				<linearGradient id="Path_30_1_" gradientUnits="userSpaceOnUse" x1="-1282.7704" y1="43.1827" x2="-1280.1194" y2="42.4067" gradientTransform="matrix(20.259 0 0 20.048 25970.4609 -1041.4655)">
				<stop  offset="0" style="stop-color:#F7B261"/>
				<stop  offset="0.244" style="stop-color:#F9CC62"/>
				<stop  offset="0.501" style="stop-color:#FAE163"/>
				<stop  offset="0.754" style="stop-color:#FBED64"/>
				<stop  offset="1" style="stop-color:#FCF265"/>
			</linearGradient>
			<path id="Path_30" class="st6" d="M5.4-187h-15.6c-2.6,0-4.6,2.1-4.6,4.6l0,0v15.4l0.2-8.8L5.4-187z"/>
			<path id="Path_31" class="st7" d="M24.1-182.3c0-2.6-2.1-4.6-4.6-4.6l0,0h-14l-20.1,11.2l-0.2,8.8v3.4c0,1.7,0.9,3.3,2.5,4.1
				l36.5-20.4L24.1-182.3z"/>
			
				<linearGradient id="Path_32_1_" gradientUnits="userSpaceOnUse" x1="-1292.4823" y1="56.4858" x2="-1290.5403" y2="55.4788" gradientTransform="matrix(27.676 0 0 15.455 35750.7305 -1028.8345)">
				<stop  offset="0" style="stop-color:#F7B261"/>
				<stop  offset="0.244" style="stop-color:#F9CC62"/>
				<stop  offset="0.501" style="stop-color:#FAE163"/>
				<stop  offset="0.754" style="stop-color:#FBED64"/>
				<stop  offset="1" style="stop-color:#FCF265"/>
			</linearGradient>
			<path id="Path_32" class="st8" d="M10.5-158.9l13.6-7.6v-0.1v-7.8l-27.7,15.5L10.5-158.9L10.5-158.9z"/>
			<path id="Path_33" class="st7" d="M10.5-158.9l13.6-7.6v-0.1v-7.8l-27.7,15.5L10.5-158.9L10.5-158.9z"/>
		</g>
		<path id="Path_34" class="st9" d="M18.8-186.7H-9.3c-3.1,0-5.6,2-5.6,4.5v19.5c0,2.5,2.5,4.4,5.6,4.4h28.1c3.1,0,5.6-2,5.6-4.4
			v-19.5C24.4-184.7,21.9-186.7,18.8-186.7z M-14.5-182.2c0-2.3,2.3-4.1,5.2-4.1h13v1.4c-0.1,0-0.1,0-0.2,0c-0.2,0-0.4,0.1-0.6,0.1
			c-0.1,0-0.2,0.1-0.3,0.1c-0.2,0.1-0.3,0.1-0.5,0.2c-0.1,0-0.1,0-0.2,0.1c-0.2,0.1-0.4,0.2-0.6,0.3c-0.1,0-0.2,0.1-0.2,0.1
			c-0.1,0.1-0.3,0.2-0.4,0.2s-0.1,0.1-0.2,0.1c-0.1,0.1-0.3,0.2-0.4,0.3H0c-0.1,0.1-0.2,0.2-0.4,0.3l0,0c-0.1,0.1-0.2,0.2-0.3,0.4
			v0.1c-0.2,0.3-0.4,0.6-0.6,0.9c0,0,0,0.1-0.1,0.1v0.1c0,0.1-0.1,0.2-0.1,0.3s-0.1,0.1-0.1,0.2v0.1h-12.8L-14.5-182.2L-14.5-182.2z
			 M-14.5-180.6h12.7c0,0.1,0,0.1,0,0.1c0,0.2-0.1,0.3-0.1,0.5c0,0.1,0,0.1,0,0.2c0,0.2-0.1,0.5-0.1,0.7l0,0l0,0l0,0
			c0,1.2,0.4,2.4,1.2,3.4c0.1,0.1,0.2,0.3,0.2,0.4h-13.9V-180.6z M-14.5-174.9h14.1c0.1,0.2,0.2,0.4,0.3,0.6c0,0.1,0,0.1,0.1,0.2
			c0,0.1,0,0.2,0,0.4c0,0.1,0,0.1,0,0.2c0,0.2,0.1,0.5,0.1,0.7v0.9c0,0.2,0,0.5-0.1,0.7c0,0.1,0,0.2-0.1,0.3c0,0.1-0.1,0.3-0.1,0.4
			c0,0.1-0.1,0.2-0.1,0.3s-0.1,0.3-0.2,0.4c0,0.1-0.1,0.2-0.1,0.3s-0.1,0.1-0.1,0.1h-13.9L-14.5-174.9L-14.5-174.9z M-14.5-169.1
			h13.7l0,0c-0.8,1-1.2,2.2-1.2,3.4l0,0c0,0.2,0,0.4,0,0.7v0.1c0,0.2,0.1,0.4,0.1,0.6l0,0h-12.7v-4.8H-14.5z M3.7-158.6h-13
			c-2.9,0-5.2-1.8-5.2-4.1v-1.2h12.8c0,0.1,0,0.1,0.1,0.2c0,0.1,0.1,0.2,0.2,0.4c0,0.1,0.1,0.2,0.1,0.3c0.1,0.2,0.2,0.3,0.3,0.5
			c0.1,0.1,0.1,0.2,0.2,0.3s0.1,0.2,0.2,0.3s0.1,0.2,0.2,0.2c0.1,0.1,0.3,0.3,0.4,0.4c0.1,0,0.1,0.1,0.2,0.1
			c0.1,0.1,0.3,0.2,0.5,0.3c0.1,0,0.1,0.1,0.2,0.1c0.4,0.3,0.9,0.5,1.4,0.7h0.1c0.5,0.2,1,0.3,1.5,0.4L3.7-158.6z M24.1-162.7
			c0,2.3-2.3,4.1-5.2,4.1h-13v-1.1c0.3,0,0.6-0.1,1-0.2c2.1-0.5,3.8-2,4.6-4h12.7L24.1-162.7z M24.1-164.3h-13v0.1
			c-0.7,2-2.4,3.5-4.5,3.9c-0.3,0.1-0.6,0.1-1,0.2H5.4v1.4H4v-1.5l0,0l0,0H3.8H3.7H3.6c-0.1,0-0.3,0-0.4-0.1l0,0H3.1
			c-0.5-0.1-1-0.3-1.5-0.6c0,0-0.1,0-0.1-0.1c-0.2-0.1-0.4-0.2-0.5-0.3c-0.1,0-0.1-0.1-0.1-0.1c-0.2-0.1-0.4-0.3-0.5-0.4
			c-0.1-0.1-0.1-0.1-0.2-0.2c-0.1-0.1-0.2-0.2-0.3-0.3s-0.1-0.2-0.2-0.2c-0.1-0.1-0.2-0.2-0.3-0.3s-0.2-0.2-0.2-0.4
			c-0.1-0.1-0.1-0.2-0.2-0.3c-0.1-0.1-0.1-0.2-0.1-0.3c-0.1-0.2-0.1-0.3-0.2-0.5v-0.1c-0.1-0.2-0.1-0.5-0.2-0.7v-0.1
			c0-0.2-0.1-0.5-0.1-0.7c0-1.2,0.4-2.3,1.1-3.2c0,0,0-0.1,0.1-0.1c0-0.1,0.1-0.1,0.1-0.2l0,0l0.1-0.1l0,0l0.1-0.2l0,0
			c0-0.1,0.1-0.2,0.1-0.2c0.1-0.1,0.1-0.3,0.2-0.4c0-0.1,0.1-0.2,0.1-0.3c0-0.2,0.1-0.3,0.1-0.5c0-0.1,0.1-0.2,0.1-0.3
			c0-0.3,0.1-0.5,0.1-0.8l0,0v-0.9c0-0.2,0-0.5-0.1-0.7c0-0.1,0-0.2,0-0.3c0-0.2-0.1-0.3-0.1-0.5c0-0.1-0.1-0.2-0.1-0.3
			c-0.1-0.1-0.1-0.3-0.2-0.4l0,0L0-175.5l0,0l0,0l0,0v-0.1l0,0c-0.1-0.2-0.2-0.4-0.4-0.6c-0.7-0.9-1.1-2-1.1-3.2l0,0
			c0-0.3,0-0.5,0.1-0.8c0-0.1,0-0.1,0-0.2c0-0.2,0.1-0.4,0.2-0.7c0.4-1.2,1.3-2.3,2.4-2.9c0.1-0.1,0.2-0.1,0.3-0.2
			c0.1-0.1,0.2-0.1,0.3-0.2c0.2-0.1,0.4-0.2,0.5-0.2s0.2-0.1,0.3-0.1c0.2-0.1,0.3-0.1,0.5-0.2c0.1,0,0.2,0,0.3-0.1
			c0.2,0,0.4-0.1,0.6-0.1h0.1h0.2v-1.7h1.5v1.7l0,0H6l0,0c0.2,0,0.5,0.1,0.7,0.1c0.1,0,0.1,0,0.2,0.1c0.2,0.1,0.4,0.1,0.7,0.2h0.1
			c0.2,0.1,0.5,0.2,0.7,0.3c0.1,0,0.1,0.1,0.2,0.1c0.2,0.1,0.4,0.2,0.6,0.3c0.9,0.6,1.7,1.4,2.1,2.5c0,0,0,0,0,0.1
			c0.1,0.1,0.1,0.2,0.1,0.4c0.1,0.2,0.1,0.5,0.2,0.7c0,0.1,0,0.1,0,0.2c0,0.3,0.1,0.5,0.1,0.8l0,0c0,1.1-0.4,2.3-1.1,3.2
			c-0.1,0.2-0.3,0.4-0.4,0.6l0,0v0.1l0,0l-0.1,0.3l0,0c-0.1,0.1-0.1,0.3-0.2,0.4c0,0.1,0,0.1-0.1,0.2c-0.1,0.2-0.1,0.4-0.1,0.5
			s0,0.1,0,0.2c0,0.3-0.1,0.5-0.1,0.8v0.9l0,0c0,1,0.3,1.9,0.8,2.7l0.1,0.1h14L24.1-164.3z M24.1-169.4H10.2
			c-0.5-0.7-0.7-1.6-0.7-2.5v-0.9c0-0.2,0-0.5,0.1-0.7c0-0.1,0-0.1,0-0.2c0-0.2,0.1-0.4,0.1-0.5s0-0.1,0-0.1
			c0.1-0.2,0.2-0.4,0.2-0.6h14L24.1-169.4z M24.1-175.3H10.2c0.1-0.1,0.2-0.3,0.3-0.4c0.8-1,1.2-2.1,1.2-3.4l0,0l0,0l0,0
			c0-0.2,0-0.5-0.1-0.7c0-0.1,0-0.1,0-0.2c0-0.2-0.1-0.4-0.1-0.6v-0.1h12.6L24.1-175.3z M11.3-181L11.3-181v-0.1l0,0c0,0,0,0,0-0.1
			s0-0.1,0-0.1c0-0.1-0.1-0.2-0.1-0.3v-0.1c0,0,0-0.1-0.1-0.1c-0.1-0.2-0.2-0.3-0.3-0.4l-0.1-0.1c-0.1-0.1-0.2-0.2-0.3-0.3l-0.1-0.1
			c-0.1-0.1-0.2-0.2-0.3-0.3l-0.1-0.1c-0.1-0.1-0.2-0.2-0.3-0.2l0,0l0,0l-0.1-0.1c-0.1-0.1-0.2-0.1-0.3-0.2c0,0-0.1,0-0.1-0.1
			s0,0-0.1,0l0,0c0,0-0.1,0-0.1-0.1c-0.2-0.1-0.3-0.2-0.5-0.3c-0.1,0-0.1-0.1-0.2-0.1c-0.2-0.1-0.4-0.2-0.7-0.3c0,0-0.1,0-0.1-0.1
			c-0.2-0.1-0.4-0.1-0.6-0.2c-0.1,0-0.1,0-0.2-0.1C6.3-185,6.1-185,5.8-185v-1.3h13c2.9,0,5.2,1.8,5.2,4.1v1.2L11.3-181z"/>
		<path id="Path_35" class="st10" d="M19.1-187H-9c-3.1,0-5.6,2-5.6,4.4v19.5c0,2.5,2.5,4.4,5.6,4.4h28.1c3.1,0,5.6-2,5.6-4.4v-19.5
			C24.7-185,22.2-187,19.1-187z M-14.2-182.5c0-2.3,2.3-4.1,5.2-4.1H4v1.4c-0.1,0-0.1,0-0.2,0c-0.2,0-0.4,0.1-0.6,0.1
			c-0.1,0-0.2,0-0.3,0.1c-0.2,0-0.3,0.1-0.5,0.2c-0.1,0-0.1,0-0.2,0.1c-0.2,0.1-0.4,0.2-0.6,0.3c-0.1,0-0.2,0.1-0.2,0.1
			c-0.1,0.1-0.3,0.2-0.4,0.2S0.9-184,0.8-184c-0.1,0.1-0.3,0.2-0.4,0.3H0.3c-0.1,0.1-0.2,0.2-0.4,0.3l0,0c-0.1,0.1-0.2,0.2-0.3,0.4
			v0.1c-0.2,0.3-0.4,0.6-0.6,0.9c0,0,0,0.1-0.1,0.1v0.1c0,0.1-0.1,0.2-0.1,0.3s-0.1,0.1-0.1,0.2v0.1h-12.8L-14.2-182.5L-14.2-182.5z
			 M-14.2-180.9h12.7v0.1c0,0.2-0.1,0.3-0.1,0.5c0,0.1,0,0.1,0,0.2c0,0.2-0.1,0.5-0.1,0.7l0,0l0,0c0,1.2,0.4,2.4,1.2,3.4
			c0.1,0.1,0.2,0.2,0.2,0.4h-13.9V-180.9z M-14.2-175.2h14.1c0.1,0.2,0.2,0.4,0.3,0.6c0,0.1,0,0.1,0.1,0.2c0.1,0.2,0.1,0.3,0.1,0.5
			c0,0.1,0,0.1,0,0.2c0,0.2,0.1,0.5,0.1,0.7v0.9c0,0.2,0,0.5-0.1,0.7c0,0.1,0,0.2-0.1,0.3c0,0.1-0.1,0.3-0.1,0.4
			c0,0.1-0.1,0.2-0.1,0.3C0-170.3,0-170.1-0.1-170c0,0.1-0.1,0.2-0.1,0.3s-0.1,0.1-0.1,0.1h-13.9C-14.2-169.6-14.2-175.2-14.2-175.2
			z M-14.2-169.4h13.7l0,0c-0.8,1-1.2,2.2-1.2,3.4l0,0c0,0.2,0,0.4,0,0.7v0.1c0,0.2,0.1,0.4,0.1,0.6l0,0h-12.7v-4.8H-14.2z M4-158.9
			H-9c-2.9,0-5.2-1.8-5.2-4.1v-1.2h12.8c0,0.1,0.1,0.1,0.1,0.2c0,0.1,0.1,0.2,0.2,0.4c0,0.1,0.1,0.2,0.1,0.3
			c0.1,0.2,0.2,0.3,0.3,0.5c0.1,0.1,0.1,0.2,0.2,0.3s0.1,0.2,0.2,0.3s0.1,0.2,0.2,0.2c0.1,0.1,0.3,0.3,0.4,0.4
			c0.1,0,0.1,0.1,0.2,0.1c0.1,0.1,0.3,0.2,0.5,0.3c0.1,0,0.1,0.1,0.2,0.1c0.4,0.3,0.9,0.5,1.4,0.7h0.1c0.5,0.2,1,0.3,1.5,0.4
			L4-158.9z M24.4-163c0,2.3-2.3,4.1-5.2,4.1h-13v-1.1c0.3,0,0.6-0.1,1-0.2c2.1-0.5,3.8-2,4.6-4h12.7v1.2H24.4z M24.4-164.6h-13v0.1
			c-0.7,2-2.4,3.5-4.5,3.9c-0.3,0.1-0.6,0.1-1,0.2H5.7v1.4H4.3v-1.5l0,0l0,0H4.1H4H3.9c-0.1,0-0.3,0-0.4-0.1l0,0H3.4
			c-0.5-0.1-1-0.3-1.5-0.6c0,0-0.1,0-0.1-0.1c-0.2-0.1-0.4-0.2-0.5-0.3c-0.1,0-0.1-0.1-0.1-0.1c-0.2-0.1-0.4-0.3-0.5-0.4
			c-0.1-0.1-0.1-0.1-0.2-0.2c-0.1-0.1-0.2-0.2-0.3-0.3s-0.1-0.2-0.2-0.2c-0.1-0.1-0.2-0.2-0.3-0.3s-0.2-0.2-0.2-0.4
			c-0.1-0.1-0.1-0.2-0.2-0.3s-0.1-0.2-0.1-0.3c-0.1-0.2-0.1-0.3-0.2-0.5v-0.1c-0.1-0.2-0.1-0.5-0.2-0.7v-0.1c0-0.2-0.1-0.5-0.1-0.7
			c0-1.2,0.4-2.3,1.1-3.2c0,0,0-0.1,0.1-0.1c0-0.1,0.1-0.1,0.1-0.2l0,0l0.1-0.1l0,0l0.1-0.2l0,0c0-0.1,0.1-0.2,0.1-0.2
			c0.1-0.1,0.1-0.3,0.2-0.4c0-0.1,0.1-0.2,0.1-0.3s0.1-0.3,0.1-0.5c0-0.1,0-0.2,0.1-0.3c0-0.3,0.1-0.5,0.1-0.8l0,0v-0.9
			c0-0.2,0-0.5-0.1-0.7c0-0.1,0-0.2,0-0.3c0-0.2-0.1-0.3-0.1-0.5c0-0.1-0.1-0.2-0.1-0.3c-0.1-0.1-0.1-0.3-0.2-0.4l0,0l-0.1-0.2l0,0
			l0,0l0,0v-0.1l0,0c-0.1-0.2-0.2-0.4-0.4-0.6c-0.7-0.9-1.1-2-1.1-3.2l0,0c0-0.3,0-0.5,0.1-0.8c0-0.1,0-0.1,0-0.2
			c0-0.2,0.1-0.4,0.2-0.7c0.4-1.2,1.3-2.3,2.4-2.9c0.1-0.1,0.2-0.1,0.3-0.2c0.1-0.1,0.2-0.1,0.3-0.2c0.2-0.1,0.4-0.2,0.5-0.2
			s0.2-0.1,0.3-0.1c0.2-0.1,0.3-0.1,0.5-0.2c0.1,0,0.2,0,0.3-0.1c0.2,0,0.4-0.1,0.6-0.1h0.1h0.2v-1.7h1.5v1.7l0,0h0.2l0,0
			c0.2,0,0.5,0.1,0.7,0.1c0.1,0,0.1,0,0.2,0c0.2,0.1,0.4,0.1,0.7,0.2H8c0.2,0.1,0.5,0.2,0.7,0.3c0.1,0,0.1,0.1,0.2,0.1
			c0.2,0.1,0.4,0.2,0.6,0.3c0.9,0.6,1.7,1.5,2.1,2.5v0.1c0.1,0.1,0.1,0.2,0.1,0.4c0.1,0.2,0.1,0.5,0.2,0.7c0,0.1,0,0.1,0,0.2
			c0,0.3,0.1,0.5,0.1,0.8l0,0c0,1.1-0.4,2.3-1.1,3.2c-0.1,0.2-0.3,0.4-0.4,0.6l0,0v0.1l0,0l-0.1,0.3l0,0c-0.1,0.1-0.1,0.3-0.2,0.4
			c0,0.1,0,0.1-0.1,0.2c-0.1,0.2-0.1,0.4-0.1,0.5s0,0.1,0,0.2c0,0.3-0.1,0.5-0.1,0.8v0.9l0,0c0,1,0.3,1.9,0.8,2.7l0.1,0.1h14
			L24.4-164.6z M24.4-169.7H10.5c-0.5-0.7-0.7-1.6-0.7-2.5v-0.9c0-0.2,0-0.5,0.1-0.7c0-0.1,0-0.1,0-0.2c0-0.2,0.1-0.4,0.1-0.5
			s0-0.1,0-0.1c0.1-0.2,0.2-0.4,0.2-0.6h14L24.4-169.7z M24.4-175.6H10.5c0.1-0.1,0.2-0.3,0.3-0.4c0.8-1,1.2-2.1,1.2-3.4l0,0l0,0
			c0-0.2,0-0.5-0.1-0.7c0-0.1,0-0.1,0-0.2c0-0.2-0.1-0.4-0.1-0.6v-0.1h12.6V-175.6z M11.6-181.3L11.6-181.3v-0.1l0,0c0,0,0,0,0-0.1
			s0-0.1,0-0.1c0-0.1-0.1-0.2-0.1-0.3v-0.1c0,0,0-0.1-0.1-0.1c-0.1-0.1-0.2-0.3-0.3-0.4l-0.1-0.1c-0.1-0.1-0.2-0.2-0.3-0.3l-0.1-0.1
			c-0.1-0.1-0.2-0.2-0.3-0.3l-0.1-0.1c-0.1-0.1-0.2-0.2-0.3-0.2l0,0l0,0l-0.1-0.1c-0.1-0.1-0.2-0.1-0.3-0.2c0,0-0.1,0-0.1-0.1
			s0,0-0.1,0l0,0c0,0-0.1,0-0.1-0.1c-0.2-0.1-0.3-0.2-0.5-0.3c-0.1,0-0.1-0.1-0.2-0.1c-0.2-0.1-0.4-0.2-0.7-0.3c0,0-0.1,0-0.1-0.1
			c-0.2-0.1-0.4-0.1-0.6-0.2c-0.1,0-0.1,0-0.2-0.1c-0.3-0.1-0.5-0.1-0.8-0.1v-1.3h13c2.9,0,5.2,1.8,5.2,4.1v1.2L11.6-181.3z"/>
		<g id="Group_7" transform="translate(0.295 0)">
			<g class="st11">
				<g>
					<defs>
						<path id="SVGID_1_" d="M10.2-158.5H-0.7c-7.9,0-14.2-6.4-14.2-14.2l0,0c0-7.9,6.4-14.2,14.2-14.2h10.9
							c7.9,0,14.2,6.4,14.2,14.2l0,0C24.4-164.9,18-158.5,10.2-158.5L10.2-158.5z"/>
					</defs>
					<clipPath id="SVGID_2_">
						<use xlink:href="#SVGID_1_"  style="overflow:visible;"/>
					</clipPath>
					<g id="Group_6" transform="translate(0)" class="st12">
						
							<radialGradient id="Path_36_1_" cx="-1318.9385" cy="-135.3122" r="1.015" gradientTransform="matrix(-63.7112 35.1369 -3.8848 -6.9837 -85238.2734 37906.75)" gradientUnits="userSpaceOnUse">
							<stop  offset="7.000001e-03" style="stop-color:#FFFF00"/>
							<stop  offset="9.300000e-02" style="stop-color:#E5E500"/>
							<stop  offset="0.277" style="stop-color:#A2A203"/>
							<stop  offset="0.505" style="stop-color:#484807"/>
							<stop  offset="0.915" style="stop-color:#00000A"/>
						</radialGradient>
						<path id="Path_36" class="st13" d="M-61.9-141.1c-2.2-3.9,25-23.1,60.7-42.8s66.4-32.5,68.5-28.6s-25,23.1-60.7,42.8
							S-59.8-137.2-61.9-141.1z"/>
						
							<radialGradient id="Path_37_1_" cx="-1268.681" cy="-1886.2166" r="1.0327" gradientTransform="matrix(-49.1238 27.1053 -1.9165 -3.5355 -65923.2188 27554.8047)" gradientUnits="userSpaceOnUse">
							<stop  offset="7.000001e-03" style="stop-color:#FFFF00"/>
							<stop  offset="9.300000e-02" style="stop-color:#E5E500"/>
							<stop  offset="0.277" style="stop-color:#A2A203"/>
							<stop  offset="0.505" style="stop-color:#484807"/>
							<stop  offset="0.915" style="stop-color:#00000A"/>
						</radialGradient>
						<path id="Path_37" class="st14" d="M-36.3-136.7c-1.1-2,20.5-16.1,48.4-31.5s51.3-26.2,52.4-24.2S44-176.3,16.1-160.9
							S-35.2-134.6-36.3-136.7z"/>
					</g>
				</g>
			</g>
		</g>
	</g>
</g>
</svg>
