<?xml version="1.0" encoding="utf-8"?>
<!-- Generator: Adobe Illustrator 25.2.1, SVG Export Plug-In . SVG Version: 6.00 Build 0)  -->
<svg version="1.1" id="Layer_1" xmlns="http://www.w3.org/2000/svg" xmlns:xlink="http://www.w3.org/1999/xlink" x="0px" y="0px"
	 viewBox="0 0 66.2 66.2" style="enable-background:new 0 0 66.2 66.2;" xml:space="preserve">
<style type="text/css">
	.st0{fill:#3333FF;}
</style>
<g id="UanLgF.tif">
	<g>
		<path class="st0" d="M21.4,30c0,6.4,0,12.8,0,19.2c0,0.7,0.2,1,0.9,0.9c9.6,0,19.2,0,28.8,0c1,0,1,0,1-1c0-1,0-2,0-2.9
			c0-0.3,0-0.6,0.1-0.9c0.2-0.5,0.5-0.7,1-0.7c0.5,0,0.9,0.4,0.9,0.9c0,3.8,0.2,7.6-0.1,11.4c-0.2,2.6-2.8,4.4-5.8,4.4
			c-6.7,0-13.5,0-20.2,0c-5.3,0-10.7,0-16,0c-1.2,0-2.3-0.3-3.2-1.2c-0.6-0.6-0.9-1.3-0.9-2.2c0-0.8,0-1.7,0-2.5
			c0-0.8,0.2-1.5,0.7-2.1c0.3-0.3,0.3-0.6,0-0.9c-0.5-0.6-0.7-1.3-0.7-2c0-0.8,0-1.5,0-2.3c0-1.2,0.5-2.2,1.5-2.8
			c0.5-0.3,0.5-0.4,0-0.8c-3.2-2.5-4.7-5.8-4.1-9.8c0.6-4.1,3-7,6.9-8.5c1.6-0.6,3.4-0.8,5.1-0.5c0.8,0.1,1.2,0.6,1.1,1.2
			c-0.1,0.6-0.7,0.9-1.4,0.8c-4.6-0.7-8.7,2.3-9.6,6.8c-1,5,2.9,9.8,8,9.9c0.6,0,1.2,0,1.8,0c0.7,0,1.1,0.5,1.1,1.1
			c0,0.5-0.5,1-1.2,1c-1.7,0-3.4,0-5.1,0c-1.5,0-2,0.5-2,2c0,0.5,0,1.1,0,1.6c0,1,0.5,1.5,1.4,1.6c1.1,0.1,2.3,0,3.4,0
			c0.4,0,0.7,0,1.1,0.1c0.5,0.1,0.9,0.4,0.9,1c0,0.6-0.3,0.9-0.9,1c-0.3,0-0.6,0.1-0.9,0.1c-1.1,0-2.2,0-3.4,0
			c-1.3,0-1.8,0.5-1.8,1.8c0,0.6,0,1.3,0,1.9c0,0.7,0.4,1.2,1,1.4c0.3,0.1,0.6,0.2,1,0.2c2.6,0,5.3,0,7.9,0c0.2,0,0.5,0.1,0.6-0.1
			c0.1-0.2-0.1-0.3-0.2-0.5c-0.6-1-0.9-2-0.9-3.2c0-14.9,0-29.7,0-44.6c0-3.4,2.5-5.9,5.9-5.9c7.7,0,15.3,0,23,0
			c3.9,0,6.1,3.2,5.9,5.9c-0.1,2,0,4.1,0,6.1c0,0.7-0.4,1.1-0.9,1.1c-0.5,0-1-0.4-1.1-1c0-0.3,0-0.5,0-0.8c0-1.8,0-3.6,0-5.4
			C52,8.4,50.6,7,48.2,7c-7.7,0-15.3,0-22.9,0c-2.3,0-3.8,1.5-3.9,3.9C21.4,17.2,21.4,23.6,21.4,30z M36.7,52.2c-2.3,0-4.6,0-6.9,0
			c-2.5,0-5.1,0-7.6,0c-0.6,0-0.8,0.2-0.8,0.8c0,0.7,0,1.4,0,2.1c0,2.8,1.4,4.2,4.2,4.2c5.4,0,10.8,0,16.2,0c2.2,0,4.4,0,6.6,0
			c2.2,0,3.8-1.2,3.6-3.7c0-0.8,0-1.6,0-2.4c0-1,0-1-1-1C46.3,52.2,41.5,52.2,36.7,52.2z"/>
		<path class="st0" d="M45.7,19.4c2.9,0,5.7,0,8.6,0c2.9,0,5.2,1.8,5.8,4.5c0.1,0.6,0.2,1.3,0.2,1.9c0,3.7,0,7.4,0,11.2
			c0,2.2-0.6,4.1-2.5,5.4c-1,0.7-2,1-3.2,1c-3.4,0-6.8,0-10.2,0c-0.5,0-1,0.1-1.3,0.5c-0.8,0.8-1.6,1.7-2.5,2.5
			c-0.6,0.6-1.2,0.6-1.6,0.2c-0.5-0.5-0.4-1,0.2-1.6c1-1,2-2,3-3c0.5-0.5,0.9-0.7,1.6-0.7c3.5,0,7.1,0,10.7,0c2.4,0,3.8-1.4,3.8-3.8
			c0-4.1,0-8.1,0-12.2c0-2.3-1.4-3.8-3.7-3.8c-5.7,0-11.5,0-17.2,0c-2.3,0-3.8,1.5-3.8,3.8c0,4.1,0,8.1,0,12.1
			c0,2.3,1.3,3.6,3.5,3.8c0.7,0.1,1.1,0.5,1.1,1.1c0,0.6-0.5,1-1.2,1c-2.9,0-5.4-2.5-5.5-5.7c-0.1-4.1-0.1-8.3,0-12.4
			c0-3.4,2.5-5.8,5.9-5.8C40,19.3,42.8,19.4,45.7,19.4z"/>
		<path class="st0" d="M18.1,37.9c-0.1,1-0.4,1.8-1.2,2.3c-0.4,0.3-0.6,0.6-0.6,1c0,0.2,0,0.3,0,0.5c-0.1,0.6-0.4,0.9-1,0.9
			c-0.6,0-1-0.4-0.9-1c0-0.6-0.2-0.8-0.8-0.9c-0.4-0.1-0.9-0.3-1.3-0.5c-0.6-0.3-0.7-0.8-0.5-1.3c0.2-0.5,0.7-0.7,1.2-0.5
			c0.6,0.2,1.1,0.5,1.8,0.4c0.5,0,1-0.2,1.1-0.8c0.1-0.6-0.4-0.8-0.8-1c-0.5-0.2-1-0.3-1.5-0.6c-0.9-0.5-1.5-1.3-1.5-2.4
			c0-1.1,0.5-1.9,1.5-2.4c0.5-0.2,0.7-0.5,0.7-1.1c0-0.6,0.3-1.1,0.9-1.2c0.6-0.1,1.1,0.4,1.1,1.1c0,0.6,0.2,0.9,0.8,1
			c0.2,0,0.4,0.2,0.6,0.3c0.4,0.3,0.6,0.7,0.4,1.2c-0.2,0.5-0.6,0.7-1.1,0.6c-0.2,0-0.5-0.2-0.7-0.2c-0.3-0.1-0.7-0.2-1.1-0.1
			c-0.4,0.1-0.9,0.2-0.9,0.7s0.3,0.7,0.7,0.9c0.5,0.2,1,0.4,1.5,0.6C17.5,36,18,36.8,18.1,37.9z"/>
		<path class="st0" d="M39.8,40.1c-0.9,0-1.3-0.8-1-1.5c0.1-0.2,0.3-0.5,0.6-0.7c3.7-3.7,7.5-7.5,11.2-11.2c0.8-0.8,1.3-0.9,1.8-0.4
			c0.5,0.5,0.4,1.1-0.4,1.9c-3.7,3.7-7.5,7.5-11.2,11.2C40.5,39.8,40.2,40.1,39.8,40.1z"/>
		<path class="st0" d="M51.8,32.2c1.7,0,3.1,1.4,3.1,3.1c0,1.6-1.4,3-3,3.1c-1.6,0-3.1-1.4-3.1-3.1C48.8,33.7,50.2,32.2,51.8,32.2z
			 M52.9,35.2c0-0.5-0.5-1-1-1c-0.5,0-1,0.5-1,1c0,0.5,0.5,1,1,1C52.5,36.2,52.9,35.8,52.9,35.2z"/>
		<path class="st0" d="M41.1,26c1.7,0,3,1.3,3.1,3c0,1.7-1.3,3.1-3,3.1c-1.7,0-3-1.3-3-3.1C38,27.4,39.3,26,41.1,26z M41,30.1
			c0.6,0,1-0.4,1-1c0-0.6-0.4-1-1-1s-0.9,0.3-1,0.9C40.1,29.6,40.5,30,41,30.1z"/>
		<path class="st0" d="M36.9,12.6c-0.8,0-1.6,0-2.4,0c-0.7,0-1.1-0.4-1.1-1s0.4-1.1,1-1.1c1.6,0,3.3,0,4.9,0c0.7,0,1.1,0.5,1.1,1.1
			c0,0.6-0.5,0.9-1.2,0.9C38.4,12.6,37.7,12.6,36.9,12.6z"/>
		<path class="st0" d="M38.8,55.6c0,1.2-0.9,2.1-2.1,2.1c-1.1,0-2.1-1-2.1-2.1c0-1.1,1-2.1,2.1-2.2C37.9,53.5,38.8,54.5,38.8,55.6z"
			/>
	</g>
</g>
</svg>
