<?xml version="1.0" encoding="utf-8"?>
<!-- Generator: Adobe Illustrator 25.2.1, SVG Export Plug-In . SVG Version: 6.00 Build 0)  -->
<svg version="1.1" id="Layer_1" xmlns="http://www.w3.org/2000/svg" xmlns:xlink="http://www.w3.org/1999/xlink" x="0px" y="0px"
	 viewBox="0 0 20.2 20.2" style="enable-background:new 0 0 20.2 20.2;" xml:space="preserve">
<style type="text/css">
	.st0{fill:#757575;}
</style>
<g id="infoicon" transform="translate(-82.006 -56.781)">
	<g id="Group_119" transform="translate(82.006 56.781)">
		<path id="Path_375" class="st0" d="M11.2,0c1.4,0.2,2.7,0.6,3.9,1.3c3.2,1.7,5.1,5.1,5.1,8.7c0.1,3.6-1.8,7-5,8.8
			c-4.8,2.8-11,1.3-13.8-3.5c-0.6-1.1-1.1-2.2-1.3-3.4c0-0.2-0.1-0.4-0.1-0.6V9c0-0.1,0-0.2,0.1-0.3c0.4-3.1,2.3-5.9,5.1-7.4
			C6.3,0.6,7.6,0.2,9,0L11.2,0z M10.1,19.2c5,0,9.1-4.1,9.1-9.1c0-5-4.1-9.1-9.1-9.1C5.1,1,1,5,1,10.1c0,5,4,9.1,8.9,9.1
			C10,19.2,10,19.2,10.1,19.2z"/>
		<path id="Path_376" class="st0" d="M9.9,8.4c0.8-0.1,1.5,0.4,1.6,1.2c0,0.2,0,0.4,0,0.6c-0.2,0.7-0.3,1.5-0.6,2.2
			c-0.1,0.4-0.2,0.7-0.2,1.1c-0.1,0.4,0.1,0.6,0.6,0.7c0.2,0,0.4,0,0.6,0c0.1,0,0.3-0.2,0.4,0.1c0,0.2,0,0.4-0.2,0.5
			c-0.9,0.5-1.9,0.6-2.9,0.3c-0.5-0.2-0.8-0.8-0.7-1.4C8.6,12.8,8.8,12,9,11.2c0.1-0.4,0.2-0.7,0.2-1.1c0-0.5-0.1-0.7-0.7-0.7
			c-0.1,0-0.2,0-0.4,0c-0.1,0-0.4,0.2-0.4,0c-0.1-0.2,0-0.5,0.3-0.6C8.7,8.6,9.3,8.4,9.9,8.4z"/>
		<path id="Path_377" class="st0" d="M11.1,7.4c-0.7,0-1.3-0.5-1.4-1.2c0-0.7,0.6-1.2,1.3-1.2c0.7,0,1.3,0.5,1.3,1.2c0,0,0,0,0,0
			C12.4,6.9,11.8,7.4,11.1,7.4z"/>
	</g>
</g>
</svg>
