<?xml version="1.0" encoding="utf-8"?>
<!-- Generator: Adobe Illustrator 25.2.1, SVG Export Plug-In . SVG Version: 6.00 Build 0)  -->
<svg version="1.1" id="Layer_1" xmlns="http://www.w3.org/2000/svg" xmlns:xlink="http://www.w3.org/1999/xlink" x="0px" y="0px"
	 viewBox="0 0 66.2 66.2" style="enable-background:new 0 0 66.2 66.2;" xml:space="preserve">
<style type="text/css">
	.st0{fill:#3333FF;}
</style>
<g id="ZNrMPG.tif" transform="translate(-334.936 -436.367)">
	<g id="Group_19" transform="translate(334.936 436.367)">
		<path id="Path_54" class="st0" d="M40.4,18.7c-1.2-1.4-2-2.5-3-3.6c-1.8-2.1-3.5-4.2-5.3-6.3c-0.5-0.6-0.9-0.9-1.5-0.1
			c-2.4,3.2-4.8,6.4-7.3,9.8c0.9,0.2,1.9,0.3,2.8,0.2c0.8-0.1,1.6,0.5,1.7,1.3c0,0.1,0,0.2,0,0.4c0,2.6,0,5.1,0,7.7
			c0,0.8-0.4,1.5-1.3,1.5s-1.3-0.6-1.3-1.5c-0.1-1.6-0.1-3.2,0-4.8c0.1-1.7-0.6-2.2-2.1-2c-0.5,0-1,0-1.5,0c-0.8,0-1.8,0.1-2.2-0.8
			c-0.4-0.9,0.3-1.5,0.7-2.1c2.8-3.7,5.6-7.4,8.3-11.1c2.7-3.6,2.7-3.6,5.6-0.1c3.1,3.7,6.3,7.5,9.4,11.2c0.5,0.6,1.2,1.2,0.8,2.1
			s-1.3,0.8-2.1,0.8c-3.7,0.1-3.7,0.1-3.7,3.8c0,2.6,0,5.2,0,7.9c0,0.7-0.2,1.5,1.1,1.2c0.7-0.2,1.1,0.5,1.5,1
			c3.7,4.4,7.3,8.8,11,13.2c0.4,0.5,0.9,1,0.6,1.8c-0.4,0.8-1.1,0.8-1.9,0.9c-3.9,0.2-3.9,0.2-3.9,4.2c0,3.9,0,3.9,4,3.9
			c3.1,0,6.2,0,9.3,0c1,0,2,0.1,2,1.3c0,1.2-1,1.3-2,1.3c-18.1,0-36.2,0-54.3,0c-1,0-2,0-2-1.3c0-1.3,1.1-1.3,2-1.3c2,0,3.9,0,5.9,0
			c1.1,0,1.5-0.3,1.5-1.5c0-5.2,0-10.5,0-15.7c0-1.2-0.5-1.6-1.6-1.6c-0.9,0.1-1.8,0-2.7,0c-1.5-0.2-2-1.1-1.1-2.3
			c3.4-4.6,6.9-9.2,10.3-13.8c0.8-1.1,1.7-1,2.5,0c3.8,4.5,7.5,9,11.2,13.5c0.4,0.5,0.8,1,0.5,1.7c-0.3,0.8-1,0.8-1.7,0.9
			c-0.1,0-0.2,0-0.4,0c-3.8,0.2-3.8,0.2-3.8,4c0,4.3,0,8.7,0,13c0,1.4,0.5,1.8,1.8,1.8c5.1,0.1,5.2,0.1,5.1-5c0-3.6,0.5-3.1-3.1-3.1
			c-0.1,0-0.2,0-0.4,0c-0.8,0-1.8,0.2-2.3-0.8s0.2-1.6,0.7-2.3c2.1-2.8,4.1-5.6,6.3-8.3c0.7-0.9,1.1-2,1.1-3.2
			c-0.1-4.5-0.1-9,0-13.5c0-1.3-0.4-1.8-1.7-1.7c-0.9,0-1.8,0-2.7,0c-0.8,0-1.5-0.4-1.4-1.3s0.7-1.2,1.5-1.2c2.1,0,4.3,0,6.4,0
			L40.4,18.7L40.4,18.7z M11.6,37.3c0.4,0.3,0.9,0.5,1.4,0.3c3,0,3,0,3,3c0,5.5,0,11.1,0,16.7c0,1.3,0.4,1.9,1.7,1.8
			c1.6-0.1,3.3-0.1,4.9,0c1,0,1.5-0.3,1.5-1.4c0-5.3,0-10.6,0-15.9c0-1.2-0.5-1.5-1.6-1.4c-1.1,0-2.2,0-3.3-0.1
			c-0.6,0-1.1-0.5-1.1-1.2c0,0,0-0.1,0-0.1c0-0.6,0.5-1.2,1.1-1.2c0,0,0,0,0,0c0.5,0,1.1,0,1.6,0c2.4,0,4.8,0,7.6,0
			c-2.4-2.9-4.5-5.4-6.6-7.9c-2.5-3-2.5-3-4.9,0.2C15.2,32.4,13.4,34.9,11.6,37.3z M31.5,48.4c1,0,1.6,0,2.1,0
			c2.3,0,2.5,0.3,2.5,2.5c0,1.5,0,2.9,0,4.4c0,3.8,0,3.8,3.8,3.8c4.3,0,4.3,0,4.3-4.3c0-3.7,0-3.7-3.7-3.8c-1,0-2.2,0-2.1-1.4
			s1.3-1.2,2.2-1.2c2.5,0,5.1,0,8.1,0c-3-3.6-5.8-6.9-8.5-10.3c-0.5-0.6-0.8-0.3-1.1,0.1C36.7,41.5,34.2,44.8,31.5,48.4L31.5,48.4z"
			/>
		<path id="Path_55" class="st0" d="M50.3,28.4c-2.9,0-5.8,0-8.8,0c-0.9,0-1.8-0.1-1.9-1.2c0-1.2,1-1.4,1.9-1.4c5.8,0,11.7,0,17.5,0
			c1,0,2,0.1,2,1.4c0,1.2-1.1,1.3-2,1.3C56.1,28.4,53.2,28.4,50.3,28.4z"/>
		<path id="Path_56" class="st0" d="M53.9,23.6c-1.5,0-2.9,0-4.4,0c-0.8,0-1.5-0.3-1.5-1.2c-0.1-1,0.7-1.4,1.5-1.4c3,0,6,0,8.9,0
			c0.8,0,1.5,0.4,1.5,1.3c0,1-0.7,1.3-1.6,1.3C56.8,23.6,55.3,23.6,53.9,23.6L53.9,23.6z"/>
		<path id="Path_57" class="st0" d="M8.7,28.4c-1.2,0-2.3,0-3.5,0c-0.7,0.1-1.2-0.4-1.3-1.1c0,0,0-0.1,0-0.1c-0.1-0.6,0.4-1.2,1-1.3
			c0.1,0,0.1,0,0.2,0c2.4-0.1,4.7,0,7.1,0c0.7,0,1.2,0.5,1.3,1.1c0,0,0,0.1,0,0.2c0,0.7-0.5,1.2-1.2,1.2c0,0-0.1,0-0.1,0
			C11,28.4,9.9,28.4,8.7,28.4z"/>
		<path id="Path_58" class="st0" d="M19.6,9.2c1.1,0,2.2,0,3.3,0c0.7-0.1,1.3,0.4,1.4,1.1c0,0,0,0.1,0,0.1c0.1,0.6-0.4,1.2-1,1.3
			c-0.1,0-0.1,0-0.2,0c-2.4,0.1-4.7,0.1-7.1,0c-0.6,0.1-1.2-0.4-1.3-1.1c0-0.1,0-0.1,0-0.2c0-0.6,0.5-1.2,1.1-1.2c0.1,0,0.1,0,0.2,0
			C17.1,9.1,18.4,9.2,19.6,9.2z"/>
	</g>
</g>
</svg>
