<svg xmlns="http://www.w3.org/2000/svg" width="320" height="200.264" viewBox="0 0 320 200.264">
  <g id="limit_inqury_intro" transform="translate(-65.057 -109.258)">
    <g id="Group_114" data-name="Group 114" transform="translate(66.906 109.258)">
      <rect id="Rectangle_37" data-name="Rectangle 37" width="29.058" height="38.758" transform="translate(12.176 108.969)" fill="#fa0"/>
      <path id="Path_64" data-name="Path 64" d="M169.6,210.844c.909.079,1.514.585,1.517,1.04s-.638.827-1.039.956a2.718,2.718,0,0,1-2.119-.416,4.577,4.577,0,0,1-1.778-1.794l.921-1.986Z" transform="translate(-80.545 -122.662)" fill="#ff8a8a"/>
      <g id="Group_38" data-name="Group 38" transform="translate(41.139 94.717)">
        <path id="Path_65" data-name="Path 65" d="M132.057,234.805l3.248-3.717v-5.332h3.352v5.332q1.625,1.858,3.249,3.717v22.346h-9.849Z" transform="translate(-117.082 -219.687)" fill="#082c7c"/>
        <path id="Path_66" data-name="Path 66" d="M120.321,229.539q1.339-2.218,2.678-4.436v-6.361h2.763V225.1l2.678,4.436v26.667h-8.118Z" transform="translate(-115.499 -218.741)" fill="#082c7c"/>
        <g id="Group_37" data-name="Group 37" transform="translate(0 15.961)">
          <path id="Path_67" data-name="Path 67" d="M115.141,237.662v37.709h27.278V237.687c-.066-.1-3.448,4.974-3.448,4.974l-3.4-5.075-3.383,5.075-3.4-5.075-3.382,5.075-3.4-5.075-3.4,5.075-3.4-5.075Z" transform="translate(-114.8 -237.244)" fill="#f4d038"/>
          <g id="Group_36" data-name="Group 36">
            <path id="Path_68" data-name="Path 68" d="M142.366,275.658H115.088a.34.34,0,0,1-.341-.341V237.609a.333.333,0,0,1,.048-.174c.109-.18.21-.254.338-.243a.334.334,0,0,1,.282.151L118.535,242l3.124-4.654a.339.339,0,0,1,.564,0l3.121,4.652,3.1-4.65a.336.336,0,0,1,.282-.152.34.34,0,0,1,.282.151l3.121,4.652,3.1-4.65a.345.345,0,0,1,.285-.152.339.339,0,0,1,.282.151l3.123,4.652,3.1-4.65a.342.342,0,0,1,.569,0,.513.513,0,0,1,.123.289v37.683A.341.341,0,0,1,142.366,275.658Zm-26.938-.682h26.6V238.56L139.2,242.8a.345.345,0,0,1-.285.151.338.338,0,0,1-.282-.151l-3.123-4.651-3.1,4.65a.345.345,0,0,1-.285.151.338.338,0,0,1-.282-.151l-3.121-4.651-3.1,4.65a.339.339,0,0,1-.564,0l-3.121-4.653-3.123,4.653a.34.34,0,0,1-.565,0l-2.825-4.211Z" transform="translate(-114.747 -237.191)" fill="#d64545"/>
          </g>
        </g>
      </g>
      <g id="Group_62" data-name="Group 62" transform="translate(0 103.856)">
        <g id="Group_39" data-name="Group 39" transform="translate(0 0.01)">
          <path id="Path_69" data-name="Path 69" d="M140.727,274.8h-62.7a.345.345,0,0,1-.333-.264L67.2,229.735a.333.333,0,0,1,.067-.289.34.34,0,0,1,.266-.129h73.19a.34.34,0,0,1,.341.341v44.8A.34.34,0,0,1,140.727,274.8Zm-62.433-.682h62.093V230H67.965Z" transform="translate(-67.194 -229.317)" fill="#d64545"/>
        </g>
        <g id="Group_40" data-name="Group 40" transform="translate(73.192 44.813)">
          <path id="Path_70" data-name="Path 70" d="M152.137,311.012a.34.34,0,0,1-.34-.341V281.445a.34.34,0,1,1,.681,0v29.226A.34.34,0,0,1,152.137,311.012Z" transform="translate(-151.797 -281.104)" fill="#d64545"/>
        </g>
        <g id="Group_41" data-name="Group 41" transform="translate(10.591 74.039)">
          <path id="Path_71" data-name="Path 71" d="M142.378,315.568h-62.6a.341.341,0,0,1,0-.682h62.6a.341.341,0,0,1,0,.682Z" transform="translate(-79.436 -314.886)" fill="#d64545"/>
        </g>
        <g id="Group_42" data-name="Group 42" transform="translate(9.345 39.192)">
          <path id="Path_72" data-name="Path 72" d="M142.184,275.289H78.337a.341.341,0,1,1,0-.682h63.847a.341.341,0,1,1,0,.682Z" transform="translate(-77.996 -274.607)" fill="#d64545"/>
        </g>
        <g id="Group_43" data-name="Group 43" transform="translate(2.238 9.581)">
          <path id="Path_73" data-name="Path 73" d="M141.076,241.061H70.122a.341.341,0,1,1,0-.682h70.954a.341.341,0,1,1,0,.682Z" transform="translate(-69.781 -240.379)" fill="#d64545"/>
        </g>
        <g id="Group_44" data-name="Group 44" transform="translate(2.659 11.342)">
          <path id="Path_74" data-name="Path 74" d="M141.141,243.1H70.609a.341.341,0,1,1,0-.682h70.533a.341.341,0,1,1,0,.682Z" transform="translate(-70.268 -242.415)" fill="#d64545"/>
        </g>
        <g id="Group_45" data-name="Group 45" transform="translate(5.593 0.005)">
          <path id="Path_75" data-name="Path 75" d="M83.252,274.8a.338.338,0,0,1-.332-.271L73.667,229.72a.34.34,0,0,1,.264-.4.336.336,0,0,1,.4.265l9.253,44.812a.339.339,0,0,1-.264.4A.393.393,0,0,1,83.252,274.8Z" transform="translate(-73.659 -229.311)" fill="#d64545"/>
        </g>
        <g id="Group_46" data-name="Group 46" transform="translate(11.836 0.001)">
          <path id="Path_76" data-name="Path 76" d="M87.656,274.8a.341.341,0,0,1-.339-.292l-.692-4.9L80.879,229.7a.342.342,0,0,1,.29-.386.334.334,0,0,1,.386.289l6.438,44.812a.341.341,0,0,1-.29.385A.3.3,0,0,1,87.656,274.8Z" transform="translate(-80.876 -229.306)" fill="#d64545"/>
        </g>
        <g id="Group_47" data-name="Group 47" transform="translate(17.437)">
          <path id="Path_77" data-name="Path 77" d="M91.959,274.8a.339.339,0,0,1-.338-.309l-4.269-44.812a.34.34,0,0,1,.306-.371.327.327,0,0,1,.37.307L92.3,274.43a.339.339,0,0,1-.305.372Z" transform="translate(-87.35 -229.305)" fill="#d64545"/>
        </g>
        <g id="Group_48" data-name="Group 48" transform="translate(22.418 0.004)">
          <path id="Path_78" data-name="Path 78" d="M95.4,274.8a.341.341,0,0,1-.341-.324l-.221-4.9-1.729-39.918a.341.341,0,0,1,.682-.029l.5,11.334,1.453,33.477a.342.342,0,0,1-.324.356Z" transform="translate(-93.107 -229.31)" fill="#d64545"/>
        </g>
        <g id="Group_49" data-name="Group 49" transform="translate(27.008 0.004)">
          <path id="Path_79" data-name="Path 79" d="M98.754,274.8a.343.343,0,0,1-.341-.354l.2-4.895,1.48-39.917a.352.352,0,0,1,.355-.328.341.341,0,0,1,.327.355L100.352,241l-1.257,33.479A.342.342,0,0,1,98.754,274.8Z" transform="translate(-98.413 -229.31)" fill="#d64545"/>
        </g>
        <g id="Group_50" data-name="Group 50" transform="translate(31.498 0.004)">
          <path id="Path_80" data-name="Path 80" d="M103.944,274.8a.342.342,0,0,1-.341-.354l.2-4.895,1.48-39.916a.341.341,0,0,1,.682.024l-1.677,44.814A.341.341,0,0,1,103.944,274.8Z" transform="translate(-103.603 -229.31)" fill="#d64545"/>
        </g>
        <g id="Group_51" data-name="Group 51" transform="translate(36.703 0.004)">
          <path id="Path_81" data-name="Path 81" d="M109.96,274.8a.343.343,0,0,1-.341-.354l.2-4.895,1.48-39.917a.351.351,0,0,1,.355-.328.341.341,0,0,1,.327.355L110.3,274.477A.342.342,0,0,1,109.96,274.8Z" transform="translate(-109.619 -229.31)" fill="#d64545"/>
        </g>
        <g id="Group_52" data-name="Group 52" transform="translate(40.923 0.004)">
          <path id="Path_82" data-name="Path 82" d="M114.839,274.8a.346.346,0,0,1-.341-.366l.369-4.895,3.083-39.918a.349.349,0,0,1,.368-.313.343.343,0,0,1,.314.366l-3.454,44.81A.342.342,0,0,1,114.839,274.8Z" transform="translate(-114.497 -229.31)" fill="#d64545"/>
        </g>
        <g id="Group_53" data-name="Group 53" transform="translate(44.991 0.004)">
          <path id="Path_83" data-name="Path 83" d="M119.541,274.8a.348.348,0,0,1-.341-.369l.4-4.895,3.059-39.915a.349.349,0,0,1,.368-.313.343.343,0,0,1,.314.366l-3.456,44.814A.342.342,0,0,1,119.541,274.8Z" transform="translate(-119.199 -229.31)" fill="#d64545"/>
        </g>
        <g id="Group_54" data-name="Group 54" transform="translate(48.57 0.004)">
          <path id="Path_84" data-name="Path 84" d="M123.678,274.8a.347.347,0,0,1-.341-.366l3.454-44.813a.334.334,0,0,1,.367-.313.342.342,0,0,1,.314.366l-3.453,44.81A.343.343,0,0,1,123.678,274.8Z" transform="translate(-123.336 -229.31)" fill="#d64545"/>
        </g>
        <g id="Group_55" data-name="Group 55" transform="translate(52.393 0.004)">
          <path id="Path_85" data-name="Path 85" d="M128.1,274.8a.347.347,0,0,1-.341-.366l.37-4.895,3.083-39.918a.338.338,0,0,1,.368-.313.343.343,0,0,1,.314.366l-3.454,44.81A.342.342,0,0,1,128.1,274.8Z" transform="translate(-127.755 -229.31)" fill="#d64545"/>
        </g>
        <g id="Group_56" data-name="Group 56" transform="translate(56.366 0.004)">
          <path id="Path_86" data-name="Path 86" d="M132.689,274.8a.348.348,0,0,1-.341-.369l.395-4.895,3.083-39.915a.342.342,0,0,1,.682.053l-3.478,44.814A.344.344,0,0,1,132.689,274.8Z" transform="translate(-132.347 -229.31)" fill="#d64545"/>
        </g>
        <g id="Group_57" data-name="Group 57" transform="translate(60.855 0.004)">
          <path id="Path_87" data-name="Path 87" d="M137.878,274.8a.348.348,0,0,1-.341-.369l.395-4.895,3.086-39.915a.354.354,0,0,1,.368-.313.343.343,0,0,1,.314.366l-3.48,44.814A.344.344,0,0,1,137.878,274.8Z" transform="translate(-137.536 -229.31)" fill="#d64545"/>
        </g>
        <g id="Group_58" data-name="Group 58" transform="translate(63.938 0.004)">
          <path id="Path_88" data-name="Path 88" d="M141.442,274.8a.347.347,0,0,1-.341-.366l.37-4.895,3.086-39.918a.335.335,0,0,1,.368-.313.343.343,0,0,1,.314.366l-3.456,44.81A.342.342,0,0,1,141.442,274.8Z" transform="translate(-141.1 -229.31)" fill="#d64545"/>
        </g>
        <g id="Group_59" data-name="Group 59" transform="translate(67.147 0.004)">
          <path id="Path_89" data-name="Path 89" d="M145.151,274.8a.348.348,0,0,1-.341-.369l.394-4.895,3.083-39.915a.342.342,0,0,1,.682.053l-3.477,44.814A.344.344,0,0,1,145.151,274.8Z" transform="translate(-144.809 -229.31)" fill="#d64545"/>
        </g>
        <g id="Group_60" data-name="Group 60" transform="translate(4.034 72.507)">
          <circle id="Ellipse_31" data-name="Ellipse 31" cx="11.362" cy="11.362" r="11.362" fill="#082c7c"/>
          <circle id="Ellipse_32" data-name="Ellipse 32" cx="7" cy="7" r="7" transform="translate(4.117 4.027)" fill="#fff"/>
        </g>
        <g id="Group_61" data-name="Group 61" transform="translate(56.126 72.507)">
          <circle id="Ellipse_33" data-name="Ellipse 33" cx="11.362" cy="11.362" r="11.362" fill="#082c7c"/>
          <circle id="Ellipse_34" data-name="Ellipse 34" cx="6.921" cy="6.921" r="6.921" transform="translate(4.441 4.441)" fill="#fff"/>
        </g>
      </g>
      <path id="Rectangle_38" data-name="Rectangle 38" d="M1.063,0h31.8a1.06,1.06,0,0,1,1.06,1.06v0a1.061,1.061,0,0,1-1.061,1.061H1.062A1.062,1.062,0,0,1,0,1.063v0A1.063,1.063,0,0,1,1.063,0Z" transform="translate(68.56 117.621) rotate(-73.043)" fill="#082c7c"/>
      <path id="Rectangle_39" data-name="Rectangle 39" d="M.848,0H13.085a.849.849,0,0,1,.849.849v.2a.849.849,0,0,1-.849.849H.849A.849.849,0,0,1,0,1.052v-.2A.848.848,0,0,1,.848,0Z" transform="matrix(0.99, 0.138, -0.138, 0.99, 78.587, 85.833)" fill="#082c7c"/>
      <path id="Path_90" data-name="Path 90" d="M228.879,131.079c-.106,1.4-.185,2.834-.292,4.237a26.978,26.978,0,0,1-9.031,10.939c-2.543,1.695-2.913,1.218-5.641,3.2-5.721,4.105-5.4,7.124-10.038,9.375-3.655,1.774-5.72.8-6.621,2.543-1.536,2.967,3.761,7.2,2.171,9.984-1.245,2.119-5.165,1.033-5.986,2.914-.555,1.271.61,3.045,2.172,4.74H191.3c-.132-1.3-.292-2.569-.451-3.866-.08,1.271-.158,2.569-.265,3.866H166.428c-.371-1.032-.715-2.119-1.06-3.151-.08,1.059-.132,2.119-.212,3.151h-3.734c-.5-1.933-.98-3.839-1.457-5.773.027,1.934.053,3.84.08,5.773H149.213c-.239-.318-.477-.609-.715-.927.079.292.158.609.211.927h-5.058c2.3-6.038,4.794-7.786,6.807-8.156,1.8-.344,2.463.582,4.423.106,3.947-.953,3.814-5.218,7.5-6.833,3.814-1.695,5.932,1.96,9.72.37,3.893-1.615,2.834-6.012,7.284-8.422,3.178-1.748,4.4.159,8.4-1.562,4.609-1.986,4.052-5.006,8.157-6.568,4.661-1.774,6.86,1.589,10.435-.318,4.185-2.225,2.992-7.787,7.124-9.27,2.41-.9,3.654.741,6.621.318C223.793,138.177,226.654,134.972,228.879,131.079Z" transform="translate(-77.506 -112.201)" fill="#082c7c"/>
      <g id="Group_63" data-name="Group 63" transform="translate(64.062 22.915)">
        <path id="Path_91" data-name="Path 91" d="M141.584,178.3c-.3-.089-.386-.285-.32-.462,1.953-5.117,4.263-7.855,7.065-8.371a5.075,5.075,0,0,1,2.183.084,4.437,4.437,0,0,0,2.221.027c1.96-.474,2.858-1.833,3.8-3.273a8.391,8.391,0,0,1,3.634-3.541c2.04-.909,3.629-.37,5.158.149,1.446.491,2.814.953,4.564.22,1.806-.748,2.466-2.108,3.23-3.685a9.269,9.269,0,0,1,4.026-4.724,6.761,6.761,0,0,1,4.063-.832,8.8,8.8,0,0,0,4.359-.743,9.715,9.715,0,0,0,4.178-3.393,8.6,8.6,0,0,1,3.993-3.181,8.972,8.972,0,0,1,5.879-.109c1.544.371,2.87.691,4.519-.191,1.944-1.035,2.676-2.867,3.384-4.639.755-1.89,1.536-3.844,3.783-4.65a5.077,5.077,0,0,1,3.014-.064,17.8,17.8,0,0,0,3.61.361,22.5,22.5,0,0,0,8.009-1.512.341.341,0,1,1,.245.637,23.072,23.072,0,0,1-8.139,1.557,18.923,18.923,0,0,1-3.851-.371,4.406,4.406,0,0,0-2.659.035c-1.958.7-2.647,2.431-3.379,4.262-.754,1.885-1.534,3.835-3.7,4.987-1.883,1-3.4.635-5,.253a8.279,8.279,0,0,0-5.475.083,7.941,7.941,0,0,0-3.706,2.967,10.273,10.273,0,0,1-4.438,3.6,9.479,9.479,0,0,1-4.657.8,6.176,6.176,0,0,0-3.709.748,8.582,8.582,0,0,0-3.739,4.423c-.793,1.63-1.539,3.169-3.581,4.015a6.445,6.445,0,0,1-5.046-.2c-1.472-.5-2.862-.977-4.665-.171a7.845,7.845,0,0,0-3.339,3.294c-.98,1.486-1.994,3.022-4.215,3.56a5.108,5.108,0,0,1-2.518-.022,4.564,4.564,0,0,0-1.921-.082c-2.513.463-4.718,3.135-6.55,7.944A.342.342,0,0,1,141.584,178.3Z" transform="translate(-141.243 -135.746)" fill="#082c7c"/>
      </g>
      <path id="Path_92" data-name="Path 92" d="M268.564,254.672l-20.1,2.41-1.219-9.959-.529-4.528L244.781,226.7c-.026,0-2.039-16.474-2.039-16.474l-.424-3.522c.027-.027,11.548-1.431,11.548-1.431l8.554-1.032c0,.053.053.423.053.423l.292,2.278.741,6.356.636,5.323,1.165,9.455,1.748,14.276Z" transform="translate(-90.813 -122.069)" fill="#ff8a8a"/>
      <path id="Path_93" data-name="Path 93" d="M270.278,264.324a9.392,9.392,0,0,1-.37,2.543,9.8,9.8,0,0,1-.98,2.3,3.371,3.371,0,0,1-.265.371c-2.914,4.555-9.164,5.879-14.143,2.94a10.729,10.729,0,0,1-5.43-9.826l.159-1.324a.332.332,0,0,1,.027-.159,10.044,10.044,0,0,1,1.112-2.914,8.76,8.76,0,0,1,.8-1.139,10.073,10.073,0,0,1,2.728-2.357,6.779,6.779,0,0,1,.768-.37,11.1,11.1,0,0,1,13.031,2.992A10.533,10.533,0,0,1,270.278,264.324Z" transform="translate(-91.724 -128.697)" fill="#ff8a8a"/>
      <path id="Path_94" data-name="Path 94" d="M267.74,248.3c-6.595,1.589-13.216,3.178-19.811,4.767l-.529-4.528Z" transform="translate(-91.498 -128.01)" fill="#f66"/>
      <path id="Path_95" data-name="Path 95" d="M245.587,215.134l-4.423,7.627c-.08.159-.106.186-.106.239l-8.66,14.937-.239.4-1.35,2.331-2.039,3.523-1.377,2.357-2.675,4.661-2.093,3.628c-.026.08-1.086,1.934-1.086,1.934l-1.165,1.986-.185.291c-.027.054-7.469-4.237-7.469-4.237l-6.065-3.5-.636-.37-3.364-1.934c-.027-.027,1.218-2.171,1.218-2.171l.529-.927,5.244-9.084.662-1.139,1.245-2.171.159-.265c.026-.026.635-1.113.635-1.113l.371-.609c.026,0,.847-1.456.847-1.456.027,0,.821-1.377.821-1.377l1.351-2.357.609-1.06,9.269-16.049,2.437-4.211Z" transform="translate(-85.464 -122.173)" fill="#ff8a8a"/>
      <path id="Path_96" data-name="Path 96" d="M233.8,242.332l-.238.4-3.39,5.853q-8.5-5.483-17.056-10.938C220,239.207,226.912,240.77,233.8,242.332Z" transform="translate(-86.874 -126.574)" fill="#f66"/>
      <g id="Group_64" data-name="Group 64" transform="translate(149.567 15.822)">
        <path id="Path_97" data-name="Path 97" d="M240.15,158.644c1.1,3.108,3.429,5.319,5.734,5.326,3.4.011,5.829-4.767,6.16-8.118a8.737,8.737,0,0,0,.042-.945l-.439-.954c-.253-.553-.507-1.1-.76-1.652q-1.681-3.649-3.359-7.31c-.175-.374-.343-.747-.518-1.121l-4.962.016c-.055.436-.109.867-.169,1.3C241.289,149.8,240.717,154.221,240.15,158.644Z" transform="translate(-240.088 -129.748)" fill="#ff8a8a"/>
        <path id="Path_98" data-name="Path 98" d="M242.123,145.377c.665,2.01,2.281,5.76,5.953,7.6.213.106,2.519,1.238,3.837.972-.253-.553-.507-1.1-.76-1.652q-1.681-3.649-3.359-7.31c-.175-.374-.343-.747-.518-1.121l-3.543.011A11.7,11.7,0,0,0,242.123,145.377Z" transform="translate(-240.354 -129.748)" fill="#f66"/>
        <path id="Path_99" data-name="Path 99" d="M240.078,136.9c.016,5.153,3.243,9.323,7.2,9.31s7.168-4.2,7.152-9.355c0-.285-.014-.57-.036-.85-.339-4.755-3.425-8.472-7.175-8.46-.139,0-.279.006-.419.018C243.039,127.856,240.062,131.934,240.078,136.9Z" transform="translate(-240.078 -127.547)" fill="#ff8a8a"/>
      </g>
      <path id="Path_100" data-name="Path 100" d="M238.823,134.4c-.71,3.635,1.5,7.149,1.99,7.035.276-.065-.817-2.537.321-5.157.189-.434,1.022-2.351,2.646-2.72,1.2-.273,1.505.6,3.451.895,2.074.311,2.4-.581,4.729-.341,1.955.2,2.38.9,3.195.511,1.323-.632,1.932-3.3.909-4.823-.277-.412-.817-.953-3.679-1.567-2.838-.608-4.256-.913-5.768-.676C243.4,128.059,239.566,130.595,238.823,134.4Z" transform="translate(-90.323 -111.715)" fill="#082c7c"/>
      <path id="Path_101" data-name="Path 101" d="M237.806,138.467a1.683,1.683,0,1,0,1.671-1.543A1.612,1.612,0,0,0,237.806,138.467Z" transform="translate(-90.204 -112.99)" fill="#ff8a8a"/>
      <g id="Group_69" data-name="Group 69" transform="translate(159.825 24.369)">
        <g id="Group_65" data-name="Group 65" transform="translate(2.431 0.443)">
          <path id="Path_102" data-name="Path 102" d="M255.087,139.9a.347.347,0,0,1-.227-.085.341.341,0,0,1-.029-.481l1.132-1.283a.34.34,0,1,1,.51.45l-1.132,1.284A.338.338,0,0,1,255.087,139.9Z" transform="translate(-254.745 -137.937)" fill="#082c7c"/>
        </g>
        <g id="Group_66" data-name="Group 66" transform="translate(1.178)">
          <path id="Path_103" data-name="Path 103" d="M253.637,139.488a.34.34,0,0,1-.194-.061.343.343,0,0,1-.086-.476l.964-1.38a.339.339,0,0,1,.474-.085.343.343,0,0,1,.086.476l-.965,1.381A.342.342,0,0,1,253.637,139.488Z" transform="translate(-253.297 -137.426)" fill="#082c7c"/>
        </g>
        <g id="Group_67" data-name="Group 67" transform="translate(2.278 3.525)">
          <path id="Path_104" data-name="Path 104" d="M255,143.107a.341.341,0,0,1-.338-.309l-.088-.926a.34.34,0,1,1,.677-.064l.088.925a.341.341,0,0,1-.306.372A.2.2,0,0,1,255,143.107Z" transform="translate(-254.568 -141.5)" fill="#082c7c"/>
        </g>
        <g id="Group_68" data-name="Group 68" transform="translate(0.804 3.45)">
          <path id="Path_105" data-name="Path 105" d="M253.206,142.966c-.26-.05-.375-.234-.332-.416l.2-.869a.329.329,0,0,1,.41-.255.339.339,0,0,1,.255.407l-.2.868A.343.343,0,0,1,253.206,142.966Z" transform="translate(-252.865 -141.414)" fill="#082c7c"/>
        </g>
        <path id="Path_106" data-name="Path 106" d="M256.257,140.606c-.107.631-1.313.9-2.038.92l-.147.007c-.8,0-1.973-.279-2.125-.961-.119-.637.649-1.431,1.515-1.658a.823.823,0,0,1,.343-.1,2.146,2.146,0,0,1,.767.066,2.349,2.349,0,0,1,1.691,1.5A.722.722,0,0,1,256.257,140.606Z" transform="translate(-251.935 -137.611)" fill="#fff"/>
        <path id="Path_107" data-name="Path 107" d="M256.372,140.594a1.556,1.556,0,0,1-2.12.589,1.579,1.579,0,0,1-.715-2.1.564.564,0,0,1,.118-.167.823.823,0,0,1,.343-.1,2.146,2.146,0,0,1,.767.066,2.349,2.349,0,0,1,1.691,1.5A.681.681,0,0,1,256.372,140.594Z" transform="translate(-252.129 -137.611)" fill="#2464a7"/>
      </g>
      <path id="Path_108" data-name="Path 108" d="M227.434,201.2c.232,1.055,1.564,6.646,6.448,8.948a12.66,12.66,0,0,0,6.952.828c4.3-.418,6-2.139,10.616-3.788a36.059,36.059,0,0,1,9.741-1.994q-.725-22.372-1.455-44.752a15.116,15.116,0,0,0-2.822-2.775,15.448,15.448,0,0,0-6.4-2.806,32.541,32.541,0,0,0-20,1.876Q228.975,178.973,227.434,201.2Z" transform="translate(-88.805 -115.303)" fill="#ff8a8a"/>
      <path id="Path_109" data-name="Path 109" d="M236.461,171.055c-.487,1.174-.958,2.379-1.452,3.577-.433,1.084-.875,2.193-1.315,3.3-.157.428-.33.825-.51,1.247-.446,1.213-.947,2.434-1.425,3.665-.292.7-.554,1.391-.845,2.1-.358.923-.726,1.789-1.084,2.711-.283.76-.592,1.433-.845,2.1-.456,1.157-.928,2.282-1.36,3.447-.114.2-.156.428-.277.656l-10.4-4.412c.4-1.491.836-3.025,1.289-4.526l1.069-3.534c.236-.695.456-1.421.7-2.14.676-2.147,1.28-3.973,1.8-5.532,2.05-5.906,3.048-7.983,3.048-7.983a70.894,70.894,0,0,1,4.632-8.851,48.263,48.263,0,0,0,2.9,7.375A50.7,50.7,0,0,0,236.461,171.055Z" transform="translate(-87.392 -115.68)" fill="#ff8a8a"/>
      <path id="Path_110" data-name="Path 110" d="M172.8,209.116a241.919,241.919,0,0,0,24.939.587c5.429-.154,11.789-2.738,19.611-4.831a5.927,5.927,0,0,0,4.5-5.331,6.008,6.008,0,0,0-5.642-5.981l-43.856,7.791a5.357,5.357,0,0,0-5.407,1.986,5.418,5.418,0,0,0-.8,4.345,13.479,13.479,0,0,1,6.656,1.433Z" transform="translate(-80.52 -120.628)" fill="#ff8a8a"/>
      <rect id="Rectangle_40" data-name="Rectangle 40" width="20.251" height="50.776" transform="matrix(0.998, -0.066, 0.066, 0.998, 158.023, 138.329)" fill="#ff8a8a"/>
      <path id="Path_111" data-name="Path 111" d="M272.031,205.14a8.806,8.806,0,0,0,6.447-2.458,9.05,9.05,0,0,0,1.221-10.308c-.51-1.446-1.069-2.954-1.654-4.409l-1.345-3.442c-.289-.68-.578-1.36-.883-2.061-.842-2.093-1.594-3.852-2.248-5.354-.3-.7-.582-1.323-.865-1.907-1.938-4.257-2.832-5.809-2.832-5.809a71.808,71.808,0,0,0-5.337-8.458,48.162,48.162,0,0,1-5.774,14.734c.591,1.115,1.157,2.285,1.742,3.438.331.647.663,1.3.989,1.979.2.384.386.805.581,1.19.19.421.407.789.619,1.195.56,1.206,1.163,2.38,1.728,3.549.347.669.658,1.332,1.021,2.022.414.885.853,1.716,1.3,2.607.338.742.689,1.374,1,2.037.554,1.111,1.113,2.184,1.646,3.312.053.1.106.208.157.313A27.584,27.584,0,0,1,272.031,205.14Z" transform="translate(-93.03 -116.228)" fill="#ff8a8a"/>
      <g id="Group_70" data-name="Group 70" transform="translate(173.035 137.078)">
        <path id="Path_112" data-name="Path 112" d="M269.529,270.794a2.763,2.763,0,0,1-2.266-1.232.341.341,0,1,1,.565-.383,2.045,2.045,0,0,0,2.029.9,2.1,2.1,0,0,0,1.651-2.043.341.341,0,1,1,.682.011,2.754,2.754,0,0,1-2.21,2.7A2.562,2.562,0,0,1,269.529,270.794Z" transform="translate(-267.204 -267.705)" fill="#d64545"/>
      </g>
      <g id="Group_72" data-name="Group 72" transform="translate(115.788 121.087)">
        <path id="Path_113" data-name="Path 113" d="M222.727,260.9q2.2,22.427,4.419,44.816c.129,1.4.259,2.807.411,4.2,0,.154.022.3.022.449.1,1.049.22,2.122.322,3.172l-3.584.353-4.17.456-12.389,1.266-5.2-50.517Z" transform="translate(-201.238 -250.797)" fill="#ff8a8a"/>
        <path id="Path_114" data-name="Path 114" d="M222.538,259.313a3.246,3.246,0,0,1-.053.477,6.465,6.465,0,0,1-.08,1.006,10.521,10.521,0,0,1-10.541,8.766,10.694,10.694,0,0,1-9.694-5.642l-.555-1.218a.37.37,0,0,1-.054-.159,9.531,9.531,0,0,1-.37-1.43,2.02,2.02,0,0,1-.08-.556,7.506,7.506,0,0,1-.08-1.086,7.686,7.686,0,0,1,.08-1.376,10.341,10.341,0,0,1,1.139-3.443,5.394,5.394,0,0,1,.477-.689,9.376,9.376,0,0,1,.927-1.165,10.816,10.816,0,0,1,8.052-3.576,9.39,9.39,0,0,1,1.748.132.386.386,0,0,1,.185.027,12.779,12.779,0,0,1,1.8.45,10.728,10.728,0,0,1,5.774,4.635,10.477,10.477,0,0,1,.979,2.384A10.793,10.793,0,0,1,222.538,259.313Z" transform="translate(-201.033 -249.222)" fill="#ff8a8a"/>
        <g id="Group_71" data-name="Group 71" transform="translate(1.835 11.402)">
          <path id="Path_115" data-name="Path 115" d="M204.557,266.666a2.846,2.846,0,0,1-1.206-.269.34.34,0,0,1-.165-.452.347.347,0,0,1,.452-.165,2.052,2.052,0,0,0,2.208-.266,2.074,2.074,0,0,0,.367-2.6.341.341,0,1,1,.592-.341,2.757,2.757,0,0,1-.511,3.454A2.626,2.626,0,0,1,204.557,266.666Z" transform="translate(-203.154 -262.401)" fill="#d64545"/>
        </g>
      </g>
      <g id="Group_73" data-name="Group 73" transform="translate(97.364 182.448)">
        <path id="Path_116" data-name="Path 116" d="M229.555,334.4a2.6,2.6,0,0,1-.451,1.113,3.048,3.048,0,0,1-.37.45,4.808,4.808,0,0,1-.371.371q-23.994.079-48.017.185a11.937,11.937,0,0,1-.609-3.655,9.145,9.145,0,0,1,.344-2.516,4.4,4.4,0,0,1,.371-1.006,7.719,7.719,0,0,1,.476-.927c.106-.212.266-.424.4-.636a2.507,2.507,0,0,1,.4-.529c.132-.185.292-.344.45-.529a12.711,12.711,0,0,1,2.517-2.171,16.744,16.744,0,0,1,2.145-1.245,20.859,20.859,0,0,1,3.126-1.3c.292-.079.556-.185.847-.238q1.033-.318,2.146-.556c.292-.08.609-.132.927-.185.371-.08.742-.132,1.113-.186a10.424,10.424,0,0,1,1.3-.158c.344-.053.715-.08,1.087-.106.45-.054.9-.08,1.376-.106.61-.026,1.219-.053,1.828-.053h.5a8.845,8.845,0,0,0,3.046.106,11.106,11.106,0,0,0,1.589-.37c6.356.45,12.739.927,19.1,1.377.027.344.08.662.106.979a29.351,29.351,0,0,0,.451,2.993,15.211,15.211,0,0,0,1.377,4.343c.185.318.37.609.529.848a10,10,0,0,0,.8.927l.158.159a1.58,1.58,0,0,1,.212.212,6.184,6.184,0,0,1,.5.609,2.391,2.391,0,0,1,.423.768,1.5,1.5,0,0,1,.106.37.5.5,0,0,1,.053.212A2.4,2.4,0,0,1,229.555,334.4Z" transform="translate(-179.737 -320.148)" fill="#ff8a8a"/>
        <path id="Path_117" data-name="Path 117" d="M229.555,334.438a2.6,2.6,0,0,1-.451,1.113,3.048,3.048,0,0,1-.37.45,4.808,4.808,0,0,1-.371.371q-23.994.079-48.017.185a11.937,11.937,0,0,1-.609-3.655,9.145,9.145,0,0,1,.344-2.516,4.4,4.4,0,0,1,.371-1.006,7.719,7.719,0,0,1,.476-.927c.106-.212.266-.424.4-.636a2.507,2.507,0,0,1,.4-.529c.132-.185.292-.344.45-.529a12.711,12.711,0,0,1,2.517-2.171,16.744,16.744,0,0,1,2.145-1.245,20.859,20.859,0,0,1,3.126-1.3c.292-.079.556-.185.847-.238q1.033-.318,2.146-.556c.292-.08.609-.132.927-.185.371-.08.742-.132,1.113-.186a10.424,10.424,0,0,1,1.3-.158c.344-.053.715-.08,1.087-.106.45-.054.9-.08,1.376-.106.61-.026,1.219-.053,1.828-.053h.477c1.35,3.125,2.728,6.224,4.078,9.323l11.838-4.317,7.945-2.914a29.351,29.351,0,0,0,.451,2.993c-.027,0-4.582,1.668-4.582,1.668l-9.031,3.338c5-.212,9.984-.451,14.99-.663.185.318.37.609.529.848a10,10,0,0,0,.8.927l.158.159a1.58,1.58,0,0,1,.212.212,6.184,6.184,0,0,1,.5.609,2.391,2.391,0,0,1,.423.768,1.5,1.5,0,0,1,.106.37.5.5,0,0,1,.053.212A2.4,2.4,0,0,1,229.555,334.438Z" transform="translate(-179.737 -320.189)" fill="#082c7c"/>
      </g>
      <g id="Group_74" data-name="Group 74" transform="translate(156.405 182.448)">
        <path id="Path_118" data-name="Path 118" d="M247.992,334.4a2.282,2.282,0,0,0,.424,1.113,3.109,3.109,0,0,0,.371.45,4.971,4.971,0,0,0,.37.371q24,.079,48.017.185c.106-.344.211-.689.291-1.006a9.724,9.724,0,0,0-.026-5.165,4.442,4.442,0,0,0-.371-1.006,7.736,7.736,0,0,0-.477-.927c-.132-.238-.318-.5-.5-.768a1.133,1.133,0,0,1-.106-.185c-.212-.238-.424-.5-.636-.741a12.547,12.547,0,0,0-2.489-2.171,17.108,17.108,0,0,0-2.172-1.245,21.732,21.732,0,0,0-2.967-1.245c-.265-.08-.5-.159-.794-.239a22.1,22.1,0,0,0-2.357-.609c-.318-.08-.663-.132-1.007-.212l-1.033-.159a10.4,10.4,0,0,0-1.3-.158c-.344-.053-.715-.08-1.086-.106-.45-.054-.9-.08-1.377-.106-.609-.026-1.218-.053-1.827-.053h-.5a8.772,8.772,0,0,1-3.045.106,11.107,11.107,0,0,1-1.589-.37c-6.356.45-12.739.927-19.1,1.377-.027.344-.08.662-.106.979a29.371,29.371,0,0,1-.45,2.993,15.238,15.238,0,0,1-1.377,4.343c-.185.318-.371.609-.529.848a10.131,10.131,0,0,1-.8.927l-.37.371a.75.75,0,0,0-.239.265,4.556,4.556,0,0,0-.477.689,1.6,1.6,0,0,0-.185.371,2.563,2.563,0,0,0-.132.423A1.872,1.872,0,0,0,247.992,334.4Z" transform="translate(-247.982 -320.148)" fill="#ff8a8a"/>
        <path id="Path_119" data-name="Path 119" d="M247.992,334.438a2.282,2.282,0,0,0,.424,1.113,3.109,3.109,0,0,0,.371.45,4.971,4.971,0,0,0,.37.371q24,.079,48.017.185c.106-.344.211-.689.291-1.006a9.724,9.724,0,0,0-.026-5.165,4.442,4.442,0,0,0-.371-1.006,7.736,7.736,0,0,0-.477-.927c-.132-.238-.318-.5-.5-.768a1.133,1.133,0,0,1-.106-.185c-.212-.238-.424-.5-.636-.741a12.547,12.547,0,0,0-2.489-2.171,17.108,17.108,0,0,0-2.172-1.245,21.732,21.732,0,0,0-2.967-1.245c-.265-.08-.5-.159-.794-.239a22.1,22.1,0,0,0-2.357-.609c-.318-.08-.663-.132-1.007-.212l-1.033-.159a10.4,10.4,0,0,0-1.3-.158c-.344-.053-.715-.08-1.086-.106-.45-.054-.9-.08-1.377-.106-.609-.026-1.218-.053-1.827-.053h-.477c-1.35,3.125-2.728,6.224-4.079,9.323l-11.838-4.317-7.945-2.914a29.371,29.371,0,0,1-.45,2.993c.026,0,4.582,1.668,4.582,1.668l9.031,3.338c-4.979-.212-9.984-.451-14.99-.663-.185.318-.371.609-.529.848a10.131,10.131,0,0,1-.8.927l-.37.371a.75.75,0,0,0-.239.265,4.556,4.556,0,0,0-.477.689,1.6,1.6,0,0,0-.185.371,2.563,2.563,0,0,0-.132.423A1.872,1.872,0,0,0,247.992,334.438Z" transform="translate(-247.982 -320.189)" fill="#082c7c"/>
      </g>
      <path id="Path_120" data-name="Path 120" d="M243.076,222.018c-.185.4-.37.821-.582,1.218-.08.159-.106.186-.106.239-2.86,6.117-5.747,12.183-8.58,18.3l-1.669-.636c-3.2-1.245-6.383-2.49-9.587-3.735a2,2,0,0,1-.344-.158c-1.722-.663-3.416-1.3-5.085-1.96-.37-.132-.715-.291-1.086-.45-.875-.318-1.669-.636-2.516-.98-.159-.053-.318-.106-.451-.158-.185-.08-.37-.133-.556-.212.212-.4.424-.821.636-1.218.477-.927.953-1.881,1.457-2.808l2.621-5.084c.186-.371.371-.715.556-1.087.424-.847.874-1.668,1.3-2.516.159-.292.318-.609.477-.9,1.96-3.787,3.894-7.548,5.853-11.335.5.4,1.033.794,1.536,1.165C232.35,213.833,237.7,217.939,243.076,222.018Z" transform="translate(-86.793 -122.648)" fill="#9fd8ff"/>
      <path id="Path_121" data-name="Path 121" d="M246.326,245.7l22.419-1.921q-2.441-14.026-4.883-28.051l-19.728,7.929Q245.23,234.674,246.326,245.7Z" transform="translate(-91.058 -123.617)" fill="#9fd8ff"/>
      <path id="Path_122" data-name="Path 122" d="M262.664,211.6a27.407,27.407,0,0,1-8.607,5.187c-15.161,5.6-30.065-4.868-32.085-6.333l4.386-48.844a9,9,0,0,1,8.36-6.622,10.423,10.423,0,0,0,17.591.7,9.815,9.815,0,0,1,4.065,1.009,9.994,9.994,0,0,1,4.249,4.083Q261.644,186.191,262.664,211.6Z" transform="translate(-88.069 -115.426)" fill="#082c7c"/>
      <g id="Group_75" data-name="Group 75" transform="translate(134.348 130.51)">
        <path id="Path_123" data-name="Path 123" d="M225.542,262.421a.353.353,0,0,1-.175-.048l-2.717-1.624a.343.343,0,0,1-.117-.467.337.337,0,0,1,.468-.119l2.717,1.624a.342.342,0,0,1-.176.634Z" transform="translate(-222.486 -260.114)" fill="#d64545"/>
      </g>
      <g id="Group_77" data-name="Group 77" transform="translate(144.399 43.376)">
        <rect id="Rectangle_41" data-name="Rectangle 41" width="31.67" height="16.456" transform="translate(27.079 4.889) rotate(107.284)" fill="#9fd8ff"/>
        <g id="Group_76" data-name="Group 76" transform="translate(0 0.243)">
          <path id="Path_124" data-name="Path 124" d="M250.157,195.488c-.1-.016-15.813-4.906-15.813-4.906a.339.339,0,0,1-.224-.426l9.41-30.24a.338.338,0,0,1,.426-.224l15.713,4.889a.341.341,0,0,1,.223.427l-9.409,30.241a.34.34,0,0,1-.165.2A.358.358,0,0,1,250.157,195.488Zm-15.286-5.455,15.063,4.686,9.207-29.59-15.062-4.686Z" transform="translate(-234.104 -159.677)" fill="#d64545"/>
        </g>
        <path id="Path_125" data-name="Path 125" d="M248.295,163.16a.886.886,0,1,1,1.108-.582A.885.885,0,0,1,248.295,163.16Z" transform="translate(-235.934 -159.67)" fill="#fff"/>
        <path id="Path_126" data-name="Path 126" d="M251.207,167.975a.886.886,0,1,1,1.109-.582A.886.886,0,0,1,251.207,167.975Z" transform="translate(-236.327 -160.319)" fill="#fff"/>
        <path id="Path_127" data-name="Path 127" d="M256.418,165.748a.885.885,0,1,1,1.108-.582A.886.886,0,0,1,256.418,165.748Z" transform="translate(-237.03 -160.019)" fill="#fff"/>
        <path id="Path_128" data-name="Path 128" d="M256.742,174.839a.886.886,0,1,1,1.109-.582A.885.885,0,0,1,256.742,174.839Z" transform="translate(-237.073 -161.245)" fill="#fff"/>
        <path id="Path_129" data-name="Path 129" d="M261.188,169.317a.886.886,0,0,1-.583-1.109c.145-.467.474-.728.941-.583s.9.642.75,1.109A.886.886,0,0,1,261.188,169.317Z" transform="translate(-237.673 -160.5)" fill="#fff"/>
        <path id="Path_130" data-name="Path 130" d="M244.795,174.2a.886.886,0,1,1,1.108-.582A.886.886,0,0,1,244.795,174.2Z" transform="translate(-235.462 -161.159)" fill="#fa0"/>
        <path id="Path_131" data-name="Path 131" d="M247.9,179.017a.886.886,0,1,1,1.109-.582A.885.885,0,0,1,247.9,179.017Z" transform="translate(-235.881 -161.809)" fill="#fa0"/>
        <path id="Path_132" data-name="Path 132" d="M250.852,173.3a.886.886,0,1,1,1.109-.582A.886.886,0,0,1,250.852,173.3Z" transform="translate(-236.279 -161.037)" fill="#fff"/>
        <path id="Path_133" data-name="Path 133" d="M253.368,182.862a.886.886,0,1,1,1.109-.582A.885.885,0,0,1,253.368,182.862Z" transform="translate(-236.618 -162.327)" fill="#fa0"/>
        <path id="Path_134" data-name="Path 134" d="M257.688,180.359a.886.886,0,0,1,.526-1.691c.059.018.689.769.583,1.109A.886.886,0,0,1,257.688,180.359Z" transform="translate(-237.201 -161.99)" fill="#fff"/>
        <path id="Path_135" data-name="Path 135" d="M242.028,185.127c-.876-.273-.767-.515-.582-1.109a.886.886,0,1,1,.582,1.109Z" transform="translate(-235.077 -162.633)" fill="#fff"/>
        <path id="Path_136" data-name="Path 136" d="M244.955,189.941a.886.886,0,1,1,1.109-.582A.885.885,0,0,1,244.955,189.941Z" transform="translate(-235.484 -163.282)" fill="#fff"/>
        <path id="Path_137" data-name="Path 137" d="M250.36,187.715a.886.886,0,1,1,1.109-.582A.886.886,0,0,1,250.36,187.715Z" transform="translate(-236.213 -162.982)" fill="#fa0"/>
        <path id="Path_138" data-name="Path 138" d="M251.2,196.362c-.876-.273-.767-.515-.582-1.109a.886.886,0,1,1,.582,1.109Z" transform="translate(-236.314 -164.148)" fill="#fff"/>
        <path id="Path_139" data-name="Path 139" d="M239.772,193.168a.886.886,0,1,1,1.108-.583A.886.886,0,0,1,239.772,193.168Z" transform="translate(-234.785 -163.717)" fill="#fff"/>
        <path id="Path_140" data-name="Path 140" d="M254.936,191.283a.886.886,0,1,1,1.108-.582A.886.886,0,0,1,254.936,191.283Z" transform="translate(-236.83 -163.463)" fill="#fa0"/>
      </g>
      <path id="Path_141" data-name="Path 141" d="M238.985,178.53A132.221,132.221,0,0,0,252.243,195.2c6.334,6.754,10.9,10.165,16.741,11.87.187.055.342.1.446.126a7.563,7.563,0,0,0,5.834-1.523,7.451,7.451,0,0,0,2.487-7.143l-32.064-30.927-2.177-1.713a2.662,2.662,0,0,0-1.851,1.65,2.425,2.425,0,0,0,.125,1.683,2.144,2.144,0,0,0-1.932,1.527,2.2,2.2,0,0,0,.436,1.87,1.62,1.62,0,0,0-1.619.528,1.687,1.687,0,0,0,.31,2.245,1.74,1.74,0,0,0-1.042.982A1.868,1.868,0,0,0,238.985,178.53Z" transform="translate(-90.212 -116.897)" fill="#ff8a8a"/>
      <path id="Path_142" data-name="Path 142" d="M364.09,205.865l-.106.927-.318,2.6-1.113,9.164-.239,1.854-.662,5.456c-.027,0-1.96,15.891-1.96,15.891l-.53,4.529-1.033,8.342c0,.053-.185,1.615-.185,1.615l-20.1-2.409.186-1.43c0-.027.185-1.7.185-1.7l.186-1.377.211-1.722.08-.741c0-.026.609-5.006.609-5.006l.053-.344.159-1.3.132-1.112.186-1.4.582-4.952.185-1.351c0-.027.159-1.271.159-1.271l.159-1.4.185-1.483.768-6.251.132-1.139.265-2.066.556-4.556.08-.768.185-1.483.556-4.873.292-2.277.053-.371c0-.053,8.554.98,8.554.98l6.118.741,5.4.662Z" transform="translate(-103.696 -121.962)" fill="#9fd8ff"/>
      <path id="Path_143" data-name="Path 143" d="M358.083,261.8a10.523,10.523,0,0,1-.212,2.728,10.811,10.811,0,0,1-5.217,7.1c-4.98,2.939-11.229,1.615-14.143-2.941a3.007,3.007,0,0,1-.265-.37c-.186-.344-.371-.689-.53-1.033a8.179,8.179,0,0,1-.45-1.272,9.386,9.386,0,0,1-.371-2.542v-.318a7.905,7.905,0,0,1,.054-.794,9.409,9.409,0,0,1,.953-3.364,11.034,11.034,0,0,1,1.562-2.463,10.805,10.805,0,0,1,2.887-2.437,10.662,10.662,0,0,1,3.867-1.4.5.5,0,0,1,.211-.027,10.538,10.538,0,0,1,6.065.875,6.849,6.849,0,0,1,.768.37,10.074,10.074,0,0,1,2.728,2.357,8.842,8.842,0,0,1,.794,1.139,10,10,0,0,1,1.113,2.914.33.33,0,0,1,.027.158l.079.768Z" transform="translate(-103.568 -128.583)" fill="#9fd8ff"/>
      <path id="Path_144" data-name="Path 144" d="M358.105,310.308v7.866H337.844V267.4c6.727-.343,13.429-.689,20.155-1.006Q358.079,288.326,358.105,310.308Z" transform="translate(-103.696 -130.451)" fill="#9fd8ff"/>
      <path id="Path_145" data-name="Path 145" d="M373.145,252.085l19.69-4.711-2.312-9.763-1.074-4.431-3.7-15.575c.024-.01-3.8-16.158-3.8-16.158L381.128,198c-.034-.016-11.327,2.663-11.327,2.663l-8.381,2c.018.049.1.416.1.416l.516,2.237,1.509,6.219,1.25,5.213,2.186,9.272,3.312,14Z" transform="translate(-106.876 -121.226)" fill="#9fd8ff"/>
      <path id="Path_146" data-name="Path 146" d="M375.558,260.524a9.385,9.385,0,0,0,1.217,2.262,9.716,9.716,0,0,0,1.709,1.831,3.212,3.212,0,0,0,.375.258c4.3,3.286,10.621,2.394,14.3-2.071a10.727,10.727,0,0,0,1.743-11.09l-.6-1.19a.331.331,0,0,0-.08-.14,10.023,10.023,0,0,0-2.041-2.358,8.8,8.8,0,0,0-1.136-.8,10.064,10.064,0,0,0-3.37-1.282,6.892,6.892,0,0,0-.849-.087,11.1,11.1,0,0,0-11.222,7.266A10.539,10.539,0,0,0,375.558,260.524Z" transform="translate(-108.695 -127.675)" fill="#9fd8ff"/>
      <path id="Path_147" data-name="Path 147" d="M419.249,297.858l-17.692,9.826-4.449-8.025L376.926,263.3l17.692-9.826,19.89,35.834Z" transform="translate(-108.967 -128.708)" fill="#9fd8ff"/>
      <rect id="Rectangle_42" data-name="Rectangle 42" width="20.261" height="7.866" transform="translate(234.138 179.85)" fill="#ff8a8a"/>
      <rect id="Rectangle_43" data-name="Rectangle 43" width="24.052" height="4.645" transform="translate(231.957 175.356)" fill="#9fd8ff"/>
      <g id="Group_82" data-name="Group 82" transform="translate(208.963 174.942)">
        <path id="Path_148" data-name="Path 148" d="M358.52,335.195a2.987,2.987,0,0,1-1.222,1.892q-23.976-.247-48-.518a10.33,10.33,0,0,1-.177-6.173c1.843-5.608,9.471-9.472,19.639-9.609a39.752,39.752,0,0,1,4.552.144c.2,0,.4.027.606.028,1.214.08,2.4.162,3.59.241l16.487,1.052c.024.228.023.456.048.658.025.151.024.278.049.43a23.183,23.183,0,0,0,1.315,6.277,8.71,8.71,0,0,0,.929,1.825,6.308,6.308,0,0,0,.754.964C357.467,332.762,358.676,333.88,358.52,335.195Z" transform="translate(-308.733 -312.727)" fill="#ff8a8a"/>
        <path id="Path_149" data-name="Path 149" d="M358.516,333.937a2.86,2.86,0,0,1-1.2,1.892q-24.014-.247-48-.518a10.538,10.538,0,0,1-.178-6.172c1.179-3.865,4.859-6.987,9.974-8.611a28.246,28.246,0,0,1,9.768-1.327c-.681-.509-3.681-2.873-3.192-4.894.719-2.931,8.412-3.812,9.9-1.58.88,1.293-.721,3.007.433,5.389a5.629,5.629,0,0,0,1.511,1.827,5.244,5.244,0,0,0,.757.534c2.6,1.654,8.351,4.965,9.918,5.351,2.022.489,4.307-1.779,5.883-3.745.388,4.25,1.288,6.682,2.269,8.128a4.9,4.9,0,0,0,.755.939,5.357,5.357,0,0,1,1.233,1.649A2.168,2.168,0,0,1,358.516,333.937Z" transform="translate(-308.738 -311.473)" fill="#082c7c"/>
        <path id="Path_150" data-name="Path 150" d="M358.516,335.349a2.86,2.86,0,0,1-1.2,1.892q-24.014-.247-48-.518a10.538,10.538,0,0,1-.178-6.172c1.179-3.865,4.859-6.987,9.974-8.611,2.184,4.03,4.344,8.009,6.528,12.014q16.351.14,32.7.256A2.168,2.168,0,0,1,358.516,335.349Z" transform="translate(-308.738 -312.885)" fill="#082c7c"/>
        <g id="Group_78" data-name="Group 78" transform="translate(11.441 7.967)">
          <path id="Path_151" data-name="Path 151" d="M325.07,325.234a.337.337,0,0,1-.277-.142l-2.772-3.871a.34.34,0,1,1,.554-.4l2.772,3.87a.343.343,0,0,1-.077.476A.35.35,0,0,1,325.07,325.234Z" transform="translate(-321.957 -320.682)" fill="#d64545"/>
        </g>
        <g id="Group_79" data-name="Group 79" transform="translate(13.331 7.469)">
          <path id="Path_152" data-name="Path 152" d="M327.255,324.658a.337.337,0,0,1-.277-.142l-2.772-3.871a.34.34,0,1,1,.554-.4l2.772,3.87a.343.343,0,0,1-.077.476A.35.35,0,0,1,327.255,324.658Z" transform="translate(-324.142 -320.106)" fill="#d64545"/>
        </g>
        <g id="Group_80" data-name="Group 80" transform="translate(15.11 6.972)">
          <path id="Path_153" data-name="Path 153" d="M329.313,324.083a.34.34,0,0,1-.277-.142l-2.774-3.871a.34.34,0,1,1,.554-.4l2.774,3.87a.343.343,0,0,1-.077.476A.35.35,0,0,1,329.313,324.083Z" transform="translate(-326.198 -319.532)" fill="#d64545"/>
        </g>
        <g id="Group_81" data-name="Group 81" transform="translate(32.249 14.285)">
          <path id="Path_154" data-name="Path 154" d="M347.392,330.746a1.381,1.381,0,1,1,1.379-1.381A1.383,1.383,0,0,1,347.392,330.746Zm0-2.08a.7.7,0,1,0,.7.7A.7.7,0,0,0,347.392,328.667Z" transform="translate(-346.01 -327.985)" fill="#d64545"/>
        </g>
      </g>
      <path id="Path_155" data-name="Path 155" d="M422.394,303.444,404.7,313.271l-4.449-8.025c5.8-3.443,11.6-6.912,17.4-10.356Z" transform="translate(-112.113 -134.294)" fill="#ff8a8a"/>
      <rect id="Rectangle_44" data-name="Rectangle 44" width="22.97" height="5.182" transform="matrix(0.866, -0.5, 0.5, 0.866, 284.845, 167.054)" fill="#9fd8ff"/>
      <g id="Group_87" data-name="Group 87" transform="translate(276.256 161.126)">
        <path id="Path_156" data-name="Path 156" d="M428.007,301.639a2.864,2.864,0,0,1,.32,2.216q-18.418,15.41-36.834,30.787a10.54,10.54,0,0,1-4.144-4.577c-1.614-3.7-.844-8.468,1.99-13.025a28.243,28.243,0,0,1,6.565-7.354c-.848.055-4.665.207-5.606-1.647-1.357-2.7,3.92-8.362,6.5-7.629,1.51.412,1.406,2.754,3.831,3.815a5.63,5.63,0,0,0,2.335.408,5.418,5.418,0,0,0,.922-.086c3.05-.43,9.575-1.65,11.017-2.375,1.855-.941,2.12-4.15,2.04-6.668,3.056,2.979,5.32,4.243,7,4.705a4.893,4.893,0,0,0,1.184.223,5.355,5.355,0,0,1,2.009.452A2.165,2.165,0,0,1,428.007,301.639Z" transform="translate(-386.517 -295.503)" fill="#082c7c"/>
        <path id="Path_157" data-name="Path 157" d="M428.007,302.477a2.864,2.864,0,0,1,.32,2.216q-18.418,15.41-36.834,30.787a10.541,10.541,0,0,1-4.144-4.577c-1.614-3.7-.844-8.468,1.99-13.025,4.279,1.645,8.505,3.268,12.768,4.894q12.523-10.514,25.03-21.048A2.165,2.165,0,0,1,428.007,302.477Z" transform="translate(-386.517 -296.342)" fill="#082c7c"/>
        <g id="Group_83" data-name="Group 83" transform="translate(3.067 19.715)">
          <path id="Path_158" data-name="Path 158" d="M395.022,320.113c-.083-.01-4.7-1.151-4.7-1.151a.341.341,0,0,1,.165-.663l4.62,1.141a.341.341,0,0,1,.247.413A.338.338,0,0,1,395.022,320.113Z" transform="translate(-390.061 -318.291)" fill="#d64545"/>
        </g>
        <g id="Group_84" data-name="Group 84" transform="translate(4.179 18.107)">
          <path id="Path_159" data-name="Path 159" d="M396.31,318.255c-.082-.009-4.7-1.15-4.7-1.15a.342.342,0,0,1-.248-.413.336.336,0,0,1,.414-.25l4.622,1.14a.342.342,0,0,1,.247.413A.338.338,0,0,1,396.31,318.255Z" transform="translate(-391.347 -316.433)" fill="#d64545"/>
        </g>
        <g id="Group_85" data-name="Group 85" transform="translate(5.211 16.575)">
          <path id="Path_160" data-name="Path 160" d="M397.5,316.483c-.082-.01-4.7-1.151-4.7-1.151a.341.341,0,0,1,.165-.663l4.62,1.141a.341.341,0,0,1-.083.672Z" transform="translate(-392.539 -314.662)" fill="#d64545"/>
        </g>
        <g id="Group_86" data-name="Group 86" transform="translate(23.415 10.077)">
          <path id="Path_161" data-name="Path 161" d="M414.965,309.911a1.428,1.428,0,0,1-1.052-.484,1.382,1.382,0,0,1,.152-1.947,1.381,1.381,0,0,1,1.794,2.1A1.372,1.372,0,0,1,414.965,309.911Zm-.005-2.08a.69.69,0,0,0-.452.168.7.7,0,0,0-.242.477.7.7,0,0,0,.641.752.661.661,0,0,0,.511-.166.7.7,0,0,0,.078-.985.707.707,0,0,0-.479-.242Z" transform="translate(-413.582 -307.151)" fill="#d64545"/>
        </g>
      </g>
      <g id="Group_88" data-name="Group 88" transform="translate(273.775 92.535)">
        <path id="Path_162" data-name="Path 162" d="M391.438,249.509a.343.343,0,0,1-.333-.266l-7.447-32.609a.342.342,0,0,1,.666-.152l7.447,32.609a.342.342,0,0,1-.256.408A.4.4,0,0,1,391.438,249.509Z" transform="translate(-383.649 -216.219)" fill="#d64545"/>
      </g>
      <g id="Group_89" data-name="Group 89" transform="translate(282.55 127.628)">
        <path id="Path_163" data-name="Path 163" d="M411.18,285.6a.338.338,0,0,1-.29-.164L393.842,257.3a.339.339,0,0,1,.114-.469.344.344,0,0,1,.466.115l17.048,28.14a.338.338,0,0,1-.114.468A.33.33,0,0,1,411.18,285.6Z" transform="translate(-393.791 -256.782)" fill="#d64545"/>
      </g>
      <g id="Group_90" data-name="Group 90" transform="translate(234.611 137.786)">
        <path id="Path_164" data-name="Path 164" d="M341.815,271.307a3.992,3.992,0,0,1-3.384-1.915.339.339,0,0,1,.115-.468.342.342,0,0,1,.465.114,3.253,3.253,0,0,0,5.757-.321.348.348,0,0,1,.453-.165.34.34,0,0,1,.164.453,3.961,3.961,0,0,1-3.242,2.287C342.033,271.3,341.924,271.307,341.815,271.307Z" transform="translate(-338.38 -268.524)" fill="#d64545"/>
      </g>
      <g id="Group_91" data-name="Group 91" transform="translate(251.375 133.53)">
        <path id="Path_165" data-name="Path 165" d="M358.1,265.832a.341.341,0,0,1-.176-.634l2.591-1.546a.341.341,0,0,1,.351.586l-2.591,1.546A.354.354,0,0,1,358.1,265.832Z" transform="translate(-357.757 -263.605)" fill="#d64545"/>
      </g>
      <g id="Group_92" data-name="Group 92" transform="translate(236.88 175.014)">
        <path id="Path_166" data-name="Path 166" d="M357.9,312.238H341.343a.341.341,0,0,1,0-.682H357.9a.341.341,0,0,1,0,.682Z" transform="translate(-341.002 -311.556)" fill="#d64545"/>
      </g>
      <g id="Group_93" data-name="Group 93" transform="translate(287.339 155.64)">
        <path id="Path_167" data-name="Path 167" d="M399.669,298.681a.347.347,0,0,1-.3-.178.343.343,0,0,1,.138-.462l16.343-8.838a.341.341,0,1,1,.325.6l-16.344,8.839A.333.333,0,0,1,399.669,298.681Z" transform="translate(-399.327 -289.162)" fill="#d64545"/>
      </g>
      <path id="Path_168" data-name="Path 168" d="M381.338,210.228c.344,2.834-8.342,7.945-18.009,8.846-.212.026-.424.026-.663.053a23.648,23.648,0,0,1-2.755.08c-7.15-.132-14.619-2.94-16.314-5.456l.079-.769.186-1.483c2.675-2.383,12.422-3.469,14.619-3.734.451-.054.927-.106,1.4-.132,1.536-.159,3.178-.265,4.873-.317,7.6-.266,15.891.37,16.553,2.806C381.311,210.149,381.338,210.2,381.338,210.228Z" transform="translate(-104.472 -122.475)" fill="#9fd8ff" style="mix-blend-mode: multiply;isolation: isolate"/>
      <path id="Path_169" data-name="Path 169" d="M397.76,167.833a8.636,8.636,0,0,0-4.037.369,9.983,9.983,0,0,0-5.653,5.439,65.119,65.119,0,0,1-6.984-6.991,3.213,3.213,0,0,1-.306-.337c-.908-1.147-1.666-2.151-2.281-3.065a.586.586,0,0,1-.156-.2c-.39-.593-1.427-2.152-2.988-4.314-.42-.618-.856-1.152-1.3-1.741-1.074-1.421-2.168-2.785-3.253-4.07-.5-.634-.944-1.222-1.407-1.754-.755-.978-1.534-1.926-2.345-2.924-.1-.175-.28-.34-.413-.564,3.077-1.269,4.57-2.405,4.5-3.411-.159-1.581-4.441-2.837-12.861-3.685.514-.167,7.544-2.515,13.506-.577a21.426,21.426,0,0,1,7.138,4.226c.061.073,1.03,1.052,2.28,2.371a2.659,2.659,0,0,0,.245.265c.491.555,1.036,1.1,1.529,1.66.006.053.035.076.067.125.49.529.943.982,1.373,1.465.4.433.769.869,1.108,1.256q1.33,1.444,2.306,2.608c.278.314.555.628.8.92,2.776,3.193,3.706,4.524,3.706,4.524A73.158,73.158,0,0,1,397.76,167.833Z" transform="translate(-106.453 -113.303)" fill="#ff8a8a"/>
      <path id="Path_170" data-name="Path 170" d="M384.97,170.828q-.468-1.145-.938-2.29v-4.966l11.366-1.434Z" transform="translate(-109.925 -116.39)" fill="#f66"/>
      <g id="Group_94" data-name="Group 94" transform="translate(221.366 26.344)">
        <path id="Path_171" data-name="Path 171" d="M336.52,150.276a16.942,16.942,0,0,0,3.257-.211c0,.265-.053.5-.053.689-.212,1.271-.4,2.489-.556,3.707-.132.689-.212,1.43-.318,2.171-.08.53-.159,1.007-.239,1.484-.185,1.218-.37,2.463-.529,3.734-.08.742-.185,1.4-.238,2.066-.08.98-.159,1.774-.212,2.464-.106,1.4-.159,2.383-.186,2.86a.669.669,0,0,1-.026.238c-.054.8-.159,1.616-.266,2.569-.053.4-.106.821-.158,1.244a3.548,3.548,0,0,1-.106.451A66.069,66.069,0,0,1,334.4,183.3a9.9,9.9,0,0,0-7.628-1.853,8.822,8.822,0,0,0-3.681,1.721,72.006,72.006,0,0,1,.45-9.984s.053-.689.292-2.331c.159-.874.344-2.013.609-3.443.08-.37.159-.794.239-1.191.158-1.007.4-2.146.662-3.416.106-.5.212-1.086.318-1.642.132-.636.292-1.272.451-1.96,0-.08.026-.106,0-.159.132-.715.344-1.456.477-2.2a1.663,1.663,0,0,0,.08-.344c.424-1.775.767-3.1.767-3.205a14.967,14.967,0,0,1,.742-2.012,4.352,4.352,0,0,1,.318-.609,20.032,20.032,0,0,1,2.967-4.635,8.065,8.065,0,0,1,.953-.953,13.556,13.556,0,0,1,2.012-1.589.143.143,0,0,1,.106-.08,28.029,28.029,0,0,1,8.872-3.707,50.875,50.875,0,0,0-7.971,6.78,5.21,5.21,0,0,0-.5.635c-.741.98-1.006,1.748-.768,2.278a1.6,1.6,0,0,0,1.192.741A5.032,5.032,0,0,0,336.52,150.276Z" transform="translate(-323.07 -139.709)" fill="#ff8a8a"/>
        <path id="Path_172" data-name="Path 172" d="M340.071,165.7l-15.229-1.49c-.061-1.456-.431-14.762,8.784-20.749a16.716,16.716,0,0,1,5.694-2.325q-.494,4.957-.987,9.915Q339.2,158.375,340.071,165.7Z" transform="translate(-323.307 -139.901)" fill="#f4d038"/>
      </g>
      <path id="Path_173" data-name="Path 173" d="M368.279,145.687a171.566,171.566,0,0,0,14.777,47.29,28.081,28.081,0,0,1-39.4,2.286l-8.373-46.348a22.6,22.6,0,0,1,8.548-7.587,41.684,41.684,0,0,1,19.992.915c.2.121.4.239.588.359A21.667,21.667,0,0,1,368.279,145.687Z" transform="translate(-103.35 -113.475)" fill="#ff8a8a"/>
      <path id="Path_174" data-name="Path 174" d="M391.178,193.765c-5.667,4.449-19.889,14.2-38.243,12.845a47.732,47.732,0,0,1-10.25-1.907q-2.264-16.05-4.5-32.073c-.265-1.934-.556-3.867-.821-5.8-.768-5.4-1.51-10.832-2.278-16.235-.132-1.007-.292-2.013-.424-3.019-.185-1.218-.344-2.41-.5-3.628A41.734,41.734,0,0,1,352.7,137.8a42.654,42.654,0,0,1,16.288,1.748Q380.067,166.684,391.178,193.765Z" transform="translate(-103.199 -113.087)" fill="#f4d038"/>
      <path id="Path_175" data-name="Path 175" d="M394.7,157.98l-19.523,8.062L359.2,139.324a45.27,45.27,0,0,1,7.478-.649,30.793,30.793,0,0,1,9.978,1.1c6.392,2.058,10.209,6.873,13.252,10.71A43.893,43.893,0,0,1,394.7,157.98Z" transform="translate(-106.576 -113.225)" fill="#f4d038"/>
      <g id="Group_95" data-name="Group 95" transform="translate(277.14 54.686)">
        <path id="Path_176" data-name="Path 176" d="M397.565,199.431a.34.34,0,0,1-.208-.611q.319-.243.607-.469-5.2-12.7-10.4-25.412a.34.34,0,1,1,.628-.259q5.252,12.826,10.5,25.65a.34.34,0,0,1-.1.4c-.253.2-.528.413-.815.632A.34.34,0,0,1,397.565,199.431Z" transform="translate(-387.538 -172.47)" fill="#d64545"/>
      </g>
      <g id="Group_96" data-name="Group 96" transform="translate(280.281 81.91)">
        <path id="Path_177" data-name="Path 177" d="M391.51,208.077a.341.341,0,0,1-.173-.635c1.786-1.053,3.551-2.21,5.245-3.438a.34.34,0,1,1,.4.552c-1.709,1.241-3.493,2.409-5.3,3.474A.338.338,0,0,1,391.51,208.077Z" transform="translate(-391.169 -203.938)" fill="#d64545"/>
      </g>
      <g id="Group_97" data-name="Group 97" transform="translate(278.851 85.899)">
        <path id="Path_178" data-name="Path 178" d="M389.857,209.517a.34.34,0,0,1-.165-.638l.509-.285a.341.341,0,0,1,.341.592l-.519.29A.338.338,0,0,1,389.857,209.517Z" transform="translate(-389.516 -208.548)" fill="#d64545"/>
      </g>
      <g id="Group_98" data-name="Group 98" transform="translate(277.041 86.847)">
        <path id="Path_179" data-name="Path 179" d="M387.764,210.635a.34.34,0,0,1-.154-.645c.2-.1.391-.2.586-.306a.341.341,0,1,1,.319.6q-.292.156-.6.311A.329.329,0,0,1,387.764,210.635Z" transform="translate(-387.423 -209.644)" fill="#d64545"/>
      </g>
      <path id="Path_180" data-name="Path 180" d="M351.344,138.437a6.494,6.494,0,0,0,9.6.135c-.527-2.981-1.031-5.962-1.556-8.968-.1-.515-.183-1-.264-1.491q-.221-1.272-.442-2.544c-1.869-.089-3.74-.153-5.609-.242-.17,1.332-.362,2.662-.533,3.993-.279,2.16-.555,4.3-.834,6.456C351.572,136.653,351.456,137.558,351.344,138.437Z" transform="translate(-105.517 -111.425)" fill="#ff8a8a"/>
      <path id="Path_181" data-name="Path 181" d="M351.764,136.038c1.316.58,3.428-.074,5.242-1.764a7.218,7.218,0,0,0,2.44-4.408,2.37,2.37,0,0,0-.474-1.811c-1.114-1.4-3.8-.868-6,1.174l-.378.353C352.319,131.743,352.043,133.878,351.764,136.038Z" transform="translate(-105.574 -111.688)" fill="#f66"/>
      <path id="Path_182" data-name="Path 182" d="M353.843,130.584c3.456-.469,5.885-4.093,5.923-8.438a11.32,11.32,0,0,0-.087-1.774c-.067-.406-.133-.812-.215-1.2a2.193,2.193,0,0,0-.113-.346c-1.126-4.134-4.276-6.963-7.64-6.775a3.03,3.03,0,0,0-.406.067,6.338,6.338,0,0,0-4.609,3.327,10.571,10.571,0,0,0-1.33,6.031c.034.285.048.553.1.852C346.152,127.436,349.909,131.128,353.843,130.584Z" transform="translate(-104.707 -109.634)" fill="#ff8a8a"/>
      <g id="Group_100" data-name="Group 100" transform="translate(241.054 11.846)">
        <g id="Group_99" data-name="Group 99">
          <path id="Path_183" data-name="Path 183" d="M350.037,124.164c.046.695-1.016,1.282-1.783,1.5l-.135.037c-.71.177-1.939.22-2.223-.351-.269-.535.279-1.6,1.159-2.109a2.061,2.061,0,0,1,.72-.267C348.778,122.812,349.985,123.448,350.037,124.164Z" transform="translate(-345.826 -122.951)" fill="#fff"/>
          <path id="Path_184" data-name="Path 184" d="M348.393,124.47a1.64,1.64,0,0,1-.139,1.244l-.135.037c-.71.177-1.939.22-2.223-.351-.269-.535.279-1.6,1.159-2.109A1.562,1.562,0,0,1,348.393,124.47Z" transform="translate(-345.826 -122.997)" fill="#2464a7"/>
        </g>
      </g>
      <path id="Path_185" data-name="Path 185" d="M359.779,116.927c.607,3.092-.55,5.954-.869,5.918-.187-.021.066-1.023-.331-2.235-.939-2.866-4.966-5.232-7.642-4.331-1.456.491-1.332,1.556-3.531,2.648-.989.491-2.512,1.248-3.862.773-2.638-.929-3.582-5.773-2.318-6.841.547-.462,1.126.106,2.083-.441,1.314-.754,1.19-2.384,2.193-2.566.624-.113.835.489,1.613.372.823-.123.89-.838,1.614-.952.815-.127,1,.736,2.225,1.076,1.29.357,1.752-.415,2.824.082.632.294.6.624,1.49,1.118a6.3,6.3,0,0,0,1.613.58C358.962,112.776,359.7,116.548,359.779,116.927Z" transform="translate(-104.077 -109.258)" fill="#082c7c"/>
      <path id="Path_186" data-name="Path 186" d="M358.856,121.477a1.588,1.588,0,1,0,1.872-1.419A1.663,1.663,0,0,0,358.856,121.477Z" transform="translate(-106.526 -110.712)" fill="#ff8a8a"/>
      <g id="Group_101" data-name="Group 101" transform="translate(195.587 41.448)">
        <rect id="Rectangle_45" data-name="Rectangle 45" width="69.787" height="49.897" fill="#082c7c"/>
        <rect id="Rectangle_46" data-name="Rectangle 46" width="5.345" height="6.168" transform="translate(5.446 4.806)" fill="#fff"/>
        <path id="Path_187" data-name="Path 187" d="M313.125,169.136h-5.374q1.169-2.3,2.339-4.6Z" transform="translate(-295.224 -158.162)" fill="#fff"/>
      </g>
      <path id="Path_188" data-name="Path 188" d="M398.357,173.731a4.365,4.365,0,0,1-1.046,3.9A111.591,111.591,0,0,1,363.98,202.27a7.316,7.316,0,0,1-6.784-11.875l34.633-23.645a10.258,10.258,0,0,1,6.087,5.535A8.866,8.866,0,0,1,398.357,173.731Z" transform="translate(-106.084 -117.012)" fill="#ff8a8a"/>
      <path id="Path_189" data-name="Path 189" d="M323.833,216.6a22.253,22.253,0,0,1-14.18-.111q-.248-1.875-.5-3.752a2.328,2.328,0,0,1,2.322-2.5,2.187,2.187,0,0,1,1.485,2.058,2.291,2.291,0,0,1,1.049-2.483c.852-.3,2.318.527,2.648,2.262a2.142,2.142,0,0,1,1.38-2.262,2.217,2.217,0,0,1,2.372,2.262c.185-1.54,1.272-2.536,2.1-2.483.916.059,2.008,1.443,1.655,3.255Q324,214.719,323.833,216.6Z" transform="translate(-99.827 -122.789)" fill="#ff8a8a"/>
      <path id="Path_190" data-name="Path 190" d="M369.415,201.626l-8.584-7.836a14.693,14.693,0,0,0-8.772-2.319A14.365,14.365,0,0,0,346,193.263c-.344.226-.587.479-.572.743.041.7,1.723,1.556,3.3,1.478a7.11,7.11,0,0,1,2.163-.093,4.42,4.42,0,0,1,1.13.375c-8.188.85-9.967,1.921-10.038,2.756a1.16,1.16,0,0,0,.328.775c.825.92,2.6.173,5.681-.106a24.593,24.593,0,0,1,2.768-.093c-8.337,1.1-10.429,2.092-10.441,2.864-.006.365.453.707.7.887,1.149.856,2.649.57,4.081.318,1.348-.237,3.313-.562,5.908-.922-7.7,1.8-9.362,2.793-9.3,3.379.028.266.414.452.839.656a6.3,6.3,0,0,0,4.049.253c1.67-.314,3.587-.733,5.7-1.305-3.447,2.42-3.605,3.216-3.474,3.52.391.908,4.368-.033,5.674-.342A44.475,44.475,0,0,0,369.415,201.626Z" transform="translate(-104.03 -120.342)" fill="#ff8a8a"/>
      <g id="Group_102" data-name="Group 102" transform="translate(276.997 53.524)">
        <path id="Path_191" data-name="Path 191" d="M387.715,173.421a.341.341,0,0,1-.118-.66l4.389-1.613a.342.342,0,0,1,.436.2.336.336,0,0,1-.2.436l-4.388,1.614A.317.317,0,0,1,387.715,173.421Z" transform="translate(-387.374 -171.126)" fill="#d64545"/>
      </g>
      <g id="Group_103" data-name="Group 103" transform="translate(115.868 94.037)">
        <path id="Path_192" data-name="Path 192" d="M211.453,240.81a1.146,1.146,0,0,1-.715.8l.662-1.139A1.37,1.37,0,0,1,211.453,240.81Z" transform="translate(-202.421 -220.991)" fill="#fff"/>
        <path id="Path_193" data-name="Path 193" d="M213.943,236.655a1.748,1.748,0,0,1-.185.663.519.519,0,0,1-.238.238.9.9,0,0,1-.318.159.653.653,0,0,1-.318-.027l.159-.265a3.184,3.184,0,0,0-.53-.238c.212-.4.424-.821.636-1.218a1.527,1.527,0,0,1,.371.132.414.414,0,0,1,.158.212C213.785,236.417,213.838,236.549,213.943,236.655Z" transform="translate(-202.661 -220.384)" fill="#fff"/>
        <path id="Path_194" data-name="Path 194" d="M210.209,244.254a.849.849,0,0,0,1.572-.287.938.938,0,0,0-.34-.769.808.808,0,0,0-.638-.143.794.794,0,0,0-.547.359C210.122,243.613,210.115,243.794,210.209,244.254Z" transform="translate(-202.342 -221.338)" fill="#fff"/>
        <path id="Path_195" data-name="Path 195" d="M215.22,232.3a.849.849,0,0,0,.284,1.573.934.934,0,0,0,.771-.34.838.838,0,0,0-.215-1.185A.938.938,0,0,0,215.22,232.3Z" transform="translate(-202.969 -219.88)" fill="#fff"/>
        <path id="Path_196" data-name="Path 196" d="M214.319,239.659c-.374-.408-.722-.522-1.106-.36a.883.883,0,0,0-.465.73.86.86,0,0,0,.8.86A.846.846,0,0,0,214.319,239.659Z" transform="translate(-202.693 -220.824)" fill="#fff"/>
        <path id="Path_197" data-name="Path 197" d="M209.288,247.615a1.02,1.02,0,0,1-.663.953,5.788,5.788,0,0,1,.08-1.51A1.009,1.009,0,0,1,209.288,247.615Z" transform="translate(-202.134 -221.88)" fill="#fff"/>
        <path id="Path_198" data-name="Path 198" d="M215.456,236.055c.041.221.082.452.125.687l.42.281.687-.125c.092-.136.185-.275.281-.42-.04-.221-.082-.452-.125-.687l-.42-.281-.686.125Z" transform="translate(-203.058 -220.323)" fill="#fff"/>
        <path id="Path_199" data-name="Path 199" d="M214.873,243.173a.707.707,0,1,0-.586.81A.624.624,0,0,0,214.873,243.173Z" transform="translate(-202.789 -221.275)" fill="#fff"/>
        <path id="Path_200" data-name="Path 200" d="M219,228.749l-.513-.356-.522.1-.349.5c.029.154.058.318.086.469l.574.39.453-.082.354-.561C219.065,229.079,219.035,228.914,219,228.749Z" transform="translate(-203.35 -219.363)" fill="#fff"/>
        <path id="Path_201" data-name="Path 201" d="M218.625,226.065c-.106.186-.239.371-.344.556-.106.027-.212.027-.318.054.186-.371.371-.715.556-1.087A3.042,3.042,0,0,1,218.625,226.065Z" transform="translate(-203.396 -218.985)" fill="#fff"/>
        <path id="Path_202" data-name="Path 202" d="M211.641,246.469l-.455.082c-.107.17-.223.355-.355.561.023.127.054.292.083.458l.514.356.522-.1.348-.5c-.028-.154-.058-.317-.085-.465Z" transform="translate(-202.434 -221.801)" fill="#fff"/>
        <path id="Path_203" data-name="Path 203" d="M217.613,239.328a.707.707,0,1,0-1.381.3.707.707,0,0,0,1.381-.3Z" transform="translate(-203.161 -220.762)" fill="#fff"/>
        <path id="Path_204" data-name="Path 204" d="M218.258,232.578c.17.124.132.391.35.454.164.047.369.154.491.1.155-.074.386-.114.448-.328.048-.164.072-.334.107-.5-.184-.074-.119-.317-.306-.42-.169-.093-.356-.008-.5-.121-.107.146-.307.136-.433.28C218.264,232.214,218.4,232.43,218.258,232.578Z" transform="translate(-203.436 -219.817)" fill="#fff"/>
        <path id="Path_205" data-name="Path 205" d="M208.236,251.132c.165.124.139.385.356.448.164.047.375.152.49.091.153-.082.386-.119.446-.333.046-.164.067-.335.1-.5-.179-.078-.126-.314-.311-.417-.17-.093-.356,0-.5-.114-.109.165-.383.113-.447.335C208.318,250.8,208.278,250.971,208.236,251.132Z" transform="translate(-202.084 -222.318)" fill="#fff"/>
        <path id="Path_206" data-name="Path 206" d="M218.93,235.6c.023.128.05.277.081.444l.442.27.471-.086c.075-.125.162-.266.266-.437-.023-.121-.052-.285-.086-.471l-.437-.267-.472.086C219.124,235.262,219.041,235.406,218.93,235.6Z" transform="translate(-203.526 -220.261)" fill="#fff"/>
        <path id="Path_207" data-name="Path 207" d="M214.157,246.5c.029.159.058.323.085.47l.425.294.469-.086.294-.425c-.029-.158-.059-.323-.086-.469l-.424-.294-.47.086Z" transform="translate(-202.883 -221.736)" fill="#fff"/>
        <path id="Path_208" data-name="Path 208" d="M217.414,242.1a.6.6,0,1,0,.7.488A.627.627,0,0,0,217.414,242.1Z" transform="translate(-203.255 -221.211)" fill="#fff"/>
        <path id="Path_209" data-name="Path 209" d="M211.574,250.538a.605.605,0,1,0,.487-.7A.627.627,0,0,0,211.574,250.538Z" transform="translate(-202.533 -222.254)" fill="#fff"/>
        <path id="Path_210" data-name="Path 210" d="M221.059,222.036a.944.944,0,0,1-.5.715,1.177,1.177,0,0,1-.451-.212c.159-.292.318-.609.477-.9A.715.715,0,0,1,221.059,222.036Z" transform="translate(-203.685 -218.452)" fill="#fff"/>
        <path id="Path_211" data-name="Path 211" d="M220.89,224.746a.958.958,0,0,0-.485.687.606.606,0,1,0,1.195-.2A.944.944,0,0,0,220.89,224.746Z" transform="translate(-203.725 -218.871)" fill="#fff"/>
        <path id="Path_212" data-name="Path 212" d="M221.455,229.1l.482-.088c.072-.1.138-.2.205-.289-.03-.167-.061-.33-.092-.5l-.3-.2-.5.091-.179.318.089.487.286.111Z" transform="translate(-203.815 -219.314)" fill="#fff"/>
        <path id="Path_213" data-name="Path 213" d="M219.822,238.459c-.086.123-.142.205-.2.29.029.161.06.324.093.508l.309.183.484-.088c.065-.093.121-.174.187-.27l-.094-.521-.356-.178Z" transform="translate(-203.619 -220.71)" fill="#fff"/>
        <path id="Path_214" data-name="Path 214" d="M209.012,254.1l.089.489.375.17.425-.077.182-.324c-.024-.131-.054-.294-.083-.456l-.291-.2-.5.092Z" transform="translate(-202.189 -222.775)" fill="#fff"/>
        <path id="Path_215" data-name="Path 215" d="M221.918,232.356a.679.679,0,0,0,.719-.136.6.6,0,0,0-.166-.766.582.582,0,0,0-.748.241A.594.594,0,0,0,221.918,232.356Z" transform="translate(-203.898 -219.769)" fill="#fff"/>
        <path id="Path_216" data-name="Path 216" d="M215.334,250.38l.285-.052.3-.407-.053-.29-.424-.293-.269.049-.3.407c.02.11.037.208.055.3Z" transform="translate(-202.979 -222.188)" fill="#fff"/>
        <path id="Path_217" data-name="Path 217" d="M218.154,246.552l.221-.041.266-.492c0,.005-.016-.092-.04-.216l-.481-.261-.217.04c-.065.12-.144.266-.261.481,0-.005.017.091.04.213Z" transform="translate(-203.353 -221.676)" fill="#fff"/>
        <path id="Path_218" data-name="Path 218" d="M222.88,235.615a.683.683,0,0,0,.407-.6.5.5,0,1,0-.979.2A.711.711,0,0,0,222.88,235.615Z" transform="translate(-203.982 -220.204)" fill="#fff"/>
        <path id="Path_219" data-name="Path 219" d="M221.248,242.039a.5.5,0,1,0-.407.587A.754.754,0,0,0,221.248,242.039Z" transform="translate(-203.705 -221.148)" fill="#fff"/>
        <path id="Path_220" data-name="Path 220" d="M212.612,254.118c.192-.091.474.029.6-.278-.028-.153-.06-.33-.09-.495-.228-.219-.45-.022-.662-.034A.6.6,0,0,0,212.612,254.118Z" transform="translate(-202.642 -222.714)" fill="#fff"/>
        <path id="Path_221" data-name="Path 221" d="M223.817,238.414c-.015-.08-.03-.163-.051-.279l-.408-.193-.193.035-.183.324.05.276.371.192C223.569,238.8,223.7,238.626,223.817,238.414Z" transform="translate(-204.073 -220.651)" fill="#fff"/>
        <path id="Path_222" data-name="Path 222" d="M206.421,258.114l.055.3.3.195.3-.055.177-.318c-.008-.045-.025-.14-.05-.279l-.315-.185-.28.051c-.03.087-.075.212-.12.337Z" transform="translate(-201.839 -223.325)" fill="#fff"/>
        <path id="Path_223" data-name="Path 223" d="M224.173,224.4a.559.559,0,0,0-.322.46.611.611,0,0,0,.451.337.627.627,0,0,0,.351-.441A.541.541,0,0,0,224.173,224.4Z" transform="translate(-204.19 -218.824)" fill="#fff"/>
        <path id="Path_224" data-name="Path 224" d="M223.587,221.182a.56.56,0,0,0-.321.462.6.6,0,0,0,.452.335c.209-.074.279-.258.35-.439A.555.555,0,0,0,223.587,221.182Z" transform="translate(-204.111 -218.39)" fill="#fff"/>
        <path id="Path_225" data-name="Path 225" d="M225.23,227.928a.562.562,0,0,0-.46-.322.612.612,0,0,0-.337.452.63.63,0,0,0,.439.351A.542.542,0,0,0,225.23,227.928Z" transform="translate(-204.268 -219.257)" fill="#fff"/>
        <path id="Path_226" data-name="Path 226" d="M221.332,245.188c-.208.038-.279.135-.246.34.037.238.14.306.379.251.2-.044.26-.151.216-.359S221.54,245.15,221.332,245.188Z" transform="translate(-203.816 -221.627)" fill="#fff"/>
        <path id="Path_227" data-name="Path 227" d="M223.019,217.965c-.209.038-.279.135-.247.34.037.238.141.306.379.251.2-.045.26-.15.217-.36S223.226,217.927,223.019,217.965Z" transform="translate(-204.044 -217.955)" fill="#fff"/>
        <path id="Path_228" data-name="Path 228" d="M225.155,231.4c.038.208.136.279.34.246.238-.037.306-.14.252-.379-.045-.2-.151-.26-.36-.216S225.118,231.194,225.155,231.4Z" transform="translate(-204.365 -219.72)" fill="#fff"/>
        <path id="Path_229" data-name="Path 229" d="M223.893,241.271l-.231.357.345.26.268-.414Z" transform="translate(-204.165 -221.1)" fill="#fff"/>
        <path id="Path_230" data-name="Path 230" d="M201.364,262.51a1.878,1.878,0,0,0-.159.37,2.021,2.021,0,0,1-.08-.556A1.175,1.175,0,0,0,201.364,262.51Z" transform="translate(-201.125 -223.939)" fill="#fff"/>
        <path id="Path_231" data-name="Path 231" d="M226.078,234.894l.281-.4-.4-.231-.264.348Z" transform="translate(-204.438 -220.154)" fill="#fff"/>
        <path id="Path_232" data-name="Path 232" d="M226.689,238.059l.25-.337-.345-.165-.2.253Z" transform="translate(-204.533 -220.599)" fill="#fff"/>
      </g>
      <g id="Group_104" data-name="Group 104" transform="translate(233.327 89.829)">
        <path id="Path_233" data-name="Path 233" d="M340.218,244.151a1.016,1.016,0,0,1-.292.292l.186-1.4a.651.651,0,0,1,.185.185A.96.96,0,0,1,340.218,244.151Z" transform="translate(-337.304 -217.13)" fill="#fff"/>
        <path id="Path_234" data-name="Path 234" d="M340.826,246.634a1.881,1.881,0,0,1-.185.689,1.037,1.037,0,0,1-.556.371.712.712,0,0,1-.556-.106l.053-.344.159-1.3a.994.994,0,0,1,.662.159C340.588,246.21,340.693,246.449,340.826,246.634Z" transform="translate(-337.25 -217.521)" fill="#fff"/>
        <path id="Path_235" data-name="Path 235" d="M342.726,239.868c-.035-.19-.077-.421-.118-.648l-.545-.369-.681.124-.355.513c.039.218.081.447.119.659l.579.4.647-.118Z" transform="translate(-337.452 -216.565)" fill="#fff"/>
        <path id="Path_236" data-name="Path 236" d="M341.741,233.454c-.159.212-.265.4-.4.583a.236.236,0,0,0-.132.027l.159-1.4.238.159C341.662,233.057,341.716,233.3,341.741,233.454Z" transform="translate(-337.477 -215.73)" fill="#fff"/>
        <path id="Path_237" data-name="Path 237" d="M342.191,236.663c-.132.185-.238.37-.371.555-.238.054-.45.08-.636.106-.132-.08-.265-.159-.37-.238l.185-1.351c.159-.027.344-.053.556-.106.186.132.344.238.5.37A5.95,5.95,0,0,1,342.191,236.663Z" transform="translate(-337.424 -216.131)" fill="#fff"/>
        <path id="Path_238" data-name="Path 238" d="M338.891,254.027a.816.816,0,0,1-.159.344l.08-.741A1.066,1.066,0,0,1,338.891,254.027Z" transform="translate(-337.143 -218.558)" fill="#fff"/>
        <path id="Path_239" data-name="Path 239" d="M342.088,242.3a.849.849,0,0,0,.285,1.573.936.936,0,0,0,.771-.339.838.838,0,0,0-.215-1.185A.937.937,0,0,0,342.088,242.3Z" transform="translate(-337.538 -217.02)" fill="#fff"/>
        <path id="Path_240" data-name="Path 240" d="M341.188,249.652c-.375-.408-.722-.521-1.106-.36a.883.883,0,0,0-.465.73.861.861,0,0,0,.8.86A.846.846,0,0,0,341.188,249.652Z" transform="translate(-337.262 -217.964)" fill="#fff"/>
        <path id="Path_241" data-name="Path 241" d="M342.325,246.048c.041.221.082.452.125.687l.42.281.687-.125.281-.42c-.04-.221-.082-.452-.125-.687l-.42-.281-.686.125Z" transform="translate(-337.627 -217.462)" fill="#fff"/>
        <path id="Path_242" data-name="Path 242" d="M341.742,253.166a.707.707,0,1,0-.586.81A.625.625,0,0,0,341.742,253.166Z" transform="translate(-337.358 -218.415)" fill="#fff"/>
        <path id="Path_243" data-name="Path 243" d="M345.873,238.742l-.513-.355-.523.094-.348.5c.029.154.058.318.086.469l.574.39.453-.082.354-.561C345.934,239.072,345.9,238.907,345.873,238.742Z" transform="translate(-337.919 -216.503)" fill="#fff"/>
        <path id="Path_244" data-name="Path 244" d="M344.762,235.161l-.432.078-.413.6.074.4.566.389.459-.084.361-.533c-.029-.161-.059-.325-.089-.489Z" transform="translate(-337.842 -216.068)" fill="#fff"/>
        <path id="Path_245" data-name="Path 245" d="M339.265,257.321c-.132.185-.239.344-.344.5-.185.026-.371.053-.529.08a6.286,6.286,0,0,1,.08-1.431,1.171,1.171,0,0,0,.132-.026c.212.158.4.291.556.4C339.185,257,339.238,257.162,339.265,257.321Z" transform="translate(-337.092 -218.938)" fill="#fff"/>
        <path id="Path_246" data-name="Path 246" d="M344.429,233.338l.355-.513-.094-.523-.5-.348-.466.085-.394.572.083.454.552.357Z" transform="translate(-337.762 -215.635)" fill="#fff"/>
        <path id="Path_247" data-name="Path 247" d="M344.145,229.217a.707.707,0,1,0-1.378.319.8.8,0,0,0,.821.522A.783.783,0,0,0,344.145,229.217Z" transform="translate(-337.685 -215.191)" fill="#fff"/>
        <path id="Path_248" data-name="Path 248" d="M344.482,249.322a.707.707,0,1,0-1.381.3.707.707,0,0,0,1.381-.3Z" transform="translate(-337.73 -217.901)" fill="#fff"/>
        <path id="Path_249" data-name="Path 249" d="M345.127,242.571c.17.124.132.391.35.454.163.048.369.154.49.1.156-.074.387-.113.449-.328.048-.164.072-.333.107-.5-.184-.074-.119-.317-.306-.42-.169-.093-.356-.008-.5-.121-.107.146-.307.136-.433.281C345.133,242.207,345.268,242.423,345.127,242.571Z" transform="translate(-338.005 -216.957)" fill="#fff"/>
        <path id="Path_250" data-name="Path 250" d="M342.315,225.8a1,1,0,0,0,.155.9.851.851,0,0,0,.975-.17.869.869,0,0,0-.186-.921A.88.88,0,0,0,342.315,225.8Z" transform="translate(-337.62 -214.77)" fill="#fff"/>
        <path id="Path_251" data-name="Path 251" d="M345.8,245.59l.081.444.442.27.471-.086.267-.437c-.023-.121-.052-.285-.086-.471l-.438-.267-.471.087Z" transform="translate(-338.096 -217.4)" fill="#fff"/>
        <path id="Path_252" data-name="Path 252" d="M341.026,256.492c.029.158.058.322.085.469l.425.294.469-.086.294-.425c-.029-.158-.059-.322-.086-.469l-.425-.294-.469.086Z" transform="translate(-337.452 -218.876)" fill="#fff"/>
        <path id="Path_253" data-name="Path 253" d="M343,222.828a.585.585,0,0,1-.476.715c-.027,0,.106-1.139.106-1.139A.506.506,0,0,1,343,222.828Z" transform="translate(-337.654 -214.347)" fill="#fff"/>
        <path id="Path_254" data-name="Path 254" d="M344.283,252.094a.605.605,0,1,0,.7.489A.627.627,0,0,0,344.283,252.094Z" transform="translate(-337.824 -218.35)" fill="#fff"/>
        <path id="Path_255" data-name="Path 255" d="M338.443,260.531a.605.605,0,1,0,.486-.7A.627.627,0,0,0,338.443,260.531Z" transform="translate(-337.103 -219.393)" fill="#fff"/>
        <path id="Path_256" data-name="Path 256" d="M347.885,232.021a.889.889,0,0,0-.713-.49.944.944,0,0,0-.482.68.605.605,0,1,0,1.195-.19Z" transform="translate(-338.216 -215.578)" fill="#fff"/>
        <path id="Path_257" data-name="Path 257" d="M347.759,234.739a.956.956,0,0,0-.485.687.605.605,0,1,0,1.194-.2A.941.941,0,0,0,347.759,234.739Z" transform="translate(-338.295 -216.011)" fill="#fff"/>
        <path id="Path_258" data-name="Path 258" d="M347.145,228.467l-.291-.2-.508.092-.183.311c.022.125.052.287.089.489l.337.168.466-.085.112-.328A1.058,1.058,0,0,0,347.145,228.467Z" transform="translate(-338.145 -215.138)" fill="#fff"/>
        <path id="Path_259" data-name="Path 259" d="M348.324,239.1l.482-.088.205-.289c-.03-.167-.061-.33-.091-.5l-.3-.2-.5.091-.179.317c.021.114.05.276.089.487l.286.112Z" transform="translate(-338.385 -216.454)" fill="#fff"/>
        <path id="Path_260" data-name="Path 260" d="M346.69,248.452l-.2.29c.029.161.059.324.093.508l.309.183.484-.088c.065-.093.121-.174.187-.27l-.094-.521-.356-.177Z" transform="translate(-338.189 -217.85)" fill="#fff"/>
        <path id="Path_261" data-name="Path 261" d="M337.081,264.363c-.08.132-.132.238-.186.317a7.905,7.905,0,0,1,.054-.794A2.2,2.2,0,0,1,337.081,264.363Z" transform="translate(-336.895 -219.942)" fill="#fff"/>
        <path id="Path_262" data-name="Path 262" d="M348.787,242.349a.681.681,0,0,0,.719-.135.6.6,0,0,0-.166-.767.583.583,0,0,0-.748.241A.594.594,0,0,0,348.787,242.349Z" transform="translate(-338.467 -216.908)" fill="#fff"/>
        <path id="Path_263" data-name="Path 263" d="M342.2,260.373l.284-.052.3-.407-.053-.289-.424-.294-.269.049-.3.408c.02.11.038.208.055.3Z" transform="translate(-337.549 -219.327)" fill="#fff"/>
        <path id="Path_264" data-name="Path 264" d="M345.87,225.125l-.283.415.054.294.414.283.295-.054.283-.414-.054-.294-.414-.283Z" transform="translate(-338.067 -214.707)" fill="#fff"/>
        <path id="Path_265" data-name="Path 265" d="M345.023,256.545l.221-.041.267-.491s-.016-.092-.04-.217l-.481-.261-.217.04c-.066.12-.144.266-.26.481,0,0,.016.091.038.213Z" transform="translate(-337.922 -218.815)" fill="#fff"/>
        <path id="Path_266" data-name="Path 266" d="M349.749,245.609a.685.685,0,0,0,.407-.6.5.5,0,1,0-.979.2A.714.714,0,0,0,349.749,245.609Z" transform="translate(-338.551 -217.343)" fill="#fff"/>
        <path id="Path_267" data-name="Path 267" d="M348.117,252.032a.5.5,0,1,0-.407.587A.758.758,0,0,0,348.117,252.032Z" transform="translate(-338.275 -218.288)" fill="#fff"/>
        <path id="Path_268" data-name="Path 268" d="M339.481,264.111c.192-.09.473.029.6-.278-.028-.152-.06-.33-.09-.495-.229-.219-.451-.021-.662-.034A.6.6,0,0,0,339.481,264.111Z" transform="translate(-337.211 -219.854)" fill="#fff"/>
        <path id="Path_269" data-name="Path 269" d="M350.685,248.407c-.015-.08-.029-.163-.05-.279l-.409-.193-.192.035-.183.324.05.277.371.191C350.438,248.792,350.573,248.619,350.685,248.407Z" transform="translate(-338.642 -217.79)" fill="#fff"/>
        <path id="Path_270" data-name="Path 270" d="M345.584,221.978l-.268.049-.2.307c.016.083.03.164.053.289l.377.183.214-.039.2-.292-.056-.308Z" transform="translate(-338.004 -214.29)" fill="#fff"/>
        <path id="Path_271" data-name="Path 271" d="M351.041,234.388a.562.562,0,0,0-.321.461.609.609,0,0,0,.451.337.624.624,0,0,0,.35-.441A.542.542,0,0,0,351.041,234.388Z" transform="translate(-338.76 -215.963)" fill="#fff"/>
        <path id="Path_272" data-name="Path 272" d="M350.455,231.175a.564.564,0,0,0-.32.462.6.6,0,0,0,.452.335c.21-.074.279-.258.351-.439A.555.555,0,0,0,350.455,231.175Z" transform="translate(-338.681 -215.53)" fill="#fff"/>
        <path id="Path_273" data-name="Path 273" d="M352.1,237.921a.561.561,0,0,0-.46-.321.609.609,0,0,0-.337.451.63.63,0,0,0,.439.351A.541.541,0,0,0,352.1,237.921Z" transform="translate(-338.838 -216.396)" fill="#fff"/>
        <path id="Path_274" data-name="Path 274" d="M349.66,225.014c-.029-.213-.127-.3-.32-.275-.214.024-.306.123-.29.309.022.238.132.33.35.3S349.686,225.213,349.66,225.014Z" transform="translate(-338.534 -214.661)" fill="#fff"/>
        <path id="Path_275" data-name="Path 275" d="M348.2,255.181c-.208.038-.279.136-.246.34.037.238.14.306.379.252.2-.045.26-.151.216-.361S348.409,255.143,348.2,255.181Z" transform="translate(-338.386 -218.766)" fill="#fff"/>
        <path id="Path_276" data-name="Path 276" d="M349.888,227.958c-.208.038-.278.136-.246.34.037.238.14.306.379.252.2-.045.26-.151.217-.36S350.1,227.921,349.888,227.958Z" transform="translate(-338.613 -215.095)" fill="#fff"/>
        <path id="Path_277" data-name="Path 277" d="M352.024,241.395c.038.208.136.279.34.246.238-.037.306-.14.252-.379-.045-.2-.151-.26-.36-.216S351.987,241.187,352.024,241.395Z" transform="translate(-338.934 -216.859)" fill="#fff"/>
        <path id="Path_278" data-name="Path 278" d="M344.94,218.9c-.212.03-.293.128-.27.323.025.213.125.3.312.285.237-.023.327-.132.291-.352S345.141,218.871,344.94,218.9Z" transform="translate(-337.943 -213.874)" fill="#fff"/>
        <path id="Path_279" data-name="Path 279" d="M350.762,251.264l-.231.357.345.26.268-.414Z" transform="translate(-338.734 -218.239)" fill="#fff"/>
        <path id="Path_280" data-name="Path 280" d="M340.968,213.223a2.9,2.9,0,0,1-.266.344,2.87,2.87,0,0,0,.053-.477A.951.951,0,0,1,340.968,213.223Z" transform="translate(-337.408 -213.091)" fill="#fff"/>
        <path id="Path_281" data-name="Path 281" d="M352.947,244.887l.281-.4-.4-.231-.264.348Z" transform="translate(-339.008 -217.294)" fill="#fff"/>
        <path id="Path_282" data-name="Path 282" d="M349.009,221.991c-.023-.128-.043-.239-.066-.364l-.374.067c.014.1.029.228.048.368Z" transform="translate(-338.47 -214.242)" fill="#fff"/>
        <path id="Path_283" data-name="Path 283" d="M344.605,216.033c-.022-.127-.042-.237-.066-.363l-.374.067c.014.1.03.227.048.368Z" transform="translate(-337.876 -213.439)" fill="#fff"/>
        <path id="Path_284" data-name="Path 284" d="M353.557,248.052l.251-.337-.345-.165c-.063.081-.12.155-.2.253Z" transform="translate(-339.103 -217.738)" fill="#fff"/>
      </g>
      <g id="Group_105" data-name="Group 105" transform="translate(234.148 140.021)">
        <path id="Path_285" data-name="Path 285" d="M338,288.727l-.159.239v-.741A1.726,1.726,0,0,1,338,288.727Z" transform="translate(-337.844 -273.416)" fill="#fff"/>
        <path id="Path_286" data-name="Path 286" d="M338.48,291.788a4.385,4.385,0,0,1-.106.5c-.08.212-.292.239-.451.318a7.26,7.26,0,0,1-.08-1.325c.106.027.213,0,.318.08C338.348,291.47,338.295,291.709,338.48,291.788Z" transform="translate(-337.844 -273.828)" fill="#fff"/>
        <path id="Path_287" data-name="Path 287" d="M338.931,295.271a2.651,2.651,0,0,0-.265.424c-.186.026-.371.079-.478.079-.132-.079-.238-.131-.344-.185v-.847c.027-.053.054-.08.08-.133.186-.026.344-.053.478-.079.158.106.318.185.423.265C338.878,294.98,338.9,295.139,338.931,295.271Z" transform="translate(-337.844 -274.266)" fill="#fff"/>
        <path id="Path_288" data-name="Path 288" d="M339.719,281.5a.893.893,0,0,0-.714-.491.944.944,0,0,0-.481.68.6.6,0,1,0,1.195-.189Z" transform="translate(-337.936 -272.443)" fill="#fff"/>
        <path id="Path_289" data-name="Path 289" d="M339.593,284.219a.963.963,0,0,0-.486.687.606.606,0,1,0,1.195-.2A.943.943,0,0,0,339.593,284.219Z" transform="translate(-338.014 -272.875)" fill="#fff"/>
        <path id="Path_290" data-name="Path 290" d="M338.978,277.948l-.291-.2-.508.093-.183.311c.022.125.052.286.089.488l.337.168.467-.085.112-.327A1.043,1.043,0,0,0,338.978,277.948Z" transform="translate(-337.865 -272.002)" fill="#fff"/>
        <path id="Path_291" data-name="Path 291" d="M340.158,288.578l.481-.087.205-.29c-.03-.166-.061-.33-.091-.5l-.3-.195-.5.09c-.045.082-.1.183-.179.318l.089.487.286.111Z" transform="translate(-338.104 -273.319)" fill="#fff"/>
        <path id="Path_292" data-name="Path 292" d="M338.524,297.932c-.086.124-.142.206-.2.291.029.161.06.324.093.508l.309.183.484-.088.188-.27c-.028-.149-.057-.31-.1-.522l-.356-.177Z" transform="translate(-337.908 -274.715)" fill="#fff"/>
        <path id="Path_293" data-name="Path 293" d="M340.62,291.83a.683.683,0,0,0,.719-.136.6.6,0,0,0-.165-.766.582.582,0,0,0-.749.241A.594.594,0,0,0,340.62,291.83Z" transform="translate(-338.187 -273.773)" fill="#fff"/>
        <path id="Path_294" data-name="Path 294" d="M338.533,275.122a4.02,4.02,0,0,0-.291.424c-.106.026-.212.026-.292.053a3.682,3.682,0,0,1-.106-1.033.581.581,0,0,0,.213-.027,2.368,2.368,0,0,0,.423.292A.972.972,0,0,0,338.533,275.122Z" transform="translate(-337.844 -271.57)" fill="#fff"/>
        <path id="Path_295" data-name="Path 295" d="M341.582,295.089a.685.685,0,0,0,.407-.6.5.5,0,1,0-.979.2A.711.711,0,0,0,341.582,295.089Z" transform="translate(-338.271 -274.208)" fill="#fff"/>
        <path id="Path_296" data-name="Path 296" d="M339.95,301.512a.5.5,0,1,0-.407.587A.755.755,0,0,0,339.95,301.512Z" transform="translate(-337.994 -275.153)" fill="#fff"/>
        <path id="Path_297" data-name="Path 297" d="M342.519,297.888c-.015-.081-.03-.163-.051-.279l-.408-.192-.192.035-.183.324c.009.048.027.144.05.277l.371.191C342.271,298.273,342.406,298.1,342.519,297.888Z" transform="translate(-338.362 -274.655)" fill="#fff"/>
        <path id="Path_298" data-name="Path 298" d="M337.924,271.979c-.08.106-.08-.318-.08-.318A2.941,2.941,0,0,0,337.924,271.979Z" transform="translate(-337.844 -271.182)" fill="#fff"/>
        <path id="Path_299" data-name="Path 299" d="M342.875,283.869a.561.561,0,0,0-.322.461.61.61,0,0,0,.451.336.626.626,0,0,0,.351-.44A.543.543,0,0,0,342.875,283.869Z" transform="translate(-338.479 -272.828)" fill="#fff"/>
        <path id="Path_300" data-name="Path 300" d="M342.289,280.656a.559.559,0,0,0-.321.462.6.6,0,0,0,.452.334c.209-.073.279-.258.35-.439A.555.555,0,0,0,342.289,280.656Z" transform="translate(-338.4 -272.395)" fill="#fff"/>
        <path id="Path_301" data-name="Path 301" d="M343.932,287.4a.56.56,0,0,0-.46-.322.611.611,0,0,0-.337.451.629.629,0,0,0,.439.352A.541.541,0,0,0,343.932,287.4Z" transform="translate(-338.558 -273.261)" fill="#fff"/>
        <path id="Path_302" data-name="Path 302" d="M341.493,274.494c-.029-.212-.127-.3-.32-.275-.214.024-.306.124-.29.31.023.238.132.33.35.3S341.519,274.693,341.493,274.494Z" transform="translate(-338.254 -271.526)" fill="#fff"/>
        <path id="Path_303" data-name="Path 303" d="M340.034,304.662c-.208.038-.279.135-.246.339.037.238.14.306.379.252.2-.045.26-.151.216-.36S340.242,304.624,340.034,304.662Z" transform="translate(-338.105 -275.631)" fill="#fff"/>
        <path id="Path_304" data-name="Path 304" d="M341.721,277.439c-.208.038-.279.135-.247.339.037.239.141.307.379.252.2-.045.26-.151.217-.36S341.928,277.4,341.721,277.439Z" transform="translate(-338.333 -271.96)" fill="#fff"/>
        <path id="Path_305" data-name="Path 305" d="M343.857,290.875c.038.208.136.278.34.246.238-.037.306-.14.252-.379-.045-.2-.151-.26-.36-.216S343.82,290.668,343.857,290.875Z" transform="translate(-338.654 -273.724)" fill="#fff"/>
        <path id="Path_306" data-name="Path 306" d="M342.6,300.745l-.231.357.345.26.268-.414Z" transform="translate(-338.454 -275.104)" fill="#fff"/>
        <path id="Path_307" data-name="Path 307" d="M344.78,294.368l.281-.4-.4-.23-.264.348C344.528,294.182,344.65,294.271,344.78,294.368Z" transform="translate(-338.727 -274.159)" fill="#fff"/>
        <path id="Path_308" data-name="Path 308" d="M340.842,271.472c-.023-.129-.043-.239-.066-.365l-.374.068c.014.1.03.228.048.368Z" transform="translate(-338.189 -271.107)" fill="#fff"/>
        <path id="Path_309" data-name="Path 309" d="M345.391,297.533c.087-.119.143-.193.25-.337l-.345-.165-.2.253Z" transform="translate(-338.822 -274.603)" fill="#fff"/>
      </g>
      <g id="Group_106" data-name="Group 106" transform="translate(195.586 54.037)">
        <path id="Path_310" data-name="Path 310" d="M293.271,202.707v-.875A.8.8,0,0,1,293.271,202.707Z" transform="translate(-293.271 -175.78)" fill="#fff"/>
        <path id="Path_311" data-name="Path 311" d="M293.88,205.284a2.7,2.7,0,0,1-.158.663.836.836,0,0,1-.451.344v-1.642a1.327,1.327,0,0,1,.186.08A2.211,2.211,0,0,1,293.88,205.284Z" transform="translate(-293.271 -176.16)" fill="#fff"/>
        <path id="Path_312" data-name="Path 312" d="M295.687,198.5c-.035-.19-.077-.421-.118-.648l-.545-.369-.681.124-.355.513c.04.218.081.447.119.658l.579.4.647-.118Z" transform="translate(-293.368 -175.193)" fill="#fff"/>
        <path id="Path_313" data-name="Path 313" d="M294.569,192.063c-.132.212-.265.4-.4.582-.212.027-.424.08-.662.106l-.239-.159v-1.43c.212-.027.424-.08.636-.106a6.061,6.061,0,0,0,.556.344C294.49,191.666,294.543,191.877,294.569,192.063Z" transform="translate(-293.271 -174.327)" fill="#fff"/>
        <path id="Path_314" data-name="Path 314" d="M294.458,194.258l-.63.115-.412.6c.028.155.069.384.109.6l.568.388.652-.119c.116-.176.236-.356.362-.546-.039-.215-.081-.446-.123-.676Z" transform="translate(-293.291 -174.759)" fill="#fff"/>
        <path id="Path_315" data-name="Path 315" d="M293.907,189.022a.784.784,0,0,1-.556.344,10.988,10.988,0,0,1-.08-1.616.939.939,0,0,1,.663.424C294.039,188.651,294.039,188.81,293.907,189.022Z" transform="translate(-293.271 -173.881)" fill="#fff"/>
        <path id="Path_316" data-name="Path 316" d="M295.05,200.924a.849.849,0,0,0,.284,1.573.933.933,0,0,0,.771-.34.837.837,0,0,0-.215-1.184A.935.935,0,0,0,295.05,200.924Z" transform="translate(-293.454 -175.648)" fill="#fff"/>
        <path id="Path_317" data-name="Path 317" d="M293.457,209.5c-.08-.027-.132-.027-.186-.053v-1.562a.915.915,0,0,1,.98.4A.851.851,0,0,1,293.457,209.5Z" transform="translate(-293.271 -176.592)" fill="#fff"/>
        <path id="Path_318" data-name="Path 318" d="M293.51,185.3a.8.8,0,0,1-.239.583v-.98A.8.8,0,0,1,293.51,185.3Z" transform="translate(-293.271 -173.497)" fill="#fff"/>
        <path id="Path_319" data-name="Path 319" d="M295.286,204.676c.041.221.083.452.125.687l.42.281.687-.125.281-.42c-.04-.221-.082-.452-.125-.687l-.42-.281-.686.125Z" transform="translate(-293.543 -176.09)" fill="#fff"/>
        <path id="Path_320" data-name="Path 320" d="M294.7,211.794a.707.707,0,1,0-.586.81A.624.624,0,0,0,294.7,211.794Z" transform="translate(-293.274 -177.042)" fill="#fff"/>
        <path id="Path_321" data-name="Path 321" d="M298.834,197.37l-.513-.356-.523.1-.348.5c.029.154.058.318.086.468.18.124.359.245.574.391l.453-.082c.108-.17.223-.355.354-.561Z" transform="translate(-293.835 -175.13)" fill="#fff"/>
        <path id="Path_322" data-name="Path 322" d="M297.724,193.789l-.432.078-.412.6c.016.089.045.253.073.4l.567.389.459-.084c.117-.171.238-.351.361-.533-.029-.161-.059-.325-.089-.489Z" transform="translate(-293.758 -174.696)" fill="#fff"/>
        <path id="Path_323" data-name="Path 323" d="M297.39,191.966l.356-.513c-.03-.164-.062-.341-.1-.523l-.5-.348-.466.085-.394.572c.021.11.05.273.083.454l.552.357Z" transform="translate(-293.678 -174.263)" fill="#fff"/>
        <path id="Path_324" data-name="Path 324" d="M297.106,187.845a.707.707,0,1,0-1.378.319.8.8,0,0,0,.821.522A.783.783,0,0,0,297.106,187.845Z" transform="translate(-293.6 -173.819)" fill="#fff"/>
        <path id="Path_325" data-name="Path 325" d="M297.443,207.95a.707.707,0,1,0-1.381.3.707.707,0,0,0,1.381-.3Z" transform="translate(-293.646 -176.529)" fill="#fff"/>
        <path id="Path_326" data-name="Path 326" d="M298.088,201.2c.17.124.131.391.35.454.164.047.369.154.49.1.156-.074.387-.113.449-.328.048-.164.072-.334.107-.5-.184-.074-.119-.318-.306-.42-.169-.093-.355-.009-.5-.121-.107.146-.307.136-.433.281C298.094,200.835,298.229,201.051,298.088,201.2Z" transform="translate(-293.921 -175.585)" fill="#fff"/>
        <path id="Path_327" data-name="Path 327" d="M295.276,184.425a1,1,0,0,0,.156.9.85.85,0,0,0,.974-.17.87.87,0,0,0-.186-.92A.88.88,0,0,0,295.276,184.425Z" transform="translate(-293.536 -173.398)" fill="#fff"/>
        <path id="Path_328" data-name="Path 328" d="M298.76,204.218c.023.129.05.277.081.444l.442.27.471-.086.267-.437-.086-.471-.437-.266-.472.086Z" transform="translate(-294.011 -176.028)" fill="#fff"/>
        <path id="Path_329" data-name="Path 329" d="M295.095,214.81h-.875a1.668,1.668,0,0,1,.556-.212A2.185,2.185,0,0,0,295.095,214.81Z" transform="translate(-293.399 -177.502)" fill="#fff"/>
        <path id="Path_330" data-name="Path 330" d="M294.668,181.7a.606.606,0,0,0,.715.465.6.6,0,1,0-.243-1.176A.6.6,0,0,0,294.668,181.7Z" transform="translate(-293.458 -172.968)" fill="#fff"/>
        <path id="Path_331" data-name="Path 331" d="M297.244,210.722a.605.605,0,1,0,.7.489A.626.626,0,0,0,297.244,210.722Z" transform="translate(-293.74 -176.978)" fill="#fff"/>
        <path id="Path_332" data-name="Path 332" d="M300.847,190.649a.892.892,0,0,0-.714-.49.941.941,0,0,0-.481.68.6.6,0,1,0,1.195-.19Z" transform="translate(-294.132 -174.206)" fill="#fff"/>
        <path id="Path_333" data-name="Path 333" d="M300.721,193.367a.957.957,0,0,0-.486.687.606.606,0,1,0,1.195-.2A.944.944,0,0,0,300.721,193.367Z" transform="translate(-294.21 -174.639)" fill="#fff"/>
        <path id="Path_334" data-name="Path 334" d="M300.106,187.095l-.291-.2-.508.092c-.05.086-.108.185-.183.311.023.125.053.286.089.488l.337.169.467-.086.112-.327A1.044,1.044,0,0,0,300.106,187.095Z" transform="translate(-294.06 -173.766)" fill="#fff"/>
        <path id="Path_335" data-name="Path 335" d="M301.286,197.725l.481-.087.205-.289c-.03-.167-.06-.33-.091-.5l-.3-.2-.5.091c-.047.081-.1.182-.18.318l.089.487.286.112Z" transform="translate(-294.3 -175.082)" fill="#fff"/>
        <path id="Path_336" data-name="Path 336" d="M299.652,207.08l-.2.29.093.508.309.183.484-.088.186-.27c-.027-.149-.055-.31-.094-.521l-.356-.178Z" transform="translate(-294.104 -176.478)" fill="#fff"/>
        <path id="Path_337" data-name="Path 337" d="M301.748,200.977a.679.679,0,0,0,.719-.136.6.6,0,0,0-.166-.766.583.583,0,0,0-.748.241A.594.594,0,0,0,301.748,200.977Z" transform="translate(-294.383 -175.536)" fill="#fff"/>
        <path id="Path_338" data-name="Path 338" d="M295.113,178.712c.109-.294.13-.538-.107-.739a.577.577,0,0,0-.757.11.6.6,0,0,0,.147.735A.657.657,0,0,0,295.113,178.712Z" transform="translate(-293.394 -172.55)" fill="#fff"/>
        <path id="Path_339" data-name="Path 339" d="M298.831,183.753q-.139.205-.283.414l.054.295.415.283.294-.054.283-.414-.054-.3-.414-.283Z" transform="translate(-293.983 -173.335)" fill="#fff"/>
        <path id="Path_340" data-name="Path 340" d="M298.476,214.647c-.054.106-.98.106-.98.106.106-.292.185-.424.239-.556a1.182,1.182,0,0,1,.211-.027,3.431,3.431,0,0,1,.477.266Z" transform="translate(-293.841 -177.444)" fill="#fff"/>
        <path id="Path_341" data-name="Path 341" d="M302.71,204.236a.683.683,0,0,0,.407-.6.5.5,0,1,0-.979.2A.712.712,0,0,0,302.71,204.236Z" transform="translate(-294.467 -175.971)" fill="#fff"/>
        <path id="Path_342" data-name="Path 342" d="M301.078,210.66a.5.5,0,1,0-.407.587A.756.756,0,0,0,301.078,210.66Z" transform="translate(-294.19 -176.916)" fill="#fff"/>
        <path id="Path_343" data-name="Path 343" d="M303.647,207.035c-.015-.081-.03-.163-.051-.279l-.408-.193-.193.035-.183.324.05.276.371.192C303.4,207.42,303.535,207.247,303.647,207.035Z" transform="translate(-294.558 -176.418)" fill="#fff"/>
        <path id="Path_344" data-name="Path 344" d="M294.518,175.112l-.05-.277-.376-.176-.217.04c-.044.089-.1.207-.183.377l.039.214.292.2.308-.055Z" transform="translate(-293.328 -172.116)" fill="#fff"/>
        <path id="Path_345" data-name="Path 345" d="M298.546,180.607l-.268.048-.2.307.052.288.377.183.214-.039.2-.292c-.017-.092-.035-.189-.056-.308Z" transform="translate(-293.92 -172.918)" fill="#fff"/>
        <path id="Path_346" data-name="Path 346" d="M304,193.016a.561.561,0,0,0-.322.461.609.609,0,0,0,.451.337.628.628,0,0,0,.351-.441A.543.543,0,0,0,304,193.016Z" transform="translate(-294.675 -174.591)" fill="#fff"/>
        <path id="Path_347" data-name="Path 347" d="M303.416,189.8a.564.564,0,0,0-.32.462.6.6,0,0,0,.452.335c.21-.074.279-.258.35-.439A.555.555,0,0,0,303.416,189.8Z" transform="translate(-294.596 -174.158)" fill="#fff"/>
        <path id="Path_348" data-name="Path 348" d="M305.06,196.55a.56.56,0,0,0-.46-.322.609.609,0,0,0-.337.451.63.63,0,0,0,.439.351A.541.541,0,0,0,305.06,196.55Z" transform="translate(-294.753 -175.024)" fill="#fff"/>
        <path id="Path_349" data-name="Path 349" d="M302.621,183.642c-.029-.213-.127-.3-.319-.275-.215.024-.307.123-.29.309.022.238.131.33.349.3S302.648,183.841,302.621,183.642Z" transform="translate(-294.45 -173.289)" fill="#fff"/>
        <path id="Path_350" data-name="Path 350" d="M301.163,213.809c-.208.038-.279.135-.246.34.037.238.14.306.379.252.2-.046.26-.151.216-.361S301.37,213.771,301.163,213.809Z" transform="translate(-294.301 -177.394)" fill="#fff"/>
        <path id="Path_351" data-name="Path 351" d="M302.849,186.586c-.208.038-.279.135-.247.34.038.238.141.306.379.252.2-.045.26-.151.217-.36S303.056,186.549,302.849,186.586Z" transform="translate(-294.529 -173.723)" fill="#fff"/>
        <path id="Path_352" data-name="Path 352" d="M304.986,200.022c.037.208.135.279.339.247.238-.038.306-.141.252-.38-.045-.2-.151-.26-.36-.216S304.948,199.815,304.986,200.022Z" transform="translate(-294.85 -175.487)" fill="#fff"/>
        <path id="Path_353" data-name="Path 353" d="M297.9,177.527c-.211.03-.293.128-.27.323.025.213.125.3.312.285.237-.023.327-.132.291-.352S298.1,177.5,297.9,177.527Z" transform="translate(-293.859 -172.502)" fill="#fff"/>
        <path id="Path_354" data-name="Path 354" d="M303.723,209.892l-.231.357.345.26.269-.414Z" transform="translate(-294.649 -176.867)" fill="#fff"/>
        <path id="Path_355" data-name="Path 355" d="M293.929,171.851a3.061,3.061,0,0,1-.265.344,2.979,2.979,0,0,0,.053-.477A.937.937,0,0,1,293.929,171.851Z" transform="translate(-293.324 -171.719)" fill="#fff"/>
        <path id="Path_356" data-name="Path 356" d="M305.908,203.515l.281-.4-.4-.231-.264.348Z" transform="translate(-294.923 -175.922)" fill="#fff"/>
        <path id="Path_357" data-name="Path 357" d="M301.97,180.619c-.023-.128-.043-.239-.066-.365l-.374.068c.014.1.03.228.048.369Z" transform="translate(-294.385 -172.87)" fill="#fff"/>
        <path id="Path_358" data-name="Path 358" d="M297.567,174.661c-.023-.127-.043-.237-.067-.363l-.373.067c.013.1.029.227.048.368Z" transform="translate(-293.791 -172.067)" fill="#fff"/>
        <path id="Path_359" data-name="Path 359" d="M306.519,206.68l.25-.337-.345-.165-.2.253Z" transform="translate(-295.018 -176.366)" fill="#fff"/>
      </g>
      <path id="Path_360" data-name="Path 360" d="M245.808,141a1.842,1.842,0,1,1-1.843-1.843A1.842,1.842,0,0,1,245.808,141Z" transform="translate(-90.787 -113.291)" fill="#f66"/>
      <path id="Path_361" data-name="Path 361" d="M358.751,125.134a1.842,1.842,0,1,1-1.842-1.843A1.842,1.842,0,0,1,358.751,125.134Z" transform="translate(-106.019 -111.151)" fill="#f66"/>
      <path id="Path_362" data-name="Path 362" d="M245.138,143.45a3.244,3.244,0,0,0,2.689,3.694,3.118,3.118,0,0,0,2.928-1.843,23.425,23.425,0,0,1-5.616-1.851Z" transform="translate(-91.19 -113.87)" fill="#fff"/>
      <g id="Group_111" data-name="Group 111" transform="translate(153.783 23.379)">
        <g id="Group_107" data-name="Group 107" transform="translate(2.432 0.443)">
          <path id="Path_363" data-name="Path 363" d="M248.1,138.76a.345.345,0,0,1-.226-.085.34.34,0,0,1-.029-.481l1.132-1.283a.341.341,0,1,1,.511.45l-1.132,1.283A.336.336,0,0,1,248.1,138.76Z" transform="translate(-247.762 -136.794)" fill="#082c7c"/>
        </g>
        <g id="Group_108" data-name="Group 108" transform="translate(1.179)">
          <path id="Path_364" data-name="Path 364" d="M246.654,138.345a.341.341,0,0,1-.279-.536l.961-1.381a.338.338,0,0,1,.474-.085.342.342,0,0,1,.085.474l-.961,1.381A.34.34,0,0,1,246.654,138.345Z" transform="translate(-246.314 -136.282)" fill="#082c7c"/>
        </g>
        <g id="Group_109" data-name="Group 109" transform="translate(2.276 3.52)">
          <path id="Path_365" data-name="Path 365" d="M248.013,141.963a.339.339,0,0,1-.338-.307l-.091-.926a.341.341,0,0,1,.306-.373.327.327,0,0,1,.37.306l.091.926a.341.341,0,0,1-.306.373Z" transform="translate(-247.582 -140.351)" fill="#082c7c"/>
        </g>
        <g id="Group_110" data-name="Group 110" transform="translate(0.806 3.454)">
          <path id="Path_366" data-name="Path 366" d="M246.223,141.824c-.259-.051-.373-.233-.333-.417l.2-.868a.35.35,0,0,1,.407-.257.344.344,0,0,1,.259.408l-.2.868A.343.343,0,0,1,246.223,141.824Z" transform="translate(-245.882 -140.275)" fill="#082c7c"/>
        </g>
        <path id="Path_367" data-name="Path 367" d="M249.273,139.463c-.107.631-1.313.9-2.038.919l-.147.008c-.8,0-1.973-.279-2.125-.961-.119-.637.649-1.431,1.515-1.658a.806.806,0,0,1,.343-.1,2.124,2.124,0,0,1,.767.066,2.35,2.35,0,0,1,1.691,1.5A.723.723,0,0,1,249.273,139.463Z" transform="translate(-244.951 -136.468)" fill="#fff"/>
        <path id="Path_368" data-name="Path 368" d="M249.388,139.45a1.555,1.555,0,0,1-2.12.589,1.579,1.579,0,0,1-.714-2.1.58.58,0,0,1,.118-.167.806.806,0,0,1,.343-.1,2.124,2.124,0,0,1,.767.066,2.35,2.35,0,0,1,1.691,1.5A.69.69,0,0,1,249.388,139.45Z" transform="translate(-245.145 -136.468)" fill="#2464a7"/>
      </g>
      <path id="Path_369" data-name="Path 369" d="M351.948,129.858a2.858,2.858,0,0,0,2.276.671,3.153,3.153,0,0,0,2.082-3.595,18.446,18.446,0,0,1-3.135,2.279C352.753,129.454,352.344,129.668,351.948,129.858Z" transform="translate(-105.598 -111.642)" fill="#fff"/>
      <g id="Group_113" data-name="Group 113" transform="translate(246.77 9.944)">
        <g id="Group_112" data-name="Group 112">
          <path id="Path_370" data-name="Path 370" d="M356.712,122.156c-.022.7-1.135,1.177-1.921,1.325l-.138.024c-.724.108-1.951.031-2.178-.564-.216-.558.432-1.567,1.357-1.988a2.093,2.093,0,0,1,.743-.2C355.591,120.689,356.729,121.439,356.712,122.156Z" transform="translate(-352.434 -120.752)" fill="#fff"/>
          <path id="Path_371" data-name="Path 371" d="M355.051,122.288a1.636,1.636,0,0,1-.26,1.224l-.138.024c-.724.108-1.951.031-2.178-.564-.216-.558.432-1.567,1.357-1.988A1.563,1.563,0,0,1,355.051,122.288Z" transform="translate(-352.434 -120.783)" fill="#2464a7"/>
        </g>
      </g>
    </g>
    <g id="Group_118" data-name="Group 118" transform="translate(65.057 307.872)">
      <g id="Group_115" data-name="Group 115">
        <path id="Path_372" data-name="Path 372" d="M70.282,339.516H65.4a.341.341,0,0,1,0-.682h4.884a.341.341,0,0,1,0,.682Z" transform="translate(-65.057 -338.834)" fill="#d64545"/>
      </g>
      <g id="Group_116" data-name="Group 116" transform="translate(8.201)">
        <path id="Path_373" data-name="Path 373" d="M78.666,339.516H74.877a.341.341,0,0,1,0-.682h3.789a.341.341,0,1,1,0,.682Z" transform="translate(-74.536 -338.834)" fill="#d64545"/>
      </g>
      <g id="Group_117" data-name="Group 117" transform="translate(15.462)">
        <path id="Path_374" data-name="Path 374" d="M339.78,339.516H83.27a.341.341,0,0,1,0-.682H339.78a.341.341,0,0,1,0,.682Z" transform="translate(-82.929 -338.834)" fill="#d64545"/>
      </g>
    </g>
  </g>
</svg>
