<svg xmlns="http://www.w3.org/2000/svg" xmlns:xlink="http://www.w3.org/1999/xlink" width="248.695" height="141.944" viewBox="0 0 248.695 141.944">
  <defs>
    <linearGradient id="linear-gradient" x1="-2.523" y1="-2.335" x2="-4.42" y2="2.965" gradientUnits="objectBoundingBox">
      <stop offset="0" stop-color="#ffc34e"/>
      <stop offset="1" stop-color="#fb8627"/>
    </linearGradient>
    <linearGradient id="linear-gradient-2" x1="-2.62" y1="-2.335" x2="-4.517" y2="2.965" xlink:href="#linear-gradient"/>
    <linearGradient id="linear-gradient-3" x1="-2.534" y1="-2.335" x2="-4.431" y2="2.965" xlink:href="#linear-gradient"/>
    <linearGradient id="linear-gradient-4" x1="-1.108" y1="-2.335" x2="-3.005" y2="2.965" xlink:href="#linear-gradient"/>
    <linearGradient id="linear-gradient-5" x1="-1.172" y1="-2.335" x2="-3.069" y2="2.965" xlink:href="#linear-gradient"/>
    <linearGradient id="linear-gradient-6" x1="-0.911" y1="-2.335" x2="-2.809" y2="2.965" xlink:href="#linear-gradient"/>
    <linearGradient id="linear-gradient-7" x1="-1.943" y1="-0.274" x2="-5.073" y2="1.718" xlink:href="#linear-gradient"/>
    <linearGradient id="linear-gradient-8" x1="1.23" y1="-0.036" x2="-0.439" y2="1.189" gradientUnits="objectBoundingBox">
      <stop offset="0" stop-color="#8fd4ff"/>
      <stop offset="1" stop-color="#1355bf"/>
    </linearGradient>
    <linearGradient id="linear-gradient-9" x1="0.458" y1="-0.847" x2="0.23" y2="2.003" gradientUnits="objectBoundingBox">
      <stop offset="0" stop-color="#1c47ab"/>
      <stop offset="1" stop-color="#4788d7"/>
    </linearGradient>
    <linearGradient id="linear-gradient-10" x1="-1.043" y1="4.044" x2="-4.61" y2="5.969" xlink:href="#linear-gradient"/>
    <linearGradient id="linear-gradient-11" x1="-15.583" y1="-2.047" x2="-18.901" y2="-0.322" xlink:href="#linear-gradient"/>
    <linearGradient id="linear-gradient-12" x1="-6.724" y1="-0.274" x2="-9.854" y2="1.718" xlink:href="#linear-gradient"/>
    <linearGradient id="linear-gradient-13" x1="-1.17" y1="8.862" x2="-2.953" y2="10.061" xlink:href="#linear-gradient"/>
    <linearGradient id="linear-gradient-14" x1="-7.566" y1="22.367" x2="-9.83" y2="23.372" xlink:href="#linear-gradient"/>
    <linearGradient id="linear-gradient-15" x1="20.001" y1="-0.165" x2="17.559" y2="1.322" xlink:href="#linear-gradient"/>
    <linearGradient id="linear-gradient-16" x1="32.23" y1="-0.903" x2="28.12" y2="3.184" xlink:href="#linear-gradient"/>
    <linearGradient id="linear-gradient-17" x1="22.944" y1="-1.271" x2="21.024" y2="1.25" xlink:href="#linear-gradient"/>
    <linearGradient id="linear-gradient-18" x1="20.307" y1="-0.748" x2="17.668" y2="2.284" xlink:href="#linear-gradient"/>
    <linearGradient id="linear-gradient-19" x1="173.249" y1="33.401" x2="169.682" y2="35.326" xlink:href="#linear-gradient"/>
    <linearGradient id="linear-gradient-20" x1="164.077" y1="-28.009" x2="160.759" y2="-26.284" xlink:href="#linear-gradient"/>
    <linearGradient id="linear-gradient-21" x1="123.694" y1="-0.274" x2="120.565" y2="1.718" xlink:href="#linear-gradient"/>
    <linearGradient id="linear-gradient-22" x1="112.405" y1="68.118" x2="110.622" y2="69.318" xlink:href="#linear-gradient"/>
    <linearGradient id="linear-gradient-23" x1="-4.608" y1="84.259" x2="-6.873" y2="85.263" xlink:href="#linear-gradient"/>
  </defs>
  <g id="saving_count" transform="translate(-114.94 -159.472)">
    <g id="Group_165" data-name="Group 165" transform="translate(114.94 159.472)">
      <path id="Path_386" data-name="Path 386" d="M169.955,298.241s-58.962-29.653-46.145-46.1c6.438-8.26,21.575,2.939,21.575,2.939S133.505,238.7,125.58,233.6s-2.037-20.059-3.153-24.712-12.25-11.125-5.115-13.966,13.8.875,15.369,6.27.754,6.913,5.918,8.478,9.478,8.93,10.262,15.245,7.5,13.84,7.5,13.84S143.541,210.6,141.888,201.7s-6.139-38.7.612-37.519,22.421,12.154,26.936,20.387,13.276,36.081,13.276,36.081-6.126-52.548-1.758-52.548,11.769,25.1,11.769,25.1,1.91-21.735,11.026-27.06c7.283-4.255,8.738,2.875,11.069,5.621,8.08,9.516,8.08,35.932,8.08,35.932s33.26-32.341,47.671-34.136c14.117-1.759,20.066-7.092,21.514-9.411s9.543-6.887,11.965-3.427,1.471,13.9-2.758,16.524-4.52,5.4-4.767,11.264-1.854,12.174-3.991,14.9-4.428,14.734-4.428,14.734S301.7,193.129,316.166,189.5s13.384-9.678,19.486-15.145,14.336-10.564,12.768-4.291-5.1,8.32-3.137,12.785,1.176,14.719-1.176,17.237-9.851,15.168-9.434,18.057-4.643,10.712-4.643,10.712,15.907-9.528,21.788-4.838-21.341,32.389-21.341,32.389,28.912-12.731,32.833-6.161-28.989,29.561-28.989,29.561,23.9-7.847,17.235,4.72-33.038,14.7-33.038,14.7Z" transform="translate(-114.94 -159.472)" fill="#22d3c4"/>
      <g id="Group_134" data-name="Group 134" transform="translate(143.541 75.404)">
        <g id="Group_122" data-name="Group 122" transform="translate(29.497 53.792)">
          <path id="Rectangle_57" data-name="Rectangle 57" d="M4.526,0H32.075A4.526,4.526,0,0,1,36.6,4.526v0a4.526,4.526,0,0,1-4.526,4.526H4.526A4.526,4.526,0,0,1,0,4.526v0A4.526,4.526,0,0,1,4.526,0Z" transform="translate(36.601 9.052) rotate(180)" fill="#fb8627"/>
          <rect id="Rectangle_58" data-name="Rectangle 58" width="36.601" height="8.047" rx="4.023" transform="translate(36.601 8.549) rotate(180)" fill="url(#linear-gradient)"/>
          <g id="Group_121" data-name="Group 121" transform="translate(1.443 1.054)">
            <path id="Path_387" data-name="Path 387" d="M2422.852,1617.22a.626.626,0,0,0,.624-.624v-5.7a.624.624,0,1,0-1.248,0v5.7A.626.626,0,0,0,2422.852,1617.22Z" transform="translate(-2389.566 -1610.274)" fill="#ffc34e"/>
            <path id="Path_388" data-name="Path 388" d="M2398.6,1617.22a.626.626,0,0,0,.624-.624v-5.7a.624.624,0,1,0-1.248,0v5.7A.626.626,0,0,0,2398.6,1617.22Z" transform="translate(-2367.491 -1610.274)" fill="#ffc34e"/>
            <path id="Path_389" data-name="Path 389" d="M2374.345,1617.22a.626.626,0,0,0,.624-.624v-5.7a.624.624,0,1,0-1.248,0v5.7A.626.626,0,0,0,2374.345,1617.22Z" transform="translate(-2345.414 -1610.274)" fill="#ffc34e"/>
            <path id="Path_390" data-name="Path 390" d="M2350.091,1617.22a.626.626,0,0,0,.624-.624v-5.7a.624.624,0,1,0-1.248,0v5.7A.626.626,0,0,0,2350.091,1617.22Z" transform="translate(-2323.338 -1610.274)" fill="#ffc34e"/>
            <path id="Path_391" data-name="Path 391" d="M2325.837,1617.22a.625.625,0,0,0,.624-.624v-5.7a.624.624,0,1,0-1.248,0v5.7A.626.626,0,0,0,2325.837,1617.22Z" transform="translate(-2301.261 -1610.274)" fill="#ffc34e"/>
            <path id="Path_392" data-name="Path 392" d="M2301.583,1617.22a.626.626,0,0,0,.624-.624v-5.7a.624.624,0,1,0-1.248,0v5.7A.626.626,0,0,0,2301.583,1617.22Z" transform="translate(-2279.185 -1610.274)" fill="#ffc34e"/>
            <path id="Path_393" data-name="Path 393" d="M2277.33,1617.22a.626.626,0,0,0,.624-.624v-5.7a.624.624,0,1,0-1.248,0v5.7A.626.626,0,0,0,2277.33,1617.22Z" transform="translate(-2257.109 -1610.274)" fill="#ffc34e"/>
            <path id="Path_394" data-name="Path 394" d="M2253.076,1617.22a.626.626,0,0,0,.624-.624v-5.7a.624.624,0,1,0-1.248,0v5.7A.626.626,0,0,0,2253.076,1617.22Z" transform="translate(-2235.032 -1610.274)" fill="#ffc34e"/>
            <path id="Path_395" data-name="Path 395" d="M2228.822,1617.22a.626.626,0,0,0,.624-.624v-5.7a.624.624,0,1,0-1.248,0v5.7A.626.626,0,0,0,2228.822,1617.22Z" transform="translate(-2212.956 -1610.274)" fill="#ffc34e"/>
            <path id="Path_396" data-name="Path 396" d="M2204.568,1617.22a.626.626,0,0,0,.624-.624v-5.7a.624.624,0,1,0-1.248,0v5.7A.626.626,0,0,0,2204.568,1617.22Z" transform="translate(-2190.88 -1610.274)" fill="#ffc34e"/>
            <path id="Path_397" data-name="Path 397" d="M2180.315,1617.22a.626.626,0,0,0,.624-.624v-5.7a.624.624,0,0,0-1.248,0v5.7A.626.626,0,0,0,2180.315,1617.22Z" transform="translate(-2168.804 -1610.274)" fill="#ffc34e"/>
            <path id="Path_398" data-name="Path 398" d="M2156.062,1617.22a.625.625,0,0,0,.624-.624v-5.7a.624.624,0,1,0-1.248,0v5.7A.626.626,0,0,0,2156.062,1617.22Z" transform="translate(-2146.728 -1610.274)" fill="#ffc34e"/>
            <path id="Path_399" data-name="Path 399" d="M2131.808,1617.22a.626.626,0,0,0,.624-.624v-5.7a.624.624,0,1,0-1.248,0v5.7A.626.626,0,0,0,2131.808,1617.22Z" transform="translate(-2124.652 -1610.274)" fill="#ffc34e"/>
            <path id="Path_400" data-name="Path 400" d="M2107.555,1617.22a.626.626,0,0,0,.624-.624v-5.7a.624.624,0,1,0-1.248,0v5.7A.626.626,0,0,0,2107.555,1617.22Z" transform="translate(-2102.576 -1610.274)" fill="#ffc34e"/>
            <path id="Path_401" data-name="Path 401" d="M2083.3,1617.22a.626.626,0,0,0,.624-.624v-5.7a.624.624,0,1,0-1.248,0v5.7A.626.626,0,0,0,2083.3,1617.22Z" transform="translate(-2080.5 -1610.274)" fill="#ffc34e"/>
            <path id="Path_402" data-name="Path 402" d="M2059.047,1617.22a.626.626,0,0,0,.624-.624v-5.7a.624.624,0,1,0-1.248,0v5.7A.626.626,0,0,0,2059.047,1617.22Z" transform="translate(-2058.423 -1610.274)" fill="#ffc34e"/>
          </g>
        </g>
        <g id="Group_124" data-name="Group 124" transform="translate(31.261 45.062)">
          <rect id="Rectangle_59" data-name="Rectangle 59" width="36.601" height="9.052" rx="4.526" transform="translate(36.601 9.052) rotate(180)" fill="#fb8627"/>
          <rect id="Rectangle_60" data-name="Rectangle 60" width="36.601" height="8.047" rx="4.023" transform="translate(36.601 8.549) rotate(180)" fill="url(#linear-gradient-2)"/>
          <g id="Group_123" data-name="Group 123" transform="translate(1.444 1.054)">
            <path id="Path_403" data-name="Path 403" d="M2442.493,1519.984a.626.626,0,0,0,.624-.624v-5.7a.624.624,0,1,0-1.248,0v5.7A.626.626,0,0,0,2442.493,1519.984Z" transform="translate(-2409.208 -1513.038)" fill="#ffc34e"/>
            <path id="Path_404" data-name="Path 404" d="M2418.239,1519.984a.626.626,0,0,0,.624-.624v-5.7a.624.624,0,1,0-1.248,0v5.7A.626.626,0,0,0,2418.239,1519.984Z" transform="translate(-2387.131 -1513.038)" fill="#ffc34e"/>
            <path id="Path_405" data-name="Path 405" d="M2393.985,1519.984a.626.626,0,0,0,.624-.624v-5.7a.624.624,0,1,0-1.248,0v5.7A.626.626,0,0,0,2393.985,1519.984Z" transform="translate(-2365.055 -1513.038)" fill="#ffc34e"/>
            <path id="Path_406" data-name="Path 406" d="M2369.731,1519.984a.626.626,0,0,0,.624-.624v-5.7a.624.624,0,1,0-1.248,0v5.7A.626.626,0,0,0,2369.731,1519.984Z" transform="translate(-2342.978 -1513.038)" fill="#ffc34e"/>
            <path id="Path_407" data-name="Path 407" d="M2345.478,1519.984a.626.626,0,0,0,.624-.624v-5.7a.624.624,0,1,0-1.248,0v5.7A.626.626,0,0,0,2345.478,1519.984Z" transform="translate(-2320.902 -1513.038)" fill="#ffc34e"/>
            <path id="Path_408" data-name="Path 408" d="M2321.225,1519.984a.626.626,0,0,0,.624-.624v-5.7a.624.624,0,1,0-1.248,0v5.7A.626.626,0,0,0,2321.225,1519.984Z" transform="translate(-2298.827 -1513.038)" fill="#ffc34e"/>
            <path id="Path_409" data-name="Path 409" d="M2296.971,1519.984a.626.626,0,0,0,.624-.624v-5.7a.624.624,0,1,0-1.248,0v5.7A.626.626,0,0,0,2296.971,1519.984Z" transform="translate(-2276.75 -1513.038)" fill="#ffc34e"/>
            <path id="Path_410" data-name="Path 410" d="M2272.717,1519.984a.626.626,0,0,0,.624-.624v-5.7a.624.624,0,1,0-1.248,0v5.7A.626.626,0,0,0,2272.717,1519.984Z" transform="translate(-2254.674 -1513.038)" fill="#ffc34e"/>
            <path id="Path_411" data-name="Path 411" d="M2248.464,1519.984a.626.626,0,0,0,.624-.624v-5.7a.624.624,0,1,0-1.248,0v5.7A.626.626,0,0,0,2248.464,1519.984Z" transform="translate(-2232.598 -1513.038)" fill="#ffc34e"/>
            <path id="Path_412" data-name="Path 412" d="M2224.21,1519.984a.626.626,0,0,0,.624-.624v-5.7a.624.624,0,1,0-1.248,0v5.7A.626.626,0,0,0,2224.21,1519.984Z" transform="translate(-2210.521 -1513.038)" fill="#ffc34e"/>
            <path id="Path_413" data-name="Path 413" d="M2199.956,1519.984a.626.626,0,0,0,.624-.624v-5.7a.624.624,0,1,0-1.248,0v5.7A.626.626,0,0,0,2199.956,1519.984Z" transform="translate(-2188.445 -1513.038)" fill="#ffc34e"/>
            <path id="Path_414" data-name="Path 414" d="M2175.7,1519.984a.626.626,0,0,0,.624-.624v-5.7a.624.624,0,1,0-1.248,0v5.7A.626.626,0,0,0,2175.7,1519.984Z" transform="translate(-2166.369 -1513.038)" fill="#ffc34e"/>
            <path id="Path_415" data-name="Path 415" d="M2151.449,1519.984a.626.626,0,0,0,.624-.624v-5.7a.624.624,0,1,0-1.248,0v5.7A.626.626,0,0,0,2151.449,1519.984Z" transform="translate(-2144.293 -1513.038)" fill="#ffc34e"/>
            <path id="Path_416" data-name="Path 416" d="M2127.2,1519.984a.626.626,0,0,0,.624-.624v-5.7a.624.624,0,1,0-1.248,0v5.7A.626.626,0,0,0,2127.2,1519.984Z" transform="translate(-2122.216 -1513.038)" fill="#ffc34e"/>
            <path id="Path_417" data-name="Path 417" d="M2102.941,1519.984a.626.626,0,0,0,.624-.624v-5.7a.624.624,0,1,0-1.248,0v5.7A.626.626,0,0,0,2102.941,1519.984Z" transform="translate(-2100.14 -1513.038)" fill="#ffc34e"/>
            <path id="Path_418" data-name="Path 418" d="M2078.689,1519.984a.626.626,0,0,0,.624-.624v-5.7a.624.624,0,1,0-1.248,0v5.7A.626.626,0,0,0,2078.689,1519.984Z" transform="translate(-2078.065 -1513.038)" fill="#ffc34e"/>
          </g>
        </g>
        <g id="Group_126" data-name="Group 126" transform="translate(29.7 36.598)">
          <path id="Rectangle_61" data-name="Rectangle 61" d="M4.526,0H32.075A4.526,4.526,0,0,1,36.6,4.526v0a4.526,4.526,0,0,1-4.526,4.526H4.526A4.526,4.526,0,0,1,0,4.526v0A4.526,4.526,0,0,1,4.526,0Z" transform="translate(36.601 9.052) rotate(180)" fill="#fb8627"/>
          <path id="Rectangle_62" data-name="Rectangle 62" d="M4.023,0H32.577A4.023,4.023,0,0,1,36.6,4.023v0a4.023,4.023,0,0,1-4.023,4.023H4.023A4.023,4.023,0,0,1,0,4.023v0A4.023,4.023,0,0,1,4.023,0Z" transform="translate(36.601 8.549) rotate(180)" fill="url(#linear-gradient-3)"/>
          <g id="Group_125" data-name="Group 125" transform="translate(1.443 1.054)">
            <path id="Path_419" data-name="Path 419" d="M2425.114,1425.708a.626.626,0,0,0,.624-.624v-5.7a.624.624,0,1,0-1.248,0v5.7A.626.626,0,0,0,2425.114,1425.708Z" transform="translate(-2391.828 -1418.762)" fill="#ffc34e"/>
            <path id="Path_420" data-name="Path 420" d="M2400.86,1425.708a.626.626,0,0,0,.624-.624v-5.7a.624.624,0,1,0-1.248,0v5.7A.626.626,0,0,0,2400.86,1425.708Z" transform="translate(-2369.752 -1418.762)" fill="#ffc34e"/>
            <path id="Path_421" data-name="Path 421" d="M2376.607,1425.708a.626.626,0,0,0,.624-.624v-5.7a.624.624,0,1,0-1.248,0v5.7A.626.626,0,0,0,2376.607,1425.708Z" transform="translate(-2347.676 -1418.762)" fill="#ffc34e"/>
            <path id="Path_422" data-name="Path 422" d="M2352.353,1425.708a.626.626,0,0,0,.624-.624v-5.7a.624.624,0,1,0-1.248,0v5.7A.626.626,0,0,0,2352.353,1425.708Z" transform="translate(-2325.6 -1418.762)" fill="#ffc34e"/>
            <path id="Path_423" data-name="Path 423" d="M2328.1,1425.708a.626.626,0,0,0,.624-.624v-5.7a.624.624,0,1,0-1.248,0v5.7A.626.626,0,0,0,2328.1,1425.708Z" transform="translate(-2303.524 -1418.762)" fill="#ffc34e"/>
            <path id="Path_424" data-name="Path 424" d="M2303.847,1425.708a.626.626,0,0,0,.624-.624v-5.7a.624.624,0,1,0-1.248,0v5.7A.626.626,0,0,0,2303.847,1425.708Z" transform="translate(-2281.448 -1418.762)" fill="#ffc34e"/>
            <path id="Path_425" data-name="Path 425" d="M2279.593,1425.708a.626.626,0,0,0,.624-.624v-5.7a.624.624,0,1,0-1.248,0v5.7A.626.626,0,0,0,2279.593,1425.708Z" transform="translate(-2259.372 -1418.762)" fill="#ffc34e"/>
            <path id="Path_426" data-name="Path 426" d="M2255.339,1425.708a.626.626,0,0,0,.624-.624v-5.7a.624.624,0,1,0-1.248,0v5.7A.626.626,0,0,0,2255.339,1425.708Z" transform="translate(-2237.296 -1418.762)" fill="#ffc34e"/>
            <path id="Path_427" data-name="Path 427" d="M2231.085,1425.708a.626.626,0,0,0,.624-.624v-5.7a.624.624,0,1,0-1.248,0v5.7A.626.626,0,0,0,2231.085,1425.708Z" transform="translate(-2215.219 -1418.762)" fill="#ffc34e"/>
            <path id="Path_428" data-name="Path 428" d="M2206.831,1425.708a.625.625,0,0,0,.624-.624v-5.7a.624.624,0,1,0-1.248,0v5.7A.626.626,0,0,0,2206.831,1425.708Z" transform="translate(-2193.142 -1418.762)" fill="#ffc34e"/>
            <path id="Path_429" data-name="Path 429" d="M2182.578,1425.708a.626.626,0,0,0,.624-.624v-5.7a.624.624,0,1,0-1.248,0v5.7A.626.626,0,0,0,2182.578,1425.708Z" transform="translate(-2171.067 -1418.762)" fill="#ffc34e"/>
            <path id="Path_430" data-name="Path 430" d="M2158.324,1425.708a.626.626,0,0,0,.624-.624v-5.7a.624.624,0,1,0-1.248,0v5.7A.626.626,0,0,0,2158.324,1425.708Z" transform="translate(-2148.99 -1418.762)" fill="#ffc34e"/>
            <path id="Path_431" data-name="Path 431" d="M2134.071,1425.708a.626.626,0,0,0,.624-.624v-5.7a.624.624,0,1,0-1.248,0v5.7A.626.626,0,0,0,2134.071,1425.708Z" transform="translate(-2126.915 -1418.762)" fill="#ffc34e"/>
            <path id="Path_432" data-name="Path 432" d="M2109.817,1425.708a.626.626,0,0,0,.624-.624v-5.7a.624.624,0,1,0-1.248,0v5.7A.626.626,0,0,0,2109.817,1425.708Z" transform="translate(-2104.838 -1418.762)" fill="#ffc34e"/>
            <path id="Path_433" data-name="Path 433" d="M2085.564,1425.708a.626.626,0,0,0,.624-.624v-5.7a.624.624,0,1,0-1.248,0v5.7A.626.626,0,0,0,2085.564,1425.708Z" transform="translate(-2082.762 -1418.762)" fill="#ffc34e"/>
            <path id="Path_434" data-name="Path 434" d="M2061.309,1425.708a.626.626,0,0,0,.624-.624v-5.7a.624.624,0,0,0-1.248,0v5.7A.626.626,0,0,0,2061.309,1425.708Z" transform="translate(-2060.685 -1418.762)" fill="#ffc34e"/>
          </g>
        </g>
        <g id="Group_128" data-name="Group 128" transform="translate(3.589 17.777)">
          <path id="Rectangle_63" data-name="Rectangle 63" d="M4.526,0H32.075A4.526,4.526,0,0,1,36.6,4.526v0a4.526,4.526,0,0,1-4.526,4.526H4.526A4.526,4.526,0,0,1,0,4.526v0A4.526,4.526,0,0,1,4.526,0Z" transform="translate(36.601 9.052) rotate(180)" fill="#fb8627"/>
          <rect id="Rectangle_64" data-name="Rectangle 64" width="36.601" height="8.047" rx="4.023" transform="translate(36.601 8.549) rotate(180)" fill="url(#linear-gradient-4)"/>
          <g id="Group_127" data-name="Group 127" transform="translate(1.443 1.054)">
            <path id="Path_435" data-name="Path 435" d="M2134.271,1216.068a.626.626,0,0,0,.624-.624v-5.7a.624.624,0,1,0-1.248,0v5.7A.626.626,0,0,0,2134.271,1216.068Z" transform="translate(-2100.985 -1209.122)" fill="#ffc34e"/>
            <path id="Path_436" data-name="Path 436" d="M2110.017,1216.068a.626.626,0,0,0,.624-.624v-5.7a.624.624,0,0,0-1.248,0v5.7A.626.626,0,0,0,2110.017,1216.068Z" transform="translate(-2078.909 -1209.122)" fill="#ffc34e"/>
            <path id="Path_437" data-name="Path 437" d="M2085.764,1216.068a.626.626,0,0,0,.624-.624v-5.7a.624.624,0,0,0-1.248,0v5.7A.626.626,0,0,0,2085.764,1216.068Z" transform="translate(-2056.833 -1209.122)" fill="#ffc34e"/>
            <path id="Path_438" data-name="Path 438" d="M2061.51,1216.068a.626.626,0,0,0,.624-.624v-5.7a.624.624,0,0,0-1.248,0v5.7A.626.626,0,0,0,2061.51,1216.068Z" transform="translate(-2034.757 -1209.122)" fill="#ffc34e"/>
            <path id="Path_439" data-name="Path 439" d="M2037.256,1216.068a.626.626,0,0,0,.624-.624v-5.7a.624.624,0,0,0-1.248,0v5.7A.626.626,0,0,0,2037.256,1216.068Z" transform="translate(-2012.68 -1209.122)" fill="#ffc34e"/>
            <path id="Path_440" data-name="Path 440" d="M2013,1216.068a.626.626,0,0,0,.624-.624v-5.7a.624.624,0,0,0-1.248,0v5.7A.626.626,0,0,0,2013,1216.068Z" transform="translate(-1990.604 -1209.122)" fill="#ffc34e"/>
            <path id="Path_441" data-name="Path 441" d="M1988.749,1216.068a.626.626,0,0,0,.624-.624v-5.7a.624.624,0,0,0-1.248,0v5.7A.626.626,0,0,0,1988.749,1216.068Z" transform="translate(-1968.528 -1209.122)" fill="#ffc34e"/>
            <path id="Path_442" data-name="Path 442" d="M1964.495,1216.068a.626.626,0,0,0,.624-.624v-5.7a.624.624,0,0,0-1.248,0v5.7A.626.626,0,0,0,1964.495,1216.068Z" transform="translate(-1946.452 -1209.122)" fill="#ffc34e"/>
            <path id="Path_443" data-name="Path 443" d="M1940.241,1216.068a.626.626,0,0,0,.624-.624v-5.7a.624.624,0,0,0-1.248,0v5.7A.626.626,0,0,0,1940.241,1216.068Z" transform="translate(-1924.375 -1209.122)" fill="#ffc34e"/>
            <path id="Path_444" data-name="Path 444" d="M1915.988,1216.068a.626.626,0,0,0,.624-.624v-5.7a.624.624,0,0,0-1.248,0v5.7A.626.626,0,0,0,1915.988,1216.068Z" transform="translate(-1902.299 -1209.122)" fill="#ffc34e"/>
            <path id="Path_445" data-name="Path 445" d="M1891.734,1216.068a.626.626,0,0,0,.624-.624v-5.7a.624.624,0,0,0-1.248,0v5.7A.626.626,0,0,0,1891.734,1216.068Z" transform="translate(-1880.223 -1209.122)" fill="#ffc34e"/>
            <path id="Path_446" data-name="Path 446" d="M1867.48,1216.068a.626.626,0,0,0,.624-.624v-5.7a.624.624,0,0,0-1.248,0v5.7A.626.626,0,0,0,1867.48,1216.068Z" transform="translate(-1858.146 -1209.122)" fill="#ffc34e"/>
            <path id="Path_447" data-name="Path 447" d="M1843.228,1216.068a.626.626,0,0,0,.624-.624v-5.7a.624.624,0,0,0-1.248,0v5.7A.626.626,0,0,0,1843.228,1216.068Z" transform="translate(-1836.072 -1209.122)" fill="#ffc34e"/>
            <path id="Path_448" data-name="Path 448" d="M1818.974,1216.068a.626.626,0,0,0,.624-.624v-5.7a.624.624,0,0,0-1.248,0v5.7A.626.626,0,0,0,1818.974,1216.068Z" transform="translate(-1813.995 -1209.122)" fill="#ffc34e"/>
            <path id="Path_449" data-name="Path 449" d="M1794.72,1216.068a.626.626,0,0,0,.624-.624v-5.7a.624.624,0,0,0-1.248,0v5.7A.626.626,0,0,0,1794.72,1216.068Z" transform="translate(-1791.919 -1209.122)" fill="#ffc34e"/>
            <path id="Path_450" data-name="Path 450" d="M1770.466,1216.068a.626.626,0,0,0,.624-.624v-5.7a.624.624,0,0,0-1.248,0v5.7A.626.626,0,0,0,1770.466,1216.068Z" transform="translate(-1769.842 -1209.122)" fill="#ffc34e"/>
          </g>
        </g>
        <g id="Group_130" data-name="Group 130" transform="translate(4.769 8.725)">
          <path id="Rectangle_65" data-name="Rectangle 65" d="M4.526,0H32.075A4.526,4.526,0,0,1,36.6,4.526v0a4.526,4.526,0,0,1-4.526,4.526H4.526A4.526,4.526,0,0,1,0,4.526v0A4.526,4.526,0,0,1,4.526,0Z" transform="translate(36.6 9.052) rotate(180)" fill="#fb8627"/>
          <path id="Rectangle_66" data-name="Rectangle 66" d="M4.023,0H32.577A4.023,4.023,0,0,1,36.6,4.023v0a4.023,4.023,0,0,1-4.023,4.023H4.023A4.023,4.023,0,0,1,0,4.023v0A4.023,4.023,0,0,1,4.023,0Z" transform="translate(36.6 8.549) rotate(180)" fill="url(#linear-gradient-5)"/>
          <g id="Group_129" data-name="Group 129" transform="translate(1.443 1.054)">
            <path id="Path_451" data-name="Path 451" d="M2147.417,1115.241a.625.625,0,0,0,.624-.624v-5.7a.624.624,0,1,0-1.248,0v5.7A.626.626,0,0,0,2147.417,1115.241Z" transform="translate(-2114.131 -1108.295)" fill="#ffc34e"/>
            <path id="Path_452" data-name="Path 452" d="M2123.163,1115.241a.626.626,0,0,0,.624-.624v-5.7a.624.624,0,1,0-1.248,0v5.7A.626.626,0,0,0,2123.163,1115.241Z" transform="translate(-2092.055 -1108.295)" fill="#ffc34e"/>
            <path id="Path_453" data-name="Path 453" d="M2098.909,1115.241a.626.626,0,0,0,.624-.624v-5.7a.624.624,0,1,0-1.248,0v5.7A.626.626,0,0,0,2098.909,1115.241Z" transform="translate(-2069.978 -1108.295)" fill="#ffc34e"/>
            <path id="Path_454" data-name="Path 454" d="M2074.656,1115.241a.626.626,0,0,0,.624-.624v-5.7a.624.624,0,1,0-1.248,0v5.7A.626.626,0,0,0,2074.656,1115.241Z" transform="translate(-2047.903 -1108.295)" fill="#ffc34e"/>
            <path id="Path_455" data-name="Path 455" d="M2050.4,1115.241a.626.626,0,0,0,.624-.624v-5.7a.624.624,0,1,0-1.248,0v5.7A.626.626,0,0,0,2050.4,1115.241Z" transform="translate(-2025.826 -1108.295)" fill="#ffc34e"/>
            <path id="Path_456" data-name="Path 456" d="M2026.148,1115.241a.626.626,0,0,0,.624-.624v-5.7a.624.624,0,1,0-1.248,0v5.7A.626.626,0,0,0,2026.148,1115.241Z" transform="translate(-2003.75 -1108.295)" fill="#ffc34e"/>
            <path id="Path_457" data-name="Path 457" d="M2001.9,1115.241a.625.625,0,0,0,.624-.624v-5.7a.624.624,0,1,0-1.248,0v5.7A.626.626,0,0,0,2001.9,1115.241Z" transform="translate(-1981.675 -1108.295)" fill="#ffc34e"/>
            <path id="Path_458" data-name="Path 458" d="M1977.642,1115.241a.626.626,0,0,0,.624-.624v-5.7a.624.624,0,1,0-1.248,0v5.7A.626.626,0,0,0,1977.642,1115.241Z" transform="translate(-1959.598 -1108.295)" fill="#ffc34e"/>
            <path id="Path_459" data-name="Path 459" d="M1953.388,1115.241a.626.626,0,0,0,.624-.624v-5.7a.624.624,0,1,0-1.248,0v5.7A.626.626,0,0,0,1953.388,1115.241Z" transform="translate(-1937.522 -1108.295)" fill="#ffc34e"/>
            <path id="Path_460" data-name="Path 460" d="M1929.134,1115.241a.626.626,0,0,0,.624-.624v-5.7a.624.624,0,1,0-1.248,0v5.7A.626.626,0,0,0,1929.134,1115.241Z" transform="translate(-1915.445 -1108.295)" fill="#ffc34e"/>
            <path id="Path_461" data-name="Path 461" d="M1904.881,1115.241a.626.626,0,0,0,.624-.624v-5.7a.624.624,0,1,0-1.248,0v5.7A.626.626,0,0,0,1904.881,1115.241Z" transform="translate(-1893.37 -1108.295)" fill="#ffc34e"/>
            <path id="Path_462" data-name="Path 462" d="M1880.627,1115.241a.626.626,0,0,0,.624-.624v-5.7a.624.624,0,1,0-1.248,0v5.7A.626.626,0,0,0,1880.627,1115.241Z" transform="translate(-1871.293 -1108.295)" fill="#ffc34e"/>
            <path id="Path_463" data-name="Path 463" d="M1856.373,1115.241a.626.626,0,0,0,.624-.624v-5.7a.624.624,0,1,0-1.248,0v5.7A.626.626,0,0,0,1856.373,1115.241Z" transform="translate(-1849.217 -1108.295)" fill="#ffc34e"/>
            <path id="Path_464" data-name="Path 464" d="M1832.12,1115.241a.626.626,0,0,0,.624-.624v-5.7a.624.624,0,1,0-1.248,0v5.7A.626.626,0,0,0,1832.12,1115.241Z" transform="translate(-1827.141 -1108.295)" fill="#ffc34e"/>
            <path id="Path_465" data-name="Path 465" d="M1807.866,1115.241a.626.626,0,0,0,.624-.624v-5.7a.624.624,0,1,0-1.248,0v5.7A.625.625,0,0,0,1807.866,1115.241Z" transform="translate(-1805.065 -1108.295)" fill="#ffc34e"/>
            <path id="Path_466" data-name="Path 466" d="M1783.612,1115.241a.626.626,0,0,0,.624-.624v-5.7a.624.624,0,1,0-1.248,0v5.7A.626.626,0,0,0,1783.612,1115.241Z" transform="translate(-1782.988 -1108.295)" fill="#ffc34e"/>
          </g>
        </g>
        <g id="Group_132" data-name="Group 132" transform="translate(0 0)">
          <path id="Rectangle_67" data-name="Rectangle 67" d="M4.526,0H32.074A4.526,4.526,0,0,1,36.6,4.526v0a4.526,4.526,0,0,1-4.526,4.526H4.526A4.526,4.526,0,0,1,0,4.526v0A4.526,4.526,0,0,1,4.526,0Z" transform="translate(36.6 9.052) rotate(180)" fill="#fb8627"/>
          <path id="Rectangle_68" data-name="Rectangle 68" d="M4.023,0H32.577A4.023,4.023,0,0,1,36.6,4.023v0a4.023,4.023,0,0,1-4.023,4.023H4.023A4.023,4.023,0,0,1,0,4.023v0A4.023,4.023,0,0,1,4.023,0Z" transform="translate(36.6 8.549) rotate(180)" fill="url(#linear-gradient-6)"/>
          <g id="Group_131" data-name="Group 131" transform="translate(1.443 1.054)">
            <path id="Path_467" data-name="Path 467" d="M2094.293,1018.056a.626.626,0,0,0,.624-.624v-5.7a.624.624,0,1,0-1.248,0v5.7A.626.626,0,0,0,2094.293,1018.056Z" transform="translate(-2061.007 -1011.11)" fill="#ffc34e"/>
            <path id="Path_468" data-name="Path 468" d="M2070.039,1018.056a.626.626,0,0,0,.624-.624v-5.7a.624.624,0,0,0-1.248,0v5.7A.626.626,0,0,0,2070.039,1018.056Z" transform="translate(-2038.931 -1011.11)" fill="#ffc34e"/>
            <path id="Path_469" data-name="Path 469" d="M2045.785,1018.056a.626.626,0,0,0,.624-.624v-5.7a.624.624,0,1,0-1.248,0v5.7A.626.626,0,0,0,2045.785,1018.056Z" transform="translate(-2016.854 -1011.11)" fill="#ffc34e"/>
            <path id="Path_470" data-name="Path 470" d="M2021.532,1018.056a.626.626,0,0,0,.624-.624v-5.7a.624.624,0,1,0-1.248,0v5.7A.626.626,0,0,0,2021.532,1018.056Z" transform="translate(-1994.779 -1011.11)" fill="#ffc34e"/>
            <path id="Path_471" data-name="Path 471" d="M1997.278,1018.056a.626.626,0,0,0,.624-.624v-5.7a.624.624,0,1,0-1.248,0v5.7A.626.626,0,0,0,1997.278,1018.056Z" transform="translate(-1972.702 -1011.11)" fill="#ffc34e"/>
            <path id="Path_472" data-name="Path 472" d="M1973.024,1018.056a.626.626,0,0,0,.624-.624v-5.7a.624.624,0,1,0-1.248,0v5.7A.626.626,0,0,0,1973.024,1018.056Z" transform="translate(-1950.626 -1011.11)" fill="#ffc34e"/>
            <path id="Path_473" data-name="Path 473" d="M1948.771,1018.056a.626.626,0,0,0,.624-.624v-5.7a.624.624,0,1,0-1.248,0v5.7A.626.626,0,0,0,1948.771,1018.056Z" transform="translate(-1928.55 -1011.11)" fill="#ffc34e"/>
            <path id="Path_474" data-name="Path 474" d="M1924.518,1018.056a.626.626,0,0,0,.624-.624v-5.7a.624.624,0,1,0-1.248,0v5.7A.626.626,0,0,0,1924.518,1018.056Z" transform="translate(-1906.474 -1011.11)" fill="#ffc34e"/>
            <path id="Path_475" data-name="Path 475" d="M1900.264,1018.056a.626.626,0,0,0,.624-.624v-5.7a.624.624,0,1,0-1.248,0v5.7A.626.626,0,0,0,1900.264,1018.056Z" transform="translate(-1884.398 -1011.11)" fill="#ffc34e"/>
            <path id="Path_476" data-name="Path 476" d="M1876.01,1018.056a.626.626,0,0,0,.624-.624v-5.7a.624.624,0,1,0-1.248,0v5.7A.626.626,0,0,0,1876.01,1018.056Z" transform="translate(-1862.321 -1011.11)" fill="#ffc34e"/>
            <path id="Path_477" data-name="Path 477" d="M1851.757,1018.056a.626.626,0,0,0,.624-.624v-5.7a.624.624,0,1,0-1.248,0v5.7A.626.626,0,0,0,1851.757,1018.056Z" transform="translate(-1840.246 -1011.11)" fill="#ffc34e"/>
            <path id="Path_478" data-name="Path 478" d="M1827.5,1018.056a.626.626,0,0,0,.624-.624v-5.7a.624.624,0,1,0-1.248,0v5.7A.626.626,0,0,0,1827.5,1018.056Z" transform="translate(-1818.169 -1011.11)" fill="#ffc34e"/>
            <path id="Path_479" data-name="Path 479" d="M1803.249,1018.056a.625.625,0,0,0,.624-.624v-5.7a.624.624,0,1,0-1.248,0v5.7A.625.625,0,0,0,1803.249,1018.056Z" transform="translate(-1796.093 -1011.11)" fill="#ffc34e"/>
            <path id="Path_480" data-name="Path 480" d="M1778.995,1018.056a.626.626,0,0,0,.624-.624v-5.7a.624.624,0,1,0-1.248,0v5.7A.626.626,0,0,0,1778.995,1018.056Z" transform="translate(-1774.016 -1011.11)" fill="#ffc34e"/>
            <path id="Path_481" data-name="Path 481" d="M1754.742,1018.056a.626.626,0,0,0,.624-.624v-5.7a.624.624,0,1,0-1.248,0v5.7A.626.626,0,0,0,1754.742,1018.056Z" transform="translate(-1751.941 -1011.11)" fill="#ffc34e"/>
            <path id="Path_482" data-name="Path 482" d="M1730.488,1018.056a.626.626,0,0,0,.624-.624v-5.7a.624.624,0,1,0-1.248,0v5.7A.626.626,0,0,0,1730.488,1018.056Z" transform="translate(-1729.864 -1011.11)" fill="#ffc34e"/>
          </g>
        </g>
        <g id="Group_133" data-name="Group 133" transform="translate(9.685 11.961)">
          <circle id="Ellipse_35" data-name="Ellipse 35" cx="20.894" cy="20.894" r="20.894" transform="translate(2.404 2.404)" fill="#fb8627"/>
          <circle id="Ellipse_36" data-name="Ellipse 36" cx="19.889" cy="19.889" r="19.889" transform="translate(3.408 3.408)" fill="#ffc34e"/>
          <circle id="Ellipse_37" data-name="Ellipse 37" cx="16.474" cy="16.474" r="16.474" transform="translate(0 23.298) rotate(-45)" fill="#e68913"/>
          <circle id="Ellipse_38" data-name="Ellipse 38" cx="16.173" cy="16.173" r="16.173" transform="translate(0.527 23.8) rotate(-45)" fill="url(#linear-gradient-7)"/>
          <path id="Path_483" data-name="Path 483" d="M2015.949,1249.1h1.41a.694.694,0,0,1,.693.693v1.013a10.116,10.116,0,0,1,3.385.907,2.429,2.429,0,1,1-2.292,4.279,5.336,5.336,0,0,0-1.143-.535v4.871q6.421,1.955,6.421,7.246c0,3.732-2.413,6.148-6.454,6.875v.966a.761.761,0,0,1-.761.76h-1.226a.761.761,0,0,1-.761-.76v-.932a10.69,10.69,0,0,1-5.208-1.432,2.36,2.36,0,0,1-.628-3.513,2.386,2.386,0,0,1,3.148-.5,7.857,7.857,0,0,0,2.688,1.066v-5.662c-8.921-2.254-7.991-13.286.034-13.667v-.979A.693.693,0,0,1,2015.949,1249.1Zm-.727,10.368v-4.146A2.146,2.146,0,0,0,2015.222,1259.469Zm2.781,5.966v4.381C2020.262,1269.246,2020.444,1266.312,2018,1265.435Z" transform="translate(-1992.056 -1238.642)" fill="#fb8627"/>
          <path id="Path_484" data-name="Path 484" d="M2022.662,1242.388h1.41a.693.693,0,0,1,.693.693v1.013a10.116,10.116,0,0,1,3.385.907,2.429,2.429,0,1,1-2.293,4.279,5.33,5.33,0,0,0-1.143-.535v4.87q6.42,1.955,6.42,7.246c0,3.733-2.413,6.148-6.454,6.875v.966a.761.761,0,0,1-.761.761H2022.7a.761.761,0,0,1-.76-.761v-.932a10.692,10.692,0,0,1-5.208-1.432,2.36,2.36,0,0,1-.628-3.513,2.385,2.385,0,0,1,3.148-.5,7.856,7.856,0,0,0,2.688,1.066v-5.662c-8.921-2.254-7.99-13.286.034-13.667v-.979A.693.693,0,0,1,2022.662,1242.388Zm-.728,10.368v-4.146A2.146,2.146,0,0,0,2021.935,1252.756Zm2.781,5.966v4.381C2026.975,1262.533,2027.157,1259.6,2024.716,1258.722Z" transform="translate(-1998.166 -1232.531)" fill="#ffc34e"/>
        </g>
      </g>
      <g id="Group_154" data-name="Group 154" transform="translate(59.374 24.438)">
        <g id="Group_135" data-name="Group 135" transform="translate(35.242)">
          <path id="Path_485" data-name="Path 485" d="M1260.615,545.8h-61.244a2.4,2.4,0,0,1-2.389-2.147l-11.7-109.314a2.4,2.4,0,0,1,2.389-2.658h61.244a2.4,2.4,0,0,1,2.389,2.147L1263,543.137A2.4,2.4,0,0,1,1260.615,545.8Z" transform="translate(-1183.798 -431.676)" fill="#08a0a0"/>
          <path id="Path_486" data-name="Path 486" d="M1330.769,582.068h-51.241a2.087,2.087,0,0,1-2.075-1.864l-10.986-98.57a2.086,2.086,0,0,1,2.074-2.308h51.241a2.086,2.086,0,0,1,2.074,1.864l10.986,98.57A2.087,2.087,0,0,1,1330.769,582.068Z" transform="translate(-1257.691 -475.047)" fill="url(#linear-gradient-8)"/>
          <path id="Path_487" data-name="Path 487" d="M1184.761,545.8h-2.16a1.6,1.6,0,0,1-1.594-1.429l-12.159-110.743a1.756,1.756,0,0,1,1.745-1.948h1.853a1.756,1.756,0,0,1,1.746,1.564l12.163,110.776A1.6,1.6,0,0,1,1184.761,545.8Z" transform="translate(-1168.837 -431.676)" fill="#078e81"/>
          <path id="Path_488" data-name="Path 488" d="M1700.834,1655.5h-10.907a.606.606,0,0,1,0-1.212h10.907a.606.606,0,1,1,0,1.212Z" transform="translate(-1642.593 -1544.525)" fill="#078e81"/>
          <circle id="Ellipse_39" data-name="Ellipse 39" cx="0.778" cy="0.778" r="0.778" transform="translate(45.017 1.382)" fill="#078e81"/>
          <circle id="Ellipse_40" data-name="Ellipse 40" cx="0.778" cy="0.778" r="0.778" transform="translate(48.069 1.382)" fill="#078e81"/>
          <path id="Path_489" data-name="Path 489" d="M1532.084,448.629h-8.379a.778.778,0,1,1,0-1.556h8.379a.778.778,0,1,1,0,1.556Z" transform="translate(-1491.138 -445.691)" fill="#078e81"/>
        </g>
        <g id="Group_140" data-name="Group 140" transform="translate(54.911 21.619)">
          <path id="Path_490" data-name="Path 490" d="M1402.81,729.1h30.642l-6.78-55.392a1.424,1.424,0,0,0-1.374-1.224H1389a1.061,1.061,0,0,0-1.074,1.224L1393.715,721A9.423,9.423,0,0,0,1402.81,729.1Z" transform="translate(-1387.917 -672.486)" fill="#2a66c6"/>
          <path id="Path_491" data-name="Path 491" d="M1417.863,737.245h29.307l-6.479-52.927a1.353,1.353,0,0,0-1.305-1.163h-34.678a1.008,1.008,0,0,0-1.021,1.163l5.536,45.23A8.951,8.951,0,0,0,1417.863,737.245Z" transform="translate(-1402.263 -682.197)" fill="#e8efff"/>
          <path id="Path_492" data-name="Path 492" d="M1552.522,1138.01l-.119-.976a1.136,1.136,0,0,1,1.033-1.393h37.11a1.523,1.523,0,0,1,1.374,1.393l.119.976c.846,6.915-3.31,12.52-9.284,12.52h-37.917C1550.812,1150.53,1553.527,1145.555,1552.522,1138.01Z" transform="translate(-1530.75 -1094.06)" fill="#2a66c6"/>
          <path id="Path_493" data-name="Path 493" d="M1551.787,1153.394l-.1-.789a.977.977,0,0,1,.989-1.127h34.75a1.311,1.311,0,0,1,1.265,1.127l.1.789a8.776,8.776,0,0,1-8.889,10.129h-37C1548.492,1163.523,1552.7,1160.816,1551.787,1153.394Z" transform="translate(-1528.984 -1108.475)" fill="#e8efff"/>
          <path id="Path_494" data-name="Path 494" d="M1505.978,989.155h26.25a.589.589,0,0,0,.595-.678.791.791,0,0,0-.761-.678h-26.25a.589.589,0,0,0-.6.678A.791.791,0,0,0,1505.978,989.155Z" transform="translate(-1494.681 -959.491)" fill="#2455a3"/>
          <path id="Path_495" data-name="Path 495" d="M1509.352,1016.713h26.25a.589.589,0,0,0,.6-.678.791.791,0,0,0-.761-.678h-26.25a.589.589,0,0,0-.595.678A.791.791,0,0,0,1509.352,1016.713Z" transform="translate(-1497.752 -984.575)" fill="#2455a3"/>
          <path id="Path_496" data-name="Path 496" d="M1512.607,1043.314h26.25a.589.589,0,0,0,.6-.678.791.791,0,0,0-.761-.678h-26.25a.589.589,0,0,0-.595.678A.791.791,0,0,0,1512.607,1043.314Z" transform="translate(-1500.715 -1008.788)" fill="#2455a3"/>
          <g id="Group_139" data-name="Group 139" transform="translate(4.231 4.222)">
            <path id="Path_497" data-name="Path 497" d="M1460.21,743.666h-14.643a.6.6,0,0,1-.583-.519l-1.792-14.642a.45.45,0,0,1,.455-.519h14.643a.6.6,0,0,1,.583.519l1.792,14.642A.45.45,0,0,1,1460.21,743.666Z" transform="translate(-1442.458 -727.224)" fill="#2455a3"/>
            <path id="Path_498" data-name="Path 498" d="M1465.528,748.408h-13.673a.564.564,0,0,1-.544-.485l-1.674-13.673a.42.42,0,0,1,.425-.485h13.673a.564.564,0,0,1,.544.485l1.674,13.673A.42.42,0,0,1,1465.528,748.408Z" transform="translate(-1448.324 -732.486)" fill="#fff"/>
            <g id="Group_136" data-name="Group 136">
              <path id="Path_499" data-name="Path 499" d="M1441.082,725.3h-4.952a.487.487,0,0,1-.47-.419l-.606-4.952a.363.363,0,0,1,.368-.419h4.952a.487.487,0,0,1,.47.419l.606,4.952A.363.363,0,0,1,1441.082,725.3Z" transform="translate(-1435.05 -719.511)" fill="#2455a3"/>
              <path id="Path_500" data-name="Path 500" d="M1449.287,732.612h-3.352a.488.488,0,0,1-.47-.419l-.41-3.352a.363.363,0,0,1,.368-.419h3.352a.487.487,0,0,1,.47.419l.41,3.352A.363.363,0,0,1,1449.287,732.612Z" transform="translate(-1444.153 -727.622)" fill="#fff"/>
              <path id="Path_501" data-name="Path 501" d="M1456.515,739.052h-1.943a.487.487,0,0,1-.47-.419l-.238-1.943a.363.363,0,0,1,.368-.419h1.943a.487.487,0,0,1,.47.419l.238,1.943A.363.363,0,0,1,1456.515,739.052Z" transform="translate(-1452.172 -734.766)" fill="#2455a3"/>
            </g>
            <g id="Group_137" data-name="Group 137" transform="translate(1.962 12.192)">
              <path id="Path_502" data-name="Path 502" d="M1461.33,859.567H1457.7a.358.358,0,0,1-.345-.307l-.445-3.634a.266.266,0,0,1,.27-.307h3.634a.358.358,0,0,1,.345.307l.445,3.634A.266.266,0,0,1,1461.33,859.567Z" transform="translate(-1456.904 -855.318)" fill="#2455a3"/>
              <path id="Path_503" data-name="Path 503" d="M1467.351,864.932h-2.46a.358.358,0,0,1-.345-.307l-.3-2.46a.266.266,0,0,1,.27-.307h2.46a.357.357,0,0,1,.345.307l.3,2.46A.266.266,0,0,1,1467.351,864.932Z" transform="translate(-1463.584 -861.27)" fill="#fff"/>
              <path id="Path_504" data-name="Path 504" d="M1472.655,869.657h-1.426a.358.358,0,0,1-.345-.307l-.175-1.426a.267.267,0,0,1,.27-.307h1.426a.357.357,0,0,1,.345.307l.175,1.426A.266.266,0,0,1,1472.655,869.657Z" transform="translate(-1469.468 -866.513)" fill="#2455a3"/>
            </g>
            <g id="Group_138" data-name="Group 138" transform="translate(12.139 0.771)">
              <path id="Path_505" data-name="Path 505" d="M1574.691,732.344h-3.634a.357.357,0,0,1-.345-.307l-.445-3.634a.266.266,0,0,1,.27-.307h3.634a.358.358,0,0,1,.345.307l.445,3.634A.266.266,0,0,1,1574.691,732.344Z" transform="translate(-1570.265 -728.095)" fill="#2455a3"/>
              <path id="Path_506" data-name="Path 506" d="M1580.712,737.709h-2.46a.358.358,0,0,1-.345-.307l-.3-2.46a.266.266,0,0,1,.27-.307h2.46a.357.357,0,0,1,.345.307l.3,2.46A.266.266,0,0,1,1580.712,737.709Z" transform="translate(-1576.944 -734.047)" fill="#fff"/>
              <path id="Path_507" data-name="Path 507" d="M1586.016,742.435h-1.426a.357.357,0,0,1-.345-.308l-.175-1.426a.266.266,0,0,1,.27-.307h1.426a.358.358,0,0,1,.345.307l.175,1.426A.267.267,0,0,1,1586.016,742.435Z" transform="translate(-1582.83 -739.29)" fill="#2455a3"/>
            </g>
            <path id="Path_508" data-name="Path 508" d="M1466.867,738.661h-1.1l-.107-.877h-.716l.216,1.761h-.755l-.359-2.935h.451l-.086-.7h-.45l-.2-1.621h1.2l-.082-.671h-1.2l-.107-.874h-.7l.107.874h-1.789l-.062-.5h1.174l-.051-.419h-1.174l-.3-2.488h-.922l.3,2.488h-.447l-.326-2.659h.559l-.238-1.943h-1.943l.238,1.943h.8l.021.171h-2.041l-.1-.828h1.148l-.062-.5h-1.147l-.1-.783h-.657l.259,2.114h-1.048l.1.825h.252l.4,3.256h-1.649l-.2-1.593h-.671l.2,1.593h-.683l-.033-.269h-2.164l.265,2.164h2.164l-.133-1.085h.683l.246,2.013h-1.887l.082.671h1.887l.079.643h.671l-.079-.643h.964l.1.839h.825l-.1-.839h1.314l.24,1.957h-1.957l.291,2.376h1.957l.1.849h-1.314l.1.8h1.9l-.2-1.649h.28l-.058-.476h-1.628l-.15-1.226h.762l.034.276h.587l-.034-.276h.839l-.083-.674h-.839l-.24-1.957h1.812l.356,2.907h.872l-.058-.475h1.183l.116.95h-2.832l.116.95h2.124l.2,1.649h.867l-.2-1.649h.559l-.072-.587-.044-.363-.116-.95h.615l.1.843.046.376.1.788h1.342l.117.956h-1.342l.072.587h1.873l-.189-1.543h.281l-.142-1.164h-1.455l-.1-.843h1.471l-.064-.521h1.1Zm-5.6-4.371h1.789l.2,1.621h-1.789Zm-1.066-1.174.062.5h-.447l-.062-.5Zm-2.585,4H1456.3l-.062-.5h1.314Zm-.147-1.2h-2.138l.024.2.062.5.062.5h-.964l-.246-2.013h3.1Zm-.253-2.068.055.447h-.587l-.144-1.174h1.174l-.1-.839h-1.174l-.152-1.244h1.174l.1.852h1.034l-.1-.852h.419l.2,1.663h-.419l.051.419h.419l.062.5h-.821l.082.671h.821l.1.811H1460l-.1-.811h.447l.2,1.621h-2.488l-.253-2.068Zm5.869,5.7-.067-.545h-.718l.067.545h-1.183l-.216-1.761h.866l-.082-.671h-3.55l-.062-.5h5.2l.359,2.935Z" transform="translate(-1449.22 -727.324)" fill="#2455a3"/>
          </g>
        </g>
        <g id="Group_141" data-name="Group 141" transform="translate(0 73.228)">
          <rect id="Rectangle_69" data-name="Rectangle 69" width="73.16" height="42.088" rx="21.044" transform="translate(1.174)" fill="#08a0a0"/>
          <rect id="Rectangle_70" data-name="Rectangle 70" width="72.607" height="41.34" rx="7" fill="#7be9ef"/>
          <path id="Path_509" data-name="Path 509" d="M1306.486,1291.474H1290.5a2.976,2.976,0,0,1,0-5.952h15.987a2.976,2.976,0,1,1,0,5.952Z" transform="translate(-1241.625 -1282.094)" fill="#5699df"/>
          <path id="Path_510" data-name="Path 510" d="M1341.291,1555.24a4.518,4.518,0,1,1-4.518-4.518A4.518,4.518,0,0,1,1341.291,1555.24Z" transform="translate(-1282.341 -1523.485)" fill="#5699df" opacity="0.5"/>
          <path id="Path_511" data-name="Path 511" d="M1409.987,1555.24a4.518,4.518,0,1,1-4.518-4.518A4.518,4.518,0,0,1,1409.987,1555.24Z" transform="translate(-1344.87 -1523.485)" fill="#5699df" opacity="0.5"/>
          <rect id="Rectangle_71" data-name="Rectangle 71" width="14.199" height="5.092" rx="2.546" transform="translate(5.164 15.62)" fill="#5699df"/>
          <rect id="Rectangle_72" data-name="Rectangle 72" width="14.199" height="5.092" rx="2.546" transform="translate(20.67 15.62)" fill="#5699df"/>
          <rect id="Rectangle_73" data-name="Rectangle 73" width="14.199" height="5.092" rx="2.546" transform="translate(36.176 15.62)" fill="#5699df"/>
          <rect id="Rectangle_74" data-name="Rectangle 74" width="14.199" height="5.092" rx="2.546" transform="translate(51.682 15.62)" fill="#5699df"/>
          <rect id="Rectangle_75" data-name="Rectangle 75" width="31.14" height="3.873" rx="1.936" transform="translate(5.164 27.524)" fill="#5699df"/>
          <path id="Rectangle_76" data-name="Rectangle 76" d="M1.936,0h19.02a1.936,1.936,0,0,1,1.936,1.936v0a1.936,1.936,0,0,1-1.936,1.936H1.936A1.936,1.936,0,0,1,0,1.936v0A1.936,1.936,0,0,1,1.936,0Z" transform="translate(5.164 32.401)" fill="#5699df"/>
        </g>
        <g id="Group_150" data-name="Group 150" transform="translate(47.64 7.071)">
          <path id="Path_512" data-name="Path 512" d="M1330.522,510.522a1.038,1.038,0,0,1,.815,0l16.281,6.01,11.114,4.348c1.2.469,1.226,2.194.032,2.194h-50.491c-1.193,0-1.86-1.725-.848-2.194l9.37-4.348Z" transform="translate(-1306.93 -510.439)" fill="#1c47ab"/>
          <path id="Path_513" data-name="Path 513" d="M1339.6,515.8a.854.854,0,0,1,.642,0l15.378,5.738,11.312,4.221c.945.352.965,1.647.025,1.647h-49.191c-.939,0-1.464-1.295-.667-1.647l9.537-4.221Z" transform="translate(-1315.829 -515.263)" fill="#4789d6"/>
          <g id="Group_142" data-name="Group 142" transform="translate(5.431 1.873)">
            <path id="Path_514" data-name="Path 514" d="M1389.149,534.3l11.106,4.144,11.107,4.144h-40.94l9.364-4.144Z" transform="translate(-1370.152 -534.03)" fill="url(#linear-gradient-9)"/>
            <path id="Path_515" data-name="Path 515" d="M1408.63,540.127h-40.94a.269.269,0,0,1-.109-.516l18.727-8.289a.269.269,0,0,1,.2-.006l22.213,8.289a.269.269,0,0,1-.094.522Zm-39.666-.539h38.174l-20.712-7.729Z" transform="translate(-1367.42 -531.3)" fill="#1c47ab"/>
          </g>
          <g id="Group_143" data-name="Group 143" transform="translate(20.515 1.674)">
            <ellipse id="Ellipse_41" data-name="Ellipse 41" cx="3.041" cy="3.751" rx="3.041" ry="3.751" transform="matrix(0.669, -0.743, 0.743, 0.669, 0, 4.52)" fill="#4789d6"/>
            <path id="Path_516" data-name="Path 516" d="M1552.584,549.3a4.629,4.629,0,0,1-4.307-3.556,3.048,3.048,0,0,1,.553-2.6,2.928,2.928,0,0,1,2.334-1.046,4.63,4.63,0,0,1,4.308,3.556,3.049,3.049,0,0,1-.553,2.6A2.929,2.929,0,0,1,1552.584,549.3Zm-1.421-6.755a2.488,2.488,0,0,0-1.985.88,2.608,2.608,0,0,0-.462,2.226,4.16,4.16,0,0,0,3.868,3.2,2.488,2.488,0,0,0,1.985-.88,2.608,2.608,0,0,0,.462-2.226A4.16,4.16,0,0,0,1551.164,542.541Z" transform="translate(-1547.052 -540.924)" fill="#1c47ab"/>
          </g>
          <g id="Group_145" data-name="Group 145" transform="translate(23.843 3.794)">
            <g id="Group_144" data-name="Group 144">
              <path id="Path_517" data-name="Path 517" d="M1575.564,555.779a1.2,1.2,0,0,1-.134.951,1.106,1.106,0,0,1-.807.458l.122.582-.026.033h-.224l-.036-.033-.119-.564a3.242,3.242,0,0,1-1.184-.239l-.026-.038a6.437,6.437,0,0,0-.129-.906l.026-.03h.177l.042.033.049.219a1.058,1.058,0,0,0,.1.263,1.256,1.256,0,0,0,.879.375l-.308-1.464a2.273,2.273,0,0,1-.917-.331,1.254,1.254,0,0,1-.5-.785.969.969,0,0,1,.342-1.072,1.212,1.212,0,0,1,.571-.207l-.062-.3.023-.032h.221l.042.03.06.286a2.861,2.861,0,0,1,1.029.216l.03.044a3.864,3.864,0,0,0,.058.57l.038.251-.026.03h-.18l-.039-.03q-.04-.148-.054-.216a.783.783,0,0,0-.08-.242.962.962,0,0,0-.706-.3l.278,1.323a2.355,2.355,0,0,1,.946.3A1.241,1.241,0,0,1,1575.564,555.779Zm-1.769-1.166-.265-1.261a.505.505,0,0,0-.4.67A.743.743,0,0,0,1573.8,554.613Zm1.188,1.491a.787.787,0,0,0-.722-.641l.293,1.394a.59.59,0,0,0,.371-.273A.66.66,0,0,0,1574.983,556.1Z" transform="translate(-1572.514 -552.694)" fill="#91c8f3"/>
            </g>
          </g>
          <g id="Group_147" data-name="Group 147" transform="translate(23.789 3.895)">
            <g id="Group_146" data-name="Group 146">
              <path id="Path_518" data-name="Path 518" d="M1574.957,556.906a1.2,1.2,0,0,1-.134.951,1.106,1.106,0,0,1-.807.458l.122.582-.026.033h-.224l-.036-.033-.119-.564a3.24,3.24,0,0,1-1.184-.239l-.026-.038a6.44,6.44,0,0,0-.129-.906l.026-.03h.177l.042.033.049.219a1.058,1.058,0,0,0,.1.263,1.257,1.257,0,0,0,.879.375l-.308-1.465a2.273,2.273,0,0,1-.917-.331,1.254,1.254,0,0,1-.5-.785.969.969,0,0,1,.341-1.072,1.216,1.216,0,0,1,.571-.207l-.062-.3.023-.033h.221l.042.03.06.286a2.859,2.859,0,0,1,1.028.215l.03.044a3.853,3.853,0,0,0,.058.57l.038.251-.026.03h-.18l-.039-.03q-.04-.148-.054-.216a.783.783,0,0,0-.08-.242.961.961,0,0,0-.706-.3l.278,1.323a2.357,2.357,0,0,1,.946.3A1.241,1.241,0,0,1,1574.957,556.906Zm-1.769-1.166-.265-1.261a.506.506,0,0,0-.4.67A.743.743,0,0,0,1573.188,555.74Zm1.187,1.491a.787.787,0,0,0-.722-.641l.293,1.393a.589.589,0,0,0,.371-.273A.658.658,0,0,0,1574.375,557.231Z" transform="translate(-1571.906 -553.821)" fill="#2553b4"/>
            </g>
          </g>
          <g id="Group_148" data-name="Group 148" transform="translate(3.61 10.162)">
            <path id="Path_519" data-name="Path 519" d="M1349.226,624.165h-1.821a.269.269,0,1,1,0-.539h1.821a.269.269,0,1,1,0,.539Z" transform="translate(-1347.136 -623.626)" fill="#1c47ab"/>
          </g>
          <g id="Group_149" data-name="Group 149" transform="translate(46.371 10.162)">
            <path id="Path_520" data-name="Path 520" d="M1826.144,624.165h-2.436a.269.269,0,0,1,0-.539h2.436a.269.269,0,1,1,0,.539Z" transform="translate(-1823.438 -623.626)" fill="#1c47ab"/>
          </g>
        </g>
        <g id="Group_153" data-name="Group 153" transform="translate(48.904 20.364)">
          <path id="Path_521" data-name="Path 521" d="M1324.01,661.5h4.167l5.205,41.136-5.421.058Z" transform="translate(-1323.74 -661.231)" fill="#4789d6"/>
          <path id="Path_522" data-name="Path 522" d="M1830.622,664.63h4.167l5.04,39.911-4.4.067Z" transform="translate(-1784.87 -664.08)" fill="#4789d6"/>
          <g id="Group_151" data-name="Group 151">
            <path id="Path_523" data-name="Path 523" d="M1325.229,700.234a.269.269,0,0,1-.268-.244L1321.01,658.8a.269.269,0,0,1,.268-.295h4.167a.269.269,0,0,1,.267.235l5.205,41.136a.27.27,0,0,1-.264.3l-5.421.058Zm-3.654-41.194,3.9,40.653,4.871-.052-5.137-40.6Z" transform="translate(-1321.009 -658.501)" fill="#1c47ab"/>
          </g>
          <g id="Group_152" data-name="Group 152" transform="translate(45.483 0.281)">
            <path id="Path_524" data-name="Path 524" d="M1832.7,702.147a.269.269,0,0,1-.267-.237l-4.8-39.979a.269.269,0,0,1,.267-.3h4.167a.27.27,0,0,1,.267.236l5.04,39.911a.269.269,0,0,1-.263.3l-4.4.067Zm-4.5-39.979,4.739,39.436,3.859-.059-4.972-39.377Z" transform="translate(-1827.622 -661.63)" fill="#1c47ab"/>
          </g>
        </g>
      </g>
      <g id="Group_159" data-name="Group 159" transform="translate(176.9 26.39)">
        <g id="Group_155" data-name="Group 155" transform="translate(0 12.664)">
          <path id="Path_525" data-name="Path 525" d="M2389.637,1668.166s5.456.606,6.755,0,1.732.793-1.646,2.475-4.85,2.981-5.976,2.548-1.905-2.605-1.732-3.858S2389.637,1668.166,2389.637,1668.166Z" transform="translate(-2359.932 -1571.642)" fill="#078e81"/>
          <path id="Path_526" data-name="Path 526" d="M2090.551,1647.862s-.26,4.157,1.039,5.023,2.874,2.035-.173,2.035-3.858-1.429-4.811-2.9-1.943-2.613-.588-3.608,1.415-1.934,1.675-1.934A29.6,29.6,0,0,1,2090.551,1647.862Z" transform="translate(-2085.356 -1552.03)" fill="#078e81"/>
          <path id="Path_527" data-name="Path 527" d="M2121.245,1148.322c0,24.421-17.633,41.355-17.633,41.355s-4.19-1.476-4.32-3.035,6.878-12.73,6.878-21.044v-25.071Z" transform="translate(-2098.039 -1091.505)" fill="#08a0a0"/>
          <path id="Path_528" data-name="Path 528" d="M2175.926,1140.528v20.722a54.326,54.326,0,0,1,4.585,19.537c4.888-7.316,10.49-18.7,10.49-32.465Z" transform="translate(-2167.795 -1091.505)" fill="#078e81"/>
          <path id="Path_529" data-name="Path 529" d="M2175.932,1094.228c-.39,20.394,17.334,53.518,18.552,54.038s4.663-1.208,4.465-2.468c-4.7-29.877-5.61-49.751-5.61-49.751Z" transform="translate(-2167.794 -1049.362)" fill="#08a0a0"/>
          <path id="Path_530" data-name="Path 530" d="M2392.126,755.722a1.956,1.956,0,0,0,2.1.308c1.169-.563,5.438-3.58,5.308-4.316s-2.125-.912-2.125-.912S2391.234,755.687,2392.126,755.722Z" transform="translate(-2364.504 -736.768)" fill="#255096"/>
          <path id="Path_531" data-name="Path 531" d="M2404.031,760.145c-.8-.128,1.833-2.223,2.695-3.089a13.278,13.278,0,0,1,1.417-1.27s1.472.179,1.472.465a48.184,48.184,0,0,1-4.222,3.657A5.194,5.194,0,0,1,2404.031,760.145Z" transform="translate(-2375.286 -741.304)" fill="#ffc34e"/>
          <path id="Path_532" data-name="Path 532" d="M2345.121,792.222a24.324,24.324,0,0,1,2.273-3.291,13.551,13.551,0,0,1,3.6-2.044c.645-.014-2.213,1.914-2.213,1.914a10.538,10.538,0,0,1,.043,3.421c-.346.909-3.984,2.122-3.984,2.122Z" transform="translate(-2321.543 -769.613)" fill="#f09959"/>
          <path id="Path_533" data-name="Path 533" d="M2316.141,841s2.511-3.767,3.074-3.508,2.079,3.508,2.079,3.508-4.417,4.59-4.417,3.724A27.828,27.828,0,0,0,2316.141,841Z" transform="translate(-2295.422 -815.661)" fill="#91d5ff"/>
          <path id="Path_534" data-name="Path 534" d="M2167.242,651.959a135.243,135.243,0,0,1-4.33,12.991c-1.732,3.811-2.6,10.912-2.252,23.383s-2.079,12.125,1.559,13.683,16.628-1.039,18.36-5.023-1.16-20.2-5.456-26.154c-4.242-5.876-6.149-7.968-6.149-9.353s1.676-7.275,1.676-7.275Z" transform="translate(-2153.468 -646.799)" fill="#f09959"/>
          <path id="Path_535" data-name="Path 535" d="M2180.58,796.212c1.732-3.984-1.16-20.2-5.456-26.154-1.976-2.736-3.444-4.652-4.45-6.058a30.688,30.688,0,0,0-6.507-3.036c-.436,1.228-.867,2.351-1.255,3.2-1.732,3.811-2.6,10.912-2.252,23.383s-2.079,12.125,1.559,13.683S2178.847,800.2,2180.58,796.212Z" transform="translate(-2153.468 -746.017)" fill="#b3e2ff"/>
          <path id="Path_536" data-name="Path 536" d="M2170.408,741.707c.043-.713,9.3,2.945,9.353,3.637a16.133,16.133,0,0,0,1.37,4.67c.766,1.392-12.881,9.17-12.379,5.383S2170.292,743.612,2170.408,741.707Z" transform="translate(-2161.253 -728.405)" fill="#b3e2ff"/>
          <path id="Path_537" data-name="Path 537" d="M2226.1,661.64c-.005-.052-.008-.1-.008-.155,0-1.386,1.677-7.275,1.677-7.275l-3.408-2.252s-.6,2.131-1.422,4.766C2224,659.887,2224.99,660.966,2226.1,661.64Z" transform="translate(-2210.588 -646.799)" fill="#e38540"/>
          <path id="Path_538" data-name="Path 538" d="M2247.208,630.545c-.72,3.264-2.975,5.586-5.581,4.947a5.889,5.889,0,0,1-3.907-7.041c.785-3.25,3.428-5.442,6.048-4.864S2247.928,627.281,2247.208,630.545Z" transform="translate(-2223.875 -620.89)" fill="#f09959"/>
          <path id="Path_539" data-name="Path 539" d="M2323.853,790.028c2.365-4.084,2.629-7.9,4.3-9.09,2.357-1.676,4.293-5.424,3.439-5.572s-4.309,3.018-4.309,3.018.9-1.231.684-1.334a3.978,3.978,0,0,0-2.225,2.653c-.27,1.493-3.614,8.353-6.419,10.55S2321.488,794.113,2323.853,790.028Z" transform="translate(-2297.562 -759.122)" fill="#f09959"/>
          <path id="Path_540" data-name="Path 540" d="M2183.359,822.693c-4.191,1.043-2.274,13.7,1.259,21.2s10.172,1.021,12.655-.817a8.234,8.234,0,0,0,1.972-2.015,50.018,50.018,0,0,0-3.85-12.664C2191.44,833.043,2189.559,821.15,2183.359,822.693Z" transform="translate(-2172.389 -802.078)" fill="#91d5ff"/>
          <path id="Path_541" data-name="Path 541" d="M2192.458,813.869c-5.27.528-2.384,13.683,1.469,19s9.338.173,11.07-2.887,5.24-8.263,5.24-11.648c0-.635-1.3-.765-2.858-.65-1.468.109-8.1,9.238-8.1,9.238S2197.065,813.407,2192.458,813.869Z" transform="translate(-2180.229 -794.162)" fill="#b3e2ff"/>
          <path id="Path_542" data-name="Path 542" d="M2227.532,597.326c3.222,1.357,1.292,5.648-.407,5.809s-3.664-2.972-4.672-3.078.2,1.752-.695,2.177a3.4,3.4,0,0,0-2,2.245c-.261,1.115-.979,3.542.193,3.648s2.447-1.168,3.243-1.221a4.349,4.349,0,0,1,1.488.177s-2.023,2.8-3.508,2.955-3.105-2.012-4.26-3.846a3.584,3.584,0,0,1-.664-3.057s-1.181,1.329-1.924,1.223,1.115-1.168,1.168-4.3,1.433-4.779,3.132-4.779,1.487-.865,4.082-.8C2225.05,594.544,2226.776,597.008,2227.532,597.326Z" transform="translate(-2202.591 -594.478)" fill="#078e81"/>
          <path id="Path_543" data-name="Path 543" d="M2262.593,683.617c.075.809-.34,1.509-.927,1.563s-1.124-.557-1.2-1.366.34-1.509.927-1.563S2262.518,682.809,2262.593,683.617Z" transform="translate(-2244.737 -674.369)" fill="#f09959"/>
        </g>
        <g id="Group_156" data-name="Group 156" transform="translate(36.708 9.08)">
          <path id="Path_544" data-name="Path 544" d="M2497.638,556.054a1.775,1.775,0,1,1-2.4-1.394A1.987,1.987,0,0,1,2497.638,556.054Z" transform="translate(-2494.229 -554.565)" fill="#fb8627"/>
          <path id="Path_545" data-name="Path 545" d="M2498.435,557.116a1.69,1.69,0,1,1-2.284-1.327A1.891,1.891,0,0,1,2498.435,557.116Z" transform="translate(-2495.104 -555.596)" fill="#ffc34e"/>
          <path id="Path_546" data-name="Path 546" d="M2501.146,560.726a1.4,1.4,0,1,1-1.892-1.1A1.567,1.567,0,0,1,2501.146,560.726Z" transform="translate(-2498.079 -559.104)" fill="#e68913"/>
          <path id="Path_547" data-name="Path 547" d="M2501.51,561.62a1.374,1.374,0,1,1-1.857-1.079A1.538,1.538,0,0,1,2501.51,561.62Z" transform="translate(-2498.454 -559.937)" fill="url(#linear-gradient-10)"/>
          <path id="Path_548" data-name="Path 548" d="M2504.686,564.282l.109-.042a.066.066,0,0,1,.08.046l.038.1a.711.711,0,0,1,.3-.014.287.287,0,0,1,.2.334.175.175,0,0,1-.221.149.413.413,0,0,0-.108-.017l.183.471a.748.748,0,0,1,.768.508.667.667,0,0,1-.24.859l.036.094a.072.072,0,0,1-.03.1l-.094.037a.072.072,0,0,1-.087-.051l-.035-.09a.755.755,0,0,1-.456.018.283.283,0,0,1-.181-.321.172.172,0,0,1,.224-.143.584.584,0,0,0,.248.022l-.213-.548c-.774.05-1.116-1.045-.511-1.323l-.037-.095A.066.066,0,0,1,2504.686,564.282Zm.334,1.025-.156-.4A.241.241,0,0,0,2505.02,565.307Zm.439.494.165.424A.25.25,0,0,0,2505.459,565.8Z" transform="translate(-2503.474 -563.368)" fill="#fb8627"/>
          <path id="Path_549" data-name="Path 549" d="M2504.953,563.431l.109-.042a.066.066,0,0,1,.08.046l.038.1a.71.71,0,0,1,.3-.014.287.287,0,0,1,.2.334.175.175,0,0,1-.22.149.407.407,0,0,0-.108-.017l.183.471a.749.749,0,0,1,.769.508.667.667,0,0,1-.24.859l.036.094a.072.072,0,0,1-.03.1l-.095.037a.072.072,0,0,1-.087-.051l-.035-.09a.756.756,0,0,1-.456.018.283.283,0,0,1-.181-.321.172.172,0,0,1,.224-.143.584.584,0,0,0,.248.022l-.213-.548c-.774.05-1.117-1.045-.511-1.323l-.037-.095A.066.066,0,0,1,2504.953,563.431Zm.333,1.025-.156-.4A.242.242,0,0,0,2505.286,564.456Zm.439.494.165.424A.25.25,0,0,0,2505.726,564.949Z" transform="translate(-2503.717 -562.594)" fill="#ffc34e"/>
        </g>
        <g id="Group_157" data-name="Group 157" transform="translate(33.081)">
          <path id="Path_550" data-name="Path 550" d="M2456.9,455.783a1.59,1.59,0,1,1-.948-2.311A1.792,1.792,0,0,1,2456.9,455.783Z" transform="translate(-2453.835 -453.424)" fill="#fb8627"/>
          <path id="Path_551" data-name="Path 551" d="M2457.6,456.706a1.513,1.513,0,1,1-.9-2.2A1.706,1.706,0,0,1,2457.6,456.706Z" transform="translate(-2454.606 -454.367)" fill="#ffc34e"/>
          <path id="Path_552" data-name="Path 552" d="M2459.979,459.843a1.253,1.253,0,1,1-.747-1.822A1.413,1.413,0,0,1,2459.979,459.843Z" transform="translate(-2457.226 -457.574)" fill="#e68913"/>
          <path id="Path_553" data-name="Path 553" d="M2459.964,460.6a1.23,1.23,0,1,1-.733-1.789A1.387,1.387,0,0,1,2459.964,460.6Z" transform="translate(-2457.253 -458.296)" fill="url(#linear-gradient-11)"/>
          <path id="Path_554" data-name="Path 554" d="M2463.149,461.748l.1.029a.059.059,0,0,1,.031.077l-.026.091a.63.63,0,0,1,.217.151.263.263,0,0,1-.036.352.155.155,0,0,1-.238-.012.356.356,0,0,0-.067-.072l-.125.44a.677.677,0,0,1,.27.785.6.6,0,0,1-.636.49l-.025.087a.065.065,0,0,1-.074.053l-.087-.025a.065.065,0,0,1-.034-.084l.024-.084a.67.67,0,0,1-.333-.235.259.259,0,0,1,.046-.33.152.152,0,0,1,.237.018.516.516,0,0,0,.164.151l.146-.511c-.577-.385-.226-1.362.354-1.234l.025-.088A.059.059,0,0,1,2463.149,461.748Zm-.319.922.107-.375A.22.22,0,0,0,2462.83,462.67Zm.044.6-.113.4A.227.227,0,0,0,2462.874,463.265Z" transform="translate(-2461.33 -460.999)" fill="#fb8627"/>
          <path id="Path_555" data-name="Path 555" d="M2463.8,461.277l.1.029a.06.06,0,0,1,.031.077l-.026.091a.628.628,0,0,1,.218.151.263.263,0,0,1-.036.352.155.155,0,0,1-.238-.012.363.363,0,0,0-.067-.072l-.126.44a.676.676,0,0,1,.27.785.6.6,0,0,1-.636.49l-.025.087a.065.065,0,0,1-.074.053l-.087-.025a.065.065,0,0,1-.034-.084l.024-.084a.671.671,0,0,1-.334-.235.259.259,0,0,1,.046-.33.152.152,0,0,1,.237.018.515.515,0,0,0,.164.151l.146-.511c-.576-.385-.226-1.362.355-1.234l.025-.089A.06.06,0,0,1,2463.8,461.277Zm-.319.922.107-.374A.22.22,0,0,0,2463.481,462.2Zm.044.6-.113.4A.227.227,0,0,0,2463.525,462.794Z" transform="translate(-2461.922 -460.571)" fill="#ffc34e"/>
        </g>
        <g id="Group_158" data-name="Group 158" transform="translate(33.367 19.29)">
          <path id="Path_556" data-name="Path 556" d="M2461.488,670.519a2.235,2.235,0,1,1-2.236-2.236A2.235,2.235,0,0,1,2461.488,670.519Z" transform="translate(-2457.017 -668.283)" fill="#fb8627"/>
          <circle id="Ellipse_42" data-name="Ellipse 42" cx="2.128" cy="2.128" r="2.128" transform="translate(0.107 0.107)" fill="#ffc34e"/>
          <circle id="Ellipse_43" data-name="Ellipse 43" cx="1.763" cy="1.763" r="1.763" transform="translate(0.473 0.473)" fill="#e68913"/>
          <path id="Path_557" data-name="Path 557" d="M2465.984,676.238a1.73,1.73,0,1,1-1.73-1.73A1.73,1.73,0,0,1,2465.984,676.238Z" transform="translate(-2462.029 -673.949)" fill="url(#linear-gradient-12)"/>
          <path id="Path_558" data-name="Path 558" d="M2472.68,677.883h.151a.074.074,0,0,1,.074.074v.108a1.079,1.079,0,0,1,.362.1.26.26,0,1,1-.245.458.572.572,0,0,0-.122-.057v.521q.687.209.687.775a.733.733,0,0,1-.691.736v.1a.081.081,0,0,1-.081.081h-.131a.081.081,0,0,1-.081-.081v-.1a1.144,1.144,0,0,1-.557-.153.253.253,0,0,1-.067-.376.255.255,0,0,1,.337-.054.839.839,0,0,0,.288.114v-.606c-.955-.241-.855-1.422,0-1.462v-.1A.074.074,0,0,1,2472.68,677.883Zm-.078,1.109v-.444A.23.23,0,0,0,2472.6,678.992Zm.3.638v.469A.24.24,0,0,0,2472.9,679.631Z" transform="translate(-2470.583 -677.021)" fill="#fb8627"/>
          <path id="Path_559" data-name="Path 559" d="M2473.4,677.165h.151a.074.074,0,0,1,.074.074v.108a1.088,1.088,0,0,1,.362.1.26.26,0,1,1-.245.458.579.579,0,0,0-.122-.057v.521q.687.209.687.775a.733.733,0,0,1-.691.736v.1a.081.081,0,0,1-.081.081h-.131a.081.081,0,0,1-.081-.081v-.1a1.143,1.143,0,0,1-.557-.153.252.252,0,0,1-.067-.376.255.255,0,0,1,.337-.054.841.841,0,0,0,.288.114v-.606c-.955-.241-.855-1.422,0-1.462v-.1A.074.074,0,0,1,2473.4,677.165Zm-.078,1.109v-.444A.23.23,0,0,0,2473.32,678.274Zm.3.638v.469A.24.24,0,0,0,2473.617,678.913Z" transform="translate(-2471.237 -676.368)" fill="#ffc34e"/>
        </g>
        <path id="Path_560" data-name="Path 560" d="M2536.846,624.5l-2.732,2.419a.282.282,0,0,1-.4-.024l-.147-.166a.282.282,0,0,1,.024-.4l2.732-2.42a.282.282,0,0,1,.4.024l.147.166A.282.282,0,0,1,2536.846,624.5Z" transform="translate(-2493.266 -608.546)" fill="url(#linear-gradient-13)"/>
        <path id="Path_561" data-name="Path 561" d="M2437.17,519.317l1.961,3.078a.282.282,0,0,1-.086.388l-.187.119a.282.282,0,0,1-.388-.086l-1.961-3.078a.282.282,0,0,1,.086-.388l.187-.119A.282.282,0,0,1,2437.17,519.317Z" transform="translate(-2404.944 -513.283)" fill="url(#linear-gradient-14)"/>
      </g>
      <g id="Group_164" data-name="Group 164" transform="translate(25.567 32.647)">
        <path id="Path_562" data-name="Path 562" d="M407.474,1668.248c-2.979,3.319-8.553,2.824-7.66,4.255s4.9,1.065,7.158.944c3.751-.2,2.714-2.349,3.012-3.115S407.474,1668.248,407.474,1668.248Z" transform="translate(-399.719 -1565.441)" fill="#078e81"/>
        <path id="Path_563" data-name="Path 563" d="M581.553,1145.43s-18.611,14.3-18.356,17.233,13.719,27.432,14.838,27.439a7.9,7.9,0,0,0,4.037-1.835c.379-.583-.748-17.545-2.152-19.276s10.76-19.092,10.76-19.092Z" transform="translate(-548.518 -1089.56)" fill="#078e81"/>
        <path id="Path_564" data-name="Path 564" d="M522.688,1111.305s4.251,9.7,1.774,12.382-11.168,4.664-14.093,9.063c-6.43,9.671-6.51,16.527-15.318,23.938s-11.342,7.592-11.342,7.592l-2.955-2.591s9.829-13.365,13.659-24.089,13.914-23.361,13.914-23.361Z" transform="translate(-473.478 -1058.499)" fill="#08a0a0"/>
        <g id="Group_160" data-name="Group 160" transform="translate(24.867 15.301)">
          <path id="Path_565" data-name="Path 565" d="M683.729,809.687a1.854,1.854,0,0,1-1.995.292c-1.108-.534-5.155-3.393-5.032-4.091s2.014-.865,2.014-.865S684.574,809.654,683.729,809.687Z" transform="translate(-676.699 -795.015)" fill="#255096"/>
          <path id="Path_566" data-name="Path 566" d="M689.456,813.88c.759-.121-1.738-2.107-2.554-2.928a12.578,12.578,0,0,0-1.343-1.2s-1.4.17-1.4.441a45.661,45.661,0,0,0,4,3.467A4.921,4.921,0,0,0,689.456,813.88Z" transform="translate(-683.493 -799.316)" fill="#ffc34e"/>
          <path id="Path_567" data-name="Path 567" d="M740.35,844.289a23.078,23.078,0,0,0-2.155-3.12,12.848,12.848,0,0,0-3.411-1.938c-.611-.013,2.1,1.815,2.1,1.815a10,10,0,0,0-.041,3.243c.328.862,3.777,2.011,3.777,2.011Z" transform="translate(-729.487 -826.152)" fill="#f09959"/>
          <path id="Path_568" data-name="Path 568" d="M778.35,890.527s-2.381-3.571-2.914-3.325-1.97,3.325-1.97,3.325,4.187,4.351,4.187,3.53A26.38,26.38,0,0,1,778.35,890.527Z" transform="translate(-764.778 -869.805)" fill="#fb8627"/>
          <path id="Path_569" data-name="Path 569" d="M768.125,711.323a128.273,128.273,0,0,0,4.1,12.315c1.642,3.612,2.463,10.344,2.135,22.167s1.97,11.494-1.478,12.971-15.763-.985-17.4-4.762,1.1-19.152,5.172-24.794c4.021-5.57,5.829-7.553,5.829-8.867a55.614,55.614,0,0,0-1.589-6.9Z" transform="translate(-747.969 -709.728)" fill="#f09959"/>
          <path id="Path_570" data-name="Path 570" d="M755.482,848.071c-1.642-3.776,1.1-19.152,5.172-24.794,1.872-2.594,3.265-4.41,4.219-5.742a29.1,29.1,0,0,1,6.168-2.878c.413,1.164.822,2.229,1.19,3.038,1.642,3.612,2.463,10.344,2.135,22.167s1.97,11.494-1.478,12.971S757.124,851.847,755.482,848.071Z" transform="translate(-747.969 -803.784)" fill="url(#linear-gradient-15)"/>
          <path id="Path_571" data-name="Path 571" d="M846.622,796.4c-.041-.676-8.812,2.791-8.867,3.448a15.305,15.305,0,0,1-1.3,4.427c-.726,1.32,12.211,8.693,11.735,5.1S846.732,798.207,846.622,796.4Z" transform="translate(-822.087 -787.088)" fill="url(#linear-gradient-16)"/>
          <path id="Path_572" data-name="Path 572" d="M866.8,720.5c0-.05.008-.1.008-.147a55.614,55.614,0,0,0-1.589-6.9l3.231-2.135s.572,2.02,1.348,4.518C868.8,718.839,867.857,719.861,866.8,720.5Z" transform="translate(-848.296 -709.728)" fill="#e38540"/>
          <path id="Path_573" data-name="Path 573" d="M809.152,699.394c.6,2.7,2.465,4.629,4.625,4.1a4.88,4.88,0,0,0,3.238-5.835c-.65-2.693-2.841-4.509-5.012-4.03S808.555,696.689,809.152,699.394Z" transform="translate(-797.127 -693.552)" fill="#f09959"/>
          <path id="Path_574" data-name="Path 574" d="M692.645,842.208c-2.242-3.872-2.493-7.488-4.081-8.617-2.234-1.589-4.07-5.142-3.261-5.282s4.085,2.861,4.085,2.861-.852-1.167-.649-1.264a3.771,3.771,0,0,1,2.11,2.515c.256,1.415,3.426,7.918,6.085,10S694.887,846.08,692.645,842.208Z" transform="translate(-684.354 -816.206)" fill="#f09959"/>
          <path id="Path_575" data-name="Path 575" d="M778.143,873.174c3.973.989,2.155,12.986-1.194,20.1s-9.643.968-12-.775a7.8,7.8,0,0,1-1.869-1.91,47.418,47.418,0,0,1,3.65-12.006C770.482,882.986,772.265,871.711,778.143,873.174Z" transform="translate(-755.328 -856.928)" fill="url(#linear-gradient-17)"/>
          <path id="Path_576" data-name="Path 576" d="M746.653,864.809c5,.5,2.26,12.972-1.393,18.007s-8.853.164-10.495-2.737-4.967-7.833-4.967-11.042c0-.6,1.232-.725,2.709-.616,1.392.1,7.678,8.757,7.678,8.757S742.285,864.371,746.653,864.809Z" transform="translate(-725.032 -849.424)" fill="url(#linear-gradient-18)"/>
        </g>
        <path id="Path_577" data-name="Path 577" d="M688.221,1592.539c.225,5.361-5.9,9.7-3.349,10.085s4.563-1.343,5.728-2.65,2.431-1.694,2.09-3.175-.363-4.6-.72-5.625S688.221,1592.539,688.221,1592.539Z" transform="translate(-658.704 -1495.054)" fill="#078e81"/>
        <path id="Path_578" data-name="Path 578" d="M786.411,649.834c-5.214.357-4.549,8.438-4.549,8.438a32.1,32.1,0,0,0,5.583-.248,9.371,9.371,0,0,0,2.588-1.376s.789,3.061,2.944,3.232l2.155.171s1.422-5.811.3-8.431C793.1,646.187,788.444,648.907,786.411,649.834Z" transform="translate(-747.529 -637.088)" fill="#078e81"/>
        <path id="Path_579" data-name="Path 579" d="M873.03,732.842a1.2,1.2,0,1,1-.513-1.855A1.391,1.391,0,0,1,873.03,732.842Z" transform="translate(-828.46 -712.271)" fill="#f09959"/>
        <path id="Path_580" data-name="Path 580" d="M924.856,732.7s1.251,4.318,2.987,4.539,12.836.864,10,12.511c-1.972,8.1-5.47,9.45-1.929,12.426,2.95,2.479,6.435-.624,6.435-.624s1.706,9.254-5.187,9.135-10.184-7.365-7.376-14.014-2.756-8.35-2.983-12.085a33.711,33.711,0,0,1,0-5.9l-1.946-2.319Z" transform="translate(-877.71 -713.883)" fill="#078e81"/>
        <g id="Group_161" data-name="Group 161" transform="translate(19.879 8.608)">
          <path id="Path_581" data-name="Path 581" d="M621.315,620.408a1.683,1.683,0,1,0,2.274-1.321A1.884,1.884,0,0,0,621.315,620.408Z" transform="translate(-621.143 -618.996)" fill="#fb8627"/>
          <path id="Path_582" data-name="Path 582" d="M622.218,621.415a1.6,1.6,0,1,0,2.165-1.258A1.793,1.793,0,0,0,622.218,621.415Z" transform="translate(-621.973 -619.974)" fill="#ffc34e"/>
          <path id="Path_583" data-name="Path 583" d="M625.289,624.837a1.327,1.327,0,1,0,1.793-1.042A1.485,1.485,0,0,0,625.289,624.837Z" transform="translate(-624.793 -623.299)" fill="#e68913"/>
          <path id="Path_584" data-name="Path 584" d="M625.442,625.684a1.3,1.3,0,1,0,1.76-1.023A1.458,1.458,0,0,0,625.442,625.684Z" transform="translate(-624.935 -624.089)" fill="url(#linear-gradient-19)"/>
          <path id="Path_585" data-name="Path 585" d="M632.7,628.291l-.035.09c.574.263.249,1.3-.484,1.254l-.2.519a.554.554,0,0,0,.235-.021.163.163,0,0,1,.213.136.268.268,0,0,1-.171.3.715.715,0,0,1-.432-.017l-.033.086a.069.069,0,0,1-.083.048l-.09-.035a.069.069,0,0,1-.029-.091l.034-.089a.632.632,0,0,1-.227-.814.709.709,0,0,1,.728-.482l.174-.447a.389.389,0,0,0-.1.016.166.166,0,0,1-.209-.141.272.272,0,0,1,.194-.317.673.673,0,0,1,.28.013l.036-.093a.063.063,0,0,1,.075-.044l.1.04A.063.063,0,0,1,632.7,628.291Zm-.195.508-.148.38A.229.229,0,0,0,632.507,628.8Zm-.72,1.25.156-.4A.237.237,0,0,0,631.787,630.049Z" transform="translate(-630.421 -627.341)" fill="#fb8627"/>
          <path id="Path_586" data-name="Path 586" d="M632.449,627.485l-.035.09c.574.263.249,1.3-.485,1.254l-.2.519a.553.553,0,0,0,.235-.021.163.163,0,0,1,.212.136.268.268,0,0,1-.171.3.717.717,0,0,1-.432-.017l-.033.085a.069.069,0,0,1-.083.048l-.09-.035a.069.069,0,0,1-.029-.091l.034-.089a.632.632,0,0,1-.227-.814.709.709,0,0,1,.728-.482l.174-.447a.38.38,0,0,0-.1.017.166.166,0,0,1-.209-.141.272.272,0,0,1,.194-.317.673.673,0,0,1,.28.013l.036-.093a.062.062,0,0,1,.075-.044l.1.04A.063.063,0,0,1,632.449,627.485Zm-.195.508-.148.38A.229.229,0,0,0,632.255,627.993Zm-.72,1.25.156-.4A.237.237,0,0,0,631.535,629.242Z" transform="translate(-630.192 -626.608)" fill="#ffc34e"/>
        </g>
        <g id="Group_162" data-name="Group 162" transform="translate(23.723)">
          <path id="Path_587" data-name="Path 587" d="M664.049,525.353a1.507,1.507,0,1,0,.9-2.191A1.7,1.7,0,0,0,664.049,525.353Z" transform="translate(-663.959 -523.117)" fill="#fb8627"/>
          <path id="Path_588" data-name="Path 588" d="M664.847,526.228a1.435,1.435,0,1,0,.855-2.086A1.617,1.617,0,0,0,664.847,526.228Z" transform="translate(-664.689 -524.011)" fill="#ffc34e"/>
          <path id="Path_589" data-name="Path 589" d="M667.561,529.2a1.188,1.188,0,1,0,.708-1.728A1.339,1.339,0,0,0,667.561,529.2Z" transform="translate(-667.173 -527.051)" fill="#e68913"/>
          <path id="Path_590" data-name="Path 590" d="M668.013,529.922a1.166,1.166,0,1,0,.7-1.7A1.315,1.315,0,0,0,668.013,529.922Z" transform="translate(-667.585 -527.736)" fill="url(#linear-gradient-20)"/>
          <path id="Path_591" data-name="Path 591" d="M674.588,531.054l.024.084c.55-.122.883.805.336,1.17l.138.485a.492.492,0,0,0,.155-.143.144.144,0,0,1,.225-.018.245.245,0,0,1,.043.313.634.634,0,0,1-.316.223l.023.08a.062.062,0,0,1-.033.08l-.083.024a.062.062,0,0,1-.07-.05l-.024-.083a.571.571,0,0,1-.6-.465.641.641,0,0,1,.256-.744l-.119-.417a.348.348,0,0,0-.064.068.147.147,0,0,1-.225.012.249.249,0,0,1-.034-.334.6.6,0,0,1,.206-.143l-.025-.087a.056.056,0,0,1,.03-.073l.1-.027A.056.056,0,0,1,674.588,531.054Zm.137.473.1.355A.209.209,0,0,0,674.725,531.527Zm.167,1.295-.107-.375A.216.216,0,0,0,674.892,532.821Z" transform="translate(-673.252 -530.298)" fill="#fb8627"/>
          <path id="Path_592" data-name="Path 592" d="M673.971,530.608l.024.084c.55-.122.882.805.336,1.17l.138.485a.489.489,0,0,0,.155-.143.144.144,0,0,1,.224-.017.246.246,0,0,1,.044.313.634.634,0,0,1-.316.223l.023.08a.062.062,0,0,1-.033.08l-.083.024a.062.062,0,0,1-.07-.051l-.024-.083a.571.571,0,0,1-.6-.465.641.641,0,0,1,.256-.744l-.119-.417a.347.347,0,0,0-.064.068.147.147,0,0,1-.225.012.249.249,0,0,1-.034-.334.6.6,0,0,1,.206-.143l-.025-.087a.056.056,0,0,1,.03-.073l.1-.027A.056.056,0,0,1,673.971,530.608Zm.137.473.1.355A.209.209,0,0,0,674.109,531.081Zm.167,1.295-.107-.375A.216.216,0,0,0,674.275,532.375Z" transform="translate(-672.69 -529.892)" fill="#ffc34e"/>
        </g>
        <g id="Group_163" data-name="Group 163" transform="translate(22.211 18.286)">
          <path id="Path_593" data-name="Path 593" d="M647.119,728.916a2.119,2.119,0,1,0,2.119-2.119A2.119,2.119,0,0,0,647.119,728.916Z" transform="translate(-647.119 -726.797)" fill="#fb8627"/>
          <path id="Path_594" data-name="Path 594" d="M648.253,729.949a2.017,2.017,0,1,0,2.017-2.017A2.017,2.017,0,0,0,648.253,729.949Z" transform="translate(-648.151 -727.83)" fill="#ffc34e"/>
          <path id="Path_595" data-name="Path 595" d="M652.112,733.462a1.671,1.671,0,1,0,1.671-1.671A1.671,1.671,0,0,0,652.112,733.462Z" transform="translate(-651.664 -731.343)" fill="#e68913"/>
          <circle id="Ellipse_44" data-name="Ellipse 44" cx="1.64" cy="1.64" r="1.64" transform="translate(0.489 0.53)" fill="url(#linear-gradient-21)"/>
          <path id="Path_596" data-name="Path 596" d="M663.549,735.968v.1c.814.039.908,1.158,0,1.386v.574a.8.8,0,0,0,.273-.108.242.242,0,0,1,.319.051.239.239,0,0,1-.064.356,1.084,1.084,0,0,1-.528.145v.094a.077.077,0,0,1-.077.077h-.124a.077.077,0,0,1-.077-.077v-.1a.7.7,0,0,1-.655-.7q0-.537.651-.735v-.494a.54.54,0,0,0-.116.054.246.246,0,1,1-.233-.434,1.026,1.026,0,0,1,.343-.092v-.1a.07.07,0,0,1,.07-.07h.143A.07.07,0,0,1,663.549,735.968Zm0,.561v.42A.218.218,0,0,0,663.552,736.529ZM663.27,738v-.444A.227.227,0,0,0,663.27,738Z" transform="translate(-661.227 -735.081)" fill="#fb8627"/>
          <path id="Path_597" data-name="Path 597" d="M662.868,735.287v.1c.814.039.908,1.158,0,1.386v.574a.8.8,0,0,0,.273-.108.242.242,0,0,1,.319.051.239.239,0,0,1-.064.356,1.084,1.084,0,0,1-.528.145v.095a.077.077,0,0,1-.077.077h-.124a.077.077,0,0,1-.077-.077v-.1a.7.7,0,0,1-.655-.7q0-.537.651-.735v-.494a.55.55,0,0,0-.116.054.246.246,0,1,1-.233-.434,1.022,1.022,0,0,1,.343-.092v-.1a.07.07,0,0,1,.07-.07h.143A.07.07,0,0,1,662.868,735.287Zm0,.561v.42A.218.218,0,0,0,662.871,735.848Zm-.282,1.47v-.445A.227.227,0,0,0,662.589,737.318Z" transform="translate(-660.608 -734.461)" fill="#ffc34e"/>
        </g>
        <path id="Path_598" data-name="Path 598" d="M585.585,685.3l2.59,2.294a.267.267,0,0,0,.376-.023l.139-.158a.267.267,0,0,0-.023-.376l-2.59-2.294a.267.267,0,0,0-.376.023l-.139.158A.267.267,0,0,0,585.585,685.3Z" transform="translate(-568.817 -670.168)" fill="url(#linear-gradient-22)"/>
        <path id="Path_599" data-name="Path 599" d="M687.1,585.582l-1.859,2.918a.267.267,0,0,0,.081.367l.177.113a.267.267,0,0,0,.368-.081l1.859-2.918a.267.267,0,0,0-.082-.368l-.177-.113A.267.267,0,0,0,687.1,585.582Z" transform="translate(-659.568 -579.862)" fill="url(#linear-gradient-23)"/>
      </g>
    </g>
    <g id="Group_166" data-name="Group 166" transform="translate(212.286 224.627)">
      <rect id="Rectangle_23-2" data-name="Rectangle 23-2" width="14.364" height="4.399" rx="2.2" fill="#22d3c4"/>
    </g>
  </g>
</svg>
