<?xml version="1.0" encoding="utf-8"?>
<!-- Generator: Adobe Illustrator 25.2.1, SVG Export Plug-In . SVG Version: 6.00 Build 0)  -->
<svg version="1.1" id="Layer_1" xmlns="http://www.w3.org/2000/svg" xmlns:xlink="http://www.w3.org/1999/xlink" x="0px" y="0px"
	 viewBox="0 0 66.2 66.2" style="enable-background:new 0 0 66.2 66.2;" xml:space="preserve">
<style type="text/css">
	.st0{fill:#3333FF;}
</style>
<g id="gW7buU.tif" transform="translate(-250.179 -344.693)">
	<g id="Group_20" transform="translate(250.179 344.693)">
		<path id="Path_59" class="st0" d="M53.2,61.8H8.6c-1.1-0.6-1.8-1.8-1.7-3.1c0-9.1,0-18.2,0-27.3c0-2.2,0-4.5,0-6.7
			c-0.1-1.3,0.6-2.5,1.7-3.1c0.6-0.3,0.9-0.9,1-1.5c0.6-4.9,1.3-9.9,1.9-14.9c0.1-0.8,0.4-1,1.1-0.9c3.7,0.5,7.4,1,11.1,1.5
			c0.5,0.1,0.8,0.1,1.1-0.4c0.5-1,0.6-1,1.7-0.6c1,0.4,2,0.8,2.9,1.2c1.4,0.6,2.9,1,4.4,1.1c1,0.1,2,0.2,2.9,0.4
			c0.4,0.1,1.1-0.1,1.1,0.7c0,0.1,0.1,0.1,0.2,0.1c0.6-0.6,1,0,1.3,0.3c2.8,2.4,6,4.2,9.4,5.4c0,0,0.1,0,0.2,0.1
			c0.6,0.2,0.8,0.5,0.5,1.1c-0.4,0.6-0.2,1,0.4,1.5c2.4,1.8,4.9,3.7,7.3,5.6c0.7,0.6,1.4,1.1,2.2,1.6v0.3c-0.6,0.8-1.2,1.5-1.8,2.3
			c-0.8,1.2-2.2,2.2-2.5,3.5c-0.2,1.5-0.2,2.9-0.1,4.4c0,0,0,0.1,0,0.2c-0.1,0.7,0.2,0.9,0.9,0.9c1.1,0,1.5,0.4,1.5,1.5
			c0,4.6,0,9.2,0,13.8c0,1.1-0.4,1.5-1.5,1.5c-0.7,0-0.9,0.3-0.9,1c0,1.8,0,3.7,0,5.5C55,60,54.4,61.2,53.2,61.8z M30.9,28.3H10.6
			c-1.2,0-1.2,0-1.2,1.2c0,9.5,0,19,0,28.5c0,1.2,0,1.2,1.2,1.2h29.6c3.7,0,7.4,0,11.2,0c0.8,0,1-0.2,1-1c0-1.7,0-3.3,0-5
			c0-1,0-1.1-1.1-1.1c-3.3,0-6.7,0-10,0c-0.5,0-1-0.2-1.2-0.5c-1.4-1.8-2.7-3.7-3.7-5.7c-0.8-1.4-0.8-3.1,0-4.5
			c1-1.9,2.2-3.8,3.6-5.5c0.3-0.5,0.9-0.8,1.5-0.7c3.3,0,6.7,0,10,0c0.8,0,1-0.2,1-1c0-1.7,0-3.3,0-5c0-1.1,0-1.2-1.2-1.2
			C44.5,28.3,37.7,28.3,30.9,28.3L30.9,28.3z M48,49.8c2,0,3.9,0,5.9,0c0.5,0,0.8-0.1,0.8-0.8c0-3.5,0-6.9,0-10.4
			c0-0.5-0.2-0.8-0.8-0.8c-3.9,0-7.9,0-11.8,0c-0.3,0-0.7,0.1-0.9,0.4c-1.1,1.4-2,2.9-2.9,4.5c-0.3,0.7-0.3,1.5,0,2.1
			c0.8,1.5,1.6,2.8,2.6,4.2c0.3,0.5,0.8,0.7,1.4,0.7C44.4,49.8,46.2,49.8,48,49.8L48,49.8z M40.3,25.9h6c1.9,0,1.9,0,2-1.9
			c0.1-0.5-0.2-1-0.6-1.3c-1.7-1.3-3.4-2.6-5.1-3.9c-0.3-0.3-0.8-0.4-1.2-0.2c-0.9,0.4-2,0.5-3,0.4c-0.5-0.1-1,0.1-1.2,0.5
			c-1.4,1.9-2.8,3.7-4.3,5.6c-0.1,0.2-0.4,0.4-0.3,0.6c0.1,0.2,0.4,0.1,0.7,0.1C35.6,25.9,38,25.9,40.3,25.9L40.3,25.9z M50.7,24.6
			c0,1,0.2,1.3,1.2,1.3c0.6-0.1,1.1,0,1.6,0.3c0.3,0.3,0.8,0.3,1.1,0c0.1-0.1,0.2-0.2,0.2-0.3c0.1-0.2,0.3-0.4,0.5-0.6
			c0.5-0.5,0.4-0.9-0.2-1.3C49.9,20,44.8,16,39.6,12c-0.5-0.4-0.9-0.4-1.3,0.2c-3.3,4.3-6.5,8.6-9.8,12.9c-0.2,0.2-0.6,0.5-0.3,0.7
			c0.3,0.2,0.8,0.2,1-0.1c0.2-0.2,0.4-0.4,0.5-0.6c2.2-2.9,4.4-5.7,6.6-8.6c0.2-0.4,0.7-0.6,1.1-0.4c0,0,0,0,0.1,0
			c1.3,0.7,2.9,0.5,3.9-0.6c0.2-0.3,0.7-0.3,1-0.1c0,0,0,0.1,0.1,0.1c2.8,2.2,5.7,4.3,8.5,6.5c0.3,0.2,0.5,0.6,0.3,0.9
			c0,0,0,0.1-0.1,0.1C50.9,23.5,50.8,24.1,50.7,24.6L50.7,24.6z M15.1,25.1c0,0.3,0,0.7,0.4,0.8c0.4,0.2,0.9-0.1,1.1-0.5v0
			c0.7-1.7,1.4-3.4,2.1-5.2c1-2.5,2-5,3.1-7.4c0.1-0.3,0.4-0.6,0-0.9c-0.7-0.4-1.6-0.2-2.2,0.3c-0.3,0.5-0.8,0.9-1.4,1.2
			c-1.7,0.5-2,1.9-2,3.3c0,0.2-0.1,0.4-0.1,0.6C15.8,19.9,15.5,22.5,15.1,25.1L15.1,25.1z M23.9,25.9c0.5,0.1,1-0.2,1.3-0.6
			c0.6-0.8,1.2-1.5,1.7-2.3c2-2.6,4-5.3,6.1-7.9c0.2-0.2,0.5-0.4,0.2-0.8c-0.6-0.5-1.5-0.6-2.2-0.4c-0.8,0.6-1.7,1-2.6,1.1
			c-0.6,0.1-1.1,0.5-1.3,1.1c-1.2,3-2.4,5.9-3.7,8.9C23.1,25.7,23.1,26,23.9,25.9L23.9,25.9z M35.5,11.5c0-0.3-0.3-0.3-0.6-0.4
			c-2.5-1-5-2-7.4-3.1c-0.7-0.3-1-0.1-1.2,0.5c-2.2,5.5-4.5,10.9-6.7,16.4c-0.1,0.2-0.1,0.3-0.2,0.5c-0.1,0.4,0,0.5,0.4,0.5
			c0.6,0,0.7-0.4,0.9-0.9c1.6-3.9,3.2-7.9,4.9-11.8c0.2-0.6,0.5-0.8,1.2-0.7c1.3,0.3,2.7-0.3,3.5-1.4c0.2-0.4,0.7-0.6,1.2-0.4
			c0,0,0.1,0.1,0.1,0.1c1,0.4,2,0.9,3,1.2C35,12.2,35.5,12,35.5,11.5z M14.5,7.2c-0.8-0.3-0.7,0.5-0.8,1.1
			c-0.5,3.6-0.9,7.2-1.4,10.8c-0.3,2-0.5,4-0.8,6c0,0.3-0.1,0.7,0.4,0.7c0.4,0,0.6-0.2,0.6-0.5c0-0.3,0.1-0.6,0.1-0.9
			c0.5-3.8,1-7.6,1.5-11.5c0.1-0.6,0.1-1.1,0.9-1.1c1.4,0,2.7-1,3.1-2.4c0.1-0.4,0.5-0.7,0.9-0.6c0,0,0.1,0,0.1,0
			c1.1,0.2,2.2,0.3,3.3,0.4c0.5,0.1,0.8,0,0.9-0.5c0.1-0.6-0.4-0.5-0.7-0.5C20,7.9,17.4,7.6,14.5,7.2L14.5,7.2z"/>
		<path id="Path_60" class="st0" d="M48.8,43.8c0,2-1.6,3.5-3.6,3.5s-3.5-1.6-3.5-3.6c0-2,1.6-3.5,3.5-3.5c2,0,3.5,1.5,3.6,3.5
			C48.8,43.8,48.8,43.8,48.8,43.8z"/>
	</g>
</g>
</svg>
