<svg xmlns="http://www.w3.org/2000/svg" xmlns:xlink="http://www.w3.org/1999/xlink" width="312.224" height="178.072" viewBox="0 0 312.224 178.072">
  <defs>
    <linearGradient id="linear-gradient" x1="1.855" y1="0.419" x2="1.099" y2="0.462" gradientUnits="objectBoundingBox">
      <stop offset="0" stop-color="#53cd9f"/>
      <stop offset="1" stop-color="#0d7a5c"/>
    </linearGradient>
    <linearGradient id="linear-gradient-2" x1="0" y1="0.5" x2="1" y2="0.5" xlink:href="#linear-gradient"/>
    <linearGradient id="linear-gradient-3" x1="1.439" y1="0.373" x2="0.808" y2="0.465" xlink:href="#linear-gradient"/>
    <linearGradient id="linear-gradient-5" y1="0.5" x2="1" y2="0.5" gradientUnits="objectBoundingBox">
      <stop offset="0" stop-color="#c9cd55"/>
      <stop offset="0.507" stop-color="#659c52"/>
      <stop offset="1" stop-color="#287f50"/>
    </linearGradient>
    <linearGradient id="linear-gradient-6" y1="0.5" x2="1" y2="0.5" gradientUnits="objectBoundingBox">
      <stop offset="0" stop-color="#c7a44f"/>
      <stop offset="1" stop-color="#609a3f"/>
    </linearGradient>
    <linearGradient id="linear-gradient-8" x1="0" y1="0.5" x2="1" y2="0.5" xlink:href="#linear-gradient-5"/>
    <linearGradient id="linear-gradient-10" x1="0.443" y1="0.073" x2="0.644" y2="1.724" xlink:href="#linear-gradient-5"/>
    <linearGradient id="linear-gradient-11" x1="0.609" y1="1.64" x2="0.538" y2="0.894" xlink:href="#linear-gradient-5"/>
    <linearGradient id="linear-gradient-12" x1="0.674" y1="4.652" x2="0.583" y2="2.471" xlink:href="#linear-gradient-5"/>
    <linearGradient id="linear-gradient-14" x1="0.45" y1="-0.323" x2="0.644" y2="1.962" xlink:href="#linear-gradient-5"/>
    <linearGradient id="linear-gradient-15" x1="0.573" y1="1.282" x2="0.504" y2="0.529" xlink:href="#linear-gradient-5"/>
    <linearGradient id="linear-gradient-16" y1="0.5" x2="1" y2="0.5" gradientUnits="objectBoundingBox">
      <stop offset="0" stop-color="#00503e"/>
      <stop offset="1" stop-color="#023222"/>
    </linearGradient>
    <linearGradient id="linear-gradient-25" x1="0.802" y1="1.755" x2="0.532" y2="0.713" xlink:href="#linear-gradient-5"/>
    <linearGradient id="linear-gradient-26" x1="1.124" y1="-3.918" x2="-0.157" y2="4.927" xlink:href="#linear-gradient"/>
    <linearGradient id="linear-gradient-27" x1="0.243" y1="-2.95" x2="0.921" y2="5.857" gradientUnits="objectBoundingBox">
      <stop offset="0" stop-color="#fb9a2b"/>
      <stop offset="1" stop-color="#e65925"/>
    </linearGradient>
    <linearGradient id="linear-gradient-28" x1="1.113" y1="-3.846" x2="-0.167" y2="4.999" xlink:href="#linear-gradient"/>
    <linearGradient id="linear-gradient-29" x1="0.254" y1="-2.805" x2="0.932" y2="6.002" xlink:href="#linear-gradient-27"/>
    <linearGradient id="linear-gradient-36" x1="0" y1="0.5" x2="1" y2="0.5" xlink:href="#linear-gradient-27"/>
    <linearGradient id="linear-gradient-42" x1="1.704" y1="-0.095" x2="0.187" y2="0.657" xlink:href="#linear-gradient"/>
    <linearGradient id="linear-gradient-44" x1="-0.768" y1="1.492" x2="0.232" y2="0.773" xlink:href="#linear-gradient"/>
    <linearGradient id="linear-gradient-50" x1="0.529" y1="1.707" x2="0.507" y2="0.805" xlink:href="#linear-gradient"/>
    <linearGradient id="linear-gradient-51" x1="2.626" y1="-0.525" x2="1.482" y2="0.048" xlink:href="#linear-gradient"/>
    <linearGradient id="linear-gradient-52" x1="-0.104" y1="1.34" x2="0.425" y2="0.593" xlink:href="#linear-gradient-16"/>
    <linearGradient id="linear-gradient-55" x1="-0.146" y1="0.272" x2="1.452" y2="0.949" xlink:href="#linear-gradient-16"/>
    <linearGradient id="linear-gradient-58" x1="0.771" y1="-4.149" x2="0.153" y2="6.448" xlink:href="#linear-gradient"/>
    <linearGradient id="linear-gradient-59" x1="1.7" y1="-3.619" x2="-0.398" y2="3.375" xlink:href="#linear-gradient"/>
    <linearGradient id="linear-gradient-61" x1="0.107" y1="-5.871" x2="0.644" y2="2.551" xlink:href="#linear-gradient-27"/>
  </defs>
  <g id="Td-intro" transform="translate(-1246.992 -486.515)">
    <g id="Group_335" data-name="Group 335" transform="translate(1373.563 560.407)">
      <g id="Group_329" data-name="Group 329" transform="translate(0 33.743)">
        <path id="Path_896" data-name="Path 896" d="M2155.827,1286.039a70.128,70.128,0,0,1,4.942-26.813l-.524-.28a70.866,70.866,0,0,0-4.993,27.093Z" transform="translate(-2155.236 -1258.925)" fill="#b7d972"/>
        <path id="Path_897" data-name="Path 897" d="M2155.75,1285.926h-.605v-.015a71.023,71.023,0,0,1,4.994-27.1l.006-.015.551.294-.005.012a70.262,70.262,0,0,0-4.941,26.807Zm-.576-.03h.546a70.284,70.284,0,0,1,4.938-26.791l-.5-.266A70.993,70.993,0,0,0,2155.174,1285.9Z" transform="translate(-2155.145 -1258.798)" fill="#b7d972"/>
      </g>
      <g id="Group_330" data-name="Group 330" transform="translate(42.394 0)">
        <path id="Path_898" data-name="Path 898" d="M2459.588,1018.995a56.74,56.74,0,0,1,22.224-.854l.094-.621a57.332,57.332,0,0,0-22.456.863Z" transform="translate(-2459.432 -1016.783)" fill="#b7d972"/>
        <path id="Path_899" data-name="Path 899" d="M2459.469,1018.921l-.145-.641.014,0a57.358,57.358,0,0,1,22.462-.864l.014,0-.1.65-.014,0a56.735,56.735,0,0,0-22.218.854Zm-.11-.619.132.583a56.767,56.767,0,0,1,22.2-.854l.089-.592a57.33,57.33,0,0,0-22.422.862Z" transform="translate(-2459.324 -1016.692)" fill="#b7d972"/>
      </g>
      <g id="Group_331" data-name="Group 331" transform="translate(71.464 2.236)">
        <path id="Path_900" data-name="Path 900" d="M2668.036,1033.47a53.269,53.269,0,0,1,20.369,11.094l.376-.489a53.826,53.826,0,0,0-20.581-11.21Z" transform="translate(-2668.018 -1032.847)" fill="#b7d972"/>
        <path id="Path_901" data-name="Path 901" d="M2688.295,1044.473l-.012-.01a52.926,52.926,0,0,0-20.363-11.091l-.014,0,.171-.634.014,0a54.949,54.949,0,0,1,10.829,4.428,53.052,53.052,0,0,1,9.757,6.785l.01.009Zm-20.353-11.126a54.392,54.392,0,0,1,10.7,4.378,52.518,52.518,0,0,1,9.645,6.7l.358-.466a53.478,53.478,0,0,0-20.551-11.194Z" transform="translate(-2667.906 -1032.734)" fill="#b7d972"/>
      </g>
      <g id="Group_332" data-name="Group 332" transform="translate(94.844 16.339)">
        <path id="Path_902" data-name="Path 902" d="M2835.8,1134.542a53.846,53.846,0,0,1,10.52,15.653l.517-.3a54.4,54.4,0,0,0-10.63-15.816Z" transform="translate(-2835.782 -1134.061)" fill="#b7d972"/>
        <path id="Path_903" data-name="Path 903" d="M2846.191,1150.082l-.007-.015a53.882,53.882,0,0,0-10.518-15.649l-.01-.01.108-.121.319-.361.011.011a54.478,54.478,0,0,1,10.633,15.821l.005.012Zm-10.493-15.674a53.905,53.905,0,0,1,10.507,15.633l.491-.282a54.436,54.436,0,0,0-10.611-15.788Z" transform="translate(-2835.657 -1133.927)" fill="#b7d972"/>
      </g>
      <g id="Group_333" data-name="Group 333" transform="translate(108.891 42.598)">
        <path id="Path_904" data-name="Path 904" d="M2937.121,1322.469l-.554.188a75.371,75.371,0,0,1,2.091,18.051h.576A76.175,76.175,0,0,0,2937.121,1322.469Z" transform="translate(-2936.549 -1322.45)" fill="#b7d972"/>
        <path id="Path_905" data-name="Path 905" d="M2938.535,1340.605v-.015a75.65,75.65,0,0,0-2.091-18.047l0-.013.582-.2,0,.016a76.473,76.473,0,0,1,2.113,18.243v.015Zm-2.059-18.056a75.677,75.677,0,0,1,2.088,18.026h.546A76.439,76.439,0,0,0,2937,1322.37Z" transform="translate(-2936.441 -1322.332)" fill="#b7d972"/>
      </g>
      <g id="Group_334" data-name="Group 334" transform="translate(8.747 8.45)">
        <path id="Path_906" data-name="Path 906" d="M2218.527,1095.591a52.276,52.276,0,0,1,17.11-17.58l-.307-.541a52.821,52.821,0,0,0-17.288,17.764Z" transform="translate(-2218.022 -1077.449)" fill="#b7d972"/>
        <path id="Path_907" data-name="Path 907" d="M2218.411,1095.485l-.509-.375.007-.012a53.593,53.593,0,0,1,7.781-10.108,52.744,52.744,0,0,1,9.512-7.66l.013-.008.322.567-.012.008a52.055,52.055,0,0,0-17.1,17.576Zm-.47-.383.462.34a53.042,53.042,0,0,1,7.692-9.99,52.2,52.2,0,0,1,9.4-7.573l-.292-.516A52.6,52.6,0,0,0,2217.941,1095.1Z" transform="translate(-2217.902 -1077.321)" fill="#b7d972"/>
      </g>
    </g>
    <g id="Group_340" data-name="Group 340" transform="translate(1381.621 589.533)">
      <g id="Group_337" data-name="Group 337" transform="translate(0 0)">
        <g id="Group_336" data-name="Group 336" transform="translate(2.161)">
          <path id="Path_908" data-name="Path 908" d="M2228.9,1297.072s30.114-14.849,35.293-22.593-2.434-8.183-2.434-8.183,13.438-13.07,11.548-18.572-8.946-.245-8.946-.245,8.735-19.447,4.66-21.38c-7.589-3.6-18.235,17.094-18.235,17.094s2.288-8.991-2.938-8.7c-7.881.441-7.556,20.778-7.556,20.778s-.89-7.8-5.64-5.265C2226.132,1254.553,2228.9,1297.072,2228.9,1297.072Z" transform="translate(-2228.472 -1225.678)" fill="url(#linear-gradient)"/>
        </g>
        <path id="Path_909" data-name="Path 909" d="M2219.594,1246.862c3.776-1.933,6.458-.353,6.458-.353s.572-11.574,8.453-12.015c5.226-.292,2.938,8.7,2.938,8.7s10.646-20.7,18.235-17.094l-40.156,70.643C2215.237,1291.808,2207.84,1252.88,2219.594,1246.862Z" transform="translate(-2212.964 -1225.678)" fill="url(#linear-gradient-2)"/>
      </g>
      <g id="Group_339" data-name="Group 339" transform="translate(10.159 37.99)">
        <g id="Group_338" data-name="Group 338" transform="translate(0.075 2.316)">
          <path id="Path_910" data-name="Path 910" d="M2286.4,1546.556s25.165,3.594,31.542.868,1.272-6.628,1.272-6.628,13.693-2.692,14.75-6.892-5.481-3.788-5.481-3.788,13.35-8.58,11.595-11.442c-3.27-5.33-18.32,3.253-18.32,3.253s5.08-4.678,1.7-6.619c-5.095-2.928-13.156,9.89-13.156,9.89s.5-3.159-3.491-3.509C2299.645,1521.06,2286.4,1546.556,2286.4,1546.556Z" transform="translate(-2286.395 -1514.873)" fill="url(#linear-gradient-3)"/>
        </g>
        <path id="Path_911" data-name="Path 911" d="M2303.921,1503.747c3.992.35,5.917,7.15,5.917,7.15s8.207-15.194,13.3-12.266c3.378,1.941-.619,8.317-.619,8.317s13.821-7.9,17.091-2.574l-53.752,27.745C2287.686,1528.926,2297.23,1503.16,2303.921,1503.747Z" transform="translate(-2285.859 -1498.255)" fill="url(#linear-gradient-2)"/>
      </g>
    </g>
    <g id="Group_341" data-name="Group 341" transform="translate(1325.968 530.16)">
      <path id="Path_912" data-name="Path 912" d="M1813.989,881.953h45.283c-1.674-15.428,2.563-28.65,11.061-38.428,8.446-9.778,21.153-16.111,35.226-17.762A60.729,60.729,0,0,1,1947.6,836.1c12.574,8.952,22.383,23.826,24.058,45.858h5.66c1.674-23.919-5.747-43.509-19.021-57.532-13.222-14.023-32.3-22.479-52.738-24.13-20.39-1.651-42.147,3.5-59.548,16.7C1828.657,830.19,1815.663,851.431,1813.989,881.953Z" transform="translate(-1813.942 -799.948)" fill="#b7d972"/>
      <path id="Path_913" data-name="Path 913" d="M1977.062,881.72h-5.744l0-.042c-1.906-25.085-14.125-38.765-24.039-45.824a59.488,59.488,0,0,0-34.659-10.755,63.091,63.091,0,0,0-7.346.43c-14.256,1.672-26.756,7.975-35.2,17.747-8.85,10.183-12.671,23.46-11.051,38.394l.005.05h-45.38l0-.048c1.922-35.04,18.482-54.685,32.035-64.995a82.264,82.264,0,0,1,25.026-12.862,90.027,90.027,0,0,1,27.16-4.146c2.46,0,4.948.1,7.393.3a87.136,87.136,0,0,1,29.091,7.429,74.7,74.7,0,0,1,23.676,16.715,68.532,68.532,0,0,1,15.126,25.071,82.065,82.065,0,0,1,3.908,32.495Zm-5.661-.09h5.577c1.585-22.775-4.989-42.642-19.012-57.456-13.07-13.862-31.789-22.427-52.708-24.116-2.443-.2-4.927-.3-7.385-.3-19.172,0-37.686,6.034-52.131,16.99-13.532,10.294-30.065,29.9-32,64.88h45.185a54.231,54.231,0,0,1,1.723-21.3,45.66,45.66,0,0,1,9.354-17.112,49.987,49.987,0,0,1,15.517-11.939,59.117,59.117,0,0,1,19.738-5.838,63.18,63.18,0,0,1,7.356-.43,62.2,62.2,0,0,1,17.9,2.6,57.63,57.63,0,0,1,16.814,8.167C1957.252,842.847,1969.482,856.537,1971.4,881.63Z" transform="translate(-1813.648 -799.67)" fill="#9bc1f9"/>
    </g>
    <g id="Group_343" data-name="Group 343" transform="translate(1328.521 589.249)">
      <path id="Path_914" data-name="Path 914" d="M1860.323,1244.3a10.206,10.206,0,1,1-7.689-12.214A10.206,10.206,0,0,1,1860.323,1244.3Z" transform="translate(-1839.021 -1230.692)" fill="#edfdfc"/>
      <circle id="Ellipse_64" data-name="Ellipse 64" cx="8.564" cy="8.564" r="8.564" transform="translate(0 7.125) rotate(-24.581)" fill="url(#linear-gradient-5)"/>
      <g id="Group_342" data-name="Group 342" transform="translate(6.782 5.836)">
        <path id="Path_915" data-name="Path 915" d="M1881.389,1275.8l.773-1.2a6.956,6.956,0,0,1-1.342-1.245.87.87,0,0,1,.083-1.187l.041-.038a.868.868,0,0,1,1.271.093,5.068,5.068,0,0,0,1.221,1.12c.722.464,1.394.5,1.72,0,.309-.481.1-1.045-.634-1.964-1.062-1.326-1.579-2.554-.789-3.781a2.781,2.781,0,0,1,3.588-.878l.773-1.2,1.241.8-.716,1.114a6.411,6.411,0,0,1,1.048.909.869.869,0,0,1-.054,1.221h0a.869.869,0,0,1-1.249-.067,4.631,4.631,0,0,0-1.011-.873c-.823-.529-1.317-.345-1.544.009-.269.418,0,.968.819,2.065,1.165,1.5,1.325,2.587.592,3.726a2.883,2.883,0,0,1-3.759.893l-.83,1.291Z" transform="translate(-1880.625 -1265.509)" fill="#edfdfc"/>
      </g>
    </g>
    <path id="Path_916" data-name="Path 916" d="M2907.864,1347.533l7.629-20.481-7.792,4.032-9.168-4.032Z" transform="translate(-1421.363 -723.39)" fill="#b7d972"/>
    <g id="Group_344" data-name="Group 344" transform="translate(1421.006 630.426)">
      <path id="Path_917" data-name="Path 917" d="M2527.776,1574.615h-26.444a1.868,1.868,0,0,1-1.922-1.809h0a1.868,1.868,0,0,1,1.922-1.809h26.444a1.867,1.867,0,0,1,1.921,1.809h0A1.867,1.867,0,0,1,2527.776,1574.615Z" transform="translate(-2498.873 -1563.761)" fill="url(#linear-gradient-6)"/>
      <path id="Path_918" data-name="Path 918" d="M2524.032,1548.657h-26.669a1.809,1.809,0,0,1-1.809-1.809h0a1.809,1.809,0,0,1,1.809-1.809h26.669a1.809,1.809,0,0,1,1.809,1.809h0A1.809,1.809,0,0,1,2524.032,1548.657Z" transform="translate(-2495.554 -1541.421)" fill="#edfdfc"/>
      <path id="Path_919" data-name="Path 919" d="M2546.184,1522.7h-26.444a1.867,1.867,0,0,1-1.921-1.809h0a1.867,1.867,0,0,1,1.921-1.809h26.444a1.868,1.868,0,0,1,1.921,1.809h0A1.868,1.868,0,0,1,2546.184,1522.7Z" transform="translate(-2514.715 -1519.082)" fill="url(#linear-gradient-6)"/>
    </g>
    <g id="Group_357" data-name="Group 357" transform="translate(1267.566 590.82)">
      <rect id="Rectangle_588" data-name="Rectangle 588" width="99.203" height="10.384" transform="translate(44.278 30.019)" fill="#f47257"/>
      <g id="Group_346" data-name="Group 346" transform="translate(45.48 12.842)">
        <path id="Path_920" data-name="Path 920" d="M1792.548,1380.984a191.572,191.572,0,0,0-71.615-21.458l2.773-32.473a221.493,221.493,0,0,1,82.8,24.81Z" transform="translate(-1720.933 -1327.053)" fill="url(#linear-gradient-8)"/>
        <path id="Path_921" data-name="Path 921" d="M1736.711,1368.628q.945-10.126,1.89-20.252a4.643,4.643,0,0,0,5.255-3.848,219.888,219.888,0,0,1,69.425,20.8,4.936,4.936,0,0,0,2.531,6.181l-8.571,18.25a4.121,4.121,0,0,0-5.721,2.021,193.093,193.093,0,0,0-60.966-18.267A4.369,4.369,0,0,0,1736.711,1368.628Z" transform="translate(-1734.512 -1342.092)" fill="#b7d972"/>
        <g id="Group_345" data-name="Group 345" transform="translate(10.975 12.628)">
          <path id="Path_922" data-name="Path 922" d="M1968.574,1432.681a11.241,11.241,0,0,1-14,6.992,12,12,0,0,1-8.172-13.837c1.292-6.019,7.691-9.625,14.177-7.62S1970.589,1426.885,1968.574,1432.681Z" transform="translate(-1925.729 -1417.659)" fill="#50bfa5"/>
          <path id="Path_923" data-name="Path 923" d="M1991.109,1457.939q.242-.972.483-1.945a10.526,10.526,0,0,1-2.351-1.1,1.255,1.255,0,0,1-.453-1.629l.036-.068a1.206,1.206,0,0,1,1.74-.425,7.741,7.741,0,0,0,2.155,1c1.178.33,2.1.117,2.313-.7.2-.774-.335-1.462-1.761-2.408-2.061-1.361-3.376-2.782-2.922-4.779.41-1.809,2.08-2.891,4.512-2.679l.477-1.946q1.073.3,2.143.606l-.459,1.8a9.906,9.906,0,0,1,1.9.848,1.249,1.249,0,0,1,.5,1.694h0a1.267,1.267,0,0,1-1.77.375,7.066,7.066,0,0,0-1.817-.8c-1.4-.4-1.989.057-2.128.63-.166.678.48,1.308,2.112,2.48,2.3,1.59,2.985,3.028,2.48,4.853-.5,1.81-2.218,2.945-4.668,2.676l-.539,2.082Q1992.1,1458.214,1991.109,1457.939Z" transform="translate(-1962.314 -1437.969)" fill="#3c8f7c"/>
          <path id="Path_924" data-name="Path 924" d="M1816.936,1435.6q-8.552-1.974-17.256-3.211l.4-3.122q8.818,1.253,17.5,3.256Z" transform="translate(-1799.68 -1427.652)" fill="#50bfa5"/>
          <path id="Path_925" data-name="Path 925" d="M2142.56,1526q-7.959-3.892-16.182-7.083l1.04-2.955q8.331,3.233,16.409,7.182Z" transform="translate(-2080.845 -1502.261)" fill="#50bfa5"/>
        </g>
      </g>
      <g id="Group_348" data-name="Group 348" transform="translate(47.689 0)">
        <path id="Path_926" data-name="Path 926" d="M1817.546,1266.938a172.988,172.988,0,0,0-64.778,28.481l-15.984-27.58a200.014,200.014,0,0,1,74.9-32.931Z" transform="translate(-1736.784 -1234.908)" fill="url(#linear-gradient-8)"/>
        <path id="Path_927" data-name="Path 927" d="M1778.637,1308.305l-9.85-17.3a5.087,5.087,0,0,0,1.743-6.4,198.506,198.506,0,0,1,62.8-27.61,4.386,4.386,0,0,0,5.3,3.3l3.807,19.96a4.344,4.344,0,0,0-3.1,5.245,174.319,174.319,0,0,0-55.146,24.246A3.767,3.767,0,0,0,1778.637,1308.305Z" transform="translate(-1764.327 -1253.913)" fill="url(#linear-gradient-10)"/>
        <g id="Group_347" data-name="Group 347" transform="translate(14.262 14.306)">
          <path id="Path_928" data-name="Path 928" d="M1987.432,1350.847a12.112,12.112,0,0,1-6.453,14.463,10.413,10.413,0,0,1-13.715-5.8,11.692,11.692,0,0,1,6.234-15.073A10.108,10.108,0,0,1,1987.432,1350.847Z" transform="translate(-1948.66 -1342.701)" fill="url(#linear-gradient-11)"/>
          <path id="Path_929" data-name="Path 929" d="M2016.087,1384.385l-.723-1.853a9.154,9.154,0,0,1-2.347.62,1.14,1.14,0,0,1-1.239-1.007l-.011-.077a1.247,1.247,0,0,1,1.048-1.444,6.737,6.737,0,0,0,2.145-.577c1.053-.487,1.615-1.242,1.319-2.027-.281-.744-1.059-.949-2.636-.795-2.277.228-4.037-.064-4.81-1.941-.7-1.7-.07-3.621,1.844-5l-.729-1.851q.957-.446,1.918-.881l.66,1.721a8.643,8.643,0,0,1,1.876-.536,1.134,1.134,0,0,1,1.307,1.031h0a1.3,1.3,0,0,1-1.1,1.423,6.182,6.182,0,0,0-1.786.519c-1.251.573-1.436,1.31-1.221,1.854.254.644,1.08.734,2.936.628,2.578-.2,3.885.51,4.526,2.282a4.335,4.335,0,0,1-1.96,5.1l.759,2Q2016.973,1383.972,2016.087,1384.385Z" transform="translate(-1984.939 -1363.372)" fill="#edfdfc"/>
          <path id="Path_930" data-name="Path 930" d="M1855.07,1454.788q-7.409,3.87-14.521,8.42l-1.437-2.738q7.2-4.611,14.724-8.538Z" transform="translate(-1839.113 -1435.99)" fill="#50bfa5"/>
          <path id="Path_931" data-name="Path 931" d="M2148.533,1340.627q-8.036,1.967-15.878,4.66l-.873-3.011q7.945-2.728,16.1-4.725Z" transform="translate(-2090.992 -1337.551)" fill="url(#linear-gradient-12)"/>
        </g>
      </g>
      <g id="Group_350" data-name="Group 350" transform="translate(50.959 16.875)">
        <path id="Path_932" data-name="Path 932" d="M1840.522,1388.906a175.536,175.536,0,0,0-70.85,10.384l-9.421-30.931a202.958,202.958,0,0,1,81.919-12.006Q1841.346,1372.629,1840.522,1388.906Z" transform="translate(-1760.251 -1355.984)" fill="url(#linear-gradient-8)"/>
        <path id="Path_933" data-name="Path 933" d="M1790.759,1403.45l-5.734-19.358a4.9,4.9,0,0,0,3.219-5.733,201.428,201.428,0,0,1,68.684-10.067,4.63,4.63,0,0,0,4.484,4.6q-.438,10.163-.875,20.327a4.2,4.2,0,0,0-4.3,4.254,176.88,176.88,0,0,0-60.315,8.84A3.981,3.981,0,0,0,1790.759,1403.45Z" transform="translate(-1781.572 -1366.509)" fill="url(#linear-gradient-14)"/>
        <g id="Group_349" data-name="Group 349" transform="translate(12.774 6.286)">
          <path id="Path_934" data-name="Path 934" d="M2018.079,1411.1a11.658,11.658,0,0,1-9.767,12.286,11.035,11.035,0,0,1-12.244-9.255,11.267,11.267,0,0,1,9.691-12.934A10.687,10.687,0,0,1,2018.079,1411.1Z" transform="translate(-1975.839 -1401.085)" fill="url(#linear-gradient-15)"/>
          <path id="Path_935" data-name="Path 935" d="M2047.623,1440.27q-.142-.993-.285-1.985a9.458,9.458,0,0,1-2.47-.023,1.2,1.2,0,0,1-.993-1.3l.007-.078a1.212,1.212,0,0,1,1.375-1.119,6.957,6.957,0,0,0,2.26.01c1.157-.192,1.89-.774,1.779-1.612-.106-.794-.829-1.2-2.428-1.469-2.31-.383-3.987-1.133-4.317-3.154-.3-1.831.774-3.524,2.992-4.349q-.145-.992-.291-1.984,1.053-.178,2.107-.344l.253,1.841a8.9,8.9,0,0,1,1.985-.022,1.19,1.19,0,0,1,1.055,1.344h0a1.268,1.268,0,0,1-1.42,1.086,6.37,6.37,0,0,0-1.891.029c-1.373.222-1.729.887-1.642,1.47.1.691.9,1,2.764,1.387,2.6.493,3.732,1.523,3.955,3.408a4.166,4.166,0,0,1-3.13,4.412q.144,1.068.287,2.135Q2048.6,1440.1,2047.623,1440.27Z" transform="translate(-2015.938 -1419.825)" fill="#edfdfc"/>
          <path id="Path_936" data-name="Path 936" d="M1869.05,1484.392q-8.247,1.78-16.356,4.3l-.786-3.031q8.216-2.552,16.585-4.358Z" transform="translate(-1851.907 -1470.121)" fill="#50bfa5"/>
          <path id="Path_937" data-name="Path 937" d="M2192.043,1453.562q-8.425-.228-16.825.3-.082-1.573-.165-3.146,8.511-.533,17.061-.3Z" transform="translate(-2130.016 -1443.477)" fill="#50bfa5"/>
        </g>
      </g>
      <rect id="Rectangle_589" data-name="Rectangle 589" width="99.203" height="43.66" transform="translate(44.278 30.019)" fill="url(#linear-gradient-16)"/>
      <rect id="Rectangle_590" data-name="Rectangle 590" width="90.306" height="3.39" transform="translate(47.933 32.169)" fill="#847d3d"/>
      <rect id="Rectangle_591" data-name="Rectangle 591" width="42.107" height="1.125" transform="translate(49.08 41.167)" fill="#847d3d"/>
      <g id="Group_352" data-name="Group 352" transform="translate(114.757 45.153)">
        <path id="Path_938" data-name="Path 938" d="M2235.059,1562.876a9.378,9.378,0,1,1-13.063-2.289A9.377,9.377,0,0,1,2235.059,1562.876Z" transform="translate(-2218.005 -1558.885)" fill="#edfdfc"/>
        <path id="Path_939" data-name="Path 939" d="M2243.141,1573.059a7.869,7.869,0,1,1-10.961-1.92A7.869,7.869,0,0,1,2243.141,1573.059Z" transform="translate(-2227.321 -1568.201)" fill="url(#linear-gradient-8)"/>
        <g id="Group_351" data-name="Group 351" transform="translate(6.052 3.649)">
          <path id="Path_940" data-name="Path 940" d="M2265.665,1596.332l-.343-1.268a6.382,6.382,0,0,1-1.676.147.8.8,0,0,1-.758-.788v-.051a.8.8,0,0,1,.847-.808,4.655,4.655,0,0,0,1.515-.142c.761-.206,1.2-.64,1.058-1.174-.137-.507-.651-.712-1.729-.779-1.558-.094-2.713-.5-3.063-1.793a2.555,2.555,0,0,1,1.613-2.986l-.343-1.268,1.308-.354.318,1.175a5.894,5.894,0,0,1,1.266-.154.8.8,0,0,1,.8.789h0a.8.8,0,0,1-.816.81,4.246,4.246,0,0,0-1.218.151c-.868.235-1.047.684-.946,1.058.119.441.662.594,1.912.715,1.74.131,2.58.692,2.9,1.893a2.649,2.649,0,0,1-1.708,3.112l.368,1.362Z" transform="translate(-2261.43 -1585.068)" fill="#fff"/>
        </g>
      </g>
      <g id="Group_354" data-name="Group 354" transform="translate(96.533 33.414)">
        <circle id="Ellipse_65" data-name="Ellipse 65" cx="9.378" cy="9.378" r="9.378" fill="#edfdfc"/>
        <circle id="Ellipse_66" data-name="Ellipse 66" cx="7.869" cy="7.869" r="7.869" transform="translate(1.509 1.509)" fill="url(#linear-gradient-8)"/>
        <g id="Group_353" data-name="Group 353" transform="translate(5.626 3.846)">
          <path id="Path_941" data-name="Path 941" d="M2128.927,1512.832l.448-1.235a6.372,6.372,0,0,1-1.456-.842.8.8,0,0,1-.168-1.081l.029-.042a.8.8,0,0,1,1.158-.175,4.654,4.654,0,0,0,1.322.754c.741.269,1.352.166,1.54-.354.179-.494-.124-.957-.968-1.63-1.221-.973-1.935-1.967-1.478-3.228a2.555,2.555,0,0,1,3.036-1.517l.448-1.235,1.274.462-.415,1.144a5.9,5.9,0,0,1,1.124.6.8.8,0,0,1,.2,1.1h0a.8.8,0,0,1-1.133.194,4.249,4.249,0,0,0-1.083-.576c-.845-.306-1.25-.041-1.382.323-.156.429.2.867,1.155,1.684,1.349,1.107,1.714,2.048,1.29,3.218a2.649,2.649,0,0,1-3.186,1.566l-.481,1.326Z" transform="translate(-2127.612 -1502.247)" fill="#edfdfc"/>
        </g>
      </g>
      <rect id="Rectangle_592" data-name="Rectangle 592" width="42.472" height="22.762" transform="translate(95.768 48.199)" fill="#847d3d"/>
      <path id="Path_942" data-name="Path 942" d="M2240.689,1669.076h-24.547a2.242,2.242,0,0,0-1.971,2.438h0a2.242,2.242,0,0,0,1.971,2.438h-3.183a2.242,2.242,0,0,0-1.971,2.438h0a2.242,2.242,0,0,0,1.971,2.438h.552a2.242,2.242,0,0,0-1.971,2.438,2.933,2.933,0,0,0,.166.979h28.984Z" transform="translate(-2097.208 -1608.565)" fill="url(#linear-gradient-16)"/>
      <g id="Group_356" data-name="Group 356" transform="translate(0 72.166)">
        <g id="Group_355" data-name="Group 355">
          <path id="Path_943" data-name="Path 943" d="M1394.615,1753.5h0c0,.442.494.8,1.1.8h275.05c.609,0,1.1-.359,1.1-.8h0c0-.442-.494-.8-1.1-.8h-275.05C1395.109,1752.7,1394.615,1753.06,1394.615,1753.5Z" transform="translate(-1394.615 -1752.702)" fill="url(#linear-gradient-2)"/>
        </g>
      </g>
      <path id="Path_944" data-name="Path 944" d="M2257.973,1729.957h-25.35a1.842,1.842,0,0,1-1.842-1.842h0a1.842,1.842,0,0,1,1.842-1.842h25.35a1.842,1.842,0,0,1,1.842,1.842h0A1.842,1.842,0,0,1,2257.973,1729.957Z" transform="translate(-2114.244 -1657.791)" fill="url(#linear-gradient-6)"/>
      <path id="Path_945" data-name="Path 945" d="M2254.277,1703.528h-25.35a1.842,1.842,0,0,1-1.842-1.842h0a1.842,1.842,0,0,1,1.842-1.842h25.35a1.842,1.842,0,0,1,1.842,1.842h0A1.842,1.842,0,0,1,2254.277,1703.528Z" transform="translate(-2111.062 -1635.046)" fill="#edfdfc"/>
      <path id="Path_946" data-name="Path 946" d="M2275.619,1677.1h-25.35a1.842,1.842,0,0,1-1.842-1.842h0a1.842,1.842,0,0,1,1.842-1.842h25.35a1.842,1.842,0,0,1,1.842,1.842h0A1.842,1.842,0,0,1,2275.619,1677.1Z" transform="translate(-2129.43 -1612.301)" fill="url(#linear-gradient-6)"/>
    </g>
    <g id="Group_360" data-name="Group 360" transform="translate(1246.992 589.767)">
      <g id="Group_358" data-name="Group 358" transform="translate(10.05 0)">
        <path id="Path_947" data-name="Path 947" d="M1363.8,1298.926s-30.19-14.886-35.381-22.649,2.44-8.2,2.44-8.2-13.472-13.1-11.577-18.619,8.969-.245,8.969-.245-8.757-19.5-4.672-21.434c7.608-3.61,18.281,17.137,18.281,17.137s-2.294-9.013,2.945-8.72c7.9.442,7.574,20.83,7.574,20.83s.892-7.817,5.654-5.278C1366.58,1256.3,1363.8,1298.926,1363.8,1298.926Z" transform="translate(-1319.103 -1227.354)" fill="url(#linear-gradient-8)"/>
      </g>
      <path id="Path_948" data-name="Path 948" d="M1387.414,1248.591c-3.718-2.063-7.422,3.968-7.422,3.968s.375-15.925-7.526-16.366c-5.239-.293-2.945,8.72-2.945,8.72s-10.673-20.748-18.281-17.137l40.257,70.819C1391.781,1293.649,1394.78,1252.678,1387.414,1248.591Z" transform="translate(-1336.711 -1227.353)" fill="#b7d972"/>
      <g id="Group_359" data-name="Group 359" transform="translate(0 39.995)">
        <path id="Path_949" data-name="Path 949" d="M1300.963,1546.082s-24.691,3.067-31.084.334-1.811-6.108-1.811-6.108-13.727-2.7-14.787-6.909,5.494-3.8,5.494-3.8-13.384-8.6-11.624-11.471c3.278-5.344,18.366,3.261,18.366,3.261s-5.093-4.69-1.706-6.636c5.108-2.935,13.189,9.915,13.189,9.915s-.5-3.167,3.5-3.518C1287.68,1520.522,1300.963,1546.082,1300.963,1546.082Z" transform="translate(-1246.992 -1514.319)" fill="url(#linear-gradient-8)"/>
      </g>
      <path id="Path_950" data-name="Path 950" d="M1281.063,1501.918a4.184,4.184,0,0,0-3.939,4.239s-7.367-11.662-12.474-8.728c-3.387,1.946.62,8.338.62,8.338s-13.855-7.924-17.134-2.58L1302.023,1531C1300.19,1527.8,1287.77,1501.33,1281.063,1501.918Z" transform="translate(-1247.976 -1459.381)" fill="url(#linear-gradient-25)"/>
    </g>
    <path id="Path_951" data-name="Path 951" d="M2160.532,532.539l-.292-2.008,1.489-1.378a.279.279,0,0,0-.142-.479l-2-.343-.851-1.842a.279.279,0,0,0-.5-.013l-.944,1.8-2.015.24a.279.279,0,0,0-.167.471l1.416,1.453-.394,1.99a.279.279,0,0,0,.4.3l1.82-.9,1.771.99A.279.279,0,0,0,2160.532,532.539Z" transform="translate(-781.484 -34.263)" fill="url(#linear-gradient-26)"/>
    <path id="Path_952" data-name="Path 952" d="M1902.436,547.7l-.291-2.008,1.489-1.378a.279.279,0,0,0-.142-.479l-2-.343-.851-1.842a.279.279,0,0,0-.5-.013l-.944,1.8-2.014.24a.279.279,0,0,0-.167.471l1.416,1.453-.394,1.99a.279.279,0,0,0,.4.3l1.819-.9,1.771.99A.279.279,0,0,0,1902.436,547.7Z" transform="translate(-559.36 -47.307)" fill="url(#linear-gradient-27)"/>
    <path id="Path_953" data-name="Path 953" d="M2716.278,612.7l-.292-2.008,1.489-1.378a.279.279,0,0,0-.142-.479l-2-.343-.851-1.842a.279.279,0,0,0-.5-.013l-.944,1.8-2.014.24a.279.279,0,0,0-.167.471l1.416,1.453-.394,1.99a.279.279,0,0,0,.4.3l1.82-.9,1.771.99A.279.279,0,0,0,2716.278,612.7Z" transform="translate(-1259.775 -103.251)" fill="url(#linear-gradient-28)"/>
    <path id="Path_954" data-name="Path 954" d="M2504.284,492.727l-.292-2.008,1.489-1.378a.279.279,0,0,0-.143-.479l-2-.343-.851-1.842a.279.279,0,0,0-.5-.013l-.944,1.8-2.015.24a.279.279,0,0,0-.167.471l1.416,1.453-.394,1.99a.279.279,0,0,0,.4.3l1.819-.9,1.771.99A.279.279,0,0,0,2504.284,492.727Z" transform="translate(-1077.328)" fill="url(#linear-gradient-29)"/>
    <path id="Rectangle_593" data-name="Rectangle 593" d="M15.9,0H25.26a15.9,15.9,0,0,1,15.9,15.9v0a15.9,15.9,0,0,1-15.9,15.9H15.9A15.9,15.9,0,0,1,0,15.9v0A15.9,15.9,0,0,1,15.9,0Z" transform="translate(1292.172 593.261)" fill="#50bfa5"/>
    <g id="Group_361" data-name="Group 361" transform="translate(1288.461 570.762)">
      <rect id="Rectangle_594" data-name="Rectangle 594" width="48.868" height="92.486" rx="24.434" transform="translate(48.868 92.486) rotate(180)" fill="url(#linear-gradient-16)"/>
      <path id="Rectangle_595" data-name="Rectangle 595" d="M21.708,0H57.044A21.708,21.708,0,0,1,78.752,21.708v0A21.709,21.709,0,0,1,57.044,43.417H21.708A21.708,21.708,0,0,1,0,21.709v0A21.708,21.708,0,0,1,21.708,0Z" transform="translate(46.503 3.896) rotate(90)" fill="#edfdfc"/>
    </g>
    <g id="Group_362" data-name="Group 362" transform="translate(1269.529 641.735)">
      <path id="Path_955" data-name="Path 955" d="M1443.342,1733.635h-24.9a1.809,1.809,0,0,1-1.809-1.809h0a1.809,1.809,0,0,1,1.809-1.809h24.9a1.809,1.809,0,0,1,1.809,1.809h0A1.809,1.809,0,0,1,1443.342,1733.635Z" transform="translate(-1415.529 -1711.928)" fill="#b7d972"/>
      <path id="Path_956" data-name="Path 956" d="M1439.711,1707.679h-24.9a1.809,1.809,0,0,1-1.809-1.809h0a1.809,1.809,0,0,1,1.809-1.809h24.9a1.809,1.809,0,0,1,1.809,1.809h0A1.809,1.809,0,0,1,1439.711,1707.679Z" transform="translate(-1412.404 -1689.589)" fill="#edfdfc"/>
      <path id="Path_957" data-name="Path 957" d="M1460.674,1681.721h-24.9a1.809,1.809,0,0,1-1.809-1.809h0a1.809,1.809,0,0,1,1.809-1.809h24.9a1.809,1.809,0,0,1,1.809,1.809h0A1.809,1.809,0,0,1,1460.674,1681.721Z" transform="translate(-1430.445 -1667.249)" fill="#b7d972"/>
      <path id="Path_958" data-name="Path 958" d="M1439.036,1655.758h-24.9a1.809,1.809,0,0,1-1.809-1.809h0a1.809,1.809,0,0,1,1.809-1.809h24.9a1.809,1.809,0,0,1,1.809,1.809h0A1.809,1.809,0,0,1,1439.036,1655.758Z" transform="translate(-1411.823 -1644.905)" fill="#b7d972"/>
      <path id="Path_959" data-name="Path 959" d="M1435.4,1629.8h-24.9a1.809,1.809,0,0,1-1.809-1.809h0a1.809,1.809,0,0,1,1.809-1.809h24.9a1.809,1.809,0,0,1,1.809,1.809h0A1.809,1.809,0,0,1,1435.4,1629.8Z" transform="translate(-1408.697 -1622.564)" fill="#edfdfc"/>
      <path id="Path_960" data-name="Path 960" d="M1456.366,1603.843h-24.9a1.809,1.809,0,0,1-1.809-1.809h0a1.809,1.809,0,0,1,1.809-1.809h24.9a1.809,1.809,0,0,1,1.809,1.809h0A1.809,1.809,0,0,1,1456.366,1603.843Z" transform="translate(-1426.738 -1600.225)" fill="#b7d972"/>
    </g>
    <g id="Group_363" data-name="Group 363" transform="translate(1415.589 641.279)">
      <path id="Path_961" data-name="Path 961" d="M2491.334,1730.364h-24.9a1.809,1.809,0,0,1-1.809-1.809h0a1.808,1.808,0,0,1,1.809-1.809h24.9a1.809,1.809,0,0,1,1.809,1.809h0A1.809,1.809,0,0,1,2491.334,1730.364Z" transform="translate(-2463.521 -1708.657)" fill="url(#linear-gradient-6)"/>
      <path id="Path_962" data-name="Path 962" d="M2487.7,1704.407h-24.9A1.809,1.809,0,0,1,2461,1702.6h0a1.809,1.809,0,0,1,1.809-1.809h24.9a1.809,1.809,0,0,1,1.809,1.809h0A1.809,1.809,0,0,1,2487.7,1704.407Z" transform="translate(-2460.395 -1686.317)" fill="#edfdfc"/>
      <path id="Path_963" data-name="Path 963" d="M2508.666,1678.45h-24.9a1.809,1.809,0,0,1-1.809-1.809h0a1.809,1.809,0,0,1,1.809-1.809h24.9a1.809,1.809,0,0,1,1.809,1.809h0A1.809,1.809,0,0,1,2508.666,1678.45Z" transform="translate(-2478.437 -1663.978)" fill="url(#linear-gradient-6)"/>
      <path id="Path_964" data-name="Path 964" d="M2487.028,1652.487h-24.9a1.809,1.809,0,0,1-1.809-1.809h0a1.809,1.809,0,0,1,1.809-1.809h24.9a1.809,1.809,0,0,1,1.809,1.809h0A1.809,1.809,0,0,1,2487.028,1652.487Z" transform="translate(-2459.815 -1641.634)" fill="url(#linear-gradient-6)"/>
      <path id="Path_965" data-name="Path 965" d="M2483.4,1626.53h-24.9a1.809,1.809,0,0,1-1.809-1.809h0a1.809,1.809,0,0,1,1.809-1.809h24.9a1.809,1.809,0,0,1,1.809,1.809h0A1.809,1.809,0,0,1,2483.4,1626.53Z" transform="translate(-2456.689 -1619.294)" fill="#edfdfc"/>
      <path id="Path_966" data-name="Path 966" d="M2504.359,1600.572h-24.9a1.809,1.809,0,0,1-1.809-1.809h0a1.809,1.809,0,0,1,1.809-1.809h24.9a1.809,1.809,0,0,1,1.809,1.809h0A1.809,1.809,0,0,1,2504.359,1600.572Z" transform="translate(-2474.73 -1596.954)" fill="url(#linear-gradient-6)"/>
    </g>
    <g id="Group_366" data-name="Group 366" transform="translate(1299.078 592.437)">
      <path id="Path_967" data-name="Path 967" d="M1647.668,1381.389h-24.978a1.974,1.974,0,0,1-1.974-1.974h0a1.974,1.974,0,0,1,1.974-1.974h24.978a1.974,1.974,0,0,1,1.974,1.974h0A1.974,1.974,0,0,1,1647.668,1381.389Z" transform="translate(-1620.717 -1359.194)" fill="#847d3d"/>
      <g id="Group_365" data-name="Group 365" transform="translate(4.192)">
        <path id="Path_968" data-name="Path 968" d="M1672.079,1253.9a10.936,10.936,0,1,1-13.9-6.784A10.936,10.936,0,0,1,1672.079,1253.9Z" transform="translate(-1650.798 -1246.515)" fill="#b7d972"/>
        <path id="Path_969" data-name="Path 969" d="M1681.281,1265.335a9.177,9.177,0,1,1-11.663-5.693A9.177,9.177,0,0,1,1681.281,1265.335Z" transform="translate(-1661.664 -1257.381)" fill="url(#linear-gradient-8)"/>
        <g id="Group_364" data-name="Group 364" transform="translate(7.641 4.279)">
          <path id="Path_970" data-name="Path 970" d="M1708.153,1290.374l.025-1.532a7.44,7.44,0,0,1-1.925-.376.932.932,0,0,1-.595-1.128l.016-.057a.93.93,0,0,1,1.21-.632,5.431,5.431,0,0,0,1.744.33c.919.015,1.554-.329,1.565-.974.01-.613-.5-1.008-1.686-1.431-1.716-.609-2.879-1.435-2.854-3a2.98,2.98,0,0,1,2.772-2.825l.025-1.532,1.58.026-.024,1.419a6.882,6.882,0,0,1,1.468.236.931.931,0,0,1,.64,1.143h0a.932.932,0,0,1-1.176.644,4.949,4.949,0,0,0-1.413-.224c-1.048-.017-1.394.429-1.4.88-.009.532.55.88,1.912,1.419,1.908.709,2.667,1.609,2.643,3.06a3.09,3.09,0,0,1-2.919,2.936l-.027,1.645Z" transform="translate(-1705.626 -1277.218)" fill="#edfdfc"/>
        </g>
      </g>
    </g>
    <g id="Group_367" data-name="Group 367" transform="translate(1296.715 621.319)">
      <path id="Path_971" data-name="Path 971" d="M1635.928,1459.389h-29.342a2.824,2.824,0,0,1-2.824-2.824h0a2.824,2.824,0,0,1,2.824-2.824h29.342a2.824,2.824,0,0,1,2.824,2.824h0A2.824,2.824,0,0,1,1635.928,1459.389Z" transform="translate(-1603.763 -1453.742)" fill="#13375b"/>
    </g>
    <g id="Group_368" data-name="Group 368" transform="translate(1296.715 621.319)">
      <path id="Path_972" data-name="Path 972" d="M1635.928,1459.389h-29.342a2.824,2.824,0,0,1-2.824-2.824h0a2.824,2.824,0,0,1,2.824-2.824h29.342a2.824,2.824,0,0,1,2.824,2.824h0A2.824,2.824,0,0,1,1635.928,1459.389Z" transform="translate(-1603.763 -1453.742)" fill="#473b1e"/>
    </g>
    <path id="Path_973" data-name="Path 973" d="M1636.386,1456.566a2.824,2.824,0,0,0-2.824-2.824h-26.975a2.824,2.824,0,1,0,0,5.647h26.975A2.824,2.824,0,0,0,1636.386,1456.566Z" transform="translate(-307.047 -832.423)" fill="url(#linear-gradient-36)"/>
    <g id="Group_370" data-name="Group 370" transform="translate(1376.851 516.581)">
      <path id="Path_974" data-name="Path 974" d="M2194.945,704.191a10.206,10.206,0,1,1-14.255,2.26A10.206,10.206,0,0,1,2194.945,704.191Z" transform="translate(-2178.742 -702.243)" fill="#edfdfc"/>
      <circle id="Ellipse_67" data-name="Ellipse 67" cx="8.564" cy="8.564" r="8.564" transform="translate(0.624 2.799) rotate(-7.294)" fill="url(#linear-gradient-8)"/>
      <g id="Group_369" data-name="Group 369" transform="translate(6.033 4.543)">
        <path id="Path_975" data-name="Path 975" d="M2229.1,745.881l-.8-1.184a6.952,6.952,0,0,1-1.672.744.87.87,0,0,1-1.059-.543l-.019-.052a.869.869,0,0,1,.586-1.132,5.064,5.064,0,0,0,1.51-.682c.71-.481,1.011-1.084.674-1.582-.32-.474-.922-.5-2.055-.19-1.637.453-2.969.446-3.787-.763a2.781,2.781,0,0,1,.605-3.644l-.8-1.184,1.222-.826.742,1.1a6.418,6.418,0,0,1,1.249-.605.868.868,0,0,1,1.1.53h0a.869.869,0,0,1-.553,1.122,4.613,4.613,0,0,0-1.2.585c-.81.548-.836,1.074-.6,1.423.278.411.892.378,2.221.06,1.837-.48,2.9-.2,3.659.922a2.884,2.884,0,0,1-.658,3.807l.86,1.271Z" transform="translate(-2222.032 -734.841)" fill="#edfdfc"/>
      </g>
    </g>
    <g id="Group_372" data-name="Group 372" transform="translate(1347.814 540.751)">
      <path id="Path_976" data-name="Path 976" d="M1990.56,888.135a10.206,10.206,0,1,1-7.689-12.214A10.206,10.206,0,0,1,1990.56,888.135Z" transform="translate(-1970.4 -875.664)" fill="#edfdfc"/>
      <path id="Path_977" data-name="Path 977" d="M1999.1,897.91a8.564,8.564,0,1,1-6.452-10.25A8.564,8.564,0,0,1,1999.1,897.91Z" transform="translate(-1980.54 -885.804)" fill="url(#linear-gradient-8)"/>
      <g id="Group_371" data-name="Group 371" transform="translate(5.639 4.693)">
        <path id="Path_978" data-name="Path 978" d="M2011.626,919.627l.773-1.2a6.956,6.956,0,0,1-1.342-1.245.87.87,0,0,1,.083-1.187l.041-.038a.868.868,0,0,1,1.271.093,5.071,5.071,0,0,0,1.221,1.119c.722.464,1.394.5,1.72,0,.309-.481.1-1.045-.634-1.964-1.062-1.326-1.579-2.554-.789-3.781a2.781,2.781,0,0,1,3.588-.878l.773-1.2,1.241.8-.716,1.114a6.413,6.413,0,0,1,1.048.909.868.868,0,0,1-.054,1.221h0a.87.87,0,0,1-1.249-.067,4.626,4.626,0,0,0-1.011-.873c-.823-.529-1.316-.345-1.544.009-.269.418,0,.969.819,2.065,1.165,1.5,1.324,2.587.592,3.726a2.884,2.884,0,0,1-3.759.893l-.83,1.291Z" transform="translate(-2010.862 -909.338)" fill="#edfdfc"/>
      </g>
    </g>
    <g id="Group_374" data-name="Group 374" transform="translate(1422.563 510.612)">
      <path id="Path_979" data-name="Path 979" d="M2527.134,669.863a10.206,10.206,0,1,1-9.96-10.445A10.206,10.206,0,0,1,2527.134,669.863Z" transform="translate(-2506.725 -659.415)" fill="#edfdfc"/>
      <path id="Path_980" data-name="Path 980" d="M2535.631,679.961a8.564,8.564,0,1,1-8.358-8.765A8.564,8.564,0,0,1,2535.631,679.961Z" transform="translate(-2516.864 -669.552)" fill="url(#linear-gradient-8)"/>
      <g id="Group_373" data-name="Group 373" transform="translate(6.063 4.225)">
        <path id="Path_981" data-name="Path 981" d="M2551.592,701.145l.519-1.332a6.933,6.933,0,0,1-1.562-.953.87.87,0,0,1-.155-1.18l.032-.045a.868.868,0,0,1,1.264-.161,5.07,5.07,0,0,0,1.419.855c.8.312,1.466.216,1.685-.345.208-.533-.11-1.044-1.011-1.8-1.3-1.089-2.054-2.189-1.524-3.55a2.781,2.781,0,0,1,3.343-1.572l.519-1.332,1.374.535-.481,1.234a6.423,6.423,0,0,1,1.208.683.869.869,0,0,1,.189,1.207h0a.869.869,0,0,1-1.238.182,4.62,4.62,0,0,0-1.164-.655c-.912-.355-1.359-.077-1.512.315-.181.463.2.948,1.212,1.862,1.439,1.239,1.812,2.273,1.32,3.535a2.884,2.884,0,0,1-3.507,1.621l-.557,1.43Z" transform="translate(-2550.23 -689.73)" fill="#edfdfc"/>
      </g>
    </g>
    <g id="Group_376" data-name="Group 376" transform="translate(1465.766 534.817)">
      <path id="Path_982" data-name="Path 982" d="M2834.817,836.837a10.206,10.206,0,1,1-14.36-1.45A10.206,10.206,0,0,1,2834.817,836.837Z" transform="translate(-2816.706 -833.085)" fill="#edfdfc"/>
      <path id="Path_983" data-name="Path 983" d="M2843.683,848.013a8.564,8.564,0,1,1-12.05-1.217A8.564,8.564,0,0,1,2843.683,848.013Z" transform="translate(-2826.844 -843.223)" fill="url(#linear-gradient-8)"/>
      <g id="Group_375" data-name="Group 375" transform="translate(6.451 4.04)">
        <path id="Path_984" data-name="Path 984" d="M2868.17,874.174l-.473-1.35a6.937,6.937,0,0,1-1.807.293.87.87,0,0,1-.885-.8l0-.055a.868.868,0,0,1,.855-.945,5.073,5.073,0,0,0,1.634-.274c.809-.283,1.254-.79,1.055-1.358-.189-.54-.763-.721-1.939-.708-1.7.021-2.984-.326-3.467-1.7a2.781,2.781,0,0,1,1.515-3.369l-.473-1.349,1.392-.488.438,1.25a6.426,6.426,0,0,1,1.361-.267.868.868,0,0,1,.929.794h0a.869.869,0,0,1-.821.943,4.622,4.622,0,0,0-1.309.26c-.923.323-1.083.826-.943,1.223.164.469.765.593,2.132.625,1.9,0,2.854.547,3.3,1.825a2.884,2.884,0,0,1-1.608,3.513l.508,1.449Z" transform="translate(-2862.991 -862.072)" fill="#edfdfc"/>
      </g>
    </g>
    <g id="Group_378" data-name="Group 378" transform="translate(1482.096 574.034)">
      <circle id="Ellipse_68" data-name="Ellipse 68" cx="10.206" cy="10.206" r="10.206" transform="translate(0 20.328) rotate(-84.829)" fill="#edfdfc"/>
      <path id="Path_985" data-name="Path 985" d="M2967.524,1136.188a8.564,8.564,0,1,1-11.929-2.09A8.564,8.564,0,0,1,2967.524,1136.188Z" transform="translate(-2949.43 -1130.024)" fill="url(#linear-gradient-8)"/>
      <g id="Group_377" data-name="Group 377" transform="translate(7.464 4.849)">
        <path id="Path_986" data-name="Path 986" d="M2992.037,1161.518l-.373-1.38a6.947,6.947,0,0,1-1.823.16.871.871,0,0,1-.825-.858v-.055a.868.868,0,0,1,.922-.88,5.061,5.061,0,0,0,1.649-.155c.828-.224,1.308-.7,1.151-1.278-.149-.552-.708-.775-1.882-.848-1.7-.1-2.953-.542-3.334-1.951a2.781,2.781,0,0,1,1.756-3.25l-.373-1.38,1.424-.385.346,1.278a6.422,6.422,0,0,1,1.377-.167.869.869,0,0,1,.869.859h0a.869.869,0,0,1-.888.881,4.62,4.62,0,0,0-1.325.164c-.944.255-1.139.745-1.03,1.151.13.479.721.647,2.081.778,1.894.143,2.807.753,3.161,2.061a2.883,2.883,0,0,1-1.859,3.387l.4,1.482Z" transform="translate(-2987.429 -1149.259)" fill="#edfdfc"/>
      </g>
    </g>
    <g id="Group_382" data-name="Group 382" transform="translate(1309.959 526.008)">
      <g id="Group_381" data-name="Group 381" transform="translate(0 0)">
        <g id="Group_380" data-name="Group 380">
          <path id="Path_987" data-name="Path 987" d="M1704.126,796.459c5.676,2.336,7.5-2.768,7.361-2.633a15.082,15.082,0,0,1,1.508-.756c2.275-1.115,2.207-5.05,2.155-7.659,3.264-1.987,4.082-5.794,1.844-8.119.689-2.586.835-4.213-1.475-5.524-1.749-3.048-6.648-2.014-9.026.377a6.751,6.751,0,0,0-1.885,4.759,6.42,6.42,0,0,0-3.625,7.354C1697.208,787.367,1698.334,794.075,1704.126,796.459Z" transform="translate(-1698.788 -769.883)" fill="#002a24"/>
          <path id="Path_988" data-name="Path 988" d="M1788,916.6c-.456-.45-1.258-.848-1.211-.915.19-.268,2.172,1.782,2.043,1.2-.072-.322-1.492-2-2-2.059-.488-.061-3.65-.56-3.65-.56l-7.305-4.856s-.362-5.743,1.189-9.612a7.5,7.5,0,0,0-3.768-.493c-.994,3.924-2.064,10.535-.772,12.461.543.81,10.039,3.944,10.039,3.944a22.534,22.534,0,0,0,2.437.8c.29.018,1.09-.049,1.481.012.887.138,1.987,1.458,2.062,1.305A1.733,1.733,0,0,0,1788,916.6Z" transform="translate(-1761.741 -881.231)" fill="#f48c7f"/>
          <path id="Path_989" data-name="Path 989" d="M1749.689,874.023a25.715,25.715,0,0,0-1.393-2.276,5.318,5.318,0,0,0-2.55-1.911s-.615.013-1.321.047a.563.563,0,0,1-.133.235c-.266.2-1.786-.058-2.769.611-3.293,2.832-2.382,16.559-2.123,20.894l8.22.035s.543-9.268,2.581-11.665C1751.62,878.325,1750.707,875.906,1749.689,874.023Z" transform="translate(-1733.47 -855.905)" fill="url(#linear-gradient-42)"/>
          <path id="Path_990" data-name="Path 990" d="M1818.218,1065.678a27.2,27.2,0,0,1,2.164-4.145c1.355-1.782,13.074-17.919,12.591-21.847-.211-1.715-5.288-3.169-5.891-3.273-3.231.433.163,3.215-2.264,5.5,1.578.54,2.509,1.214,2.168,1.658-1.366,1.777-8.62,16.094-8.935,16.279-1.4.823-1.956.442-1.956.442s.324,8.053.994,7.8S1817.223,1067.508,1818.218,1065.678Z" transform="translate(-1799.746 -999.266)" fill="#f79c8d"/>
          <path id="Path_991" data-name="Path 991" d="M1811.841,1205.071l1.355,8.113c.3,1.05.817,1.038.948.9a12.962,12.962,0,0,0,.427-3.687c-.611-1.879-.553-5.417-.177-5.817A6.384,6.384,0,0,0,1811.841,1205.071Z" transform="translate(-1796.084 -1143.994)" fill="url(#linear-gradient-16)"/>
          <path id="Path_992" data-name="Path 992" d="M1846.6,1040.816c1.818-3.015,1.721-2.633,4.886-4a45.811,45.811,0,0,1,6.05,3.661l-6.749,4.9C1851.007,1044.83,1848.656,1042.111,1846.6,1040.816Z" transform="translate(-1825.999 -999.617)" fill="#f7a491"/>
          <path id="Path_993" data-name="Path 993" d="M1776.7,833.521a41.035,41.035,0,0,1-.936,4.91c-.385.96,2.117,3.013,4.2,3.635s-.636-2.12-.55-3.146.465-5.884.465-5.884Z" transform="translate(-1765.001 -824.234)" fill="#f7a491"/>
          <path id="Path_994" data-name="Path 994" d="M1784.755,834.429c.061-.8.105-1.393.105-1.393l-3.177.485s-.08.464-.169,1.12A2.6,2.6,0,0,0,1784.755,834.429Z" transform="translate(-1769.984 -824.234)" fill="#f47458"/>
          <path id="Path_995" data-name="Path 995" d="M1773.423,784.533A3.608,3.608,0,0,0,1771.4,786c-.773,1.184-1.3,4.669,1.243,6.3s4.527-.674,4.56-2.919S1776.754,784.137,1773.423,784.533Z" transform="translate(-1760.729 -782.46)" fill="#f7a491"/>
          <path id="Path_996" data-name="Path 996" d="M1813.368,806.829c-.217.542-.648.878-.963.751s-.393-.669-.176-1.211.648-.878.963-.751S1813.585,806.287,1813.368,806.829Z" transform="translate(-1796.313 -800.615)" fill="#f7a491"/>
          <path id="Path_997" data-name="Path 997" d="M1765.8,812.391c.185.583.016,1.158-.377,1.283s-.861-.246-1.046-.83-.016-1.158.377-1.283S1765.612,811.807,1765.8,812.391Z" transform="translate(-1755.168 -805.731)" fill="#f7a491"/>
          <path id="Path_998" data-name="Path 998" d="M1746.172,1017.51c-1.406-.129-6.06-.6-6.06-.6l-8.255-1.11a21,21,0,0,0-1.516,5.672c-.1,3.825,3.421,7.049,6.432,6.864,1.792-.11,11.938-.332,13.918-1.067.409-3.116.88-6.494,2.98-8.737C1750.309,1018.07,1748.081,1017.685,1746.172,1017.51Z" transform="translate(-1725.943 -981.525)" fill="#473b1e"/>
          <path id="Path_999" data-name="Path 999" d="M1832.527,1087.062c.226-.234,2.037-12.622,3.13-17.821a4.369,4.369,0,0,1,2.182-2.939l5.889-3.213c2.04,1.866-7.479,22.819-8.35,25.016a28.622,28.622,0,0,0-1.02,4.826c-.49,2.142.148,2.324-.461,2.773s-3.34-7.372-3.34-7.372S1831.333,1088.3,1832.527,1087.062Z" transform="translate(-1812.192 -1022.224)" fill="#f7a491"/>
          <path id="Path_1000" data-name="Path 1000" d="M1831.967,1028.466h0a.607.607,0,0,0,.64.566l10,.024a.944.944,0,0,0,.825-.685l-.182.122a.607.607,0,0,0-.64-.566l-10-.024A.607.607,0,0,0,1831.967,1028.466Z" transform="translate(-1813.406 -991.942)" fill="#847d3d"/>
          <g id="Group_379" data-name="Group 379" transform="translate(28.147 22.439)">
            <path id="Path_1001" data-name="Path 1001" d="M1901.7,945.356a1.432,1.432,0,0,1-.18-.011c-.518-.065-.857-.4-.758-.738l3.817-13.208a1.007,1.007,0,0,1,1.116-.5c.518.066.857.4.758.738l-3.817,13.208A.938.938,0,0,1,1901.7,945.356Z" transform="translate(-1900.742 -930.885)" fill="#847d3d"/>
          </g>
          <path id="Path_1002" data-name="Path 1002" d="M1767.085,942.341c-.572-.286-1.459-.417-1.435-.494.1-.313,2.641,1.308,2.339.8-.168-.283-2.06-1.722-2.558-1.625-.483.093-3.643.6-3.643.6l-8.134-2.94a30.739,30.739,0,0,1-1.276-9.217,11.546,11.546,0,0,0-4.625,1c.271,4.039,1.3,10.656,3.128,12.087.768.6,10.767.639,10.767.639a22.546,22.546,0,0,0,2.564,0c.282-.073,1.021-.384,1.411-.447.886-.144,2.341.77,2.365.6A1.733,1.733,0,0,0,1767.085,942.341Z" transform="translate(-1740.929 -907.221)" fill="#f7a491"/>
          <path id="Path_1003" data-name="Path 1003" d="M1749.855,877.347c-.114-1.278-.27-2.566-1.573-3.119a2.743,2.743,0,0,0-2.505.253,3.355,3.355,0,0,0-1.326,2.568,38.776,38.776,0,0,0-.22,6.852c1.615-.668,3.811-.314,5.583-.348A23.792,23.792,0,0,0,1749.855,877.347Z" transform="translate(-1737.84 -859.519)" fill="url(#linear-gradient-44)"/>
        </g>
        <path id="Path_1004" data-name="Path 1004" d="M1875.483,1013.154a9.336,9.336,0,0,1,1.368.365c.982.619.9.887-.6.241a.3.3,0,0,0-.121-.024l-.715.008a.3.3,0,0,1-.2-.524h0A.3.3,0,0,1,1875.483,1013.154Z" transform="translate(-1850.535 -979.241)" fill="#f7a491"/>
        <path id="Path_1005" data-name="Path 1005" d="M1833.17,1240.6a4.585,4.585,0,0,0,.271,1.77c.33.788,1.592,1.084,1.287,1.491s-2.744,0-2.744,0l-2.822-6.9a.638.638,0,0,1,.161-.742,5.186,5.186,0,0,1,1.94-1.013S1831.112,1239.537,1833.17,1240.6Z" transform="translate(-1810.943 -1170.355)" fill="url(#linear-gradient-16)"/>
      </g>
    </g>
    <g id="Group_390" data-name="Group 390" transform="translate(1438.53 615.884)">
      <path id="Path_1006" data-name="Path 1006" d="M2808.173,1440.112l-25.112,3.462a1.842,1.842,0,0,1-2.076-1.573h0a1.841,1.841,0,0,1,1.573-2.076l25.112-3.462a1.842,1.842,0,0,1,2.076,1.573h0A1.842,1.842,0,0,1,2808.173,1440.112Z" transform="translate(-2758.713 -1433.421)" fill="url(#linear-gradient-16)"/>
      <g id="Group_383" data-name="Group 383" transform="translate(35.658 6.597)">
        <path id="Path_1007" data-name="Path 1007" d="M2904.282,1466.335l-25.344-.57a1.842,1.842,0,0,1-1.8-1.883h0a1.842,1.842,0,0,1,1.883-1.8l25.344.57a1.841,1.841,0,0,1,1.8,1.883h0A1.841,1.841,0,0,1,2904.282,1466.335Z" transform="translate(-2877.139 -1462.082)" fill="url(#linear-gradient-16)"/>
      </g>
      <path id="Path_1008" data-name="Path 1008" d="M2802.953,1449.693l-23.64-9.152a1.842,1.842,0,0,1-1.053-2.382h0a1.842,1.842,0,0,1,2.383-1.052l23.64,9.152a1.841,1.841,0,0,1,1.052,2.382h0A1.842,1.842,0,0,1,2802.953,1449.693Z" transform="translate(-2756.276 -1433.882)" fill="#edfdfc"/>
      <path id="Path_1009" data-name="Path 1009" d="M2891.937,1458.037l-23.64-9.152a1.842,1.842,0,0,1-1.052-2.382h0a1.842,1.842,0,0,1,2.382-1.053l23.64,9.152a1.841,1.841,0,0,1,1.053,2.382h0A1.842,1.842,0,0,1,2891.937,1458.037Z" transform="translate(-2832.857 -1441.064)" fill="url(#linear-gradient-6)"/>
      <g id="Group_389" data-name="Group 389" transform="translate(0 0)">
        <path id="Path_1010" data-name="Path 1010" d="M2708.6,1479.9c1.927-3.337,3.219-8.665,3.027-11.48-.44-6.467-11.775-16.673-11.884-23.153-.044-2.629,4.5-9.544,4.5-9.544l-33.132,11.842-32.952-11.842s4.546,6.915,4.5,9.544c-.109,6.48-11.444,16.686-11.884,23.153-.192,2.815,1.1,8.143,3.027,11.48Z" transform="translate(-2629.437 -1432.803)" fill="url(#linear-gradient-2)"/>
        <g id="Group_384" data-name="Group 384" transform="translate(8.721 2.924)">
          <path id="Path_1011" data-name="Path 1011" d="M2716.814,1447.569l-32.952-11.842s1.532,2.33,2.809,4.8Z" transform="translate(-2683.862 -1435.727)" fill="url(#linear-gradient-50)"/>
          <path id="Path_1012" data-name="Path 1012" d="M3072.476,1468.424c-.44-6.467-11.775-16.673-11.884-23.153-.044-2.629,4.5-9.544,4.5-9.544l-13.338,4.767a12.829,12.829,0,0,0-1.71,4.777c.109,6.48,11.444,16.686,11.885,23.153.191,2.815-1.1,8.143-3.027,11.48h10.547C3071.377,1476.568,3072.668,1471.239,3072.476,1468.424Z" transform="translate(-2999.009 -1435.727)" fill="url(#linear-gradient-51)"/>
        </g>
        <g id="Group_388" data-name="Group 388">
          <g id="Group_385" data-name="Group 385" transform="translate(4.481)">
            <path id="Path_1013" data-name="Path 1013" d="M2690.633,1431.316l-36.217-13.239a1.486,1.486,0,1,1,1.02-2.791l35.2,12.866,36.35-13.316a1.486,1.486,0,1,1,1.022,2.79Z" transform="translate(-2653.441 -1414.745)" fill="#b7d972"/>
          </g>
          <path id="Path_1014" data-name="Path 1014" d="M2898.577,1498.2a4.322,4.322,0,1,1-4.322-4.322A4.322,4.322,0,0,1,2898.577,1498.2Z" transform="translate(-2852.493 -1482.853)" fill="#b7d972"/>
          <path id="Path_1015" data-name="Path 1015" d="M2911.9,1514.1a1.748,1.748,0,1,1-1.748-1.748A1.748,1.748,0,0,1,2911.9,1514.1Z" transform="translate(-2868.388 -1498.748)" fill="#edfdfc"/>
          <g id="Group_386" data-name="Group 386" transform="translate(2.228 2.161)">
            <path id="Path_1016" data-name="Path 1016" d="M2637.642,1432.588l-.365-.621c.119-.07,2.94-1.715,4.594-1.715v.72C2640.412,1430.972,2637.669,1432.572,2637.642,1432.588Z" transform="translate(-2637.277 -1430.252)" fill="#b7d972"/>
          </g>
          <g id="Group_387" data-name="Group 387" transform="translate(77.633 1.423)">
            <path id="Path_1017" data-name="Path 1017" d="M3182.877,1428.156c-.028-.025-2.816-2.483-4.565-2.483v-.72c2.022,0,4.921,2.556,5.043,2.665Z" transform="translate(-3178.312 -1424.953)" fill="#f7cc7f"/>
          </g>
          <path id="Path_1018" data-name="Path 1018" d="M3199.6,1434.181a2.228,2.228,0,1,1-2.228-2.228A2.228,2.228,0,0,1,3199.6,1434.181Z" transform="translate(-3115.164 -1429.555)" fill="#fae0b2"/>
          <path id="Path_1019" data-name="Path 1019" d="M2625.748,1434.181a2.228,2.228,0,1,1-2.228-2.228A2.228,2.228,0,0,1,2625.748,1434.181Z" transform="translate(-2621.292 -1429.555)" fill="#b7d972"/>
        </g>
      </g>
    </g>
    <g id="Group_396" data-name="Group 396" transform="translate(1501.329 553.111)">
      <g id="Group_395" data-name="Group 395" transform="translate(0 0)">
        <g id="Group_392" data-name="Group 392" transform="translate(8.437 18.338)">
          <path id="Path_1020" data-name="Path 1020" d="M3198.808,1702.577a25.338,25.338,0,0,0-.046,4.083c.107.536.706,1.64.432,2.145a1.37,1.37,0,0,1-.589.631l-7.117.113c-.388.006-.132-.239.181-.465a14.43,14.43,0,0,1,2.559-1.392c.106-.051.495-.293.635-.377a4.893,4.893,0,0,0,1.018-.885c.511-.56.556-3.273.556-3.273Z" transform="translate(-3183.085 -1618.026)" fill="#f7a491"/>
          <path id="Path_1021" data-name="Path 1021" d="M3189.59,1403.927s-3.059-1.508-2.471,1.772,5.071,40.166,5.071,40.166l4.2.233s.536-12.3.419-14.064a32.207,32.207,0,0,0-.813-4.5l-.356-10.91-3.961-13.47Z" transform="translate(-3179.429 -1360.335)" fill="url(#linear-gradient-52)"/>
          <path id="Path_1022" data-name="Path 1022" d="M3191.7,1735.589a6.547,6.547,0,0,0,4.052-.156,3.17,3.17,0,0,1,.325,1.666c-.173.5-.4.716-.615.721-1.719.044-6.319,0-7.629.013a.21.21,0,0,1-.167-.346A34.725,34.725,0,0,1,3191.7,1735.589Z" transform="translate(-3179.919 -1646.303)" fill="url(#linear-gradient-36)"/>
          <path id="Path_1023" data-name="Path 1023" d="M3141.733,1117.345s-2.587-4.977-2.988-6.8-1.791-11.028-1.674-11.62,2.314-2.018,2.043-2.522-2.364-.5-2.844-.461a4.339,4.339,0,0,0-1.855.662c-.412.34.464,11.366.725,13.74s3.475,9.684,3.475,9.684Z" transform="translate(-3134.044 -1095.921)" fill="#f7a491"/>
          <g id="Group_391" data-name="Group 391" transform="translate(3.977 13.669)">
            <path id="Path_1024" data-name="Path 1024" d="M3332.179,1495.7a25.355,25.355,0,0,0,2.608-3.141c.254-.484.485-1.719,1.016-1.937a1.368,1.368,0,0,1,.854-.119l5.6,4.4c.3.24-.049.269-.434.247a14.434,14.434,0,0,1-2.865-.531c-.115-.028-.569-.084-.731-.107a4.907,4.907,0,0,0-1.348.045c-.749.113-2.494,2.192-2.494,2.192Z" transform="translate(-3308.314 -1449.157)" fill="#f7a491"/>
            <path id="Path_1025" data-name="Path 1025" d="M3355.528,1493.772a6.546,6.546,0,0,0-3.245-2.431c.2-.561.411-1.294.776-1.52.446-.276.754-.219.927-.086,1.363,1.049,4.931,3.918,5.96,4.731a.21.21,0,0,1-.089.374A34.723,34.723,0,0,1,3355.528,1493.772Z" transform="translate(-3325.616 -1448.422)" fill="url(#linear-gradient-36)"/>
            <path id="Path_1026" data-name="Path 1026" d="M3215.437,1200.235a6.235,6.235,0,0,0-7.121-3.577,6.553,6.553,0,0,0-4.249-2.585c-3.246-.46-7.434,1.115-7.007,4.5-1.026,2.37-.774,5.636,1.274,7.237-.376,3.115,2.747,5.879,6.444,5.506a6.7,6.7,0,0,0,6.492,2.788,14.564,14.564,0,0,1,1.614-.3c-.19-.021,4.217,2.864,7.255-2.274C3223.24,1206.292,3220.186,1200.432,3215.437,1200.235Z" transform="translate(-3191.521 -1193.995)" fill="#473b1e"/>
            <path id="Path_1027" data-name="Path 1027" d="M3196.474,1400.363s6.86-3.05,6.968-2.7c.86,2.77,3.537,1.877,5.125,6.756.666,2.043,1.348,15.636,1.348,15.636s2.706-2.245,6.572-6.168c.3-.3,3.2,2.463,3.2,2.463-7.674,10.368-10.984,10.909-12.265,10.328-2.673-1.212-8.313-18.162-8.3-18.16C3198.445,1407.2,3196.474,1400.363,3196.474,1400.363Z" transform="translate(-3191.522 -1369.251)" fill="url(#linear-gradient-55)"/>
            <path id="Path_1028" data-name="Path 1028" d="M3278.084,1260.527s9.917-.012,12.04-.135c1.922-.111,9.543.083,9.841.049s2.268-3.371,2.6-3.013-1.1,1.654-.656,1.991,5.17-.417,5.108-.067c-.117.654-2.877.571-2.874.887s2.888-.177,3.084.347-2.776.214-2.894.448,2.756.662,2.462,1.15c-.16.265-2.547-.443-2.535-.082s1.753,1.183,1.54,1.47-1.367-.883-2.377-.9-1.734-.542-3.347-.1c-.8.218-6.877.962-12.015,1.4-5.267.45-9.585.593-9.585.593Z" transform="translate(-3261.758 -1248.564)" fill="#f7a491"/>
            <path id="Path_1029" data-name="Path 1029" d="M3162.567,1252.836a12.606,12.606,0,0,1,.254-3.347c-.482-1.654-1.506-5.182-1.875-5.876,0,0,1.727-3.318,3.494-3.3,0,0,1.8,4.069,3.2,4.8a3.458,3.458,0,0,0,.7.21c1.347-.01,6.056-.152,6.935-.168l-.494,6.68c-3.412,6.688-2.488,10.2-1.19,11.5.61.611-8.514,3.089-8.935,2.224C3164.163,1264.537,3162.833,1256.055,3162.567,1252.836Z" transform="translate(-3160.946 -1233.862)" fill="#edfdfc"/>
            <path id="Path_1030" data-name="Path 1030" d="M3246.609,1275.243c.868-.415,7.154-.207,7.154-.207s.878,4.377.169,5.429c0,0-5.62.836-5.46,1.3Z" transform="translate(-3234.67 -1263.696)" fill="#edfdfc"/>
            <path id="Path_1031" data-name="Path 1031" d="M3209.219,1248.783a32.57,32.57,0,0,0,0,3.381,3.479,3.479,0,0,1-3.127,3.366c-2.107.04-.309-2.236-.125-3.215s.406-4.808.406-4.808Z" transform="translate(-3198.928 -1240.049)" fill="#f7a491"/>
            <path id="Path_1032" data-name="Path 1032" d="M3213.605,1247.507s-.052.889-.125,1.92a2.451,2.451,0,0,0,2.928.715c.013-.739.042-1.359.042-1.359Z" transform="translate(-3206.158 -1240.049)" fill="#f47458"/>
            <path id="Path_1033" data-name="Path 1033" d="M3211.441,1205.122a3.5,3.5,0,0,1,1.862,1.55c.67,1.194.952,4.591-1.621,5.991s-4.337-.953-4.219-3.12S3208.243,1204.518,3211.441,1205.122Z" transform="translate(-3200.975 -1203.501)" fill="#f7a491"/>
            <path id="Path_1034" data-name="Path 1034" d="M3203.277,1224.963c.174.537.569.89.882.788s.425-.619.251-1.156-.57-.89-.882-.788S3203.1,1224.426,3203.277,1224.963Z" transform="translate(-3197.307 -1219.637)" fill="#f7a491"/>
            <path id="Path_1035" data-name="Path 1035" d="M3233.465,1204.94s1.307,3.572,2.643,3.975,1.2,2.146,1.2,2.146.247-4.029-.961-5.041A5.365,5.365,0,0,0,3233.465,1204.94Z" transform="translate(-3223.358 -1203.415)" fill="#473b1e"/>
            <path id="Path_1036" data-name="Path 1036" d="M3247.54,1233.636c-.218.551-.092,1.116.28,1.263s.85-.18,1.068-.731.092-1.116-.28-1.263S3247.757,1233.086,3247.54,1233.636Z" transform="translate(-3235.379 -1227.452)" fill="#f7a491"/>
          </g>
          <path id="Path_1037" data-name="Path 1037" d="M3132.41,1101.333s2.906.127,3.247.127,1.334-1.026,1.334-1.026Z" transform="translate(-3132.41 -1099.805)" fill="#f47458"/>
        </g>
        <g id="Group_394" data-name="Group 394">
          <path id="Path_1038" data-name="Path 1038" d="M3090.053,968.6a10,10,0,1,1-13.924-2.44A10,10,0,0,1,3090.053,968.6Z" transform="translate(-3071.875 -964.344)" fill="#edfdfc"/>
          <path id="Path_1039" data-name="Path 1039" d="M3098.668,979.452a8.388,8.388,0,1,1-11.684-2.047A8.388,8.388,0,0,1,3098.668,979.452Z" transform="translate(-3081.805 -974.274)" fill="url(#linear-gradient-8)"/>
          <g id="Group_393" data-name="Group 393" transform="translate(6.451 3.89)">
            <path id="Path_1040" data-name="Path 1040" d="M3122.678,1004.261l-.365-1.352a6.8,6.8,0,0,1-1.786.157.853.853,0,0,1-.808-.84v-.054a.851.851,0,0,1,.9-.862,4.968,4.968,0,0,0,1.615-.151c.811-.219,1.281-.682,1.127-1.252-.146-.541-.694-.759-1.843-.83-1.661-.1-2.892-.531-3.265-1.911a2.724,2.724,0,0,1,1.72-3.183l-.366-1.352,1.395-.377.339,1.252a6.285,6.285,0,0,1,1.349-.164.851.851,0,0,1,.851.841h0a.851.851,0,0,1-.869.863,4.528,4.528,0,0,0-1.3.161c-.925.25-1.116.729-1.008,1.128.127.47.706.634,2.038.762,1.855.14,2.75.738,3.1,2.018a2.824,2.824,0,0,1-1.821,3.317l.393,1.451Z" transform="translate(-3118.164 -992.254)" fill="#edfdfc"/>
          </g>
        </g>
      </g>
      <path id="Path_1041" data-name="Path 1041" d="M3155.7,1095.947l1.2-1.078s-.566-.677-.331-.807c.383-.211,1.038.606.979.8a4.694,4.694,0,0,1-.762.839Z" transform="translate(-3144.021 -1075.953)" fill="#f7a491"/>
    </g>
    <path id="Path_1042" data-name="Path 1042" d="M2757.763,1184.686l.526,2.03,2.1.382.428,2.317,2.365-.285.6,2.6,2.21.006.985,2.405-.91.376-.737-1.8-2.332-.007-.576-2.5-2.405.29-.472-2.557-2.052-.373-.487-1.881-1.4.037-.024-.984Z" transform="translate(-1298.336 -600.866)" fill="url(#linear-gradient-2)"/>
    <path id="Path_1043" data-name="Path 1043" d="M2884.1,621.062l1.989.662,1.463-1.556,2.178.9,1.047-2.14,2.507.909,1.207-1.851,2.554.48-.179.968-1.91-.359-1.273,1.953-2.41-.874-1.064,2.176-2.4-.994-1.428,1.52-1.844-.614-.729,1.2-.839-.515Z" transform="translate(-1407.964 -113.148)" fill="url(#linear-gradient-58)"/>
    <path id="Path_1044" data-name="Path 1044" d="M2370.116,596.075l.225-2.441-1.771-.4.138-2.416-1.654-.645-.129-1.827-.729.091.173,2.444,1.567.611-.144,2.513,1.741.39-.2,2.212Z" transform="translate(-963.22 -87.642)" fill="url(#linear-gradient-59)"/>
    <g id="Group_397" data-name="Group 397" transform="translate(1308.926 633.02)">
      <path id="Path_1045" data-name="Path 1045" d="M1696.582,1555.127l-5.207-9.227,1.18-.666,3.878,6.872,6.359-14.409,1.24.547Z" transform="translate(-1691.375 -1537.697)" fill="url(#linear-gradient-36)"/>
    </g>
    <g id="Group_398" data-name="Group 398" transform="translate(1361.317 513.166)">
      <path id="Path_1046" data-name="Path 1046" d="M2071.455,684.571l-4.17-3.169.436-.573,3.568,2.711,3.983-5.8.594.408Z" transform="translate(-2067.285 -677.741)" fill="url(#linear-gradient-61)"/>
    </g>
  </g>
</svg>
