<?xml version="1.0" encoding="utf-8"?>
<!-- Generator: Adobe Illustrator 25.2.1, SVG Export Plug-In . SVG Version: 6.00 Build 0)  -->
<svg version="1.1" id="Layer_1" xmlns="http://www.w3.org/2000/svg" xmlns:xlink="http://www.w3.org/1999/xlink" x="0px" y="0px"
	 viewBox="0 0 66.2 66.2" style="enable-background:new 0 0 66.2 66.2;" xml:space="preserve">
<style type="text/css">
	.st0{fill:#3333FF;}
</style>
<g id="pPiLnl.tif">
	<g>
		<path class="st0" d="M8.4,61.2c-2.1,0-3.9-1.4-4.6-3.4c-0.1-0.2-0.1-0.5-0.2-0.7c0-1,0-2,0-3.1c0.2-0.6,0.6-1.1,1.3-1.3
			c0.2-0.1,0.3-0.2,0.3-0.4c0-0.2,0-0.4,0-0.6c0-9.4,0-18.7,0-28.1c0-2.4,1.4-4.3,3.5-4.9c0.4-0.1,0.9-0.2,1.3-0.2
			c1.6,0,3.3,0,4.9,0c0.8,0,1.2,0.4,1.2,1c0,0.7-0.5,1.1-1.3,1.1c-1.6,0-3.1,0-4.7,0c-1.7,0-2.8,1.1-2.9,2.8c0,0.2,0,0.4,0,0.6
			c0,9.3,0,18.6,0,27.9c0,0.8,0,0.8,0.8,0.8c16.5,0,33,0,49.5,0c0.6,0,0.7-0.2,0.7-0.7c0-9.4,0-18.8,0-28.1c0-2-1.4-3.3-3.2-3.2
			c-0.8,0.1-1.6,0-2.3,0c-0.8,0-1.2-0.4-1.2-1.1c0-0.6,0.4-1,1.2-1c1.2,0,2.3-0.1,3.5,0.1c2.5,0.4,4.2,2.4,4.2,5c0,8,0,16,0,24
			c0,1.5,0,3,0,4.5c0,0.4,0.1,0.6,0.5,0.8c0.7,0.2,1.1,0.8,1.1,1.5c0,1,0.1,2-0.1,3c-0.4,2.3-2.4,4-4.7,4 M32.8,54.7
			c-8.5,0-17,0-25.5,0c-0.5,0-1.1-0.2-1.4,0.1c-0.3,0.3-0.1,1-0.1,1.5c0,1.6,1.2,2.8,2.8,2.8c2,0,4,0,5.9,0c14.1,0,28.3,0,42.5,0
			c1.5,0,2.7-0.9,2.9-2.4c0.1-0.5,0-0.9,0-1.4c0.1-0.6-0.2-0.7-0.7-0.7C50.4,54.7,41.6,54.7,32.8,54.7z"/>
		<path class="st0" d="M46,4.2c0.3,0.1,0.7,0.2,1,0.4c1.7,0.8,2.5,2.2,2.5,4.1c0,5.5,0,11,0,16.4c0,4.5,0,9,0,13.5
			c0,2.3-1.7,4.6-4.6,4.5c-7.4,0-14.8,0-22.1,0c-2.9,0-4.6-2.3-4.6-4.5c0-10,0-19.9,0-29.9c0-2.2,1.1-3.8,3.3-4.4
			c0,0,0.1-0.1,0.1-0.1C29.8,4.2,37.8,4.2,46,4.2z M47.3,23.6c0-5,0-10,0-14.9c0-1.5-0.9-2.4-2.4-2.4c-7.4,0-14.8,0-22.2,0
			c-1.6,0-2.5,0.8-2.5,2.4c0,9.9,0,19.9,0,29.8c0,1.6,0.9,2.5,2.5,2.5c7.3,0,14.6,0,22,0c1.4,0,2.6-0.8,2.6-2.6
			C47.3,33.5,47.3,28.6,47.3,23.6z"/>
		<path class="st0" d="M32.8,49.5c-6.4,0-12.8,0-19.2,0c-1.9,0-3.2-1-3.7-2.6c-0.1-0.4-0.1-0.8-0.1-1.2c0-6.7,0-13.4,0-20.1
			c0-1,0.4-1.5,1.1-1.5c0.7,0,1,0.5,1,1.5c0,6.6,0,13.3,0,19.9c0,1.5,0.4,2,1.9,2c12.6,0,25.3,0,37.9,0c0.2,0,0.4,0,0.6,0
			c0.8-0.1,1.2-0.6,1.3-1.4c0-0.5,0-1,0-1.5c0-6.3,0-12.5,0-18.8c0-0.3,0-0.5,0-0.8c0.1-0.5,0.5-0.9,1-0.9c0.5,0,0.9,0.4,1,0.8
			c0,0.2,0,0.5,0,0.7c0,6.7,0,13.4,0,20c0,2.5-1.4,3.9-3.9,3.9C45.5,49.5,39.2,49.5,32.8,49.5z"/>
		<path class="st0" d="M25.7,18.3c0-0.5,0.1-1,0-1.4c-0.2-0.4-0.8-0.1-1.2-0.2c-1-0.2-1.8-1-1.8-2c0-1,0-1.9,0-2.9
			c0-1.5,0.9-2.3,2.4-2.3c0.4,0,0.7-0.1,1-0.5c0.4-0.7,1.4-0.6,1.7,0.1c0.2,0.4,0.4,0.4,0.8,0.4c2.3,0,2.8,1.8,2.4,3.6
			c-0.1,0.5-0.5,0.7-1,0.7c-0.5,0-0.8-0.3-1-0.8c-0.1-0.3-0.1-0.6-0.1-0.9c0-0.4-0.1-0.6-0.5-0.6c-0.5,0-0.5,0.2-0.5,0.6
			c0,0.7,0,1.4,0,2.2c0,0.3,0.1,0.4,0.4,0.4c0.3,0,0.6,0,1,0c1,0.2,1.7,1,1.8,2.1c0,1,0,1.9,0,2.9c-0.1,1.4-0.9,2.2-2.4,2.2
			c-0.4,0-0.7,0-0.9,0.5c-0.4,0.7-1.4,0.7-1.8-0.1c-0.2-0.4-0.4-0.4-0.7-0.4c-2.3,0.1-2.8-1.7-2.5-3.5c0.1-0.5,0.5-0.7,1-0.7
			s0.8,0.2,1,0.7c0.1,0.3,0.1,0.6,0.1,0.9c0,0.4,0.2,0.5,0.5,0.5s0.5-0.1,0.5-0.5C25.7,19,25.7,18.6,25.7,18.3
			C25.7,18.3,25.7,18.3,25.7,18.3z M25.7,13.1c0-0.4,0-0.8,0-1.2c0-0.4-0.2-0.4-0.5-0.4s-0.6,0-0.6,0.4c0,0.8,0,1.6,0,2.3
			c0,0.2,0.1,0.4,0.4,0.4c0.5,0,0.8-0.1,0.7-0.6C25.7,13.8,25.7,13.4,25.7,13.1z M27.8,18.3c0,0.3,0,0.7,0,1c0,0.3,0,0.6,0.5,0.6
			c0.5,0,0.6-0.2,0.6-0.6c0-0.7,0-1.3,0-2c0-0.5-0.2-0.5-0.6-0.5c-0.5,0-0.5,0.2-0.5,0.5C27.9,17.6,27.8,18,27.8,18.3z"/>
		<path class="st0" d="M45.1,30.5c0,0.4-0.2,0.6-0.5,0.9c-1.2,1.1-2.5,2.2-3.8,3.3c-1.2,1-2.4,2.1-3.6,3.1c-0.6,0.5-1.2,0.5-1.7,0
			c-0.4-0.5-0.3-1.1,0.2-1.6c2.5-2.2,4.9-4.3,7.4-6.5c0.4-0.3,0.8-0.5,1.3-0.2C44.9,29.6,45.1,30,45.1,30.5z"/>
		<path class="st0" d="M34.3,30.8c0-1.6,1.3-2.9,2.9-2.9c1.5,0,2.8,1.3,2.8,2.9c0,1.5-1.3,2.8-2.8,2.8
			C35.6,33.7,34.3,32.3,34.3,30.8z M37.9,30.9c0-0.4-0.3-0.7-0.7-0.8c-0.4,0-0.8,0.3-0.8,0.7c0,0.4,0.3,0.8,0.7,0.8
			C37.6,31.5,37.8,31.3,37.9,30.9z"/>
		<path class="st0" d="M45.5,37.1c0,1.6-1.2,2.8-2.8,2.8c-1.6,0-2.9-1.2-2.9-2.8c0-1.6,1.3-2.8,2.9-2.8
			C44.3,34.3,45.5,35.5,45.5,37.1z M42.6,37.8c0.5,0,0.8-0.3,0.8-0.7c0-0.5-0.2-0.7-0.7-0.7c-0.4,0-0.8,0.3-0.8,0.7
			C42,37.6,42.3,37.8,42.6,37.8z"/>
		<path class="st0" d="M27.5,36.9c-1.4,0-2.9,0-4.3,0c-0.8,0-1.2-0.3-1.3-0.9c-0.1-0.7,0.4-1.2,1.2-1.2c2,0,4,0,5.9,0
			c0.9,0,1.8,0,2.7,0c0.9,0,1.5,0.5,1.4,1.2c-0.1,0.6-0.5,0.9-1.2,0.9C30.5,36.9,29,36.9,27.5,36.9L27.5,36.9z"/>
		<path class="st0" d="M27.6,27.1c1.4,0,2.9,0,4.3,0c0.8,0,1.3,0.4,1.3,1.1c0,0.6-0.5,1-1.3,1c-2.9,0-5.8,0-8.7,0
			c-0.8,0-1.3-0.4-1.2-1.1c0-0.6,0.5-1,1.2-1C24.6,27.1,26.1,27.1,27.6,27.1z"/>
		<path class="st0" d="M27.6,31c1.4,0,2.9,0,4.3,0c0.8,0,1.2,0.4,1.2,1c0,0.7-0.5,1.2-1.3,1.1c-2.9,0-5.9,0-8.8,0
			c-0.7,0-1.2-0.4-1.2-1c0-0.6,0.4-1,1.1-1C24.6,31,26.1,31,27.6,31z"/>
		<path class="st0" d="M39.2,14c-1.3,0-2.7,0-4,0c-0.7,0-1.2-0.4-1.2-1c0-0.6,0.4-1.1,1.2-1.1c2.7,0,5.4,0,8,0
			c0.7,0,1.2,0.4,1.2,1.1c0,0.6-0.4,1-1.2,1C41.9,14,40.6,14,39.2,14z"/>
		<path class="st0" d="M39.2,17.7c-1.3,0-2.7,0-4,0c-0.7,0-1.2-0.4-1.2-1c0-0.6,0.4-1.1,1.2-1.1c2.7,0,5.4,0,8,0
			c0.7,0,1.2,0.4,1.1,1.1c0,0.6-0.4,1-1.2,1C41.9,17.7,40.5,17.7,39.2,17.7z"/>
		<path class="st0" d="M39.2,21.4c-1.3,0-2.6,0-3.9,0c-0.8,0-1.2-0.4-1.2-1c0-0.6,0.4-1.1,1.2-1.1c2.6,0,5.3,0,7.9,0
			c0.8,0,1.2,0.4,1.2,1.1c0,0.7-0.4,1-1.2,1C41.8,21.4,40.5,21.4,39.2,21.4z"/>
	</g>
</g>
</svg>
