<?xml version="1.0" encoding="utf-8"?>
<!-- Generator: Adobe Illustrator 25.2.1, SVG Export Plug-In . SVG Version: 6.00 Build 0)  -->
<svg version="1.1" id="Layer_1" xmlns="http://www.w3.org/2000/svg" xmlns:xlink="http://www.w3.org/1999/xlink" x="0px" y="0px"
	 viewBox="0 0 66.2 66.2" style="enable-background:new 0 0 66.2 66.2;" xml:space="preserve">
<style type="text/css">
	.st0{fill:#3333FF;}
</style>
<g id="_x32_HaBaO.tif">
	<g>
		<path class="st0" d="M27.4,20.6c5.8,0,11.6,0,17.4,0c2,0,2.5,0.5,2.5,2.5c0,1,0,2,0,3c0,0.6,0.2,0.9,0.8,0.4
			c3.5-2.6,7-5.2,10.4-7.8c0.5-0.4,0.4-0.6,0-0.9c-3.5-2.6-7-5.2-10.4-7.8c-0.6-0.5-0.8-0.1-0.8,0.5c0,1.1,0,2.2,0,3.3
			c0,1.5-0.6,2.1-2.1,2.1c-8.3,0-16.6,0-25,0c-1.3,0-2-0.5-2-1.5c0-1,0.7-1.5,2.1-1.5c7.1,0,14.2,0,21.3,0c0.5,0,1,0,1.5,0
			c1,0.1,1.3-0.4,1.3-1.3c0-1.5,0-3,0-4.6c0-0.7,0.2-1.4,0.8-1.8c0.7-0.4,1.3,0,1.9,0.4c5,3.7,9.9,7.4,14.9,11.1
			c1.5,1.1,1.5,2,0,3.1c-4.9,3.7-9.8,7.4-14.8,11.1c-0.6,0.4-1.1,0.9-1.9,0.5c-0.8-0.4-0.9-1.1-0.9-1.9c0-1.5,0-3,0-4.6
			c0-0.9-0.2-1.3-1.2-1.3c-10.5,0-21,0-31.5,0c-0.9,0-1.2,0.4-1.2,1.2c0,5,0,9.9,0,14.9c0,0.5,0.1,1-0.2,1.4
			c-0.3,0.5-0.8,0.7-1.3,0.7c-0.6-0.1-1.1-0.4-1.2-1c-0.1-0.4-0.1-0.9-0.1-1.3c0-5.5,0-10.9,0-16.4c0-2.1,0.4-2.5,2.5-2.5
			C15.9,20.6,21.6,20.6,27.4,20.6z"/>
		<path class="st0" d="M40.4,47.2c-5.7,0-11.5,0-17.2,0c-2.1,0-2.5-0.4-2.6-2.5c0-1,0-2,0-3c0-0.7-0.3-0.8-0.8-0.4
			c-3.4,2.6-6.9,5.2-10.3,7.8c-0.5,0.3-0.6,0.6,0,1c3.4,2.6,6.9,5.2,10.3,7.8c0.6,0.5,0.8,0.2,0.8-0.5c0-1.2,0-2.3,0-3.4
			c0-1.3,0.6-1.9,1.9-1.9c8.5,0,16.9,0,25.3,0c1,0,1.8,0.3,1.9,1.5c0,0.9-0.7,1.5-2,1.5c-7.4,0-14.8,0-22.1,0c-2,0-2,0-2,2
			c0,1.3,0,2.7,0,4.1c0,0.7-0.2,1.3-0.9,1.6c-0.7,0.4-1.3,0-1.8-0.4c-5-3.8-10-7.5-15.1-11.3c-1.3-1-1.3-1.9,0-2.9
			c5-3.8,10-7.5,15.1-11.3c0.5-0.4,1.1-0.7,1.8-0.4c0.7,0.3,0.9,1,0.9,1.6c0,1.6,0.1,3.1,0,4.7c0,1,0.3,1.4,1.4,1.3
			c10.4,0,20.8,0,31.3,0c1,0,1.3-0.3,1.3-1.3c0-5,0-9.9,0-14.9c0-0.6-0.1-1.2,0.4-1.6c0.7-0.8,2-0.5,2.4,0.5
			c0.1,0.3,0.1,0.7,0.1,1.1c0,5.7,0,11.3,0,17c0,1.7-0.5,2.2-2.2,2.2C52.2,47.2,46.3,47.2,40.4,47.2z"/>
		<path class="st0" d="M35,30.1c-0.7,0-1.5,0-2.2,0c-0.8,0-1.4,0-1.4,1.1c0,1,0.4,1.3,1.3,1.3c1.5,0,3,0,4.5,0c1.5,0,2,0.6,2,2
			c0,1.4,0,2.8,0,4.2c0,1.5-0.6,2-2,2c-1.1,0-2,0-2,1.5c0,0.7-0.7,1.1-1.4,1.1c-0.8,0-1.3-0.6-1.4-1.3c0-1.1-0.6-1.4-1.6-1.3
			c-0.2,0-0.5,0-0.7,0c-1,0-1.6-0.5-1.6-1.5c0-0.9,0.7-1.4,1.6-1.4c1.6,0,3.3,0,4.9,0c0.8,0,1.3-0.2,1.3-1.1c0-0.9-0.3-1.2-1.2-1.2
			c-1.5,0-3,0-4.5,0c-1.5,0-2.1-0.6-2.1-2.1c0-1.4,0-2.7,0-4.1c0-1.5,0.5-2.1,2.1-2c1.1,0,1.9,0,1.9-1.5c0-0.7,0.6-1.2,1.4-1.2
			c0.8,0,1.4,0.5,1.4,1.3c0,1.4,0.8,1.4,1.8,1.3c0.3,0,0.7,0,1,0c0.7,0.2,1.2,0.6,1.2,1.4c0,0.8-0.5,1.3-1.3,1.4
			C37,30.1,36,30,35,30.1C35,30.1,35,30.1,35,30.1z"/>
	</g>
</g>
</svg>
