<?xml version="1.0" encoding="utf-8"?>
<!-- Generator: Adobe Illustrator 25.2.1, SVG Export Plug-In . SVG Version: 6.00 Build 0)  -->
<svg version="1.1" id="Layer_1" xmlns="http://www.w3.org/2000/svg" xmlns:xlink="http://www.w3.org/1999/xlink" x="0px" y="0px"
	 viewBox="0 0 37.35 37.35" style="enable-background:new 0 0 37.35 37.35;" xml:space="preserve">
<style type="text/css">
	.st0{opacity:0.643;fill:#EBEDED;enable-background:new    ;}
	.st1{fill:#FFFFFF;}
	.st2{fill:url(#Path_53_1_);}
</style>
<g id="Group_30" transform="translate(-29 -723)">
	<circle id="Ellipse_12" class="st0" cx="47.38" cy="741.67" r="17"/>
	<circle id="Ellipse_13" class="st1" cx="47.38" cy="741.67" r="13"/>
	<g id="wSaooQ.tif" transform="translate(-162.564 380.579)">
		<g id="Group_18" transform="translate(200.564 351.921)">
			
				<linearGradient id="Path_53_1_" gradientUnits="userSpaceOnUse" x1="-512.398" y1="522.1275" x2="-511.398" y2="522.1275" gradientTransform="matrix(16.9967 0 0 -13.7219 8710.4736 7173.1118)">
				<stop  offset="0" style="stop-color:#F8192E"/>
				<stop  offset="0.148" style="stop-color:#FA3133"/>
				<stop  offset="0.338" style="stop-color:#FC4A39"/>
				<stop  offset="0.538" style="stop-color:#FD5C3D"/>
				<stop  offset="0.751" style="stop-color:#FE6640"/>
				<stop  offset="1" style="stop-color:#FF6A41"/>
			</linearGradient>
			<path id="Path_53" class="st2" d="M11.47,15.39c-0.52-0.13-0.77-0.37-0.81-0.79c-0.03-0.29,0.09-0.57,0.3-0.76
				c1.41-1.41,2.83-2.82,4.24-4.24c0.05-0.05,0.1-0.1,0.16-0.17c-0.08-0.04-0.17-0.05-0.26-0.03H2.48c-0.13,0-0.26-0.01-0.4-0.03
				C1.61,9.28,1.31,8.83,1.4,8.36c0.07-0.34,0.33-0.61,0.68-0.68c0.13-0.03,0.26-0.04,0.4-0.03h12.87c-0.01-0.1-0.09-0.14-0.14-0.2
				c-1.42-1.42-2.84-2.84-4.26-4.27c-0.36-0.32-0.39-0.86-0.08-1.22c0.32-0.36,0.86-0.39,1.22-0.08c0.07,0.06,0.13,0.13,0.2,0.19
				c1.89,1.89,3.79,3.79,5.69,5.68c0.19,0.17,0.33,0.4,0.41,0.64v0.24c-0.07,0.25-0.21,0.47-0.41,0.64c-1.9,1.9-3.8,3.8-5.7,5.7
				c-0.18,0.2-0.42,0.35-0.68,0.41L11.47,15.39z"/>
		</g>
	</g>
</g>
</svg>
