<?xml version="1.0" encoding="utf-8"?>
<!-- Generator: Adobe Illustrator 25.2.1, SVG Export Plug-In . SVG Version: 6.00 Build 0)  -->
<svg version="1.1" id="Layer_1" xmlns="http://www.w3.org/2000/svg" xmlns:xlink="http://www.w3.org/1999/xlink" x="0px" y="0px"
	 viewBox="0 0 37.35 37.35" style="enable-background:new 0 0 37.35 37.35;" xml:space="preserve">
<style type="text/css">
	.st0{opacity:0.643;fill:#EBEDED;enable-background:new    ;}
	.st1{fill:#FFFFFF;}
	.st2{fill:#22D3C4;}
</style>
<g id="Group_31" transform="translate(-29 -778)">
	<circle id="Ellipse_14" class="st0" cx="47.88" cy="796.67" r="17"/>
	<circle id="Ellipse_15" class="st1" cx="47.88" cy="796.67" r="13"/>
	<g id="wSaooQ.tif" transform="translate(255.558 1153.14) rotate(180)">
		<g id="Group_18" transform="translate(200.564 351.921)">
			<path id="Path_53" class="st2" d="M8.2,12.04c-0.52-0.13-0.77-0.37-0.81-0.79c-0.03-0.29,0.09-0.57,0.3-0.76
				c1.41-1.41,2.83-2.82,4.24-4.24c0.05-0.05,0.1-0.1,0.16-0.17c-0.08-0.04-0.17-0.05-0.26-0.03H-0.79c-0.13,0-0.26-0.01-0.4-0.03
				c-0.47-0.09-0.77-0.54-0.68-1.01C-1.8,4.67-1.53,4.4-1.19,4.33C-1.06,4.31-0.93,4.3-0.8,4.3h12.87c-0.01-0.1-0.09-0.14-0.14-0.2
				C10.52,2.68,9.1,1.26,7.67-0.16C7.32-0.48,7.28-1.02,7.6-1.38c0.32-0.36,0.86-0.39,1.22-0.08c0.07,0.06,0.13,0.13,0.2,0.19
				c1.89,1.89,3.79,3.79,5.69,5.68c0.19,0.17,0.33,0.4,0.41,0.64v0.24c-0.07,0.25-0.21,0.47-0.41,0.64c-1.9,1.9-3.8,3.8-5.7,5.7
				c-0.18,0.2-0.42,0.35-0.68,0.41L8.2,12.04z"/>
		</g>
	</g>
</g>
</svg>
