<?xml version="1.0" standalone="no"?>
<!DOCTYPE svg PUBLIC "-//W3C//DTD SVG 20010904//EN"
 "http://www.w3.org/TR/2001/REC-SVG-20010904/DTD/svg10.dtd">
<svg version="1.0" xmlns="http://www.w3.org/2000/svg"
 width="1080.000000pt" height="1080.000000pt" viewBox="0 0 1080.000000 1080.000000"
 preserveAspectRatio="xMidYMid meet">
<metadata>
Created by potrace 1.14, written by Peter Selinger 2001-2017
</metadata>
<g transform="translate(0.000000,1080.000000) scale(0.100000,-0.100000)"
fill="#000000" stroke="none">
<path d="M4885 7730 l-359 -970 -981 0 -980 -1 -860 -2320 c-473 -1276 -861
-2327 -863 -2335 -3 -12 308 -14 2358 -12 l2362 3 358 965 358 965 980 3 980
2 10 28 c5 15 380 1024 832 2242 452 1218 837 2257 855 2308 l34 92 -2362 0
-2362 0 -360 -970z m3961 178 c-3 -13 -262 -714 -575 -1558 l-569 -1535 -567
-3 c-538 -2 -567 -1 -560 15 4 10 164 443 357 963 193 520 353 951 355 958 4
9 -190 12 -951 12 -526 0 -956 3 -956 8 0 6 369 1005 419 1135 l11 27 1521 0
1521 0 -6 -22z m-4618 -1940 c-3 -13 -99 -277 -215 -588 -294 -790 -493 -1334
-493 -1342 0 -5 435 -8 966 -8 916 0 966 -1 959 -17 -10 -25 -405 -1092 -417
-1125 l-10 -28 -1528 0 c-841 0 -1531 3 -1533 8 -2 4 256 707 574 1562 318
855 578 1556 579 1558 0 1 253 2 561 2 l561 0 -4 -22z m1942 10 c0 -7 -97
-272 -214 -588 l-214 -575 -546 -3 -546 -2 11 27 c6 16 100 269 209 563 109
294 203 547 209 563 l11 27 540 0 c425 0 540 -3 540 -12z"/>
</g>
</svg>
